<?xml version="1.0" encoding="utf-8"?>
<!-- Generator: Adobe Illustrator 22.0.1, SVG Export Plug-In . SVG Version: 6.00 Build 0)  -->
<svg version="1.1" id="Layer_1" xmlns="http://www.w3.org/2000/svg" xmlns:xlink="http://www.w3.org/1999/xlink" x="0px" y="0px"
	 viewBox="0 0 1417.3 1417.3" style="enable-background:new 0 0 1417.3 1417.3;" xml:space="preserve">
<style type="text/css">
	.st0{fill:#00408E;}
	.st1{fill:#FFFFFF;}
</style>
<rect y="0" class="st0" width="1417.3" height="1417.3"/>
<path class="st1" d="M703,714.4"/>
<g>
	<path class="st1" d="M688.8,765.8c8.4-33,6.1-66-2.3-98.6c-5.4-20.8-14.5-40-29.2-55.9c-21.3-23.1-48-28.9-77.4-20.8
		c-21,5.8-34.6,21.1-44.6,39.7c-11.7,21.8-15.1,45.5-15.1,69.8c0,35.1,2.3,31.5,5.5,46.9c3.9,19,10.9,36.9,22.5,52.7
		c22.4,30.6,62.7,39.9,95.4,24.3C668,812.4,682.2,791.7,688.8,765.8z"/>
	<path class="st1" d="M542.7,875.6c-23.8-8.3-44.8-21-62.9-38.5c-16.9-16.2-30.1-34.9-39-56.7c-10.4-25.6-13.8-52.2-12.8-79.6
		c0.9-25.2,6.1-49.5,17.6-72.1c22.2-43.6,57.7-71.8,103.7-87.2c6-2,12.1-3.5,19-5.6c-72.1,0-143.2,0-214.4,0c0.1,0.6,0.1,1,0.2,1.1
		c16.4,16.4,21.9,36.8,21.9,59.2c0.1,49.5,0.1,99,0.1,148.5c0,1-0.3,2-0.6,3.7c-0.9-1.1-1.4-1.5-1.8-2.1
		c-52.2-69-104.4-138-156.5-207c-2-2.6-4.1-3.7-7.4-3.7c-32.3,0.1-64.7,0.1-97,0.1c-1.2,0-2.3,0.2-2.6,0.2c6.6,10.3,14,20.2,19.7,31
		c7.8,14.8,8,31.5,8.1,47.8c0.2,65,0.2,130,0,195c0,17.8-2.7,35.2-11.1,51.2c-3,5.7-6.8,10.9-10.3,16.4c32.2,0,64.4,0,97.1,0
		c-9.5-10.5-16.9-21.6-19.3-35.1c-1.8-10.1-3-20.4-3.1-30.7c-0.3-46.7-0.1-93.3-0.1-140c0-3.4,0-6.7,0-11.4c1.4,1.5,2,2.1,2.4,2.6
		c28.1,37.2,56.4,74.2,84.3,111.5c18.2,24.5,36.9,48.3,61.8,66.6c25.2,18.5,52.8,31.4,83.7,36.4c10.7,1.7,21.9,0.9,32.8,1
		c31,0.1,61.9,0,92.9,0c-0.1-0.3-0.1-0.6-0.2-0.6C547.1,877.1,544.9,876.4,542.7,875.6z"/>
	<g>
		<path class="st1" d="M1034.8,845.4c6.5-22.1,13.3-44.1,20.1-66c0.4-1.3,2.6-2.7,4-2.7c32.2-0.2,64.3-0.2,96.5,0
			c1.4,0,3.7,1.8,4.1,3.2c6.4,21.4,12.8,42.8,18.8,64.3c3.8,13.6,0,25.3-9.2,35.2c-0.6,0.6-1.1,1.3-1.7,1.9l139.4-0.2
			c-1.3-1.4-2.1-2.4-2.9-3.3c-12.3-12.8-23.3-26.5-29.7-43.3c-3.8-10.1-7.5-20.2-11.2-30.3c-16.3-44.6-32.5-89.2-48.7-133.8
			c-15.7-43.2-31.5-86.4-47-129.7c-1.3-3.6-3-4.3-6.4-4.2c-33.7,0.1-67.3,0.1-101,0.1c-4.2,0-8.5,0-12.7,0c-0.2,0.4-0.4,0.8-0.6,1.1
			c0.6,0.3,1.3,0.4,1.8,0.8c15.7,12.7,20.6,27.9,13.3,47.7c-9.9,26.9-18.3,54.4-27.4,81.6c-12.3,36.8-24.7,73.6-37.1,110.4
			c-2.5,7.5-5.2,14.9-8.4,23.9c-19.1-31.1-37.4-61-55.8-91.1c1.8-0.9,2.6-1.4,3.5-1.7c15.4-6.8,29.7-15.2,41.2-27.6
			c23.6-25.6,28.9-55.3,16.5-87.4c-12.6-32.5-38.2-50.2-71.8-55.4c-18.3-2.9-37.1-3-55.7-3.1c-61.3-0.4-122.6-0.1-184-0.1
			c-8.9,0-17.8,0-26.7,0c0.8,0.9,1.7,1.2,2.6,1.5c12.9,4.7,26.4,8.3,38.6,14.4c33.3,16.6,58.2,42.1,73.6,76
			c17.2,37.8,20.6,77.6,12.9,118.1c-10.4,54.8-42.2,94.1-90.9,120c-9.3,4.9-19.3,8.6-29.4,13c67.2,0,134,0,201.5,0
			c-10.8-8.8-18-19.3-19.6-32.6c-1.2-9.7-1.6-19.6-1.7-29.4c-0.2-27.3-0.1-54.7-0.1-82c0-2.2,0-4.5,0-8c1.4,1.8,2,2.5,2.4,3.3
			c6.8,14,13.4,28.2,20.5,42.1c13.2,26.1,26.1,52.3,42.9,76.4c15.4,22,35.4,34,63.1,33.1l75.5-0.1c-0.7-0.7-1.5-1.4-2.3-2.1
			C1035,870.5,1030.7,859.3,1034.8,845.4z M1104.6,626.7c0.4-0.1,0.9-0.2,1.3-0.3c11.8,33.5,23.7,67,35.8,101.2
			c-23.4,0-46.3,0-70.3,0C1082.5,693.8,1093.6,660.3,1104.6,626.7z M853.9,703.7c-3.1,0.9-6.3,1.6-10.2,2.5c0-40.1,0-79.1,0-118.1
			c28.2-2.9,50.9,8.9,57.5,40.5C908.2,661.9,887.6,694.1,853.9,703.7z"/>
	</g>
</g>
</svg>
