<?xml version="1.0" encoding="utf-8"?>
<!-- Generator: Adobe Illustrator 22.0.1, SVG Export Plug-In . SVG Version: 6.00 Build 0)  -->
<svg version="1.1" id="Layer_1" xmlns="http://www.w3.org/2000/svg" xmlns:xlink="http://www.w3.org/1999/xlink" x="0px" y="0px"
	 viewBox="0 0 1417.3 1417.3" style="enable-background:new 0 0 1417.3 1417.3;" xml:space="preserve">
<style type="text/css">
	.st0{fill:#191919;}
	.st1{fill:#FFFFFF;}
</style>
<rect y="0" class="st0" width="1417.3" height="1417.3"/>
<path class="st1" d="M703,714.4"/>
<path class="st1" d="M837.8,882.2c-21.8-4.8-39.2-7.5-42.1-7.9c6.7-0.9,138.9-19.9,138.9-70.9c0-46.8-152-58.7-152-58.7
	s150-24.8,150-68.1c0-34.3-159.7-59.8-159.7-59.8s155.9-21.6,155.9-68.5c0-39.9-144.6-61.2-144.6-61.2s140.4-14.7,140.4-65.6
	c0-39.2-147.9-64.2-147.9-64.2s146.6-18,146.6-62.8c0-58.3-193.8-71.7-193.8-71.7l-30.2,37.4c0,0,132.6,12.1,132.6,32.9
	c0,20.8-323.7,41.8-325.9,42c-5.1,2.8-12.6,36.7-3.8,43.2c6.3,4.5,325.4,16.2,325.4,43c0,26.6-292.8,45-325.4,46.9
	c-15.5,8.7-20.3,31.1-3.8,43.2c16.6,12.2,331.8,13.5,331.8,39.5c0,26.1-313,44-325.6,44.8c-15.6,8.7-20.3,31.1-3.8,43.2
	c6.3,4.7,326.8,15.1,326.8,41.9c0,26.6-303.8,48-320.2,49c-15.5,8.7-20.3,31.1-3.8,43.2c6.3,4.6,324,5.1,324,31.8
	c0,26.6-294.2,50.3-318.5,51.8c-14.8,8.2-19.6,37.4-5.6,50.6c-18.4,9.9-28.9,21.2-28.9,33.2V1133h1.4c12.6,34.5,112.2,61.5,233,61.5
	c120.8,0,220.3-27,233-61.5l0.8-1.5V942.4v-3.6C942.8,914.7,901.1,894.1,837.8,882.2z"/>
</svg>
