<?xml version="1.0" encoding="utf-8"?>
<!-- Generator: Adobe Illustrator 22.0.1, SVG Export Plug-In . SVG Version: 6.00 Build 0)  -->
<svg version="1.1" id="Layer_1" xmlns="http://www.w3.org/2000/svg" xmlns:xlink="http://www.w3.org/1999/xlink" x="0px" y="0px"
	 viewBox="0 0 1417.3 278.9" style="enable-background:new 0 0 1417.3 278.9;" xml:space="preserve">
<style type="text/css">
	.st0{fill:#010101;stroke:#333333;stroke-width:1.2339;stroke-miterlimit:10;}
	.st1{fill:#010101;}
	.st2{enable-background:new    ;}
	.st3{fill:#010101;stroke:#333333;stroke-width:1.779;stroke-miterlimit:10;}
	.st4{fill:#010101;stroke:#333333;stroke-width:1.9405;stroke-miterlimit:10;}
	.st5{fill:#010101;stroke:#333333;stroke-width:0.9976;stroke-miterlimit:10;}
	.st6{fill:#010101;stroke:#333333;stroke-width:2.8429;stroke-miterlimit:10;}
	.st7{fill:none;stroke:#010101;stroke-width:10;stroke-linecap:round;stroke-linejoin:round;stroke-miterlimit:10;}
	.st8{fill:none;stroke:#010101;stroke-width:2.3939;stroke-linecap:round;stroke-linejoin:round;stroke-miterlimit:10;}
	.st9{fill:none;stroke:#010101;stroke-width:8;stroke-miterlimit:10;}
</style>
<path class="st0" d="M429.5,213c10,1.4,16.3,9.2,13.6,16.6c-3.1,8.3-13.4,6.6-25.5,4.5c-10-1.7-34.3-6.7-29.2-13.6
	c2.7-3.7,10-5.9,17.9-7"/>
<path class="st0" d="M-34.7,222.3L243,258c0,0,16-55.4,82-71.6L-26.4,160"/>
<g>
	<path class="st1" d="M265.9,188.9L265.9,188.9L265.9,188.9l0.1,0.2l0.5,0.5c0.3,0.3,0.7,0.7,1.1,1.1c0.8,0.7,1.6,1.5,2.5,2.2
		c0.9,0.7,1.8,1.4,2.7,2.2l2.9,2.1c4,2.7,8.3,5.2,12.8,7.4c9,4.4,18.6,7.9,28.6,10.6c19.9,5.4,41,8,62.2,8.3
		c21.2,0.2,42.6-1.9,63.6-5.8c5.2-1.1,10.5-2.1,15.7-3.5c5.2-1.4,10.4-2.7,15.5-4.3c5.1-1.6,10.2-3.3,15.2-5.2c2.5-1,5-2,7.5-3
		c2.5-1,4.9-2.1,7.4-3.2l5.6,18.4c-2.8,0.4-5.5,0.8-8.2,1.3c-2.7,0.4-5.4,0.9-8.1,1.5c-5.4,1-10.8,1.9-16.2,3
		c-2.7,0.5-5.4,1-8.1,1.5l-8.1,1.5c-2.7,0.6-5.4,1-8.1,1.5l-8.1,1.5l-16.2,2.8l-8.1,1.2c-2.7,0.4-5.4,0.9-8.1,1.2l-8.2,1
		c-1.4,0.2-2.7,0.3-4.1,0.5l-4.1,0.4c-2.7,0.3-5.5,0.6-8.2,0.8c-2.7,0.2-5.5,0.4-8.2,0.6c-2.7,0.3-5.5,0.3-8.3,0.4
		c-2.8,0.1-5.5,0.3-8.3,0.3l-8.3,0.1l-8.4-0.2c-11.1-0.4-22.3-1.5-33.5-3.5c-11.1-2-22.3-4.9-33.1-9.1c-5.4-2.1-10.8-4.4-16.1-7.3
		c-1.3-0.7-2.6-1.5-4-2.2c-1.3-0.8-2.6-1.5-3.9-2.4c-1.3-0.8-2.6-1.7-3.9-2.7c-0.7-0.5-1.3-1-2-1.5l-1-0.8l-0.6-0.5l-0.3-0.3
		l-0.5-0.4L265.9,188.9z"/>
</g>
<polygon class="st1" points="1417.3,249.9 1174,230.3 1012.3,237.9 776,224.1 772,239.5 415.7,218.5 341,209.2 263,222.3 
	44.2,171.3 -1,201.8 0,-0.7 1417.3,0 "/>
<g>
	<g class="st2">
		<g>
			<polyline class="st0" points="542.2,107.3 578.8,95.5 586.1,153.4 			"/>
		</g>
		<g>
			<polygon class="st0" points="519.8,178.8 363.4,172 355.7,119.7 512,118.8 			"/>
		</g>
		<g>
			<polyline class="st3" points="1118,156.9 991.6,151.4 980.5,75.9 1205.8,74.6 1217,161.2 1186.1,159.8 			"/>
		</g>
		<g>
			<polyline class="st0" points="1008,204.6 1013.4,246 857,239.2 855.2,226.6 			"/>
		</g>
		<g>
			<polygon class="st0" points="459.2,107.4 303,108.2 339.9,97.8 495.8,95.5 			"/>
		</g>
		<g>
			<polyline class="st0" points="884.1,137.8 921,127.4 1076.9,125.1 1040.3,136.9 959,137.4 			"/>
		</g>
		<g>
			<polygon class="st4" points="1284.5,81.2 1038.7,82.5 1096.8,66.2 1342,62.5 			"/>
		</g>
	</g>
	<g class="st2">
		<g>
			<path class="st0" d="M173.3-66.7l6.1,45.4l26.1-5.6l6.4,48.9l-25.8,6.8l8,59.3c0.2,1.6,0.5,3,0.8,4.3c0.3,1.3,0.6,2.5,1,3.5
				c0.4,1,0.8,1.9,1.2,2.7c0.5,0.8,0.9,1.4,1.5,1.9c0.5,0.5,1.1,0.9,1.7,1.2c0.6,0.3,1.3,0.5,2,0.6c0.7,0.1,1.5,0.1,2.2,0
				c0.8-0.1,1.6-0.3,2.5-0.6c0.6-0.2,1.3-0.5,1.9-0.7c0.6-0.3,1.2-0.6,1.8-0.9c0.6-0.3,1.2-0.7,1.8-1.1c0.6-0.4,1.2-0.8,1.7-1.3
				c0.6-0.5,1.1-1,1.7-1.4c0.5-0.5,1.1-1,1.6-1.5c0.5-0.5,1.1-1.1,1.6-1.6c0.5-0.6,1-1.2,1.5-1.8l6.1,46.5c-0.8,1-1.5,2.1-2.4,3.1
				c-0.8,1-1.7,2-2.6,2.9c-0.9,1-1.8,1.9-2.8,2.8c-1,0.9-2,1.8-3,2.7c-1,0.9-2.1,1.7-3.2,2.5c-1.1,0.8-2.3,1.5-3.5,2.2
				c-1.2,0.7-2.4,1.3-3.7,2c-1.3,0.6-2.6,1.2-4,1.7c-3,1.2-5.8,2-8.5,2.5c-2.7,0.5-5.4,0.7-7.9,0.5c-2.5-0.2-4.9-0.7-7.2-1.6
				c-2.3-0.9-4.4-2.1-6.5-3.7c-2.1-1.6-4-3.6-5.7-6.2c-1.7-2.5-3.3-5.5-4.7-9c-1.4-3.5-2.7-7.4-3.7-11.9c-1.1-4.4-2-9.3-2.7-14.7
				l-10.3-73.9l-14.7,3.9l-7.4-52.7l14.9-3.2l-6.5-47.1L173.3-66.7z"/>
		</g>
		<g>
			<path class="st0" d="M428.4,131.4L272,129.1c0.3,0,0.6,0,0.9,0c0.3,0,0.6-0.1,0.9-0.1c0.3,0,0.6-0.1,0.9-0.2
				c0.3-0.1,0.6-0.2,1-0.3c0.6-0.2,1.3-0.4,1.9-0.6c0.6-0.2,1.2-0.5,1.8-0.8c0.6-0.3,1.2-0.6,1.8-1c0.6-0.3,1.2-0.7,1.7-1.1
				c0.6-0.4,1.1-0.8,1.7-1.3c0.5-0.4,1.1-0.9,1.6-1.3c0.5-0.5,1.1-0.9,1.6-1.4c0.5-0.5,1-1,1.5-1.5l156.3,0.8
				c-0.5,0.6-1,1.2-1.5,1.8c-0.5,0.6-1,1.1-1.6,1.6c-0.5,0.5-1.1,1-1.6,1.5c-0.5,0.5-1.1,1-1.7,1.4c-0.6,0.5-1.2,0.9-1.7,1.3
				c-0.6,0.4-1.2,0.8-1.8,1.1c-0.6,0.3-1.2,0.6-1.8,0.9c-0.6,0.3-1.3,0.5-1.9,0.7c-0.3,0.1-0.7,0.2-1,0.3c-0.3,0.1-0.6,0.2-0.9,0.2
				c-0.3,0.1-0.6,0.1-0.9,0.1C429,131.4,428.7,131.4,428.4,131.4z"/>
		</g>
		<g>
			<path class="st0" d="M410.5,189.6l-156.4-10.1c-1.3-0.1-2.5-0.2-3.7-0.5c-1.2-0.2-2.4-0.5-3.5-0.9c-1.1-0.4-2.3-0.9-3.3-1.4
				c-1.1-0.5-2.1-1.2-3.1-1.9c-2-1.4-3.9-3.2-5.6-5.4c-1.7-2.2-3.3-4.8-4.7-7.8c-1.4-3-2.6-6.4-3.7-10.3c-1.1-3.8-1.9-8.1-2.7-12.7
				l156,3.9c0.7,5.4,1.7,10.3,2.7,14.7c1.1,4.4,2.3,8.4,3.7,11.9c1.4,3.5,3,6.5,4.7,9c1.7,2.5,3.6,4.6,5.7,6.2
				c1,0.8,2.1,1.5,3.2,2.1c1.1,0.6,2.2,1.1,3.4,1.6c1.2,0.4,2.3,0.8,3.6,1C408,189.3,409.3,189.5,410.5,189.6z"/>
		</g>
		<g>
			<path class="st0" d="M1055.7,224.1l-91.2-5.9c-0.7,0-1.5-0.1-2.2-0.3c-0.7-0.1-1.4-0.3-2.1-0.5c-0.7-0.2-1.3-0.5-1.9-0.8
				c-0.6-0.3-1.2-0.7-1.8-1.1c-1.2-0.8-2.3-1.8-3.3-3.1c-1-1.3-1.9-2.8-2.7-4.6c-0.8-1.8-1.5-3.8-2.1-6c-0.6-2.2-1.1-4.7-1.6-7.4
				l90.9,2.3c0.4,3.1,1,6,1.6,8.6c0.6,2.6,1.4,4.9,2.2,6.9c0.8,2,1.7,3.8,2.8,5.3c1,1.5,2.1,2.7,3.3,3.6c0.6,0.5,1.2,0.9,1.9,1.2
				c0.6,0.4,1.3,0.7,2,0.9c0.7,0.3,1.4,0.5,2.1,0.6C1054.2,223.9,1054.9,224,1055.7,224.1z"/>
		</g>
		<g>
			<path class="st0" d="M813.8,154.4c1.1,4.4,2.3,8.4,3.7,11.9c1.4,3.5,3,6.5,4.7,9c1.7,2.5,3.6,4.6,5.7,6.2c1,0.8,2.1,1.5,3.2,2.1
				c1.1,0.6,2.2,1.1,3.4,1.6c1.2,0.4,2.3,0.8,3.6,1c1.2,0.3,2.5,0.4,3.7,0.5l-156.4-10.1c-1.3-0.1-2.5-0.2-3.7-0.5
				c-1.2-0.2-2.4-0.5-3.5-0.9c-1.1-0.4-2.3-0.9-3.3-1.4c-1.1-0.5-2.1-1.2-3.1-1.9c-2-1.4-3.9-3.2-5.6-5.4c-1.7-2.2-3.3-4.8-4.7-7.8
				c-1.4-3-2.6-6.4-3.7-10.3c-1.1-3.8-1.9-8.1-2.7-12.7l84.8,2.1"/>
		</g>
		<g>
			<polygon class="st0" points="437.7,125.7 281.8,121.8 271.9,58.1 427.5,51.8 			"/>
		</g>
		<g>
			<polygon class="st0" points="355.7,-30.4 200.6,-10.3 242.6,-17.3 398.4,-37.7 			"/>
		</g>
		<g>
			<polygon class="st0" points="388.4,11.3 233,24.8 226.7,-15.7 381.9,-35.8 			"/>
		</g>
		<g>
			<polygon class="st0" points="589.9,15.6 434.8,28.8 449.4,25.9 604.7,12.4 			"/>
		</g>
		<g>
			<polygon class="st0" points="586.1,61.5 430.7,67.3 423.6,22 578.7,8.8 			"/>
		</g>
		<g>
			<polygon class="st0" points="662.7,22.8 506.8,37.1 532.8,31.9 688.9,17.2 			"/>
		</g>
	</g>
	<g class="st2">
		<g>
			<polygon class="st0" points="282.7,239.5 128.2,223.1 118.5,164.1 272.5,170.6 			"/>
		</g>
		<g>
			<polyline class="st0" points="716.2,216 495.8,206.7 563.5,187.7 624.9,189.3 			"/>
		</g>
		<g>
			<polyline class="st0" points="641,168 630.8,99.1 679.5,83.3 			"/>
		</g>
	</g>
	<g class="st2">
		<g>
			<path class="st0" d="M-27.1-43.5L-19,9.2l35.3-7.6l8.5,56.5L-10,67.3l10.5,68.6c0.3,1.8,0.6,3.5,1,5c0.4,1.5,0.8,2.8,1.3,4
				c0.5,1.2,1,2.2,1.7,3.1c0.6,0.9,1.3,1.6,2,2.1c0.7,0.6,1.5,1,2.3,1.3c0.8,0.3,1.7,0.5,2.7,0.6c0.9,0.1,2,0,3-0.1
				c1.1-0.2,2.2-0.4,3.4-0.8c0.9-0.3,1.7-0.6,2.6-1c0.8-0.4,1.7-0.7,2.5-1.2c0.8-0.4,1.6-0.9,2.4-1.4c0.8-0.5,1.6-1,2.3-1.6
				c0.8-0.6,1.5-1.2,2.2-1.8c0.7-0.6,1.5-1.2,2.2-1.9c0.7-0.6,1.4-1.3,2.1-2c0.7-0.7,1.4-1.4,2-2.1l8,53.5c-1,1.3-2.1,2.5-3.2,3.7
				c-1.1,1.2-2.2,2.4-3.4,3.6c-1.2,1.2-2.4,2.3-3.7,3.4c-1.3,1.1-2.6,2.2-4,3.3c-1.4,1.1-2.8,2.1-4.3,3.1c-1.5,1-3.1,1.9-4.7,2.8
				c-1.6,0.9-3.3,1.7-5,2.5c-1.7,0.8-3.5,1.6-5.3,2.3c-4,1.6-7.8,2.7-11.5,3.5c-3.7,0.8-7.3,1.2-10.7,1.1c-3.4,0-6.7-0.5-9.8-1.3
				c-3.1-0.8-6.1-2.1-8.8-3.8c-2.8-1.7-5.3-4-7.7-6.8c-2.4-2.8-4.5-6.2-6.4-10.2c-1.9-4-3.6-8.5-5.1-13.6c-1.5-5.1-2.7-10.8-3.7-17
				l-13.8-86l-20.2,5.3l-10-61.6l20.5-4.4l-8.8-55.1L-27.1-43.5z"/>
		</g>
		<g>
			<path class="st0" d="M736.2,209.6l85.6,5c-0.8,0.8-1.5,1.6-2.3,2.4c-0.8,0.8-1.6,1.5-2.4,2.3c-0.8,0.7-1.6,1.4-2.5,2.1
				c-0.8,0.7-1.7,1.4-2.5,2c-0.9,0.7-1.7,1.3-2.6,1.8c-0.9,0.6-1.8,1.1-2.7,1.6c-0.9,0.5-1.9,0.9-2.8,1.3c-0.9,0.4-1.9,0.8-2.9,1.1
				c-0.6,0.2-1.3,0.4-1.9,0.6c-0.6,0.2-1.2,0.3-1.8,0.4c-0.6,0.1-1.2,0.1-1.7,0.2c-0.6,0-1.1,0-1.6,0
				c-57.2-4.2-114.5-8.4-171.7-12.5c0.5,0,1,0,1.5,0c0.5,0,1.1-0.1,1.6-0.1c0.6-0.1,1.1-0.2,1.7-0.3c0.6-0.1,1.2-0.3,1.8-0.5
				c0.9-0.3,1.9-0.6,2.8-0.9c0.9-0.3,1.8-0.7,2.7-1.1c0.9-0.4,1.7-0.8,2.6-1.3c0.9-0.5,1.7-1,2.5-1.5c0.8-0.6,1.6-1.1,2.4-1.7
				c0.8-0.6,1.6-1.2,2.4-1.8c0.8-0.6,1.5-1.2,2.3-1.9c0.8-0.7,1.5-1.3,2.2-2"/>
		</g>
		<g>
			<polygon class="st0" points="765.3,55.6 524.1,72.4 577.9,61.7 821.8,43.5 			"/>
		</g>
		<g>
			<path class="st0" d="M229.4,237.9L78.2,216c-1.1-0.2-2.2-0.4-3.3-0.6c-1.1-0.3-2.1-0.6-3.2-0.9c-1-0.3-2.1-0.7-3.1-1.2
				c-1-0.4-2-0.9-2.9-1.5c-2.6-1.5-5-3.4-7.2-5.9c-2.2-2.4-4.2-5.3-6-8.7c-1.8-3.4-3.4-7.2-4.8-11.6c-1.4-4.3-2.5-9.1-3.4-14.4
				l149.2,14.2c1,6.2,2.2,11.9,3.7,17c1.5,5.1,3.2,9.7,5.1,13.6c1.9,4,4,7.4,6.4,10.2c2.3,2.8,4.9,5.1,7.7,6.8c1,0.6,2,1.2,3.1,1.7
				c1.1,0.5,2.1,0.9,3.2,1.3c1.1,0.4,2.2,0.7,3.4,1C227,237.5,228.2,237.7,229.4,237.9z"/>
		</g>
		<g>
			<polygon class="st0" points="127.2,204.6 -22,190.4 -34.7,117.9 113.4,118.6 			"/>
		</g>
		<g>
			<polyline class="st0" points="722.4,19.6 802.8,6.2 1022.6,-20.9 			"/>
		</g>
		<g>
			<polyline class="st0" points="131,52.6 122.8,6.4 269.6,-11.4 278.4,43.7 			"/>
		</g>
		<g>
			<polygon class="st0" points="149.4,62.4 3.3,70.7 22.4,66.9 169.9,58 			"/>
		</g>
		<g>
			<polygon class="st0" points="1035.1,32.2 889.1,40.5 908.2,36.7 1055.7,27.8 			"/>
		</g>
		<g>
			<polygon class="st0" points="199.8,29.4 19.1,51.2 86.7,40 271.7,17.1 			"/>
		</g>
		<g>
			<polygon class="st0" points="122.3,88.8 -24.6,87.2 -33.8,35.5 112.3,27.2 			"/>
		</g>
		<g>
			<polyline class="st0" points="1347.5,160.7 1351.3,184.2 1204.4,182.6 1195.2,130.9 1264.7,127 			"/>
		</g>
		<g>
			<polyline class="st0" points="1229.2,222.5 1233,246.1 1086.1,244.5 1076.9,192.8 			"/>
		</g>
	</g>
</g>
<path class="st5" d="M481.1,203.1c1.3-1.8,0.8-6.7-12.1-4.9c-12.9,1.8-12.4,7.5-4.7,6.6C472.1,203.9,477.1,208.7,481.1,203.1z"/>
<path class="st5" d="M56.4,152.4c0,2.5-2.1,5.6-4.6,5.6c-2.5,0-5.6-2.1-5.6-4.6c0-2.5,2.1-4.6,4.6-4.6
	C53.4,148.8,56.4,149.9,56.4,152.4z"/>
<path class="st6" d="M726,89c0,7.3-5.9,16-13.1,16s-16-5.9-16-13.1s5.9-13.1,13.1-13.1S726,81.8,726,89z"/>
<circle class="st5" cx="544.4" cy="90.9" r="2.1"/>
<path class="st5" d="M829,60c8.1-3.7,17-6,23.3-6c14.2,0,39.2,8.5,31.8,34.8c-3.9,13.7-17.6,16.7-31.8,16.7
	c-5.6,0-13.4-1.8-20.7-4.9C820.3,96,810,88.4,810,79.8"/>
<g>
	<path class="st1" d="M481.5,208c7.3,0.4,14.4,0.9,21.6,1.4c7.2,0.6,14.3,1.2,21.4,1.9c7.1,0.8,14.3,1.5,21.4,2.5
		c7.1,1,14.2,2,21.3,3.4c3.5,0.7,7.1,1.4,10.6,2.1c3.5,0.8,7,1.6,10.5,2.4c7,1.8,13.9,3.9,20.8,6.3c6.9,2.4,13.7,5.2,20.5,8.7
		c6.7,3.5,13.3,7.8,19.3,13.7l0.3,0.3c3,3,3,7.8,0.1,10.8c-3,3-7.8,3-10.8,0.1c-0.6-0.6-1.1-1.3-1.5-2.1
		c-2.7-5.4-7.3-10.2-12.7-14.3c-5.4-4-11.5-7.4-17.9-10.1c-6.4-2.8-13.1-4.9-19.8-6.8c-6.8-1.8-13.6-3.5-20.6-4.8
		c-6.9-1.3-13.9-2.4-20.9-3.2c-7-0.8-14.1-1.5-21.1-2c-7.1-0.4-14.1-0.8-21.2-0.8c-3.5-0.1-7.1,0-10.6,0c-3.5,0-7.1,0.2-10.5,0.4
		l-0.1,0c-2.8,0.2-5.1-2-5.3-4.7c-0.2-2.8,2-5.1,4.7-5.3C481.2,208,481.3,208,481.5,208z"/>
</g>
<g>
	<path class="st1" d="M365.6,192.6C365.5,192.4,365.6,192.5,365.6,192.6C365.6,192.6,365.7,192.6,365.6,192.6
		c0.1,0.2,0.3,0.3,0.4,0.4c0.2,0.3,0.6,0.6,0.9,0.9c0.6,0.6,1.3,1.2,2.1,1.8c1.5,1.2,3.1,2.4,4.7,3.5c3.4,2.2,7,4.3,10.8,6.1
		c3.8,1.8,7.7,3.5,11.7,5.1c4,1.5,8.1,2.9,12.3,4.2c8.3,2.5,16.8,4.6,25.5,6.4c8.6,1.8,17.4,3.2,26.1,4.3
		c17.6,2.3,35.4,3.6,53.2,4.2l6.7,0.2l3.4,0.1l3.5,0.2c4.6,0.3,9.2,0.8,13.8,1.6c4.6,0.8,9.2,2,13.7,3.8c2.2,0.9,4.4,2,6.6,3.3
		c1.1,0.7,2.1,1.4,3.1,2.3c0.5,0.4,1,0.9,1.5,1.4c0.2,0.3,0.5,0.5,0.7,0.9c0.1,0.2,0.2,0.3,0.4,0.5l0.2,0.3l0.1,0.2l0.1,0.3
		c0.8,1.5,0.2,3.4-1.4,4.2c-1.5,0.8-3.4,0.2-4.2-1.4c0,0.1,0,0.1,0,0.1c0,0,0,0,0,0l-0.1-0.1l-0.2-0.2c-0.1-0.1-0.2-0.3-0.4-0.4
		c-0.3-0.3-0.6-0.6-1-0.9c-0.7-0.6-1.5-1.1-2.4-1.6c-1.7-1-3.6-1.8-5.6-2.5c-3.9-1.4-8.1-2.2-12.4-2.8c-4.3-0.5-8.6-0.8-13-0.9
		l-3.3,0l-3.3,0l-6.8,0.1c-18.1,0.3-36.2-0.1-54.3-1.5c-9.1-0.7-18.1-1.7-27.2-3.1c-9-1.4-18.1-3.1-27.1-5.4
		c-4.5-1.1-9-2.4-13.4-3.8c-4.4-1.5-8.9-3.1-13.3-4.9c-4.4-1.9-8.7-4-13-6.5c-2.1-1.3-4.2-2.6-6.3-4.2c-1-0.8-2.1-1.6-3.1-2.5
		c-0.5-0.5-1-0.9-1.6-1.5c-0.3-0.3-0.5-0.5-0.8-0.8c-0.1-0.2-0.3-0.3-0.4-0.5c-0.2-0.2-0.3-0.3-0.6-0.7c-2.9-3.7-2.1-9.1,1.6-11.9
		C357.5,188.2,362.8,188.9,365.6,192.6z"/>
</g>
<path class="st7" d="M688.9,186.7c0,0,77.8,72.1,214.1,45.3s230.9,20,292.2,23c103.8,5,140.8-49.1,140.8-49.1"/>
<path class="st8" d="M1079.9,215.3c0,0,104.1,86.7,243.1,21.9"/>
<g>
	<path class="st1" d="M643.6,205.8c0.8,0.6,1.9,1.2,2.9,1.9c1,0.6,2,1.3,3.1,1.9c2.1,1.2,4.2,2.4,6.3,3.6c4.2,2.3,8.6,4.5,13,6.6
		c8.8,4.2,17.9,7.9,27.1,11.1c18.4,6.4,37.6,10.9,57.1,12.4c2.4,0.2,4.9,0.4,7.3,0.5c2.4,0.1,4.9,0.2,7.3,0.2l7.3-0.1
		c1.2,0,2.4-0.1,3.7-0.2l3.7-0.2c9.8-0.7,19.5-2.1,29-4.6l3.6-0.9c1.2-0.3,2.4-0.7,3.5-1.1c2.3-0.7,4.7-1.4,7.1-2.2l6.9-2.6
		c1.1-0.5,2.3-0.8,3.4-1.3l3.4-1.5c2.2-1,4.5-2,6.7-3.1l6.5-3.5c1.1-0.6,2.2-1.1,3.3-1.8l3.2-2l6.3-3.9l0.1,0
		c0.6-0.3,1.3-0.2,1.6,0.4c0.3,0.5,0.2,1.3-0.3,1.6l-6.2,4.3l-3.1,2.2c-1,0.7-2.1,1.3-3.2,2l-6.5,3.9c-2.2,1.3-4.5,2.3-6.7,3.5
		l-3.4,1.7c-1.1,0.6-2.3,1-3.5,1.6l-7,3c-2.4,0.9-4.8,1.7-7.1,2.6c-1.2,0.4-2.4,0.9-3.6,1.3l-3.6,1.1c-9.7,3-19.7,5-29.8,6.3
		l-3.8,0.4c-1.3,0.1-2.5,0.3-3.8,0.4l-7.6,0.5c-2.5,0.1-5.1,0.1-7.6,0.2c-2.6,0.1-5.1,0-7.6-0.1c-20.4-0.6-40.6-4.2-60.2-9.9
		c-9.8-2.9-19.4-6.2-28.9-10.1c-4.7-2-9.4-4-14-6.3c-2.3-1.1-4.6-2.3-6.9-3.5c-1.1-0.6-2.3-1.2-3.4-1.8c-1.2-0.6-2.2-1.2-3.5-2
		c-3.5-2.1-4.6-6.6-2.5-10.1c2.1-3.5,6.6-4.6,10.1-2.5C643.3,205.6,643.4,205.7,643.6,205.8L643.6,205.8z"/>
</g>
<path class="st0" d="M-22.7,234.2l68.3,18.1c0,0-0.3-28.3,62.7-28.1l-177-25.9"/>
<path class="st9" d="M25.5,238c0,0,57.1,11.9,130.5,1.9"/>
<path class="st9" d="M169.9,230.3c0,0,143.7,61.8,336.9-22.7"/>
<g>
	<path class="st0" d="M1496.5,263.8l-156.4-10.1c-1.3-0.1-2.5-0.2-3.7-0.5c-1.2-0.2-2.4-0.5-3.5-0.9c-1.1-0.4-2.3-0.9-3.3-1.4
		c-1.1-0.5-2.1-1.2-3.1-1.9c-2-1.4-3.9-3.2-5.6-5.4c-1.7-2.2-3.3-4.8-4.7-7.8c-1.4-3-2.6-6.4-3.7-10.3c-1.1-3.8-1.9-8.1-2.7-12.7
		l156,3.9c0.7,5.4,1.7,10.3,2.7,14.7c1.1,4.4,2.3,8.4,3.7,11.9c1.4,3.5,3,6.5,4.7,9c1.7,2.5,3.6,4.6,5.7,6.2c1,0.8,2.1,1.5,3.2,2.1
		c1.1,0.6,2.2,1.1,3.4,1.6c1.2,0.4,2.3,0.8,3.6,1C1494,263.5,1495.3,263.7,1496.5,263.8z"/>
</g>
<path class="st1" d="M618.7,262.3c0,3.9-3.1,7-7,7s-7-3.1-7-7c0-3.9,3.1-5,7-5S618.7,258.5,618.7,262.3z"/>
<path class="st1" d="M822.8,253.6c0,2.6-2.4,2.7-4.1,2.7c-1.7,0-3.1-1.1-3.1-3.7s1.4-4.7,3.1-4.7C820.4,247.9,822.8,251,822.8,253.6
	z"/>
<path class="st1" d="M1033.4,250.9l4.9,5.6c0.7,0.8,1.8,1,2.7,0.6l6.5-2.8c2.1-0.9,1.8-3.9-0.4-4.5l-11.4-2.8
	C1033.5,246.5,1031.9,249.1,1033.4,250.9z"/>
<path class="st1" d="M1026.2,253.9l-1,1.5c-0.8,1.1-0.6,2.5,0.4,3.4l0.3,0.2c1.3,1.2,3.4,0.8,4.2-0.8l0.8-1.7
	c0.5-1.2,0.1-2.5-0.9-3.2l0,0C1028.7,252.4,1027.1,252.7,1026.2,253.9z"/>
<path class="st1" d="M1306.5,261.8l8.3,3.9c0.5,0.2,1,0.3,1.5,0.3l18.9-1.3c3.1-0.2,3.8-4.5,1-5.7l-10.7-4.6
	c-6.5-2.8-13.9-1.8-19.5,2.4v0C1304.2,258.1,1304.5,260.9,1306.5,261.8z"/>
</svg>
