<?xml version="1.0" encoding="utf-8"?>
<!-- Generator: Adobe Illustrator 22.0.1, SVG Export Plug-In . SVG Version: 6.00 Build 0)  -->
<svg version="1.1" id="Layer_1" xmlns="http://www.w3.org/2000/svg" xmlns:xlink="http://www.w3.org/1999/xlink" x="0px" y="0px"
	 viewBox="0 0 1417.3 278.9" style="enable-background:new 0 0 1417.3 278.9;" xml:space="preserve">
<style type="text/css">
	.st0{fill:#010101;}
	.st1{fill:none;stroke:#010101;stroke-width:8;stroke-miterlimit:10;}
	.st2{fill:#010101;stroke:#333333;stroke-width:1.234;stroke-miterlimit:10;}
	.st3{enable-background:new    ;}
	.st4{fill:none;stroke:#010101;stroke-width:4;stroke-linecap:round;stroke-linejoin:round;stroke-miterlimit:10;}
	.st5{fill:none;stroke:#010101;stroke-width:2.1163;stroke-linecap:round;stroke-linejoin:round;stroke-miterlimit:10;}
</style>
<polyline class="st0" points="26.3,248.7 74,259 108.3,238.6 "/>
<path class="st0" d="M1148,225.3c0,0,142.2,9.2,197.6,30.5l13.6,11.2l93.4,16V168"/>
<path class="st1" d="M148.7,226.9c0,0,143.7,61.8,336.9-22.7"/>
<g>
	<path class="st0" d="M550.5,208.2c0.8,0.6,1.9,1.2,2.9,1.9c1,0.6,2,1.3,3.1,1.9c2.1,1.2,4.2,2.4,6.3,3.6c4.2,2.3,8.6,4.5,13,6.6
		c8.8,4.2,17.9,7.9,27.1,11.1c18.4,6.4,37.6,10.9,57.1,12.4c2.4,0.2,4.9,0.4,7.3,0.5c2.4,0.1,4.9,0.2,7.3,0.2l7.3-0.1
		c1.2,0,2.4-0.1,3.7-0.2l3.7-0.2c9.8-0.7,19.5-2.1,29-4.6l3.6-0.9c1.2-0.3,2.4-0.7,3.5-1.1c2.3-0.7,4.7-1.4,7.1-2.2l6.9-2.6
		c1.1-0.5,2.3-0.8,3.4-1.3l3.4-1.5c2.2-1,4.5-2,6.7-3.1l6.5-3.5c1.1-0.6,2.2-1.1,3.3-1.8l3.2-2l6.3-3.9l0.1,0
		c0.6-0.3,1.3-0.2,1.6,0.4c0.3,0.5,0.2,1.3-0.3,1.6l-6.2,4.3l-3.1,2.2c-1,0.7-2.1,1.3-3.2,2l-6.5,3.9c-2.2,1.3-4.5,2.3-6.7,3.5
		l-3.4,1.7c-1.1,0.6-2.3,1-3.5,1.6l-7,3c-2.4,0.9-4.8,1.7-7.1,2.6c-1.2,0.4-2.4,0.9-3.6,1.3l-3.6,1.1c-9.7,3-19.7,5-29.8,6.3
		l-3.8,0.4c-1.3,0.1-2.5,0.3-3.8,0.4l-7.6,0.5c-2.5,0.1-5.1,0.1-7.6,0.2c-2.6,0.1-5.1,0-7.6-0.1c-20.4-0.6-40.6-4.2-60.2-9.9
		c-9.8-2.9-19.4-6.2-28.9-10.1c-4.7-2-9.4-4-14-6.3c-2.3-1.1-4.6-2.3-6.9-3.5c-1.1-0.6-2.3-1.2-3.4-1.8c-1.2-0.6-2.2-1.2-3.5-2
		c-3.5-2.1-4.6-6.6-2.5-10.1c2.1-3.5,6.6-4.6,10.1-2.5C550.2,208,550.3,208.1,550.5,208.2L550.5,208.2z"/>
</g>
<rect class="st0" width="1417.3" height="241"/>
<path class="st2" d="M429.5,213c10,1.4,16.3,9.2,13.6,16.6c-3.1,8.3-13.4,6.6-25.5,4.5c-10-1.7-34.3-6.7-29.2-13.6
	c2.7-3.7,10-5.9,17.9-7"/>
<path class="st2" d="M-42.6,202.9l277.7,35.7c0,0,16-55.4,82-71.6l-351.4-26.3"/>
<g>
	<path class="st0" d="M769.6,188.9L769.6,188.9L769.6,188.9l0.1,0.2l0.5,0.5c0.3,0.3,0.7,0.7,1.1,1.1c0.8,0.7,1.6,1.5,2.5,2.2
		c0.9,0.7,1.8,1.4,2.7,2.2l2.9,2.1c4,2.7,8.3,5.2,12.8,7.4c9,4.4,18.6,7.9,28.6,10.6c19.9,5.4,41,8,62.2,8.3
		c21.2,0.2,42.6-1.9,63.6-5.8c5.2-1.1,10.5-2.1,15.7-3.5c5.2-1.4,10.4-2.7,15.5-4.3c5.1-1.6,10.2-3.3,15.2-5.2c2.5-1,5-2,7.5-3
		c2.5-1,4.9-2.1,7.4-3.2l5.6,18.4c-2.8,0.4-5.5,0.8-8.2,1.3c-2.7,0.4-5.4,0.9-8.1,1.5c-5.4,1-10.8,1.9-16.2,3
		c-2.7,0.5-5.4,1-8.1,1.5l-8.1,1.5c-2.7,0.6-5.4,1-8.1,1.5l-8.1,1.5l-16.2,2.8l-8.1,1.2c-2.7,0.4-5.4,0.9-8.1,1.2l-8.2,1
		c-1.4,0.2-2.7,0.3-4.1,0.5l-4.1,0.4c-2.7,0.3-5.5,0.6-8.2,0.8c-2.7,0.2-5.5,0.4-8.2,0.6c-2.7,0.3-5.5,0.3-8.3,0.4
		c-2.8,0.1-5.5,0.3-8.3,0.3l-8.3,0.1l-8.4-0.2c-11.1-0.4-22.3-1.5-33.5-3.5c-11.1-2-22.3-4.9-33.1-9.1c-5.4-2.1-10.8-4.4-16.1-7.3
		c-1.3-0.7-2.6-1.5-4-2.2c-1.3-0.8-2.6-1.5-3.9-2.4c-1.3-0.8-2.6-1.7-3.9-2.7c-0.7-0.5-1.3-1-2-1.5l-1-0.8l-0.6-0.5l-0.3-0.3
		l-0.5-0.4L769.6,188.9z"/>
</g>
<g>
	<g class="st3">
		<g>
			<polyline class="st2" points="542.2,107.3 578.8,95.5 586.1,153.4 			"/>
		</g>
		<g>
			<polygon class="st2" points="190.3,190.7 34,183.9 26.3,131.5 182.6,130.7 			"/>
		</g>
		<g>
			<polyline class="st2" points="1118,156.9 991.6,151.4 980.5,75.9 1205.8,74.6 1217,161.2 1186.1,159.8 			"/>
		</g>
		<g>
			<polyline class="st2" points="1008,204.6 1013.4,246 857,239.2 855.2,226.6 			"/>
		</g>
		<g>
			<polygon class="st2" points="459.2,107.4 303,108.2 339.9,97.8 495.8,95.5 			"/>
		</g>
		<g>
			<polyline class="st2" points="884.1,137.8 921,127.4 1076.9,125.1 1040.3,136.9 959,137.4 			"/>
		</g>
		<g>
			<polygon class="st2" points="1284.5,81.2 1038.7,82.5 1096.8,66.2 1342,62.5 			"/>
		</g>
	</g>
	<g class="st3">
		<g>
			<path class="st2" d="M428.4,131.4L272,129.1c0.3,0,0.6,0,0.9,0c0.3,0,0.6-0.1,0.9-0.1c0.3,0,0.6-0.1,0.9-0.2
				c0.3-0.1,0.6-0.2,1-0.3c0.6-0.2,1.3-0.4,1.9-0.6c0.6-0.2,1.2-0.5,1.8-0.8c0.6-0.3,1.2-0.6,1.8-1c0.6-0.3,1.2-0.7,1.7-1.1
				c0.6-0.4,1.1-0.8,1.7-1.3c0.5-0.4,1.1-0.9,1.6-1.3c0.5-0.5,1.1-0.9,1.6-1.4c0.5-0.5,1-1,1.5-1.5l156.3,0.8
				c-0.5,0.6-1,1.2-1.5,1.8c-0.5,0.6-1,1.1-1.6,1.6c-0.5,0.5-1.1,1-1.6,1.5c-0.5,0.5-1.1,1-1.7,1.4c-0.6,0.5-1.2,0.9-1.7,1.3
				c-0.6,0.4-1.2,0.8-1.8,1.1c-0.6,0.3-1.2,0.6-1.8,0.9c-0.6,0.3-1.3,0.5-1.9,0.7c-0.3,0.1-0.7,0.2-1,0.3c-0.3,0.1-0.6,0.2-0.9,0.2
				c-0.3,0.1-0.6,0.1-0.9,0.1C429,131.4,428.7,131.4,428.4,131.4z"/>
		</g>
		<g>
			<path class="st2" d="M1173.2,183.5l-156.4-10.1c-1.3-0.1-2.5-0.2-3.7-0.5c-1.2-0.2-2.4-0.5-3.5-0.9c-1.1-0.4-2.3-0.9-3.3-1.4
				c-1.1-0.5-2.1-1.2-3.1-1.9c-2-1.4-3.9-3.2-5.6-5.4c-1.7-2.2-3.3-4.8-4.7-7.8c-1.4-3-2.6-6.4-3.7-10.3c-1.1-3.8-1.9-8.1-2.7-12.7
				l156,3.9c0.7,5.4,1.7,10.3,2.7,14.7c1.1,4.4,2.3,8.4,3.7,11.9c1.4,3.5,3,6.5,4.7,9c1.7,2.5,3.6,4.6,5.7,6.2
				c1,0.8,2.1,1.5,3.2,2.1c1.1,0.6,2.2,1.1,3.4,1.6c1.2,0.4,2.3,0.8,3.6,1C1170.7,183.2,1171.9,183.4,1173.2,183.5z"/>
		</g>
		<g>
			<path class="st2" d="M1055.7,224.1l-91.2-5.9c-0.7,0-1.5-0.1-2.2-0.3c-0.7-0.1-1.4-0.3-2.1-0.5c-0.7-0.2-1.3-0.5-1.9-0.8
				c-0.6-0.3-1.2-0.7-1.8-1.1c-1.2-0.8-2.3-1.8-3.3-3.1c-1-1.3-1.9-2.8-2.7-4.6c-0.8-1.8-1.5-3.8-2.1-6c-0.6-2.2-1.1-4.7-1.6-7.4
				l90.9,2.3c0.4,3.1,1,6,1.6,8.6c0.6,2.6,1.4,4.9,2.2,6.9c0.8,2,1.7,3.8,2.8,5.3c1,1.5,2.1,2.7,3.3,3.6c0.6,0.5,1.2,0.9,1.9,1.2
				c0.6,0.4,1.3,0.7,2,0.9c0.7,0.3,1.4,0.5,2.1,0.6C1054.2,223.9,1054.9,224,1055.7,224.1z"/>
		</g>
		<g>
			<path class="st2" d="M813.8,154.4c1.1,4.4,2.3,8.4,3.7,11.9c1.4,3.5,3,6.5,4.7,9c1.7,2.5,3.6,4.6,5.7,6.2c1,0.8,2.1,1.5,3.2,2.1
				c1.1,0.6,2.2,1.1,3.4,1.6c1.2,0.4,2.3,0.8,3.6,1c1.2,0.3,2.5,0.4,3.7,0.5l-156.4-10.1c-1.3-0.1-2.5-0.2-3.7-0.5
				c-1.2-0.2-2.4-0.5-3.5-0.9c-1.1-0.4-2.3-0.9-3.3-1.4c-1.1-0.5-2.1-1.2-3.1-1.9c-2-1.4-3.9-3.2-5.6-5.4c-1.7-2.2-3.3-4.8-4.7-7.8
				c-1.4-3-2.6-6.4-3.7-10.3c-1.1-3.8-1.9-8.1-2.7-12.7l84.8,2.1"/>
		</g>
		<g>
			<polygon class="st2" points="437.7,125.7 281.8,121.8 271.9,58.1 427.5,51.8 			"/>
		</g>
		<g>
			<polygon class="st2" points="355.7,-30.4 200.6,-10.3 242.6,-17.3 398.4,-37.7 			"/>
		</g>
		<g>
			<polygon class="st2" points="388.4,11.3 233,24.8 226.7,-15.7 381.9,-35.8 			"/>
		</g>
		<g>
			<polygon class="st2" points="589.9,15.6 434.8,28.8 449.4,25.9 604.7,12.4 			"/>
		</g>
		<g>
			<polygon class="st2" points="586.1,61.5 430.7,67.3 423.6,22 578.7,8.8 			"/>
		</g>
		<g>
			<polygon class="st2" points="662.7,22.8 506.8,37.1 532.8,31.9 688.9,17.2 			"/>
		</g>
	</g>
	<g class="st3">
		<g>
			<polyline class="st2" points="716.2,216 495.8,206.7 563.5,187.7 624.9,189.3 			"/>
		</g>
		<g>
			<polyline class="st2" points="641,168 630.8,99.1 679.5,83.3 			"/>
		</g>
	</g>
	<g class="st3">
		<g>
			<path class="st2" d="M-27.1-43.5L-19,9.2l35.3-7.6l8.5,56.5L-10,67.3l10.5,68.6c0.3,1.8,0.6,3.5,1,5c0.4,1.5,0.8,2.8,1.3,4
				c0.5,1.2,1,2.2,1.7,3.1c0.6,0.9,1.3,1.6,2,2.1c0.7,0.6,1.5,1,2.3,1.3c0.8,0.3,1.7,0.5,2.7,0.6c0.9,0.1,2,0,3-0.1
				c1.1-0.2,2.2-0.4,3.4-0.8c0.9-0.3,1.7-0.6,2.6-1c0.8-0.4,1.7-0.7,2.5-1.2c0.8-0.4,1.6-0.9,2.4-1.4c0.8-0.5,1.6-1,2.3-1.6
				c0.8-0.6,1.5-1.2,2.2-1.8c0.7-0.6,1.5-1.2,2.2-1.9c0.7-0.6,1.4-1.3,2.1-2c0.7-0.7,1.4-1.4,2-2.1l8,53.5c-1,1.3-2.1,2.5-3.2,3.7
				c-1.1,1.2-2.2,2.4-3.4,3.6c-1.2,1.2-2.4,2.3-3.7,3.4c-1.3,1.1-2.6,2.2-4,3.3c-1.4,1.1-2.8,2.1-4.3,3.1c-1.5,1-3.1,1.9-4.7,2.8
				c-1.6,0.9-3.3,1.7-5,2.5c-1.7,0.8-3.5,1.6-5.3,2.3c-4,1.6-7.8,2.7-11.5,3.5c-3.7,0.8-7.3,1.2-10.7,1.1c-3.4,0-6.7-0.5-9.8-1.3
				c-3.1-0.8-6.1-2.1-8.8-3.8c-2.8-1.7-5.3-4-7.7-6.8c-2.4-2.8-4.5-6.2-6.4-10.2c-1.9-4-3.6-8.5-5.1-13.6c-1.5-5.1-2.7-10.8-3.7-17
				l-13.8-86l-20.2,5.3l-10-61.6l20.5-4.4l-8.8-55.1L-27.1-43.5z"/>
		</g>
		<g>
			<path class="st2" d="M736.2,209.6l85.6,5c-0.8,0.8-1.5,1.6-2.3,2.4c-0.8,0.8-1.6,1.5-2.4,2.3c-0.8,0.7-1.6,1.4-2.5,2.1
				c-0.8,0.7-1.7,1.4-2.5,2c-0.9,0.7-1.7,1.3-2.6,1.8c-0.9,0.6-1.8,1.1-2.7,1.6c-0.9,0.5-1.9,0.9-2.8,1.3c-0.9,0.4-1.9,0.8-2.9,1.1
				c-0.6,0.2-1.3,0.4-1.9,0.6c-0.6,0.2-1.2,0.3-1.8,0.4c-0.6,0.1-1.2,0.1-1.7,0.2c-0.6,0-1.1,0-1.6,0
				c-57.2-4.2-114.5-8.4-171.7-12.5c0.5,0,1,0,1.5,0c0.5,0,1.1-0.1,1.6-0.1c0.6-0.1,1.1-0.2,1.7-0.3c0.6-0.1,1.2-0.3,1.8-0.5
				c0.9-0.3,1.9-0.6,2.8-0.9c0.9-0.3,1.8-0.7,2.7-1.1c0.9-0.4,1.7-0.8,2.6-1.3c0.9-0.5,1.7-1,2.5-1.5c0.8-0.6,1.6-1.1,2.4-1.7
				c0.8-0.6,1.6-1.2,2.4-1.8c0.8-0.6,1.5-1.2,2.3-1.9c0.8-0.7,1.5-1.3,2.2-2"/>
		</g>
		<g>
			<polygon class="st2" points="765.3,55.6 524.1,72.4 577.9,61.7 821.8,43.5 			"/>
		</g>
		<g>
			<path class="st2" d="M229.4,237.9L78.2,216c-1.1-0.2-2.2-0.4-3.3-0.6c-1.1-0.3-2.1-0.6-3.2-0.9c-1-0.3-2.1-0.7-3.1-1.2
				c-1-0.4-2-0.9-2.9-1.5c-2.6-1.5-5-3.4-7.2-5.9c-2.2-2.4-4.2-5.3-6-8.7c-1.8-3.4-3.4-7.2-4.8-11.6c-1.4-4.3-2.5-9.1-3.4-14.4
				l149.2,14.2c1,6.2,2.2,11.9,3.7,17c1.5,5.1,3.2,9.7,5.1,13.6c1.9,4,4,7.4,6.4,10.2c2.3,2.8,4.9,5.1,7.7,6.8c1,0.6,2,1.2,3.1,1.7
				c1.1,0.5,2.1,0.9,3.2,1.3c1.1,0.4,2.2,0.7,3.4,1C227,237.5,228.2,237.7,229.4,237.9z"/>
		</g>
		<g>
			<polygon class="st2" points="720.6,145.2 571.4,131.1 558.6,58.5 706.8,59.3 			"/>
		</g>
		<g>
			<polyline class="st2" points="722.4,19.6 802.8,6.2 1022.6,-20.9 			"/>
		</g>
		<g>
			<polyline class="st2" points="131,52.6 122.8,6.4 269.6,-11.4 278.4,43.7 			"/>
		</g>
		<g>
			<polygon class="st2" points="149.4,62.4 3.3,70.7 22.4,66.9 169.9,58 			"/>
		</g>
		<g>
			<polygon class="st2" points="1035.1,32.2 889.1,40.5 908.2,36.7 1055.7,27.8 			"/>
		</g>
		<g>
			<polygon class="st2" points="199.8,29.4 19.1,51.2 86.7,40 271.7,17.1 			"/>
		</g>
		<g>
			<polygon class="st2" points="122.3,88.8 -24.6,87.2 -33.8,35.5 112.3,27.2 			"/>
		</g>
		<g>
			<polyline class="st2" points="1347.5,160.7 1351.3,184.2 1204.4,182.6 1195.2,130.9 1264.7,127 			"/>
		</g>
		<g>
			<polyline class="st2" points="1229.2,222.5 1233,246.1 1086.1,244.5 1076.9,192.8 			"/>
		</g>
	</g>
</g>
<path class="st2" d="M481.1,203.1c1.3-1.8,0.8-6.7-12.1-4.9c-12.9,1.8-12.4,7.5-4.7,6.6C472.1,203.9,477.1,208.7,481.1,203.1z"/>
<path class="st2" d="M56.4,152.4c0,2.5-2.1,5.6-4.6,5.6c-2.5,0-5.6-2.1-5.6-4.6c0-2.5,2.1-4.6,4.6-4.6
	C53.4,148.8,56.4,149.9,56.4,152.4z"/>
<path class="st2" d="M726,89c0,7.3-5.9,16-13.1,16s-16-5.9-16-13.1s5.9-13.1,13.1-13.1S726,81.8,726,89z"/>
<circle class="st2" cx="544.4" cy="90.9" r="2.1"/>
<path class="st2" d="M829,60c8.1-3.7,17-6,23.3-6c14.2,0,39.2,8.5,31.8,34.8c-3.9,13.7-17.6,16.7-31.8,16.7
	c-5.6,0-13.4-1.8-20.7-4.9C820.3,96,810,88.4,810,79.8"/>
<g>
	<path class="st0" d="M235.1,211.6c3.3,1.1,6.7,2.2,10.1,3.1c3.4,1,6.8,1.9,10.2,2.8c6.9,1.8,13.8,3.3,20.7,4.7
		c6.9,1.4,13.9,2.5,20.9,3.6c7,1,14,1.7,21.1,2.3c7,0.6,14.1,0.8,21.1,0.8c7,0,14-0.4,20.9-1.4c6.9-1,13.6-2.6,19.9-5.1
		c6.2-2.5,12-6,15.9-10.5c2.8-3.2,7.6-3.5,10.8-0.7c3.2,2.8,3.5,7.6,0.7,10.8c-0.6,0.7-1.2,1.2-2,1.6l-0.4,0.2
		c-7.4,4.2-14.8,6.6-22.2,8.3c-7.4,1.6-14.7,2.5-22,3.1c-7.3,0.5-14.5,0.7-21.8,0.7c-3.6-0.1-7.2-0.2-10.8-0.4
		c-3.6-0.2-7.2-0.5-10.8-0.7c-7.2-0.6-14.3-1.4-21.4-2.3c-7.1-0.9-14.2-2-21.3-3.1c-7.1-1.1-14.1-2.4-21.2-3.7
		c-7.1-1.4-14.1-2.7-21.2-4.3c-2.7-0.6-4.4-3.3-3.8-6s3.3-4.4,6-3.8C234.7,211.5,234.9,211.5,235.1,211.6L235.1,211.6z"/>
</g>
<g>
	<path class="st0" d="M384.3,228.4l0.2,0.1c0.1,0.1,0.2,0.1,0.3,0.2c0.2,0.1,0.4,0.3,0.6,0.4c0.4,0.3,0.9,0.5,1.3,0.8
		c0.9,0.5,1.8,1,2.8,1.5c1.9,1,3.9,1.8,5.9,2.6c4,1.5,8.2,2.8,12.5,3.8c4.3,1,8.6,1.8,13,2.5c4.4,0.6,8.8,1.1,13.2,1.5
		c8.8,0.7,17.8,0.9,26.7,0.7c8.9-0.1,17.8-0.7,26.7-1.5c17.8-1.5,35.5-4.2,53.1-7.4l6.6-1.2l3.3-0.6l3.4-0.5c4.5-0.7,9-1.2,13.5-1.3
		c4.5-0.2,9.1,0,13.7,0.7c2.3,0.4,4.5,0.9,6.7,1.7c1.1,0.4,2.2,0.9,3.2,1.5c0.5,0.3,1,0.6,1.5,1c0.2,0.2,0.5,0.4,0.7,0.6
		c0.3,0.2,0.5,0.4,0.7,0.7c0.4,0.5,0.3,1.2-0.1,1.6c-0.4,0.4-1.1,0.3-1.5-0.1l-0.1-0.1c-0.1-0.1-0.3-0.3-0.5-0.4
		c-0.2-0.2-0.4-0.3-0.6-0.5c-0.4-0.3-0.9-0.6-1.3-0.8c-0.9-0.5-1.9-0.9-2.9-1.3c-2-0.7-4.2-1.2-6.3-1.5c-4.3-0.6-8.8-0.7-13.2-0.5
		c-4.4,0.3-8.8,0.8-13.2,1.5l-3.3,0.6l-3.3,0.7l-6.6,1.3c-17.6,3.6-35.4,6.5-53.3,8.4c-9,1-18,1.7-27,2c-9,0.3-18.1,0.3-27.1-0.3
		c-4.5-0.3-9.1-0.7-13.6-1.3c-4.5-0.6-9-1.4-13.5-2.3c-4.5-1-8.9-2.2-13.3-3.8c-2.2-0.8-4.3-1.7-6.5-2.7c-1.1-0.5-2.1-1.1-3.2-1.7
		c-0.5-0.3-1-0.6-1.6-1c-0.3-0.2-0.5-0.3-0.8-0.5c-0.1-0.1-0.3-0.2-0.4-0.3c-0.2-0.1-0.3-0.2-0.5-0.4c-1.3-1.1-1.4-3-0.3-4.2
		c1.1-1.2,2.9-1.4,4.2-0.4L384.3,228.4z"/>
</g>
<path class="st4" d="M698.4,223.9c0,0,79.1,39,214.8,19.4s231.1,4.4,292.5,4.2c103.9-0.3,139.9-32.6,139.9-32.6"/>
<path class="st5" d="M998,226.3c0,0,111.1,55.5,243.5-10.5"/>
<path class="st2" d="M55.3,234.2l68.3,18.1c0,0-0.3-28.3,62.7-28.1l-177-25.9"/>
<g>
	<path class="st0" d="M-54.1,249c0.8-0.4,1.4-0.6,2-0.9l1.8-0.8c1.2-0.5,2.4-1,3.5-1.5c2.3-1,4.6-1.9,6.9-2.8
		c4.6-1.8,9.2-3.6,13.8-5.2c9.2-3.4,18.4-6.4,27.7-9.3c18.5-5.8,37.1-10.9,55.9-15.3c18.7-4.4,37.6-8.2,56.5-11.4
		c2.4-0.4,4.7-0.8,7.1-1.2l7.1-1.1c4.7-0.7,9.5-1.5,14.2-2.1l14.2-1.9l14.2-1.6c4.7-0.6,9.5-1,14.3-1.4c4.8-0.5,9.5-0.9,14.3-1.3
		l14.3-1.1l14.3-0.8l7.1-0.4l7.1-0.3l14.3-0.5l14.3-0.2l7.1-0.1c2.4,0,4.8,0,7.1,0c38,0.2,76,2.3,113.6,6.5l-0.6,8
		c-37.6-1-75.1-0.1-112.4,2.8c-2.3,0.2-4.7,0.3-7,0.5l-7,0.7l-13.9,1.3l-13.9,1.6l-6.9,0.8l-6.9,1l-13.9,1.9l-13.8,2.2
		c-4.6,0.7-9.2,1.5-13.8,2.4c-4.6,0.8-9.2,1.6-13.7,2.5l-13.7,2.7l-13.6,3c-4.5,1-9.1,2.1-13.6,3.2l-6.8,1.6
		c-2.3,0.5-4.5,1.2-6.7,1.7c-18,4.6-35.8,9.7-53.3,15.4c-17.6,5.7-34.9,12-51.9,18.9c-8.5,3.4-16.9,7-25.1,10.8
		c-4.1,1.9-8.2,3.8-12.2,5.8c-2,1-4,2-5.9,3c-1,0.5-1.9,1-2.9,1.5l-1.4,0.7c-0.4,0.2-0.9,0.5-1.2,0.7L-54.1,249z"/>
</g>
<g>
	<path class="st2" d="M1452.5,255.8l-156.4-10.1c-1.3-0.1-2.5-0.2-3.7-0.5c-1.2-0.2-2.4-0.5-3.5-0.9c-1.1-0.4-2.3-0.9-3.3-1.4
		c-1.1-0.5-2.1-1.2-3.1-1.9c-2-1.4-3.9-3.2-5.6-5.4c-1.7-2.2-3.3-4.8-4.7-7.8c-1.4-3-2.6-6.4-3.7-10.3c-1.1-3.8-1.9-8.1-2.7-12.7
		l156,3.9c0.7,5.4,1.7,10.3,2.7,14.7c1.1,4.4,2.3,8.4,3.7,11.9c1.4,3.5,3,6.5,4.7,9c1.7,2.5,3.6,4.6,5.7,6.2c1,0.8,2.1,1.5,3.2,2.1
		c1.1,0.6,2.2,1.1,3.4,1.6c1.2,0.4,2.3,0.8,3.6,1C1450,255.5,1451.3,255.7,1452.5,255.8z"/>
</g>
<path class="st0" d="M306.5,231.3c0,3.9-3.1,7-7,7s-7-3.1-7-7s3.1-5,7-5S306.5,227.4,306.5,231.3z"/>
<path class="st2" d="M858.8,205.6c0,2.6-2.4,2.7-4.1,2.7s-3.1-1.1-3.1-3.7s1.4-4.7,3.1-4.7S858.8,203,858.8,205.6z"/>
<g>
	<path class="st2" d="M902.4,199.4l4.9,5.6c0.7,0.8,1.8,1,2.7,0.6l6.5-2.8c2.1-0.9,1.8-3.9-0.4-4.5l-11.4-2.8
		C902.5,195,900.9,197.6,902.4,199.4z"/>
	<path class="st2" d="M895.2,202.4l-1,1.5c-0.8,1.1-0.6,2.5,0.4,3.4l0.3,0.2c1.3,1.2,3.4,0.8,4.2-0.8l0.8-1.7
		c0.5-1.2,0.1-2.5-0.9-3.2l0,0C897.7,200.9,896.1,201.2,895.2,202.4z"/>
</g>
<path class="st2" d="M1234.7,228.3l8.3,3.9c0.5,0.2,1,0.3,1.5,0.3l18.9-1.3c3.1-0.2,3.8-4.5,1-5.7l-10.7-4.6
	c-6.5-2.8-13.9-1.8-19.5,2.4v0C1232.4,224.5,1232.7,227.3,1234.7,228.3z"/>
</svg>
