<?xml version="1.0" encoding="utf-8"?>
<!-- Generator: Adobe Illustrator 22.0.1, SVG Export Plug-In . SVG Version: 6.00 Build 0)  -->
<svg version="1.1" id="Layer_1" xmlns="http://www.w3.org/2000/svg" xmlns:xlink="http://www.w3.org/1999/xlink" x="0px" y="0px"
	 viewBox="0 0 3836.4 3843" style="enable-background:new 0 0 3836.4 3843;" xml:space="preserve">
<style type="text/css">
	.st0{fill:#17526F;}
	.st1{fill:#0E5665;}
	.st2{fill:#0C5265;}
	.st3{fill:#17566C;}
	.st4{fill:#095663;}
	.st5{fill:#106066;}
	.st6{fill:#085862;}
	.st7{fill:#175A6B;}
	.st8{fill:#16556B;}
	.st9{fill:#19546F;}
	.st10{fill:#17536D;}
	.st11{fill:#135669;}
	.st12{fill:#125F67;}
	.st13{fill:#0B5664;}
	.st14{fill:#104D69;}
	.st15{fill:#0F5466;}
	.st16{fill:#18566D;}
	.st17{fill:#185A6C;}
	.st18{fill:#0E4C68;}
	.st19{fill:#1C5472;}
	.st20{fill:#19526F;}
	.st21{fill:#075662;}
	.st22{fill:#135968;}
	.st23{fill:#00575B;}
	.st24{fill:#075762;}
	.st25{fill:#105E66;}
	.st26{fill:#0C4F65;}
	.st27{fill:#035061;}
	.st28{fill:#12486D;}
	.st29{fill:#0F486B;}
	.st30{fill:#184F70;}
	.st31{fill:#0A5165;}
	.st32{fill:#1B576F;}
	.st33{fill:#045161;}
	.st34{fill:#10486C;}
	.st35{fill:#15566B;}
	.st36{fill:#0F496B;}
	.st37{fill:#0A5B64;}
	.st38{fill:#125369;}
	.st39{fill:#15506D;}
	.st40{fill:#14526B;}
	.st41{fill:#0E5367;}
	.st42{fill:#0E4B69;}
	.st43{fill:#14496D;}
	.st44{fill:#1A5270;}
	.st45{fill:#1B5670;}
	.st46{fill:#1C4B77;}
	.st47{fill:#10456E;}
	.st48{fill:#174772;}
	.st49{fill:#0F4A64;}
	.st50{fill:#0D4D67;}
	.st51{fill:#1C4879;}
	.st52{fill:#0D4A66;}
	.st53{fill:#125469;}
	.st54{fill:#125A68;}
	.st55{fill:#035461;}
	.st56{fill:#045461;}
	.st57{fill:#155A6A;}
	.st58{fill:#124969;}
	.st59{fill:#114C69;}
	.st60{fill:#0A5764;}
	.st61{fill:#0D5167;}
	.st62{fill:#154C6F;}
	.st63{fill:#105767;}
	.st64{fill:#14596A;}
	.st65{fill:#134B6B;}
	.st66{fill:#14466D;}
	.st67{fill:#1B4870;}
	.st68{fill:#104D6A;}
	.st69{fill:#16506D;}
	.st70{fill:#12516A;}
	.st71{fill:#055462;}
	.st72{fill:#1B526C;}
	.st73{fill:#16466A;}
	.st74{fill:#114C6A;}
	.st75{fill:#144971;}
	.st76{fill:#1A5072;}
	.st77{fill:#0F4767;}
	.st78{fill:#065063;}
	.st79{fill:#0C5266;}
	.st80{fill:#12486E;}
	.st81{fill:#184B65;}
	.st82{fill:#1B4F71;}
	.st83{fill:#144B6D;}
	.st84{fill:#184B6C;}
	.st85{fill:#184676;}
	.st86{fill:#1D4B73;}
	.st87{fill:#1B4E74;}
	.st88{fill:#1B5272;}
	.st89{fill:#0F5368;}
	.st90{fill:#1E477A;}
	.st91{fill:#16526E;}
	.st92{fill:#1C5273;}
	.st93{fill:#16536D;}
	.st94{fill:#16436E;}
	.st95{fill:#12536A;}
	.st96{fill:#134D6D;}
	.st97{fill:#174968;}
	.st98{fill:#194473;}
	.st99{fill:#174E65;}
	.st100{fill:#0B5266;}
	.st101{fill:#1B4B77;}
	.st102{fill:#184373;}
	.st103{fill:#0B455B;}
	.st104{fill:#134864;}
	.st105{fill:#114967;}
	.st106{fill:#064E63;}
	.st107{fill:#0C4B68;}
	.st108{fill:#13506C;}
	.st109{fill:#17576E;}
	.st110{fill:#10516A;}
	.st111{fill:#1A436E;}
	.st112{fill:#174071;}
	.st113{fill:#1C496C;}
	.st114{fill:#134663;}
	.st115{fill:#104961;}
	.st116{fill:#194468;}
	.st117{fill:#0F456D;}
	.st118{fill:#0D4C69;}
	.st119{fill:#115169;}
	.st120{fill:#13496F;}
	.st121{fill:#11486F;}
	.st122{fill:#10456A;}
	.st123{fill:#164A66;}
	.st124{fill:#0E4A6A;}
	.st125{fill:#15536D;}
	.st126{fill:#194564;}
	.st127{fill:#0F3F63;}
	.st128{fill:#124A5E;}
	.st129{fill:#1B4C71;}
	.st130{fill:#164864;}
	.st131{fill:#13465D;}
	.st132{fill:#1A4A76;}
	.st133{fill:#0C4B69;}
	.st134{fill:#084962;}
	.st135{fill:#0F455E;}
	.st136{fill:#074E64;}
	.st137{fill:#10486E;}
	.st138{fill:#0E4F66;}
	.st139{fill:#144566;}
	.st140{fill:#1A4D75;}
	.st141{fill:#1D4C78;}
	.st142{fill:#15546A;}
	.st143{fill:#164772;}
	.st144{fill:#0D3763;}
	.st145{fill:#184070;}
	.st146{fill:#153F6B;}
	.st147{fill:#11435C;}
	.st148{fill:#103A68;}
	.st149{fill:#0B4161;}
	.st150{fill:#0D4966;}
	.st151{fill:#18516C;}
	.st152{fill:#19416A;}
	.st153{fill:#0F4456;}
	.st154{fill:#094455;}
	.st155{fill:#0C3F57;}
	.st156{fill:#0E3964;}
	.st157{fill:#074863;}
	.st158{fill:#0A4D67;}
	.st159{fill:#17506B;}
	.st160{fill:#0E4E64;}
	.st161{fill:#194D70;}
	.st162{fill:#16486C;}
	.st163{fill:#13466E;}
	.st164{fill:#0F416B;}
	.st165{fill:#144363;}
	.st166{fill:#12486A;}
	.st167{fill:#16485D;}
	.st168{fill:#0B425C;}
	.st169{fill:#16456F;}
	.st170{fill:#13485B;}
	.st171{fill:#12405E;}
	.st172{fill:#183E64;}
	.st173{fill:#173C67;}
	.st174{fill:#184A69;}
	.st175{fill:#0B486B;}
	.st176{fill:#0E4C5F;}
	.st177{fill:#1A476C;}
	.st178{fill:#134470;}
	.st179{fill:#1D4978;}
	.st180{fill:#0B4057;}
	.st181{fill:#14465A;}
	.st182{fill:#0A374E;}
	.st183{fill:#0E3E57;}
	.st184{fill:#193C63;}
	.st185{fill:#1C406C;}
	.st186{fill:#163A5D;}
	.st187{fill:#123D5D;}
	.st188{fill:#153E5E;}
	.st189{fill:#153C61;}
	.st190{fill:#163C65;}
	.st191{fill:#134D62;}
	.st192{fill:#175469;}
	.st193{fill:#12375E;}
	.st194{fill:#0B4667;}
	.st195{fill:#185071;}
	.st196{fill:#164368;}
	.st197{fill:#154457;}
	.st198{fill:#0D4155;}
	.st199{fill:#114D65;}
	.st200{fill:#1B3E68;}
	.st201{fill:#0A3D56;}
	.st202{fill:#144562;}
	.st203{fill:#11406C;}
	.st204{fill:#164270;}
	.st205{fill:#1A4F69;}
	.st206{fill:#05404F;}
	.st207{fill:#194771;}
	.st208{fill:#0D4666;}
	.st209{fill:#124B6A;}
	.st210{fill:#0C4660;}
	.st211{fill:#0F475E;}
	.st212{fill:#19416D;}
	.st213{fill:#123D64;}
	.st214{fill:#0C3754;}
	.st215{fill:#13395F;}
	.st216{fill:#1A3C64;}
	.st217{fill:#184C72;}
	.st218{fill:#154C6A;}
	.st219{fill:#144C70;}
	.st220{fill:#0D4561;}
	.st221{fill:#14406B;}
	.st222{fill:#154066;}
	.st223{fill:#093B57;}
	.st224{fill:#0A3D50;}
	.st225{fill:#0A3F52;}
	.st226{fill:#124354;}
	.st227{fill:#104462;}
	.st228{fill:#194F67;}
	.st229{fill:#084353;}
	.st230{fill:#174971;}
	.st231{fill:#16385C;}
	.st232{fill:#163960;}
	.st233{fill:#12375D;}
	.st234{fill:#123F53;}
	.st235{fill:#0C424F;}
	.st236{fill:#18405B;}
	.st237{fill:#144C5F;}
	.st238{fill:#0A3954;}
	.st239{fill:#0E3E52;}
	.st240{fill:#17375A;}
	.st241{fill:#153C57;}
	.st242{fill:#1A4768;}
	.st243{fill:#18446D;}
	.st244{fill:#0F3A58;}
	.st245{fill:#19436A;}
	.st246{fill:#144568;}
	.st247{fill:#19436D;}
	.st248{fill:#093C4C;}
	.st249{fill:#103254;}
	.st250{fill:#0E424F;}
	.st251{fill:#124A5F;}
	.st252{fill:#084265;}
	.st253{fill:#134652;}
	.st254{fill:#153A59;}
	.st255{fill:#184462;}
	.st256{fill:#0B4058;}
	.st257{fill:#0E465E;}
	.st258{fill:#043D4A;}
	.st259{fill:#0E3D57;}
	.st260{fill:#154166;}
	.st261{fill:#113E55;}
	.st262{fill:#1A436A;}
	.st263{fill:#114B5D;}
	.st264{fill:#184068;}
	.st265{fill:#0D375D;}
	.st266{fill:#133E55;}
	.st267{fill:#124055;}
	.st268{fill:#053A49;}
	.st269{fill:#113E5E;}
	.st270{fill:#103D64;}
	.st271{fill:#104366;}
	.st272{fill:#174870;}
	.st273{fill:#174A62;}
	.st274{fill:#183D5B;}
	.st275{fill:#12385A;}
	.st276{fill:#143A62;}
	.st277{fill:#103961;}
	.st278{fill:#184D5F;}
	.st279{fill:#16495F;}
	.st280{fill:#0E395D;}
	.st281{fill:#0E425E;}
	.st282{fill:#083455;}
	.st283{fill:#174062;}
	.st284{fill:#123354;}
	.st285{fill:#17385A;}
	.st286{fill:#143558;}
	.st287{fill:#123250;}
	.st288{fill:#092D4C;}
	.st289{fill:#114564;}
	.st290{fill:#103E52;}
	.st291{fill:#0E3A5B;}
	.st292{fill:#114152;}
	.st293{fill:#0A3F59;}
	.st294{fill:#134664;}
	.st295{fill:#153659;}
	.st296{fill:#10426A;}
	.st297{fill:#11426A;}
	.st298{fill:#153D68;}
	.st299{fill:#1A4764;}
	.st300{fill:#143D5A;}
	.st301{fill:#0F395E;}
	.st302{fill:#0E3A63;}
	.st303{fill:#123E54;}
	.st304{fill:#16465E;}
	.st305{fill:#133A5C;}
	.st306{fill:#0C3E57;}
	.st307{fill:#0C415B;}
	.st308{fill:#0D4357;}
	.st309{fill:#0B4458;}
	.st310{fill:#0E4556;}
	.st311{fill:#154A5C;}
	.st312{fill:#163C60;}
	.st313{fill:#194361;}
	.st314{fill:#0A3E5F;}
	.st315{fill:#114255;}
	.st316{fill:#143E5E;}
	.st317{fill:#0D4061;}
	.st318{fill:#0F4165;}
	.st319{fill:#164363;}
	.st320{fill:#0D2E4B;}
	.st321{fill:#14455A;}
	.st322{fill:#194960;}
	.st323{fill:#153A5F;}
	.st324{fill:#173F63;}
	.st325{fill:#0A2D4B;}
	.st326{fill:#13314C;}
	.st327{fill:#113758;}
	.st328{fill:#163B5E;}
	.st329{fill:#12314C;}
	.st330{fill:#153759;}
	.st331{fill:#0F3857;}
	.st332{fill:#114168;}
	.st333{fill:#174167;}
	.st334{fill:#13425E;}
	.st335{fill:#093351;}
	.st336{fill:#123A57;}
	.st337{fill:#0E3859;}
	.st338{fill:#10385B;}
	.st339{fill:#103A54;}
	.st340{fill:#153452;}
	.st341{fill:#0E375D;}
	.st342{fill:#0D3B59;}
	.st343{fill:#134256;}
	.st344{fill:#153E5A;}
	.st345{fill:#0D3F53;}
	.st346{fill:#0F3C60;}
	.st347{fill:#1C3F65;}
	.st348{fill:#164359;}
	.st349{fill:#164557;}
	.st350{fill:#104553;}
	.st351{fill:#11355A;}
	.st352{fill:#103556;}
	.st353{fill:#1B3E66;}
	.st354{fill:#0D2B42;}
	.st355{fill:#14324C;}
	.st356{fill:#123D57;}
	.st357{fill:#0E3E5A;}
	.st358{fill:#1A3B61;}
	.st359{fill:#163A5A;}
	.st360{fill:#153855;}
	.st361{fill:#0D3451;}
	.st362{fill:#0E414F;}
	.st363{fill:#18385C;}
	.st364{fill:#193A5F;}
	.st365{fill:#0C3150;}
	.st366{fill:#113653;}
	.st367{fill:#183857;}
	.st368{fill:#08263B;}
	.st369{fill:#082841;}
	.st370{fill:#133552;}
	.st371{fill:#0D3153;}
	.st372{fill:#173F5B;}
	.st373{fill:#113C55;}
	.st374{fill:#134655;}
	.st375{fill:#194364;}
	.st376{fill:#1A4368;}
	.st377{fill:#154061;}
	.st378{fill:#0D3857;}
	.st379{fill:#103655;}
	.st380{fill:#0B324E;}
	.st381{fill:#163656;}
	.st382{fill:#133659;}
	.st383{fill:#16395C;}
	.st384{fill:#113A5C;}
	.st385{fill:#174458;}
	.st386{fill:#113955;}
	.st387{fill:#143250;}
	.st388{fill:#134058;}
	.st389{fill:#154654;}
	.st390{fill:#113E54;}
	.st391{fill:#0F3E50;}
	.st392{fill:#10395B;}
	.st393{fill:#143E62;}
	.st394{fill:#143959;}
	.st395{fill:#143554;}
	.st396{fill:#12324E;}
	.st397{fill:#16365A;}
	.st398{fill:#15324D;}
	.st399{fill:#13324F;}
	.st400{fill:#14344E;}
	.st401{fill:#153B5C;}
	.st402{fill:#183F61;}
	.st403{fill:#11395B;}
	.st404{fill:#102C40;}
	.st405{fill:#113356;}
	.st406{fill:#143B59;}
	.st407{fill:#133C59;}
	.st408{fill:#1A385A;}
	.st409{fill:#103050;}
	.st410{fill:#0C2D46;}
	.st411{fill:#19415B;}
	.st412{fill:#0D2B46;}
	.st413{fill:#0C2E4D;}
	.st414{fill:#10304A;}
	.st415{fill:#112E46;}
	.st416{fill:#113757;}
	.st417{fill:#173856;}
	.st418{fill:#163B5C;}
	.st419{fill:#173B5C;}
	.st420{fill:#19405C;}
	.st421{fill:#092D47;}
	.st422{fill:#133150;}
	.st423{fill:#122E49;}
	.st424{fill:#0D2C43;}
	.st425{fill:#0F2B42;}
	.st426{fill:#0F314D;}
	.st427{fill:#183A58;}
	.st428{fill:#11324E;}
	.st429{fill:#0B2942;}
	.st430{fill:#173957;}
	.st431{fill:#143552;}
	.st432{fill:#17334E;}
	.st433{fill:#143755;}
	.st434{fill:#142D42;}
	.st435{fill:#0B283E;}
	.st436{fill:#132D42;}
	.st437{fill:#12304B;}
	.st438{fill:#0C2E4A;}
	.st439{fill:#0C2B44;}
	.st440{fill:#0F2D47;}
	.st441{fill:#0C2942;}
	.st442{fill:#0C273F;}
	.st443{fill:#112B42;}
</style>
<rect class="st0" width="3836.4" height="3843"/>
<g>
	<polygon class="st1" points="1829.9,1718 1785.4,1520.1 1557.1,1694.8 	"/>
	<polygon class="st2" points="1557.1,1694.8 1785.4,1520.1 1565.1,1496.8 	"/>
	<polygon class="st3" points="1565.1,1496.8 1329.3,1719.8 1557.1,1694.8 	"/>
	<polygon class="st4" points="1557.1,1694.8 1526.8,2033.2 1829.9,1718 	"/>
	<polygon class="st5" points="1829.9,1718 2139.9,2133.8 2112.3,1721.3 	"/>
	<polygon class="st6" points="2112.3,1721.3 1785.4,1520.1 1829.9,1718 	"/>
	<polygon class="st7" points="1557.1,1694.8 1329.3,1719.8 1526.8,2033.2 	"/>
	<polygon class="st8" points="1785.4,1520.1 1757.3,1174.6 1565.1,1496.8 	"/>
	<polygon class="st9" points="1757.3,1174.6 1523.7,1235.4 1565.1,1496.8 	"/>
	<polygon class="st10" points="1177.1,1575.8 1329.3,1719.8 1565.1,1496.8 	"/>
	<polygon class="st11" points="1785.4,1520.1 2144.1,1317.7 1757.3,1174.6 	"/>
	<polygon class="st12" points="1829.9,1718 1526.8,2033.2 1751.8,2114.7 	"/>
	<polygon class="st13" points="2132.4,1446.2 1785.4,1520.1 2112.3,1721.3 	"/>
	<polygon class="st14" points="1523.7,1235.4 1177.1,1575.8 1565.1,1496.8 	"/>
	<polygon class="st15" points="1329.3,1719.8 1264.8,2147.9 1526.8,2033.2 	"/>
	<polygon class="st16" points="2363.8,1442.3 2144.1,1317.7 2132.4,1446.2 	"/>
	<polygon class="st17" points="2132.4,1446.2 2144.1,1317.7 1785.4,1520.1 	"/>
	<polygon class="st18" points="2022.1,950.5 1723.1,1039.8 1757.3,1174.6 	"/>
	<polygon class="st19" points="1757.3,1174.6 1723.1,1039.8 1523.7,1235.4 	"/>
	<polygon class="st20" points="1177.1,1575.8 1064,1716.4 1329.3,1719.8 	"/>
	<polygon class="st21" points="2341.3,1992.6 2342.3,1742.1 2112.3,1721.3 	"/>
	<polygon class="st22" points="2342.3,1742.1 2132.4,1446.2 2112.3,1721.3 	"/>
	<polygon class="st23" points="1751.8,2114.7 2139.9,2133.8 1829.9,1718 	"/>
	<polygon class="st24" points="1744.6,2350.4 1981.5,2240.7 1751.8,2114.7 	"/>
	<polygon class="st25" points="1981.5,2240.7 2139.9,2133.8 1751.8,2114.7 	"/>
	<polygon class="st26" points="1329.3,1719.8 1064,1716.4 1264.8,2147.9 	"/>
	<polygon class="st27" points="1429.4,2300.5 1744.6,2350.4 1751.8,2114.7 	"/>
	<polygon class="st28" points="1523.7,1235.4 1456.4,959.1 1241.6,1159.7 	"/>
	<polygon class="st29" points="1241.6,1159.7 1177.1,1575.8 1523.7,1235.4 	"/>
	<polygon class="st30" points="998.8,1534.5 1064,1716.4 1177.1,1575.8 	"/>
	<polygon class="st31" points="2342.3,1742.1 2363.8,1442.3 2132.4,1446.2 	"/>
	<polygon class="st32" points="2144.1,1317.7 2022.1,950.5 1757.3,1174.6 	"/>
	<polygon class="st33" points="1526.8,2033.2 1429.4,2300.5 1751.8,2114.7 	"/>
	<polygon class="st34" points="1241.6,1159.7 998.8,1534.5 1177.1,1575.8 	"/>
	<polygon class="st35" points="1526.8,2033.2 1264.8,2147.9 1429.4,2300.5 	"/>
	<polygon class="st36" points="1723.1,1039.8 1456.4,959.1 1523.7,1235.4 	"/>
	<polygon class="st37" points="2139.9,2133.8 2341.3,1992.6 2112.3,1721.3 	"/>
	<polygon class="st38" points="2612.7,1532.2 2363.8,1442.3 2342.3,1742.1 	"/>
	<polygon class="st39" points="1264.8,2147.9 1047.6,2376.5 1331.6,2312.4 	"/>
	<polygon class="st40" points="1264.8,2147.9 1331.6,2312.4 1429.4,2300.5 	"/>
	<polygon class="st41" points="1577.7,2604.1 1732.2,2520.6 1744.6,2350.4 	"/>
	<polygon class="st42" points="2144.1,1317.7 2303.6,950.7 2022.1,950.5 	"/>
	<polygon class="st43" points="1723.1,1039.8 1542.4,766.1 1456.4,959.1 	"/>
	<polygon class="st44" points="2553.2,1210.4 2375.1,1275.5 2363.8,1442.3 	"/>
	<polygon class="st45" points="2363.8,1442.3 2375.1,1275.5 2144.1,1317.7 	"/>
	<polygon class="st46" points="1456.4,959.1 1202.5,949.1 1241.6,1159.7 	"/>
	<polygon class="st47" points="890.3,1303.9 998.8,1534.5 1241.6,1159.7 	"/>
	<polygon class="st48" points="1456.4,959.1 1310.1,774.5 1202.5,949.1 	"/>
	<polygon class="st49" points="667.9,1881.8 749.7,2111.1 930.5,2048.3 	"/>
	<polygon class="st50" points="1064,1716.4 930.5,2048.3 1264.8,2147.9 	"/>
	<polygon class="st51" points="889.9,934.8 890.3,1303.9 1241.6,1159.7 	"/>
	<polygon class="st52" points="1064,1716.4 667.9,1881.8 930.5,2048.3 	"/>
	<polygon class="st53" points="1429.4,2300.5 1577.7,2604.1 1744.6,2350.4 	"/>
	<polygon class="st54" points="1744.6,2350.4 1732.2,2520.6 1981.5,2240.7 	"/>
	<polygon class="st55" points="1981.5,2240.7 2290.5,2296 2139.9,2133.8 	"/>
	<polygon class="st56" points="2139.9,2133.8 2290.5,2296 2341.3,1992.6 	"/>
	<polygon class="st57" points="2111.9,2611.8 2290.5,2296 1981.5,2240.7 	"/>
	<polygon class="st58" points="1748.2,670.8 1542.4,766.1 1723.1,1039.8 	"/>
	<polygon class="st44" points="2375.1,1275.5 2303.6,950.7 2144.1,1317.7 	"/>
	<polygon class="st59" points="2022.1,950.5 1748.2,670.8 1723.1,1039.8 	"/>
	<polygon class="st60" points="2341.3,1992.6 2551.7,1998.3 2342.3,1742.1 	"/>
	<polygon class="st61" points="2621.7,1726.7 2612.7,1532.2 2342.3,1742.1 	"/>
	<polygon class="st62" points="2375.1,1275.5 2559.3,1044.6 2303.6,950.7 	"/>
	<polygon class="st63" points="2290.5,2296 2551.7,1998.3 2341.3,1992.6 	"/>
	<polygon class="st64" points="2551.7,1998.3 2621.7,1726.7 2342.3,1742.1 	"/>
	<polygon class="st65" points="2303.6,950.7 2055.6,767.8 2022.1,950.5 	"/>
	<polygon class="st66" points="1542.4,766.1 1310.1,774.5 1456.4,959.1 	"/>
	<polygon class="st67" points="665.4,1266.7 651.7,1467.4 890.3,1303.9 	"/>
	<polygon class="st68" points="2612.7,1532.2 2553.2,1210.4 2363.8,1442.3 	"/>
	<polygon class="st69" points="1211,2596.2 1577.7,2604.1 1331.6,2312.4 	"/>
	<polygon class="st70" points="1331.6,2312.4 1577.7,2604.1 1429.4,2300.5 	"/>
	<polygon class="st71" points="1732.2,2520.6 2111.9,2611.8 1981.5,2240.7 	"/>
	<polygon class="st72" points="2055.6,767.8 1748.2,670.8 2022.1,950.5 	"/>
	<polygon class="st73" points="1542.4,766.1 1522.4,530.2 1310.1,774.5 	"/>
	<polygon class="st74" points="930.5,2048.3 1047.6,2376.5 1264.8,2147.9 	"/>
	<polygon class="st75" points="2815.7,1064.2 2559.3,1044.6 2553.2,1210.4 	"/>
	<polygon class="st76" points="2553.2,1210.4 2559.3,1044.6 2375.1,1275.5 	"/>
	<polygon class="st77" points="2303.6,950.7 2319.9,791.3 2055.6,767.8 	"/>
	<polygon class="st78" points="1732.2,2520.6 1787.6,2908.5 2111.9,2611.8 	"/>
	<polygon class="st79" points="2290.5,2296 2641.8,2254.9 2551.7,1998.3 	"/>
	<polygon class="st80" points="2559.3,1044.6 2319.9,791.3 2303.6,950.7 	"/>
	<polygon class="st81" points="1824.6,492.7 1522.4,530.2 1748.2,670.8 	"/>
	<polygon class="st82" points="998.8,1534.5 667.9,1881.8 1064,1716.4 	"/>
	<polygon class="st83" points="930.5,2048.3 733,2323 1047.6,2376.5 	"/>
	<polygon class="st84" points="651.7,1467.4 667.9,1881.8 998.8,1534.5 	"/>
	<polygon class="st85" points="1202.5,949.1 889.9,934.8 1241.6,1159.7 	"/>
	<polygon class="st86" points="890.3,1303.9 651.7,1467.4 998.8,1534.5 	"/>
	<polygon class="st87" points="1047.6,2376.5 1009.3,2674.6 1211,2596.2 	"/>
	<polygon class="st88" points="1331.6,2312.4 1047.6,2376.5 1211,2596.2 	"/>
	<polygon class="st89" points="2317,2522.8 2290.5,2296 2111.9,2611.8 	"/>
	<polygon class="st90" points="1202.5,949.1 928.7,738.2 889.9,934.8 	"/>
	<polygon class="st91" points="2621.7,1726.7 2777.7,1457.7 2612.7,1532.2 	"/>
	<polygon class="st92" points="2770,1301.1 2553.2,1210.4 2612.7,1532.2 	"/>
	<polygon class="st93" points="2806.5,1875.4 2777.7,1457.7 2621.7,1726.7 	"/>
	<polygon class="st94" points="722.1,1053.7 665.4,1266.7 890.3,1303.9 	"/>
	<polygon class="st95" points="2513.4,2504.6 2641.8,2254.9 2290.5,2296 	"/>
	<polygon class="st78" points="2551.7,1998.3 2806.5,1875.4 2621.7,1726.7 	"/>
	<polygon class="st96" points="2777.7,1457.7 2770,1301.1 2612.7,1532.2 	"/>
	<polygon class="st97" points="1748.2,670.8 1522.4,530.2 1542.4,766.1 	"/>
	<polygon class="st98" points="1310.1,774.5 928.7,738.2 1202.5,949.1 	"/>
	<polygon class="st99" points="2055.6,767.8 1824.6,492.7 1748.2,670.8 	"/>
	<polygon class="st100" points="2833,1976.1 2806.5,1875.4 2551.7,1998.3 	"/>
	<polygon class="st101" points="3057.2,1048.3 2815.7,1064.2 2770,1301.1 	"/>
	<polygon class="st102" points="889.9,934.8 722.1,1053.7 890.3,1303.9 	"/>
	<polygon class="st103" points="2118.6,412.7 1824.6,492.7 2055.6,767.8 	"/>
	<polygon class="st104" points="749.7,2111.1 476.3,2064.2 733,2323 	"/>
	<polygon class="st105" points="749.7,2111.1 733,2323 930.5,2048.3 	"/>
	<polygon class="st106" points="2641.8,2254.9 2833,1976.1 2551.7,1998.3 	"/>
	<polygon class="st107" points="2806.5,1875.4 3078,1590.5 2777.7,1457.7 	"/>
	<polygon class="st108" points="2373.9,2916.3 2513.4,2504.6 2317,2522.8 	"/>
	<polygon class="st109" points="2317,2522.8 2513.4,2504.6 2290.5,2296 	"/>
	<polygon class="st110" points="2641.8,2254.9 2867,2234.5 2833,1976.1 	"/>
	<polygon class="st111" points="1310.1,774.5 1255.3,433.8 928.7,738.2 	"/>
	<polygon class="st112" points="663.3,714.1 722.1,1053.7 889.9,934.8 	"/>
	<polygon class="st113" points="665.4,1266.7 489.7,1563.2 651.7,1467.4 	"/>
	<polygon class="st114" points="651.7,1467.4 489.7,1563.2 667.9,1881.8 	"/>
	<polygon class="st115" points="667.9,1881.8 476.3,2064.2 749.7,2111.1 	"/>
	<polygon class="st116" points="362,1170.9 489.7,1563.2 665.4,1266.7 	"/>
	<polygon class="st117" points="1047.6,2376.5 739.2,2561.7 1009.3,2674.6 	"/>
	<polygon class="st118" points="1456,2944 1787.6,2908.5 1577.7,2604.1 	"/>
	<polygon class="st119" points="1577.7,2604.1 1787.6,2908.5 1732.2,2520.6 	"/>
	<polygon class="st120" points="2777.7,1457.7 3156.2,1276.4 2770,1301.1 	"/>
	<polygon class="st121" points="2770,1301.1 2815.7,1064.2 2553.2,1210.4 	"/>
	<polygon class="st122" points="2559.3,1044.6 2601.1,706.2 2319.9,791.3 	"/>
	<polygon class="st123" points="2319.9,791.3 2118.6,412.7 2055.6,767.8 	"/>
	<polygon class="st124" points="1211,2596.2 1456,2944 1577.7,2604.1 	"/>
	<polygon class="st125" points="2111.9,2611.8 2373.9,2916.3 2317,2522.8 	"/>
	<polygon class="st126" points="1522.4,530.2 1469.7,223.7 1255.3,433.8 	"/>
	<polygon class="st127" points="1522.4,530.2 1255.3,433.8 1310.1,774.5 	"/>
	<polygon class="st128" points="402.9,1858.8 476.3,2064.2 667.9,1881.8 	"/>
	<polygon class="st129" points="733,2323 739.2,2561.7 1047.6,2376.5 	"/>
	<polygon class="st130" points="2319.9,791.3 2370,407.1 2118.6,412.7 	"/>
	<polygon class="st131" points="1824.6,492.7 1830.4,222.5 1522.4,530.2 	"/>
	<polygon class="st132" points="2815.7,1064.2 2601.1,706.2 2559.3,1044.6 	"/>
	<polygon class="st133" points="2925.2,2532.6 2867,2234.5 2641.8,2254.9 	"/>
	<polygon class="st134" points="3148,1814.7 3078,1590.5 2806.5,1875.4 	"/>
	<polygon class="st135" points="489.7,1563.2 402.9,1858.8 667.9,1881.8 	"/>
	<polygon class="st136" points="1787.6,2908.5 1990.2,2926.7 2111.9,2611.8 	"/>
	<polygon class="st0" points="2513.4,2504.6 2925.2,2532.6 2641.8,2254.9 	"/>
	<polygon class="st137" points="1264.5,2943.5 1456,2944 1211,2596.2 	"/>
	<polygon class="st138" points="1787.6,2908.5 1822.6,3051.6 1990.2,2926.7 	"/>
	<polygon class="st139" points="733,2323 389.5,2545.9 739.2,2561.7 	"/>
	<polygon class="st140" points="1009.3,2674.6 1264.5,2943.5 1211,2596.2 	"/>
	<polygon class="st141" points="955.2,2815.4 1264.5,2943.5 1009.3,2674.6 	"/>
	<polygon class="st142" points="2833,1976.1 3148,1814.7 2806.5,1875.4 	"/>
	<polygon class="st143" points="1009.3,2674.6 739.2,2561.7 955.2,2815.4 	"/>
	<polygon class="st144" points="928.7,738.2 793.1,400 663.3,714.1 	"/>
	<polygon class="st145" points="928.7,738.2 663.3,714.1 889.9,934.8 	"/>
	<polygon class="st146" points="722.1,1053.7 477.7,960.2 665.4,1266.7 	"/>
	<polygon class="st147" points="489.7,1563.2 216.6,1507.8 402.9,1858.8 	"/>
	<polygon class="st148" points="663.3,714.1 477.7,960.2 722.1,1053.7 	"/>
	<polygon class="st149" points="2601.1,706.2 2370,407.1 2319.9,791.3 	"/>
	<polygon class="st150" points="1456,2944 1559,3105.8 1787.6,2908.5 	"/>
	<polygon class="st151" points="1559,3105.8 1822.6,3051.6 1787.6,2908.5 	"/>
	<polygon class="st152" points="477.7,960.2 362,1170.9 665.4,1266.7 	"/>
	<polygon class="st153" points="2137.9,177.4 1830.4,222.5 2118.6,412.7 	"/>
	<polygon class="st154" points="2118.6,412.7 1830.4,222.5 1824.6,492.7 	"/>
	<polygon class="st10" points="2867,2234.5 3067.5,2057.8 2833,1976.1 	"/>
	<polygon class="st155" points="1830.4,222.5 1469.7,223.7 1522.4,530.2 	"/>
	<polygon class="st156" points="1255.3,433.8 897.7,387 928.7,738.2 	"/>
	<polygon class="st157" points="1990.2,2926.7 2248.2,3130.6 2373.9,2916.3 	"/>
	<polygon class="st158" points="1990.2,2926.7 2373.9,2916.3 2111.9,2611.8 	"/>
	<polygon class="st159" points="2867,2234.5 3179,2373.8 3067.5,2057.8 	"/>
	<polygon class="st160" points="3067.5,2057.8 3148,1814.7 2833,1976.1 	"/>
	<polygon class="st161" points="1264.5,2943.5 1559,3105.8 1456,2944 	"/>
	<polygon class="st162" points="1153.7,3160.6 1559,3105.8 1264.5,2943.5 	"/>
	<polygon class="st163" points="3156.2,1276.4 3057.2,1048.3 2770,1301.1 	"/>
	<polygon class="st164" points="2845.8,637.6 2601.1,706.2 2815.7,1064.2 	"/>
	<polygon class="st165" points="2601.1,706.2 2629.1,383.8 2370,407.1 	"/>
	<polygon class="st166" points="3078,1590.5 3156.2,1276.4 2777.7,1457.7 	"/>
	<polygon class="st167" points="476.3,2064.2 138.9,2035.7 344.6,2248.9 	"/>
	<polygon class="st168" points="476.3,2064.2 344.6,2248.9 733,2323 	"/>
	<polygon class="st169" points="739.2,2561.7 687.1,2776.4 955.2,2815.4 	"/>
	<polygon class="st170" points="402.9,1858.8 138.9,2035.7 476.3,2064.2 	"/>
	<polygon class="st171" points="362,1170.9 216.6,1507.8 489.7,1563.2 	"/>
	<polygon class="st172" points="1255.3,433.8 1167.3,190.9 897.7,387 	"/>
	<polygon class="st173" points="476.6,673.4 477.7,960.2 663.3,714.1 	"/>
	<polygon class="st174" points="3078,1590.5 3350.8,1583 3156.2,1276.4 	"/>
	<polygon class="st175" points="2857.8,2940.2 2925.2,2532.6 2513.4,2504.6 	"/>
	<polygon class="st176" points="3067.5,2057.8 3399.5,1994.5 3148,1814.7 	"/>
	<polygon class="st177" points="739.2,2561.7 389.5,2545.9 687.1,2776.4 	"/>
	<polygon class="st178" points="955.2,2815.4 1025.9,3098.6 1264.5,2943.5 	"/>
	<polygon class="st179" points="3057.2,1048.3 2845.8,637.6 2815.7,1064.2 	"/>
	<polygon class="st180" points="2370,407.1 2244.6,212.2 2118.6,412.7 	"/>
	<polygon class="st181" points="2244.6,212.2 2137.9,177.4 2118.6,412.7 	"/>
	<polygon class="st182" points="1554.8,0 1268.5,0 1469.7,223.7 	"/>
	<polygon class="st183" points="2370,407.1 2555.1,105.2 2244.6,212.2 	"/>
	<polygon class="st184" points="897.7,387 689.1,219.2 793.1,400 	"/>
	<polygon class="st185" points="897.7,387 793.1,400 928.7,738.2 	"/>
	<polygon class="st186" points="1167.3,190.9 1065.8,0 1031.1,0 962.7,148.6 	"/>
	<polygon class="st187" points="1469.7,223.7 1167.3,190.9 1255.3,433.8 	"/>
	<polygon class="st188" points="191.2,1252.1 216.6,1507.8 362,1170.9 	"/>
	<polygon class="st189" points="261,969.4 191.2,1252.1 362,1170.9 	"/>
	<polygon class="st190" points="477.7,960.2 261,969.4 362,1170.9 	"/>
	<polygon class="st191" points="1822.6,3051.6 1753.4,3446.7 1985.4,3175.4 	"/>
	<polygon class="st192" points="1822.6,3051.6 1985.4,3175.4 1990.2,2926.7 	"/>
	<polygon class="st193" points="521.7,359 476.6,673.4 663.3,714.1 	"/>
	<polygon class="st194" points="2373.9,2916.3 2500.2,3138 2557.7,2952.3 	"/>
	<polygon class="st195" points="2557.7,2952.3 2513.4,2504.6 2373.9,2916.3 	"/>
	<polygon class="st196" points="2845.8,637.6 2629.1,383.8 2601.1,706.2 	"/>
	<polygon class="st197" points="216.6,1507.8 0,1668.9 0,1739 140,1823.7 	"/>
	<polygon class="st198" points="216.6,1507.8 140,1823.7 402.9,1858.8 	"/>
	<polygon class="st199" points="1985.4,3175.4 2248.2,3130.6 1990.2,2926.7 	"/>
	<polygon class="st200" points="476.6,673.4 261,969.4 477.7,960.2 	"/>
	<polygon class="st201" points="344.6,2248.9 103,2268.6 389.5,2545.9 	"/>
	<polygon class="st202" points="344.6,2248.9 389.5,2545.9 733,2323 	"/>
	<polygon class="st203" points="687.1,2776.4 633.4,3155.3 955.2,2815.4 	"/>
	<polygon class="st204" points="633.4,3155.3 1025.9,3098.6 955.2,2815.4 	"/>
	<polygon class="st205" points="1559,3105.8 1604.9,3370.3 1822.6,3051.6 	"/>
	<polygon class="st206" points="140,1823.7 138.9,2035.7 402.9,1858.8 	"/>
	<polygon class="st207" points="1025.9,3098.6 1153.7,3160.6 1264.5,2943.5 	"/>
	<polygon class="st208" points="3075.6,2591.7 3179,2373.8 2925.2,2532.6 	"/>
	<polygon class="st209" points="2925.2,2532.6 3179,2373.8 2867,2234.5 	"/>
	<polygon class="st210" points="3148,1814.7 3350.8,1583 3078,1590.5 	"/>
	<polygon class="st211" points="3443.5,1809.6 3350.8,1583 3148,1814.7 	"/>
	<polygon class="st212" points="3057.2,1048.3 3401.9,1017.6 3169.4,658.6 	"/>
	<polygon class="st213" points="2868.7,411.9 2845.8,637.6 3101.1,477.1 	"/>
	<polygon class="st214" points="1469.7,223.7 1268.5,0 1200.1,0 1167.3,190.9 	"/>
	<polygon class="st215" points="1167.3,190.9 962.7,148.6 897.7,387 	"/>
	<polygon class="st216" points="793.1,400 521.7,359 663.3,714.1 	"/>
	<polygon class="st217" points="3075.6,2591.7 2925.2,2532.6 2857.8,2940.2 	"/>
	<polygon class="st218" points="2248.2,3130.6 2500.2,3138 2373.9,2916.3 	"/>
	<polygon class="st219" points="2857.8,2940.2 2513.4,2504.6 2557.7,2952.3 	"/>
	<polygon class="st220" points="2248.2,3130.6 2266.8,3337.7 2500.2,3138 	"/>
	<polygon class="st221" points="3169.4,658.6 2845.8,637.6 3057.2,1048.3 	"/>
	<polygon class="st222" points="2868.7,411.9 2629.1,383.8 2845.8,637.6 	"/>
	<polygon class="st223" points="2629.1,383.8 2555.1,105.2 2370,407.1 	"/>
	<polygon class="st224" points="2244.6,212.2 2268.7,0 2229.2,0 2137.9,177.4 	"/>
	<polygon class="st225" points="138.9,2035.7 103,2268.6 344.6,2248.9 	"/>
	<polygon class="st226" points="138.9,2035.7 0,2112.2 0,2152.7 103,2268.6 	"/>
	<polygon class="st227" points="1281,3364.1 1604.9,3370.3 1559,3105.8 	"/>
	<polygon class="st228" points="1985.4,3175.4 2266.8,3337.7 2248.2,3130.6 	"/>
	<polygon class="st229" points="3619.5,2119.1 3595,1790.3 3399.5,1994.5 	"/>
	<polygon class="st228" points="3179,2373.8 3399.5,1994.5 3067.5,2057.8 	"/>
	<polygon class="st230" points="2557.7,2952.3 2860.2,3087.5 2857.8,2940.2 	"/>
	<polygon class="st231" points="793.1,400 689.1,219.2 521.7,359 	"/>
	<polygon class="st232" points="247.7,643.8 261,969.4 476.6,673.4 	"/>
	<polygon class="st233" points="962.7,148.6 689.1,219.2 897.7,387 	"/>
	<polygon class="st234" points="0,1460.2 0,1668.9 216.6,1507.8 	"/>
	<polygon class="st235" points="140,1823.7 0,2081 0,2112.2 138.9,2035.7 	"/>
	<polygon class="st236" points="191.2,1252.1 0,1353.3 0,1460.2 216.6,1507.8 	"/>
	<polygon class="st237" points="3399.5,1994.5 3443.5,1809.6 3148,1814.7 	"/>
	<polygon class="st238" points="2629.1,383.8 2663.7,0 2555.1,105.2 	"/>
	<polygon class="st239" points="1830.4,222.5 1692.7,0 1554.8,0 1469.7,223.7 	"/>
	<polygon class="st240" points="252.9,374.4 247.7,643.8 476.6,673.4 	"/>
	<polygon class="st241" points="0,1251.7 0,1353.3 191.2,1252.1 	"/>
	<polygon class="st242" points="3350.8,1583 3447,1203.7 3156.2,1276.4 	"/>
	<polygon class="st243" points="3156.2,1276.4 3401.9,1017.6 3057.2,1048.3 	"/>
	<polygon class="st244" points="2942.6,83 2663.7,0 2629.1,383.8 	"/>
	<polygon class="st245" points="966.8,3444.5 1281,3364.1 1153.7,3160.6 	"/>
	<polygon class="st246" points="1153.7,3160.6 1281,3364.1 1559,3105.8 	"/>
	<polygon class="st247" points="1025.9,3098.6 966.8,3444.5 1153.7,3160.6 	"/>
	<polygon class="st248" points="1754,0 1692.7,0 1830.4,222.5 	"/>
	<polygon class="st249" points="962.7,148.6 819.3,0 672.6,0 689.1,219.2 	"/>
	<polygon class="st250" points="1927.5,0 1754,0 1830.4,222.5 	"/>
	<polygon class="st251" points="1998.6,3437.3 2266.8,3337.7 1985.4,3175.4 	"/>
	<polygon class="st252" points="2500.2,3138 2860.2,3087.5 2557.7,2952.3 	"/>
	<polygon class="st253" points="0,1739 0,2081 140,1823.7 	"/>
	<polygon class="st254" points="1200.1,0 1065.8,0 1167.3,190.9 	"/>
	<polygon class="st255" points="3350.8,1583 3656.5,1502.6 3447,1203.7 	"/>
	<polygon class="st256" points="1604.9,3370.3 1520.8,3633.4 1753.4,3446.7 	"/>
	<polygon class="st257" points="1604.9,3370.3 1753.4,3446.7 1822.6,3051.6 	"/>
	<polygon class="st258" points="2137.9,177.4 2069.5,0 1927.5,0 1830.4,222.5 	"/>
	<polygon class="st259" points="103,2268.6 186.4,2645.5 389.5,2545.9 	"/>
	<polygon class="st260" points="389.5,2545.9 368.8,2918.7 687.1,2776.4 	"/>
	<polygon class="st261" points="103,2268.6 0,2462.8 0,2536.7 186.4,2645.5 	"/>
	<polygon class="st262" points="3447,1203.7 3401.9,1017.6 3156.2,1276.4 	"/>
	<polygon class="st263" points="1753.4,3446.7 1998.6,3437.3 1985.4,3175.4 	"/>
	<polygon class="st264" points="3101.1,477.1 2845.8,637.6 3169.4,658.6 	"/>
	<polygon class="st265" points="3312.7,637.8 3101.1,477.1 3169.4,658.6 	"/>
	<polygon class="st266" points="2555.1,105.2 2663.7,0 2412.8,0 	"/>
	<polygon class="st267" points="2555.1,105.2 2412.8,0 2268.7,0 2244.6,212.2 	"/>
	<polygon class="st268" points="2229.2,0 2069.5,0 2137.9,177.4 	"/>
	<polygon class="st269" points="389.5,2545.9 186.4,2645.5 368.8,2918.7 	"/>
	<polygon class="st270" points="687.1,2776.4 368.8,2918.7 633.4,3155.3 	"/>
	<polygon class="st271" points="2500.2,3138 2777.7,3361.1 2860.2,3087.5 	"/>
	<polygon class="st272" points="3199.3,2874.6 3075.6,2591.7 2857.8,2940.2 	"/>
	<polygon class="st273" points="3179,2373.8 3569.7,2258.5 3399.5,1994.5 	"/>
	<polygon class="st274" points="0,1154.3 0,1251.7 191.2,1252.1 	"/>
	<polygon class="st275" points="261,969.4 0,1035.4 0,1154.3 191.2,1252.1 	"/>
	<polygon class="st276" points="3401.9,1017.6 3682.9,937.8 3312.7,637.8 	"/>
	<polygon class="st277" points="3401.9,1017.6 3312.7,637.8 3169.4,658.6 	"/>
	<polygon class="st278" points="3399.5,1994.5 3595,1790.3 3443.5,1809.6 	"/>
	<polygon class="st279" points="3443.5,1809.6 3595,1790.3 3350.8,1583 	"/>
	<polygon class="st280" points="3447,1203.7 3673.9,1192.5 3401.9,1017.6 	"/>
	<polygon class="st281" points="3469.2,2412.3 3179,2373.8 3448,2624.5 	"/>
	<polygon class="st282" points="3112.8,167.2 2942.6,83 2868.7,411.9 	"/>
	<polygon class="st283" points="2942.6,83 2629.1,383.8 2868.7,411.9 	"/>
	<polygon class="st284" points="689.1,219.2 426.7,221.7 521.7,359 	"/>
	<polygon class="st285" points="521.7,359 252.9,374.4 476.6,673.4 	"/>
	<polygon class="st286" points="0,766.3 0,1035.4 261,969.4 	"/>
	<polygon class="st287" points="689.1,219.2 441.9,0 439.9,0 426.7,221.7 	"/>
	<polygon class="st288" points="426.7,221.7 252.9,374.4 521.7,359 	"/>
	<polygon class="st289" points="3448,2624.5 3179,2373.8 3075.6,2591.7 	"/>
	<polygon class="st290" points="0,2279.2 0,2462.8 103,2268.6 	"/>
	<polygon class="st291" points="186.4,2645.5 148.4,2823.3 368.8,2918.7 	"/>
	<polygon class="st292" points="0,2152.7 0,2279.2 103,2268.6 	"/>
	<polygon class="st293" points="2266.8,3337.7 2401.2,3649.7 2561.4,3379.1 	"/>
	<polygon class="st294" points="2266.8,3337.7 2561.4,3379.1 2500.2,3138 	"/>
	<polygon class="st295" points="247.7,643.8 0,647.5 0,766.3 261,969.4 	"/>
	<polygon class="st296" points="2860.2,3087.5 3153.2,3107 2857.8,2940.2 	"/>
	<polygon class="st297" points="3153.2,3107 3199.3,2874.6 2857.8,2940.2 	"/>
	<polygon class="st298" points="764.1,3450 966.8,3444.5 1025.9,3098.6 	"/>
	<polygon class="st299" points="1281,3364.1 1520.8,3633.4 1604.9,3370.3 	"/>
	<polygon class="st300" points="186.4,2645.5 0,2748 0,2798 148.4,2823.3 	"/>
	<polygon class="st301" points="368.8,2918.7 356.1,3075.1 633.4,3155.3 	"/>
	<polygon class="st302" points="633.4,3155.3 764.1,3450 1025.9,3098.6 	"/>
	<polygon class="st303" points="3836.4,1713.4 3836.4,1482.2 3656.5,1502.6 	"/>
	<polygon class="st304" points="3595,1790.3 3656.5,1502.6 3350.8,1583 	"/>
	<polygon class="st305" points="368.8,2918.7 147.4,3053 356.1,3075.1 	"/>
	<polygon class="st306" points="3617.4,2519.2 3569.7,2258.5 3469.2,2412.3 	"/>
	<polygon class="st307" points="3469.2,2412.3 3569.7,2258.5 3179,2373.8 	"/>
	<polygon class="st308" points="3569.7,2258.5 3619.5,2119.1 3399.5,1994.5 	"/>
	<polygon class="st309" points="1998.6,3437.3 2065.5,3591.2 2266.8,3337.7 	"/>
	<polygon class="st310" points="1828.5,3671.2 2065.5,3591.2 1998.6,3437.3 	"/>
	<polygon class="st311" points="1753.4,3446.7 1828.5,3671.2 1998.6,3437.3 	"/>
	<polygon class="st312" points="3101.1,477.1 3112.8,167.2 2868.7,411.9 	"/>
	<polygon class="st313" points="1274.1,3741.2 1520.8,3633.4 1281,3364.1 	"/>
	<polygon class="st314" points="3419.9,2795.1 3448,2624.5 3075.6,2591.7 	"/>
	<polygon class="st315" points="3569.7,2258.5 3836.4,2157.9 3836.4,2111.8 3619.5,2119.1 	"/>
	<polygon class="st316" points="3656.5,1502.6 3673.9,1192.5 3447,1203.7 	"/>
	<polygon class="st317" points="2561.4,3379.1 2777.7,3361.1 2500.2,3138 	"/>
	<polygon class="st318" points="3199.3,2874.6 3419.9,2795.1 3075.6,2591.7 	"/>
	<polygon class="st319" points="2561.4,3379.1 2638.8,3633.3 2777.7,3361.1 	"/>
	<polygon class="st320" points="672.6,0 441.9,0 689.1,219.2 	"/>
	<polygon class="st321" points="1520.8,3633.4 1828.5,3671.2 1753.4,3446.7 	"/>
	<polygon class="st322" points="2065.5,3591.2 2401.2,3649.7 2266.8,3337.7 	"/>
	<polygon class="st323" points="476.2,3456.9 764.1,3450 633.4,3155.3 	"/>
	<polygon class="st324" points="966.8,3444.5 1274.1,3741.2 1281,3364.1 	"/>
	<polygon class="st325" points="252.9,374.4 0,527.1 0,544.1 247.7,643.8 	"/>
	<polygon class="st326" points="0,199.2 0,527.1 252.9,374.4 	"/>
	<polygon class="st327" points="3343.1,403.3 3112.8,167.2 3101.1,477.1 	"/>
	<polygon class="st328" points="3343.1,403.3 3101.1,477.1 3312.7,637.8 	"/>
	<polygon class="st329" points="133.6,101.1 252.9,374.4 426.7,221.7 	"/>
	<polygon class="st330" points="3312.7,637.8 3629.9,468.8 3343.1,403.3 	"/>
	<polygon class="st331" points="148.4,2823.3 0,2798 0,2871.6 147.4,3053 	"/>
	<polygon class="st332" points="2860.2,3087.5 2777.7,3361.1 3153.2,3107 	"/>
	<polygon class="st333" points="3405,3179.5 3419.9,2795.1 3199.3,2874.6 	"/>
	<polygon class="st334" points="3448,2624.5 3617.4,2519.2 3469.2,2412.3 	"/>
	<polygon class="st240" points="1031.1,0 819.3,0 962.7,148.6 	"/>
	<polygon class="st335" points="2941.7,0 2879.4,0 2942.6,83 	"/>
	<polygon class="st336" points="2879.4,0 2663.7,0 2942.6,83 	"/>
	<polygon class="st337" points="148.4,2823.3 147.4,3053 368.8,2918.7 	"/>
	<polygon class="st338" points="356.1,3075.1 476.2,3456.9 633.4,3155.3 	"/>
	<polygon class="st339" points="0,2536.7 0,2748 186.4,2645.5 	"/>
	<polygon class="st340" points="0,544.1 0,647.5 247.7,643.8 	"/>
	<polygon class="st341" points="3673.9,1192.5 3682.9,937.8 3401.9,1017.6 	"/>
	<polygon class="st342" points="3736.1,2786.1 3617.4,2519.2 3448,2624.5 	"/>
	<polygon class="st343" points="3595,1790.3 3836.4,1809.2 3836.4,1713.4 3656.5,1502.6 	"/>
	<polygon class="st344" points="3656.5,1502.6 3836.4,1482.2 3836.4,1418 3673.9,1192.5 	"/>
	<polygon class="st345" points="2065.5,3591.2 2230.7,3843 2238.7,3843 2401.2,3649.7 	"/>
	<polygon class="st346" points="2777.7,3361.1 3159.8,3466.2 3153.2,3107 	"/>
	<polygon class="st347" points="1001.1,3739.6 1274.1,3741.2 966.8,3444.5 	"/>
	<polygon class="st348" points="1520.8,3633.4 1550.3,3843 1626,3843 1828.5,3671.2 	"/>
	<polygon class="st349" points="2108,3843 2230.7,3843 2065.5,3591.2 	"/>
	<polygon class="st350" points="3619.5,2119.1 3836.4,1903.2 3836.4,1809.2 3595,1790.3 	"/>
	<polygon class="st351" points="3673.9,1192.5 3836.4,1034 3836.4,934.7 3682.9,937.8 	"/>
	<polygon class="st352" points="356.1,3075.1 257.1,3319.3 476.2,3456.9 	"/>
	<polygon class="st353" points="764.1,3450 1001.1,3739.6 966.8,3444.5 	"/>
	<polygon class="st354" points="434.9,0 120.5,0 133.6,101.1 	"/>
	<polygon class="st355" points="426.7,221.7 439.9,0 434.9,0 133.6,101.1 	"/>
	<polygon class="st356" points="2401.2,3649.7 2475.7,3843 2546,3843 2638.8,3633.3 	"/>
	<polygon class="st357" points="2401.2,3649.7 2638.8,3633.3 2561.4,3379.1 	"/>
	<polygon class="st358" points="654.7,3681.9 1001.1,3739.6 764.1,3450 	"/>
	<polygon class="st359" points="147.4,3053 257.1,3319.3 356.1,3075.1 	"/>
	<polygon class="st360" points="147.4,3053 0,3151.9 0,3219.2 257.1,3319.3 	"/>
	<polygon class="st361" points="0,2871.6 0,3151.9 147.4,3053 	"/>
	<polygon class="st362" points="3836.4,2111.8 3836.4,1903.2 3619.5,2119.1 	"/>
	<polygon class="st363" points="3682.9,937.8 3836.4,934.7 3836.4,808.6 3697.1,642.6 	"/>
	<polygon class="st364" points="3682.9,937.8 3697.1,642.6 3312.7,637.8 	"/>
	<polygon class="st365" points="3429.1,223.2 3112.8,167.2 3343.1,403.3 	"/>
	<polygon class="st366" points="3112.8,167.2 3208.7,0 3175.8,0 2942.6,83 	"/>
	<polygon class="st367" points="3629.9,468.8 3429.1,223.2 3343.1,403.3 	"/>
	<polygon class="st368" points="0.2,0 0,0 0,187.6 133.6,101.1 	"/>
	<polygon class="st369" points="133.6,101.1 0,187.6 0,199.2 252.9,374.4 	"/>
	<polygon class="st370" points="3429.1,223.2 3230.2,0 3208.7,0 3112.8,167.2 	"/>
	<polygon class="st371" points="3697.1,642.6 3629.9,468.8 3312.7,637.8 	"/>
	<polygon class="st372" points="1274.1,3741.2 1312,3843 1371.1,3843 1520.8,3633.4 	"/>
	<polygon class="st373" points="1371.1,3843 1550.3,3843 1520.8,3633.4 	"/>
	<polygon class="st374" points="1828.5,3671.2 2022.6,3843 2108,3843 2065.5,3591.2 	"/>
	<polygon class="st375" points="2638.8,3633.3 2882.1,3590.7 2777.7,3361.1 	"/>
	<polygon class="st376" points="3153.2,3107 3405,3179.5 3199.3,2874.6 	"/>
	<polygon class="st377" points="3419.9,2795.1 3736.1,2786.1 3448,2624.5 	"/>
	<polygon class="st378" points="2638.8,3633.3 2741.9,3843 2815.5,3843 2882.1,3590.7 	"/>
	<polygon class="st379" points="1151.2,3843 1312,3843 1274.1,3741.2 	"/>
	<polygon class="st380" points="3175.8,0 2941.7,0 2942.6,83 	"/>
	<polygon class="st381" points="409.1,3657.9 654.7,3681.9 476.2,3456.9 	"/>
	<polygon class="st382" points="476.2,3456.9 654.7,3681.9 764.1,3450 	"/>
	<polygon class="st383" points="1001.1,3739.6 998.8,3843 1151.2,3843 1274.1,3741.2 	"/>
	<polygon class="st384" points="3336.2,3407.6 3405,3179.5 3153.2,3107 	"/>
	<polygon class="st385" points="3836.4,2345.3 3836.4,2157.9 3569.7,2258.5 	"/>
	<polygon class="st386" points="3836.4,1418 3836.4,1260.5 3673.9,1192.5 	"/>
	<polygon class="st387" points="3697.1,642.6 3836.4,532.8 3836.4,438.6 3629.9,468.8 	"/>
	<polygon class="st388" points="3617.4,2519.2 3836.4,2458.9 3836.4,2345.3 3569.7,2258.5 	"/>
	<polygon class="st389" points="1794.8,3843 2022.6,3843 1828.5,3671.2 	"/>
	<polygon class="st390" points="2238.7,3843 2475.7,3843 2401.2,3649.7 	"/>
	<polygon class="st391" points="1626,3843 1794.8,3843 1828.5,3671.2 	"/>
	<polygon class="st392" points="3675.8,3210.6 3736.1,2786.1 3419.9,2795.1 	"/>
	<polygon class="st393" points="2777.7,3361.1 2882.1,3590.7 3159.8,3466.2 	"/>
	<polygon class="st394" points="3159.8,3466.2 3199.3,3671.9 3336.2,3407.6 	"/>
	<polygon class="st395" points="257.1,3319.3 409.1,3657.9 476.2,3456.9 	"/>
	<polygon class="st352" points="3836.4,1260.5 3836.4,1034 3673.9,1192.5 	"/>
	<polygon class="st396" points="82.1,3609.9 409.1,3657.9 257.1,3319.3 	"/>
	<polygon class="st397" points="688.2,3843 998.8,3843 1001.1,3739.6 	"/>
	<polygon class="st398" points="3629.9,468.8 3836.4,157.7 3836.4,135.6 3600.7,183.3 	"/>
	<polygon class="st399" points="3600.7,183.3 3429.1,223.2 3629.9,468.8 	"/>
	<polygon class="st400" points="3462.8,0 3230.2,0 3429.1,223.2 	"/>
	<polygon class="st401" points="2882.1,3590.7 3199.3,3671.9 3159.8,3466.2 	"/>
	<polygon class="st402" points="3159.8,3466.2 3336.2,3407.6 3153.2,3107 	"/>
	<polygon class="st403" points="3405,3179.5 3675.8,3210.6 3419.9,2795.1 	"/>
	<polygon class="st404" points="120.5,0 0.2,0 133.6,101.1 	"/>
	<polygon class="st405" points="654.7,3681.9 652.7,3843 688.2,3843 1001.1,3739.6 	"/>
	<polygon class="st406" points="3836.4,2827.4 3836.4,2717.2 3736.1,2786.1 	"/>
	<polygon class="st407" points="3736.1,2786.1 3836.4,2717.2 3836.4,2624.7 3617.4,2519.2 	"/>
	<polygon class="st408" points="3836.4,808.6 3836.4,643.9 3697.1,642.6 	"/>
	<polygon class="st409" points="527.2,3843 652.7,3843 654.7,3681.9 	"/>
	<polygon class="st410" points="3600.7,183.3 3495.2,0 3462.8,0 3429.1,223.2 	"/>
	<polygon class="st411" points="3836.4,2624.7 3836.4,2458.9 3617.4,2519.2 	"/>
	<polygon class="st412" points="232.5,3843 520.2,3843 409.1,3657.9 	"/>
	<polygon class="st413" points="409.1,3657.9 520.2,3843 527.2,3843 654.7,3681.9 	"/>
	<polygon class="st414" points="257.1,3319.3 0,3419 0,3540 82.1,3609.9 	"/>
	<polygon class="st415" points="3667.6,0 3495.2,0 3600.7,183.3 	"/>
	<polygon class="st416" points="3336.2,3407.6 3675.8,3210.6 3405,3179.5 	"/>
	<polygon class="st417" points="3726.5,3468.6 3675.8,3210.6 3336.2,3407.6 	"/>
	<polygon class="st418" points="2882.1,3590.7 2815.5,3843 2938.3,3843 3199.3,3671.9 	"/>
	<polygon class="st419" points="3675.8,3210.6 3836.4,2983.8 3836.4,2827.4 3736.1,2786.1 	"/>
	<polygon class="st420" points="2546,3843 2741.9,3843 2638.8,3633.3 	"/>
	<polygon class="st421" points="0,3219.2 0,3419 257.1,3319.3 	"/>
	<polygon class="st422" points="3836.4,643.9 3836.4,532.8 3697.1,642.6 	"/>
	<polygon class="st423" points="3836.4,438.6 3836.4,157.7 3629.9,468.8 	"/>
	<polygon class="st424" points="0,3540 0,3629 82.1,3609.9 	"/>
	<polygon class="st425" points="3836.4,135.6 3836.4,101.1 3781.4,0 3667.6,0 3600.7,183.3 	"/>
	<polygon class="st426" points="3199.3,3671.9 3370.3,3843 3394.4,3843 3464,3669.9 	"/>
	<polygon class="st427" points="3199.3,3671.9 3464,3669.9 3336.2,3407.6 	"/>
	<polygon class="st428" points="3177.2,3843 3370.3,3843 3199.3,3671.9 	"/>
	<polygon class="st429" points="82.1,3609.9 106.4,3843 232.5,3843 409.1,3657.9 	"/>
	<polygon class="st430" points="3836.4,3181.3 3836.4,2983.8 3675.8,3210.6 	"/>
	<polygon class="st431" points="3464,3669.9 3726.5,3468.6 3336.2,3407.6 	"/>
	<polygon class="st396" points="3836.4,3420.7 3836.4,3181.3 3675.8,3210.6 	"/>
	<polygon class="st432" points="3744.7,3672.5 3836.4,3515.3 3836.4,3463.2 3726.5,3468.6 	"/>
	<polygon class="st433" points="2938.3,3843 3177.2,3843 3199.3,3671.9 	"/>
	<polygon class="st434" points="0,3843 26.1,3843 0,3809.4 	"/>
	<polygon class="st435" points="0,3629 0,3809.4 26.1,3843 106.4,3843 82.1,3609.9 	"/>
	<polygon class="st436" points="3836.4,0 3781.4,0 3836.4,101.1 	"/>
	<polygon class="st437" points="3744.7,3672.5 3726.5,3468.6 3464,3669.9 	"/>
	<polygon class="st438" points="3726.5,3468.6 3836.4,3463.2 3836.4,3420.7 3675.8,3210.6 	"/>
	<polygon class="st439" points="3464,3669.9 3567.1,3843 3666.6,3843 3744.7,3672.5 	"/>
	<polygon class="st440" points="3394.4,3843 3567.1,3843 3464,3669.9 	"/>
	<polygon class="st441" points="3836.4,3684.3 3836.4,3515.3 3744.7,3672.5 	"/>
	<polygon class="st442" points="3666.6,3843 3801.2,3843 3744.7,3672.5 	"/>
	<polygon class="st443" points="3801.2,3843 3836.4,3843 3836.4,3684.3 3744.7,3672.5 	"/>
</g>
</svg>
