<?xml version="1.0" encoding="utf-8"?>
<!-- Generator: Adobe Illustrator 22.0.1, SVG Export Plug-In . SVG Version: 6.00 Build 0)  -->
<svg version="1.1" id="Layer_1" xmlns="http://www.w3.org/2000/svg" xmlns:xlink="http://www.w3.org/1999/xlink" x="0px" y="0px"
	 viewBox="0 0 1417.3 1417.3" style="enable-background:new 0 0 1417.3 1417.3;" xml:space="preserve">
<style type="text/css">
	.st0{fill:#9C201F;}
	.st1{fill:#FFFFFF;}
</style>
<rect y="0" class="st0" width="1417.3" height="1417.7"/>
<g>
	<g>
		<path class="st1" d="M1251,792.4v-6.5l2-0.6v-38.5l-2-0.8v-6.5l21.5-8.5l3,9.1c-3.6,2-5.9,3.6-7.1,4.3c-2.2,1.8-3.9,3.8-5.1,5.9
			c-1,1.8-1.4,3.4-1.4,4.9c0,0.8,0.2,1.4,0.6,1.6c0.4,0.4,1.2,0.4,2.4,0.4h35.5c2.2,0,3.4,0,3.9-0.2l1.2-0.8c0.4-0.4,0.6-1,0.6-1.6
			c0.2-0.6,0.2-2.6,0.2-5.5h8.5v33.4h-8.5v-2c0-2.2-0.2-3.6-0.4-4.3l-1.4-1.4c-0.6-0.4-2-0.4-3.9-0.4h-36.3c-1,0-1.6,0.2-2,0.4
			c-0.2,0.2-0.4,0.8-0.4,1.6c0,1.8,0.6,3.6,1.8,5.7c1.2,2.2,2.8,3.9,4.9,5.7c0.8,0.6,3.2,2,6.9,4.1l-3,8.9L1251,792.4z"/>
		<path class="st1" d="M1261.1,721.3c-5.9-6.9-8.9-15.8-8.9-26.8c0-10.9,3-19.5,8.9-26.3s13.6-10.1,22.9-10.1
			c6.3,0,11.8,1.6,16.8,4.5c4.9,3.2,8.7,7.3,11.3,12.8c2.6,5.3,3.9,11.8,3.9,19.5c0,10.1-2.6,18.4-7.5,24.9
			c-6.1,7.7-14.2,11.6-24.3,11.6C1274.7,731.6,1267,728.2,1261.1,721.3 M1271.8,679.4c-3.4,1.6-5.7,3.6-7.5,6.3
			c-1.6,2.8-2.4,5.5-2.4,8.7c0,5.1,1.8,9.3,5.3,12.4c4.3,3.9,10.1,5.7,17.2,5.7c6.9,0,12.4-1.8,16.6-5.3c3.6-3.2,5.1-7.1,5.1-12.2
			c0-5.1-1.8-9.3-5.1-12.2c-4.1-3.6-9.7-5.5-16.6-5.5C1279.3,677.1,1275.1,677.9,1271.8,679.4"/>
		<path class="st1" d="M1306.3,658.3v-2.4c0-2-0.2-3.4-0.4-3.9c-0.2-0.6-0.8-1.2-1.6-1.6c-0.6-0.2-1.8-0.4-3.8-0.4h-33.8
			c-2,0-3.2,0.2-3.6,0.4c-0.6,0.2-1,0.8-1.2,1.4c-0.2,0.6-0.4,2-0.4,3.9v2.4h-8.5v-35.7c0-8.1,1.2-14.6,3.6-19.3s5.7-8.7,10.3-11.5
			c4.5-3,10.1-4.3,16.4-4.3c4.5,0,8.5,0.8,11.8,2.2c3.6,1.4,6.7,3.6,9.5,6.5c2.8,3,4.9,5.9,6.3,9.3c1,2.6,2,5.9,2.6,10.7
			c0.6,4.5,1,8.3,1,10.9v31.6H1306.3z M1272.2,608.2c-3.4,1.8-5.7,3.9-7.1,6.5c-1.4,2.6-2,6.3-2,11.1v7.5h38.3c1.2,0,2.2,0,2.4-0.2
			l1-1.2c0.2-0.6,0.2-1.8,0.2-3.8c0-5.3-0.8-9.5-2.2-12.6c-1.6-3-3.9-5.5-7.1-7.3c-3.4-1.8-7.3-2.8-11.8-2.8
			C1279.3,605.6,1275.3,606.4,1272.2,608.2"/>
		<path class="st1" d="M1306.3,592c0-1.8-0.2-3-0.4-3.8c-0.2-0.8-0.6-1.4-1.2-2c-0.6-0.6-1.6-1.2-3-1.8l-48.6-21.1V548l47.6-20.5
			c2.6-1.2,4.1-2.2,4.7-3c0.6-0.8,0.8-2.6,0.8-4.7h8.5v32.4h-8.5v-2c0-1.8-0.2-3-0.6-3.8c-0.4-0.8-1-1-1.6-1c-0.6,0-1.6,0.4-3.4,1
			l-5.5,2v20.7l6.3,2.6c1.4,0.6,2.2,0.8,2.6,0.8l1.4-0.6c0.4-0.4,0.6-1,0.8-1.8c0-0.6,0.2-2.2,0.2-4.5h8.5V592H1306.3z
			 M1269.4,558.6l17,7.1v-13.6L1269.4,558.6z"/>
		<path class="st1" d="M1253,531.8v-34h8.5v2.6c0,1.8,0.2,3,0.4,3.4l1.2,0.8c0.8,0,2-0.6,3.4-1.6l13.4-8.9l-14-10.1
			c-1.2-0.8-2-1.4-2-1.4l-1-0.2l-1.2,0.6c-0.2,0.4-0.4,1.2-0.4,2.6v3.6h-8.5v-27.2h8.5c0,2.4,0.2,4.1,0.8,5.1c0.4,1,1.6,2.2,3.4,3.4
			l23.9,18.2h11.1c2,0,3.2-0.2,3.8-0.4c0.6-0.4,1-0.8,1.2-1.4c0.2-0.6,0.4-2,0.4-3.9v-2.4h8.5v33.4h-8.5V512c0-2.4-0.2-3.9-0.4-4.5
			c-0.4-0.6-0.8-1.2-1.4-1.4c-0.6-0.4-2-0.6-3.9-0.6h-9.7l-25.1,18.2c-2,1.4-3.2,2.8-3.8,3.8c-0.4,0.8-0.6,2.4-0.6,4.7h-7.9V531.8z"
			/>
	</g>
	<g>
		<path class="st1" d="M314.5,740.8v-37.7h9.7c7.1,0,11.8,0.4,19-0.4L342.9,585h-95.2V666c0,7.7,0.8,30,4.5,37.1h39.3v37.7H114.1
			v-37.7h9.7c7.1,0,11.3,1.2,18.4,0.4l0.2-233.1c0-3.9,0-16.8-3.2-19.7c-1.2-0.4-2.6-0.2-3.8-0.2h-34.2v-37.9h177.3v37.7h-30.8v94.2
			h95v-74c0-3.9,0-16.8-3.2-19.7c-1.2-0.4-2.6-0.2-3.8-0.2h-34.2v-37.9h175.7v37.7H448v215.6c0,7.7,0.8,30,4.5,37.1h37.7v37.7H314.5
			V740.8z"/>
		<path class="st1" d="M1009,403.2c-150.4,0-199.2,110.9-199.2,181.8c0,105.6,81.3,164.8,186.4,164.8
			c150.4,0,199.8-110.9,199.8-181.8C1196,462.4,1114.2,403.2,1009,403.2 M1017.7,716.3c-86.9,0-108-112.1-108-174.5
			c0-46.8,16-104.8,78.2-104.8c86.9,0,108.6,112.1,108.6,174.5C1096.3,658.1,1079.9,716.3,1017.7,716.3"/>
		<path class="st1" d="M841.2,702.9c-10.9,0-14.4-3-21.1-9.5c-27.2-26.5-57.4-69.9-81.9-110c49-10.9,63.4-51.1,63.4-68.1
			c0-77.4-69.5-103.1-129.3-103.1H490.6V450h34.2c1.2,0,2.6,0,3.8,0.2c3.2,3,3.2,15.8,3.2,19.7c0,0,0.4,234.1-0.2,233.1
			c-7.1,0.8-11.3-0.6-18.6-0.6h-9.7v37.7h177.3v-37.7h-39.3c-3.8-6.9-4.5-29.4-4.5-37.1V602H647c17.4,39.7,51.5,105.8,75.4,129.1
			c8.9,8.7,20.1,9.7,31.6,9.7c2.8,0,5.5,0,8.3,0h88.2v-37.7h-9.3V702.9z M641.4,568.2h-9.7V448.8v-0.6c2.4-0.8,5.1-0.6,7.5-0.6
			c37.3,0,62.6,34.2,62.6,65.9C702,548.3,680.1,568.2,641.4,568.2"/>
	</g>
	<g>
		<polygon class="st1" points="112.6,882.6 180.3,882.6 180.3,906.5 138.4,906.5 138.4,929.6 180.3,929.6 180.3,953.1 138.4,953.1 
			138.4,1010.9 112.6,1010.9 		"/>
		<path class="st1" d="M377.1,879.3c19.3,0,35.9,6.5,49.7,19.7c13.8,13.2,20.9,29.2,20.9,48s-6.9,34.5-20.5,47.6
			s-30.4,19.5-49.9,19.5c-20.5,0-37.5-6.7-51.1-19.9s-20.3-29.2-20.3-47.4c0-12.2,3.2-23.5,9.5-33.8c6.3-10.3,15-18.4,26.1-24.5
			C352.4,882.4,364.3,879.3,377.1,879.3 M376.9,903.2c-12.6,0-23.3,4.1-31.8,12.4c-8.7,8.3-12.8,18.8-12.8,31.4
			c0,14.2,5.3,25.5,16.2,33.8c8.5,6.5,18.2,9.7,29,9.7c12.2,0,22.9-4.1,31.4-12.6c8.7-8.3,13-18.8,13-31c0-12.2-4.3-22.5-13-31
			C400,907.5,389.3,903.2,376.9,903.2"/>
		<path class="st1" d="M587.9,882.6h27.6c15,0,25.9,1.2,32.2,3.8c6.3,2.6,11.5,6.7,15.4,12.6c3.9,5.9,5.9,12.8,5.9,20.9
			c0,8.5-2.2,15.4-6.5,21.1c-4.3,5.7-10.9,9.9-19.3,12.8l32.4,57.1h-28.4l-30.8-54.3H614v54.3h-26.1V882.6z M614,932.8h8.1
			c8.3,0,14-1,17-3c3.2-2,4.7-5.3,4.7-10.1c0-2.8-0.8-5.3-2.4-7.3c-1.6-2.2-3.6-3.6-6.1-4.5c-2.6-1-7.3-1.4-14.2-1.4H614L614,932.8
			L614,932.8z"/>
		<path class="st1" d="M804.7,882.6h26.1v82.9c0,7.1,0.6,12.2,2,15.2c1.4,3,3.6,5.3,6.5,7.1c3.2,1.8,6.7,2.6,11.1,2.6
			c4.5,0,8.5-1,11.8-3c3.4-2,5.5-4.5,6.9-7.5c1.2-3,2-8.9,2-17.6v-80h26.1v76.4c0,12.8-0.8,21.9-2.4,26.8s-4.5,9.9-8.9,14.4
			c-4.3,4.7-9.5,8.1-15,10.3c-5.7,2.2-12.2,3.4-19.9,3.4c-9.9,0-18.6-2.2-25.9-6.3c-7.3-4.3-12.6-9.7-15.8-16
			c-3.2-6.5-4.7-17.2-4.7-32.6v-76.2H804.7z"/>
		<polygon class="st1" points="1049.9,882.6 1075.2,882.6 1106.7,972.1 1138.7,882.6 1164,882.6 1186.9,1010.9 1161.8,1010.9 
			1147.2,929.8 1118.2,1010.9 1095.3,1010.9 1066.5,929.8 1051.5,1010.9 1026.2,1010.9 		"/>
	</g>
	<rect x="110.8" y="807.4" class="st1" width="1085.2" height="9.5"/>
</g>
</svg>
