<?xml version="1.0" encoding="utf-8"?>
<!-- Generator: Adobe Illustrator 22.0.1, SVG Export Plug-In . SVG Version: 6.00 Build 0)  -->
<svg version="1.1" id="Layer_1" xmlns="http://www.w3.org/2000/svg" xmlns:xlink="http://www.w3.org/1999/xlink" x="0px" y="0px"
	 viewBox="0 0 1417.3 1417.3" style="enable-background:new 0 0 1417.3 1417.3;" xml:space="preserve">
<style type="text/css">
	.st0{fill:#152859;}
	.st1{fill:#FFFFFF;}
</style>
<rect y="0" class="st0" width="1417.3" height="1417.7"/>
<g>
	<path class="st1" d="M743.3,448.5h-48.7c-4.6,0-8.3,3.7-8.3,8.3v202.5c0,4.6-3.7,8.3-8.3,8.3h-53.7c-4.6,0-8.3-3.7-8.3-8.3V456.8
		c0-4.6-3.7-8.3-8.3-8.3h-48.7c-4.6,0-8.3,3.7-8.3,8.3v501.4c0,4.6,3.7,8.3,8.3,8.3h48.7c4.6,0,8.3-3.7,8.3-8.3V741
		c0-4.6,3.7-8.3,8.3-8.3h53.7c4.6,0,8.3,3.7,8.3,8.3v217.2c0,4.6,3.7,8.3,8.3,8.3h48.7c4.6,0,8.3-3.7,8.3-8.3V456.8
		C751.6,452.2,747.9,448.5,743.3,448.5z"/>
	<path class="st1" d="M914.4,446.2H836c-4.6,0-8.3,3.7-8.3,8.3v503.7c0,4.6,3.7,8.3,8.3,8.3h48.7c4.6,0,8.3-3.7,8.3-8.3V733.9
		c0-4.6,3.7-8.3,8.3-8.3h21.5c0.1,0,0.2,0,0.3,0c19.8,0.1,35.8,16.3,35.8,36.1v192c0,4.6,3.7,8.3,8.3,8.3h48.7
		c4.6,0,8.3-3.7,8.3-8.3v-192c0-24-8.4-46.1-22.5-63.5c-2.4-3-2.4-7.3,0-10.3c14-17.4,22.5-39.5,22.5-63.5v-68.5
		C1024,495.3,974.9,446.2,914.4,446.2z M958.8,624.3c0,19.8-16.1,35.9-35.8,36.1c-0.1,0-0.2,0-0.3,0h-21.5c-4.6,0-8.3-3.7-8.3-8.3
		V519.7c0-4.6,3.7-8.3,8.3-8.3h13.2c24.5,0,44.4,19.9,44.4,44.4V624.3z"/>
	<path class="st1" d="M1287.9,454h-48.7c-4.6,0-8.3,3.7-8.3,8.3v404.9c0,20.9-16.6,38.4-37.6,38.7c-21.3,0.3-38.7-16.9-38.7-38.1
		V457.4c0-4.6-3.7-8.3-8.3-8.3h-48.7c-4.6,0-8.3,3.7-8.3,8.3v409.3c0,57.1,45.9,104.2,103.1,104.4c57.1,0.2,103.6-46.3,103.6-103.4
		V462.3C1296.2,457.7,1292.5,454,1287.9,454z"/>
	<path class="st1" d="M431.2,669.1l-56.4,0.7L396,561l33.3-0.4c6.8-0.1,23.7-0.2,23.7-0.2s-4.5-22.1-4.8-23.3
		c-1.8-9-9.8-15.7-19.4-15.6l-25.3,0.3l10.2-52.6c1-5.3,4.9-22.9,4.9-22.9h-20.4c-12.7,0.5-20.9,4.9-22.9,15.5l-11.8,60.6l-111,1.3
		l10.6-54.4c1-5.3,4.9-22.9,4.9-22.9h-20.4c-12.7,0.5-20.9,4.9-22.9,15.5L212.7,524l-68.1,0.8c-5.4,0.1-23.5-0.2-23.5-0.2l4.1,20
		c3.1,12.3,9,19.5,19.8,19.4l60.1-0.7L183.9,672l-37.1,0.4c-5.4,0.1-23.5-0.2-23.5-0.2l4.1,20c3.1,12.3,9,19.5,19.8,19.4l29-0.3
		l-15.8,81.3c-1.3,6.6-4.5,23.3-4.5,23.3s22.5,0,23.8,0c9.2,0,17.4-6.5,19.2-15.8l17.4-89.2l111-1.3L311,792.5
		c-1.3,6.6-4.5,23.3-4.5,23.3s22.5,0,23.8,0c9.2,0,17.4-6.5,19.2-15.8l17.7-91l64.4-0.8c6.8-0.1,23.7-0.2,23.7-0.2
		s-4.5-22.1-4.8-23.3C448.7,675.7,440.7,669,431.2,669.1z M334.9,670.2l-111,1.3L245,562.8l111-1.3L334.9,670.2z"/>
</g>
</svg>
