<?xml version="1.0" encoding="utf-8"?>
<!-- Generator: Adobe Illustrator 22.0.1, SVG Export Plug-In . SVG Version: 6.00 Build 0)  -->
<svg version="1.1" id="Layer_1" xmlns="http://www.w3.org/2000/svg" xmlns:xlink="http://www.w3.org/1999/xlink" x="0px" y="0px"
	 viewBox="0 0 1417.3 1417.3" style="enable-background:new 0 0 1417.3 1417.3;" xml:space="preserve">
<style type="text/css">
	.st0{fill:#46483D;}
	.st1{fill:#FFFFFF;}
	.st2{fill:#BED52E;}
</style>
<rect x="0" class="st0" width="1417.3" height="1417.7"/>
<a xlink:href="/" >
	<path class="st1" d="M238.3,402.5c0-2-1.4-2.8-3.1-1.8l-77,44.4c-1.7,1-3.1,3.4-3.1,5.4v305.9c0,2,1.4,4.4,3.1,5.4L273,828
		c1.7,1,4.5,1,6.2,0l75.6-43.6c1.7-1,1.7-2.6,0-3.6l-113.4-66.9c-1.7-1-3.1-3.4-3.1-5.4L238.3,402.5L238.3,402.5z"/>
	<path class="st2" d="M655,815.5c1.7,1,3.1,0.2,3.1-1.8V638.8c0-2-1.4-4.4-3.1-5.4l-114.7-66.2c-1.7-1-4.5-1-6.2,0l-114.7,66.2
		c-1.7,1-3.1,3.4-3.1,5.4v174.9c0,2,1.4,2.8,3.1,1.8l77-44.4c1.7-1,3.1-3.4,3.1-5.4v-78.9c0-2,1.4-4.4,3.1-5.4l31.5-18.2
		c1.7-1,4.5-1,6.2,0l31.5,18.2c1.7,1,3.1,3.4,3.1,5.4v78.9c0,2,1.4,4.4,3.1,5.4L655,815.5z"/>
	<path class="st1" d="M721.4,591.2c-1.7-1-3.1-0.2-3.1,1.8v174.9c0,2,1.4,4.4,3.1,5.4l114.7,66.2c1.7,1,4.5,1,6.2,0L957,773.3
		c1.7-1,3.1-3.4,3.1-5.4V593c0-2-1.4-2.8-3.1-1.8l-77,44.4c-1.7,1-3.1,3.4-3.1,5.4v78.9c0,2-1.4,4.4-3.1,5.4l-31.5,18.2
		c-1.7,1-4.5,1-6.2,0l-31.5-18.2c-1.7-1-3.1-3.4-3.1-5.4V641c0-2-1.4-4.4-3.1-5.4L721.4,591.2z"/>
	<path class="st1" d="M1144.4,567.2c-1.7-1-4.5-1-6.2,0l-114.7,66.2c-1.7,1-3.1,3.4-3.1,5.4v131.9c0,2,1.4,4.4,3.1,5.4l114.7,66.2
		c1.7,1,4.5,1,6.2,0l31.5-18.2c1.7-1,3.1-0.2,3.1,1.8v70.8c0,2-1.4,4.4-3.1,5.4L1062.5,969c-1.7,1-1.7,2.6,0,3.6l75.6,43.6
		c1.7,1,4.5,1,6.2,0l114.7-66.2c1.7-1,3.1-3.4,3.1-5.4V638.8c0-2-1.4-4.4-3.1-5.4L1144.4,567.2z M1106.6,728.1
		c-1.7-1-3.1-3.4-3.1-5.4v-35.8c0-2,1.4-4.4,3.1-5.4l31.5-18.2c1.7-1,4.5-1,6.2,0l31.5,18.2c1.7,1,3.1,3.4,3.1,5.4v35.8
		c0,2-1.4,4.4-3.1,5.4l-31.5,18.2c-1.7,1-4.5,1-6.2,0L1106.6,728.1z"/>
	<path class="st2" d="M1171.4,718.4c0,2-1.4,4.4-3.1,5.4l-24,13.8c-1.7,1-4.5,1-6.2,0l-24-13.8c-1.7-1-3.1-3.4-3.1-5.4v-27.7
		c0-2,1.4-4.4,3.1-5.4l24-13.8c1.7-1,4.5-1,6.2,0l24,13.8c1.7,1,3.1,3.4,3.1,5.4V718.4z"/>
</a>
</svg>
