<?xml version="1.0" encoding="utf-8"?>
<!-- Generator: Adobe Illustrator 22.0.1, SVG Export Plug-In . SVG Version: 6.00 Build 0)  -->
<svg version="1.1" id="Layer_1" xmlns="http://www.w3.org/2000/svg" xmlns:xlink="http://www.w3.org/1999/xlink" x="0px" y="0px"
	 viewBox="0 0 1417.3 1417.3" style="enable-background:new 0 0 1417.3 1417.3;" xml:space="preserve">
<style type="text/css">
	.st0{fill:#DD4333;}
	.st1{fill:#FFFFFF;}
</style>
<rect x="0" class="st0" width="1417.3" height="1417.7"/>
<g>
	<path class="st1" d="M324.8,672.8c19.9,0.9,40-8.8,60.4-29.2l81.8-81.8c12-12,22.6-19.8,31.8-23.3c6.5-2.5,13.4-3,20.6-1.5
		c4.4,1,17.1,6.6,38,16.8c-8.3-16.8-13.1-26.8-14.2-29.9c-2.5-6.5-3.6-12.8-3.3-18.8c0.4-6,2.3-12,5.7-18c3.5-6,10.1-13.9,19.8-23.7
		l81.6-81.6c11.2-11.2,19.4-23.1,24.6-35.7c3.7-8.5,5.4-16.6,5.2-24.3c-0.2-7.7-3.3-17.5-9.2-29.4c-6.9-13.2-17.5-26.5-31.6-40.1
		L620.8,237l-10.3,10.3c5.2,4.4,9.2,9.1,12,14.1c2.8,5,4.4,10.5,4.9,16.6c0.5,6-0.3,11.8-2.3,17.4c-2.1,5.6-4.8,11-8.4,16.2
		c-1.8,2.4-7.2,8.1-16.1,17l-78.1,78.1c-12.3,12.3-20.9,24.2-25.9,35.7c-3.8,8.6-4.6,18.3-2.3,29.1c2.3,10.8,7.6,22.4,15.9,35
		c-10.5-6.8-19.6-11.4-27.3-13.9c-7.7-2.5-15.4-3.4-23-2.9c-7.6,0.6-14.9,3-21.9,7.4c-9.9,5.9-19.1,13.2-27.6,21.6l-78.1,78.1
		c-9.8,9.8-15.6,15.4-17.6,16.8c-7.6,4.8-14.9,7.9-21.9,9.3c-6.9,1.4-14,0.6-21.1-2.4c-7.1-3-14-7.7-20.5-13.9l-10.3,10.3
		c2.4,2.7,11.5,11.9,15.1,15.5C282,658.5,305,671.9,324.8,672.8z"/>
	<path class="st1" d="M1145.6,620.6c-7.1,3-14.2,3.9-21.1,2.4c-6.9-1.4-14.2-4.5-21.9-9.3c-2-1.4-7.9-7-17.6-16.8l-78.1-78.1
		c-8.5-8.5-17.7-15.7-27.6-21.6c-6.9-4.4-14.2-6.9-21.9-7.4c-7.6-0.6-15.3,0.4-23,2.9c-7.7,2.5-16.8,7.1-27.3,13.9
		c8.3-12.6,13.7-24.3,15.9-35c2.3-10.8,1.5-20.4-2.3-29.1c-5-11.5-13.6-23.3-25.9-35.7l-78.1-78.1c-8.9-8.9-14.3-14.6-16.1-17
		c-3.5-5.2-6.3-10.6-8.4-16.2c-2.1-5.6-2.8-11.4-2.3-17.4c0.5-6,2.1-11.5,4.9-16.6c2.8-5,6.8-9.7,12-14.1L796.5,237l-15.3,15.3
		c-14.2,13.6-24.7,27-31.6,40.1c-5.9,11.9-9,21.7-9.2,29.4c-0.2,7.7,1.5,15.8,5.2,24.3c5.2,12.6,13.4,24.5,24.6,35.7l81.6,81.6
		c9.8,9.8,16.4,17.7,19.8,23.7c3.5,6,5.4,12,5.7,18c0.4,6-0.7,12.3-3.3,18.8c-1.1,3.1-5.9,13.1-14.2,29.9
		c20.9-10.2,33.6-15.8,38-16.8c7.2-1.6,14.1-1.1,20.6,1.5c9.2,3.5,19.8,11.3,31.8,23.3l81.8,81.8c20.4,20.4,40.5,30.1,60.4,29.2
		c19.9-0.9,42.8-14.4,68.9-40.4c3.5-3.5,12.6-12.8,15.1-15.5l-10.3-10.3C1159.6,612.9,1152.8,617.5,1145.6,620.6z"/>
	<path class="st1" d="M1092.5,744.5c-19.9-0.9-40,8.8-60.4,29.2l-81.8,81.8c-12,12-22.6,19.8-31.8,23.3c-6.5,2.5-13.4,3-20.6,1.5
		c-4.4-1-17.1-6.6-38-16.8c8.3,16.8,13.1,26.8,14.2,29.9c2.5,6.5,3.6,12.8,3.3,18.8c-0.4,6-2.3,12-5.7,18
		c-3.5,6-10.1,13.9-19.8,23.7l-81.6,81.6c-11.2,11.2-19.4,23.1-24.6,35.7c-3.7,8.5-5.4,16.6-5.2,24.3c0.2,7.7,3.3,17.5,9.2,29.4
		c6.9,13.2,17.5,26.5,31.6,40.1l15.3,15.3l10.3-10.3c-5.2-4.4-9.2-9.1-12-14.1c-2.8-5-4.4-10.5-4.9-16.6c-0.5-6,0.3-11.8,2.3-17.4
		c2.1-5.6,4.8-11,8.4-16.2c1.8-2.4,7.2-8.1,16.1-17l78.1-78.1c12.3-12.3,20.9-24.2,25.9-35.7c3.8-8.6,4.6-18.3,2.3-29.1
		c-2.3-10.8-7.6-22.4-15.9-35c10.5,6.8,19.6,11.4,27.3,13.9c7.7,2.5,15.4,3.4,23,2.9c7.6-0.6,14.9-3,21.9-7.4
		c9.9-5.9,19.1-13.2,27.6-21.6l78.1-78.1c9.8-9.8,15.6-15.4,17.6-16.8c7.6-4.8,14.9-7.9,21.9-9.3c6.9-1.4,14-0.6,21.1,2.4
		c7.1,3,14,7.7,20.5,13.9l10.3-10.3c-2.4-2.7-11.5-11.9-15.1-15.5C1135.3,758.8,1112.3,745.4,1092.5,744.5z"/>
	<path class="st1" d="M676.9,1095.5c0.2-7.7-1.5-15.8-5.2-24.3c-5.2-12.6-13.4-24.5-24.6-35.7l-81.6-81.6
		c-9.8-9.8-16.4-17.7-19.8-23.7c-3.5-6-5.4-12-5.7-18c-0.4-6,0.7-12.3,3.3-18.8c1.1-3.1,5.9-13.1,14.2-29.9
		c-20.9,10.2-33.6,15.8-38,16.8c-7.2,1.6-14.1,1.1-20.6-1.5c-9.2-3.5-19.8-11.3-31.8-23.3l-81.8-81.8
		c-20.4-20.4-40.5-30.1-60.4-29.2c-19.9,0.9-42.8,14.4-68.9,40.4c-3.5,3.5-12.6,12.8-15.1,15.5l10.3,10.3
		c6.5-6.2,13.3-10.9,20.5-13.9c7.1-3,14.2-3.9,21.1-2.4c6.9,1.4,14.2,4.5,21.9,9.3c2,1.4,7.9,7,17.6,16.8l78.1,78.1
		c8.5,8.5,17.7,15.7,27.6,21.6c6.9,4.4,14.2,6.9,21.9,7.4c7.6,0.6,15.3-0.4,23-2.9c7.7-2.5,16.8-7.1,27.3-13.9
		c-8.3,12.6-13.7,24.3-15.9,35c-2.3,10.8-1.5,20.4,2.3,29.1c5,11.5,13.6,23.3,25.9,35.7l78.1,78.1c8.9,8.9,14.3,14.6,16.1,17
		c3.5,5.2,6.3,10.6,8.4,16.2c2.1,5.6,2.8,11.4,2.3,17.4c-0.5,6-2.1,11.5-4.9,16.6c-2.8,5-6.8,9.7-12,14.1l10.3,10.3l15.3-15.3
		c14.2-13.6,24.7-27,31.6-40.1C673.7,1113,676.7,1103.2,676.9,1095.5z"/>
	<path class="st1" d="M709.3,415.7c-27.7-0.3-50.4,21.8-50.7,49.5c-0.2,13.3,1.4,26.6,3.5,39.9c2.1,13.3,5.1,26.6,8.5,39.9
		c1.7,6.6,3.5,13.3,5.5,19.9c2,6.6,4,13.3,6.3,19.9c3.6,10.8,7.6,21.5,12.3,32.3h28.1c4.7-10.8,8.7-21.5,12.3-32.3
		c2.3-6.6,4.3-13.3,6.3-19.9c2-6.6,3.8-13.3,5.5-19.9c3.4-13.3,6.4-26.6,8.5-39.9c2.1-13.3,3.7-26.6,3.5-39.9
		C758.4,438.1,736.5,416,709.3,415.7z"/>
	<path class="st1" d="M636.1,666.4c3,1.8,5.9,3.5,9,5.1c3,1.7,6.1,3.3,9.3,4.8c5.1,2.5,10.3,4.9,15.8,7.1l10-10
		c-2.1-5.5-4.6-10.7-7.1-15.8c-1.5-3.2-3.2-6.2-4.8-9.3c-1.6-3.1-3.4-6.1-5.1-9c-3.5-5.9-7.2-11.7-11.1-17.1
		c-4-5.5-8.1-10.7-12.9-15.4c-9.7-9.5-25.3-9.5-35.1,0c-9.9,9.7-10.1,25.6-0.4,35.5c4.7,4.8,9.9,8.9,15.4,12.9
		C624.5,659.2,630.2,662.9,636.1,666.4z"/>
	<path class="st1" d="M563.4,676.2c-6.6-2-13.3-3.8-19.9-5.5c-13.3-3.4-26.6-6.4-39.9-8.5c-13.3-2.1-26.6-3.7-39.9-3.5
		c-27.1,0.4-49.2,22.3-49.5,49.5c-0.3,27.7,21.8,50.4,49.5,50.7c13.3,0.2,26.6-1.4,39.9-3.5c13.3-2.1,26.6-5.1,39.9-8.5
		c6.6-1.7,13.3-3.5,19.9-5.5c6.6-2,13.3-4,19.9-6.3c10.8-3.6,21.5-7.6,32.3-12.3v-28.1c-10.8-4.7-21.5-8.7-32.3-12.3
		C576.7,680.2,570.1,678.2,563.4,676.2z"/>
	<path class="st1" d="M641,813.8c4.8-4.7,8.9-9.9,12.9-15.4c4-5.5,7.6-11.2,11.1-17.1c1.8-3,3.5-5.9,5.1-9c1.7-3,3.3-6.1,4.8-9.3
		c2.5-5.1,4.9-10.3,7.1-15.8l-10-10c-5.5,2.1-10.7,4.6-15.8,7.1c-3.2,1.5-6.2,3.2-9.3,4.8c-3.1,1.6-6.1,3.4-9,5.1
		c-5.9,3.5-11.7,7.2-17.1,11.1c-5.5,4-10.7,8.1-15.4,12.9c-9.5,9.7-9.5,25.3,0,35.1C615.2,823.3,631.1,823.5,641,813.8z"/>
	<path class="st1" d="M708,1001.6c27.7,0.3,50.4-21.8,50.7-49.5c0.2-13.3-1.4-26.6-3.5-39.9c-2.1-13.3-5.1-26.6-8.5-39.9
		c-1.7-6.6-3.5-13.3-5.5-19.9c-2-6.6-4-13.3-6.3-19.9c-3.6-10.8-7.6-21.5-12.3-32.3h-28.1c-4.7,10.8-8.7,21.5-12.3,32.3
		c-2.3,6.6-4.3,13.3-6.3,19.9c-2,6.6-3.8,13.3-5.5,19.9c-3.4,13.3-6.4,26.6-8.5,39.9c-2.1,13.3-3.7,26.6-3.5,39.9
		C658.9,979.2,680.8,1001.3,708,1001.6z"/>
	<path class="st1" d="M778.2,810.4c9.7,9.5,25.3,9.5,35.1,0c9.9-9.7,10.1-25.6,0.4-35.5c-4.7-4.8-9.9-8.9-15.4-12.9
		c-5.5-4-11.2-7.6-17.1-11.1c-3-1.8-5.9-3.5-9-5.1c-3-1.7-6.1-3.3-9.3-4.8c-5.1-2.5-10.3-4.9-15.8-7.1l-10,10
		c2.1,5.5,4.6,10.7,7.1,15.8c1.5,3.2,3.2,6.2,4.8,9.3c1.6,3.1,3.4,6.1,5.1,9c3.5,5.9,7.2,11.7,11.1,17.1
		C769.2,800.5,773.4,805.8,778.2,810.4z"/>
	<path class="st1" d="M853.9,741.1c6.6,2,13.3,3.8,19.9,5.5c13.3,3.4,26.6,6.4,39.9,8.5c13.3,2.1,26.6,3.7,39.9,3.5
		c27.1-0.4,49.2-22.3,49.5-49.5c0.3-27.7-21.8-50.4-49.5-50.7c-13.3-0.2-26.6,1.4-39.9,3.5c-13.3,2.1-26.6,5.1-39.9,8.5
		c-6.6,1.7-13.3,3.5-19.9,5.5c-6.6,2-13.3,4-19.9,6.3c-10.8,3.6-21.5,7.6-32.3,12.3v28.1c10.8,4.7,21.5,8.7,32.3,12.3
		C840.6,737.1,847.2,739.1,853.9,741.1z"/>
	<path class="st1" d="M776.3,603.5c-4.8,4.7-8.9,9.9-12.9,15.4c-4,5.5-7.6,11.2-11.1,17.1c-1.8,3-3.5,5.9-5.1,9
		c-1.7,3-3.3,6.1-4.8,9.3c-2.5,5.1-4.9,10.3-7.1,15.8l10,10c5.5-2.1,10.7-4.6,15.8-7.1c3.2-1.5,6.2-3.2,9.3-4.8
		c3.1-1.6,6.1-3.4,9-5.1c5.9-3.5,11.7-7.2,17.1-11.1c5.5-4,10.7-8.1,15.4-12.9c9.5-9.7,9.5-25.3,0-35.1
		C802.1,594,786.2,593.8,776.3,603.5z"/>
	<path class="st1" d="M708.7,231.6c27.7,0,50.1-22.4,50.1-50.1c0-27.7-22.4-50.1-50.1-50.1c-27.7,0-50.1,22.4-50.1,50.1
		C658.5,209.2,681,231.6,708.7,231.6z"/>
	<circle class="st1" cx="1234.9" cy="707.7" r="50.1"/>
	
		<ellipse transform="matrix(0.3827 -0.9239 0.9239 0.3827 -542.9376 606.5475)" class="st1" cx="182.4" cy="709.6" rx="50.1" ry="50.1"/>
	
		<ellipse transform="matrix(0.7071 -0.7071 0.7071 0.7071 -666.2788 863.0466)" class="st1" cx="708.6" cy="1235.8" rx="50.1" ry="50.1"/>
</g>
</svg>
