<?xml version="1.0" encoding="utf-8"?>
<!-- Generator: Adobe Illustrator 25.4.1, SVG Export Plug-In . SVG Version: 6.00 Build 0)  -->
<svg version="1.1" id="Layer_1" xmlns="http://www.w3.org/2000/svg" xmlns:xlink="http://www.w3.org/1999/xlink" x="0px" y="0px"
	 viewBox="0 0 1417.3 1417.3" style="enable-background:new 0 0 1417.3 1417.3;" xml:space="preserve">
<style type="text/css">
	.st0{fill:#32334A;}
	.st1{fill:#FFFFFF;}
</style>
<rect x="-2.64" y="1.82" class="st0" width="1417.3" height="1417.3"/>
<g>
	<path class="st1" d="M410.46,492.15c15.07,5.62,15.07,5.62,15.07,23.05c0,102.44,0,204.89,0,307.34c0,10.42-1.63,12.34-11.8,13.83
		c-1.94,0.29-3.93,0.4-5.88,0.43c-17.43,0.19-19.65-1.99-19.65-19.06c0-101.45,0-202.92,0-304.37c0-15.73,0-15.73,13.38-21.22
		C404.54,492.15,407.5,492.15,410.46,492.15z"/>
	<path class="st1" d="M757.56,630.26c38.59-46.6,113.99-41.53,132.04,2.17c10.27-7.95,19.96-17.34,31.31-23.84
		c27.84-15.94,56.47-14.94,84.13,0.84c14.9,8.5,21.48,23.23,24.53,39.44c1.32,6.96,1.76,14.18,1.78,21.28
		c0.15,50.6,0.08,101.21,0.08,151.82c0,10.21-2.62,13.08-12.79,13.82c-2.95,0.21-5.93,0.21-8.89,0.05
		c-15.19-0.87-15.9-5.28-15.83-15.56c0.35-49.12,0.21-98.24,0.14-147.38c-0.04-23.61-12.09-38.07-34.94-41.91
		c-20.25-3.4-36.18,5.78-51.13,17.88c-8.24,6.66-12.21,13.91-12,25.49c0.9,48.87,0.39,97.75,0.38,146.62
		c0,10.9-3.49,14.43-14.52,14.85c-0.49,0.01-0.99,0.03-1.48,0.04c-20.48,0.31-22.01-1.18-22.01-21.28
		c0-45.92,0.06-91.83-0.06-137.75c-0.01-5.62-0.29-11.41-1.63-16.83c-5.12-20.52-23-32.23-43.8-29.71
		c-20.94,2.55-37.66,12.23-50.15,29.06c-1.68,2.26-2.24,5.81-2.24,8.77c-0.14,51.1-0.09,102.19-0.1,153.3
		c0,10.84-2.96,13.93-13.82,14.4c-2.96,0.13-5.94,0.26-8.88,0c-13.88-1.23-14.85-5.13-14.81-15.1
		c0.26-56.28,0.29-112.56-0.25-168.85c-0.13-12.19-2.96-24.35-4.41-36.54c-0.25-2.07-0.75-4.95,0.33-6.2
		c6.04-6.97,14.6-7.17,22.95-7.4c6.36-0.16,9,4.65,10.77,9.52C754.35,617.21,755.66,623.44,757.56,630.26z"/>
	<path class="st1" d="M629.41,807.35c-12.69,7.86-24.57,17.34-38.05,23.11c-24.1,10.31-49.32,9.98-74.1,1.13
		c-24.91-8.9-37.86-27.43-39.87-53.23c-0.79-10.16-0.04-20.78,2.11-30.75c5.12-23.8,23.23-35.85,43.78-45.2
		c19.69-8.95,40.88-10.04,61.91-11.71c13.19-1.04,26.44-1.44,39.59-2.13c0-10.84,1.19-21.49-0.33-31.77
		c-1.64-11.17-9.57-18.7-20.29-22.4c-23.63-8.15-47.06-4.97-70.15,2.38c-7.9,2.52-15.49,6.21-22.87,10.03
		c-4.97,2.56-8.36,1.59-11.54-2.43c-0.45-0.58-1-1.09-1.44-1.68c-11.6-15.49-10.33-22.9,7.47-30.44
		c38.5-16.32,78.22-21.81,118.08-5.83c26.54,10.63,39.74,32.07,39.98,60.7c0.34,38.74-0.16,77.48,0.29,116.21
		c0.14,11.24,1.86,22.52,3.7,33.65c1.94,11.73,0.66,14.45-10.73,17.22c-16.15,3.93-19.94,1.57-24.44-15.15
		C631.39,814.79,630.26,810.53,629.41,807.35z M625.86,722.08c-15.11,0-29.13-0.49-43.1,0.13c-17.36,0.76-33.83,5.17-48.88,14.33
		c-14.5,8.82-20.27,25.88-15.06,45.43c3.8,14.3,16.03,21.88,33.07,22.94c28.45,1.77,50.76-10.75,71.16-28.47
		c1.47-1.27,2.68-3.7,2.71-5.59C625.94,754.63,625.86,738.39,625.86,722.08z"/>
	<path class="st1" d="M294.65,804.47c-11.73,12.39-24.57,22.06-40.29,27.44c-23.15,7.91-46.5,8.05-69.55,0.45
		c-27.19-8.97-41.26-29.97-42-60.28c-0.98-39.45,16.4-60.4,57.95-73.58c16.15-5.12,33.78-5.88,50.83-7.75
		c13.14-1.44,26.42-1.54,40.08-2.26c0-9.28,0.8-18.18-0.18-26.9c-1.87-16.5-13.22-27.25-30.75-30.08
		c-27.33-4.41-53.26,0.18-78.06,12.31c-4.5,2.21-9.92,8.15-14.43,2.83c-5-5.89-8.84-13.49-10.66-20.97
		c-0.68-2.77,5.13-8.99,9.2-10.71c13.02-5.46,26.31-11.04,40.05-13.82c23.46-4.77,47.38-6.14,70.92,0.63
		c26.34,7.57,52.38,27.24,51.62,67.39c-0.64,33.31-0.7,66.67,0.1,99.97c0.43,17.62,3.34,35.18,4.84,52.77
		c0.23,2.63-0.21,6.3-1.88,7.98c-11.19,11.34-29.12,6.66-33.33-8.45C297.63,816.06,296.28,810.64,294.65,804.47z M291.9,720.7
		c-16.58,0.74-32.27,1.42-47.96,2.14c-13.44,0.61-26.01,4.28-38.01,10.36c-18.05,9.15-24.27,20.14-22.37,40.46
		c1.84,19.86,13.98,30.1,34.01,31.24c28.74,1.64,51.28-10.82,71.76-28.89c1.42-1.24,2.45-3.72,2.46-5.64
		C291.98,754.37,291.9,738.39,291.9,720.7z"/>
	<path class="st1" d="M1170.09,769.03c8.38-22.7,16.2-43.78,23.95-64.88c11.49-31.24,22.96-62.49,34.35-93.78
		c1.87-5.12,4.99-8.54,10.57-8.78c6.57-0.28,13.27-0.9,19.71-0.01c8.55,1.18,10.18,4.54,7.14,12.92
		c-6.11,16.78-12.42,33.5-18.79,50.19c-22,57.66-43.72,115.42-66.19,172.9c-12.16,31.11-29.21,59.29-57.81,78.27
		c-7.98,5.29-17.67,8.19-26.84,11.45c-5.39,1.91-10.23-0.09-12.94-5.62c-2.47-5.04-5.46-9.93-7.2-15.22
		c-3.14-9.47-0.29-12.97,9.17-15.91c9.94-3.1,20.52-5.93,29.01-11.59c18.41-12.3,26.74-32.17,34.07-52.16
		c0.77-2.08-0.45-5.17-1.34-7.55c-25.08-66.44-50.22-132.88-75.41-199.28c-5.89-15.55-3.59-19.15,13.12-19.64
		c2.71-0.08,5.43-0.1,8.15,0c11.15,0.41,14.47,2.98,18.41,13.46c18.75,49.99,37.56,99.95,56.36,149.92
		C1168.1,765.05,1168.82,766.34,1170.09,769.03z"/>
</g>
</svg>
