<?xml version="1.0" encoding="utf-8"?>
<!-- Generator: Adobe Illustrator 22.0.1, SVG Export Plug-In . SVG Version: 6.00 Build 0)  -->
<svg version="1.1" id="Layer_1" xmlns="http://www.w3.org/2000/svg" xmlns:xlink="http://www.w3.org/1999/xlink" x="0px" y="0px"
	 viewBox="0 0 1417.3 1417.3" style="enable-background:new 0 0 1417.3 1417.3;" xml:space="preserve">
<style type="text/css">
	.st0{fill:#7FBA43;}
	.st1{fill:#FFFFFF;}
</style>
<rect y="0" class="st0" width="1417.3" height="1417.3"/>
<path class="st1" d="M1043.9,528.6c20.4-103.1-46.6-188.6-149.7-191H541.3l-171.6,742.1l410.7,0c115.1,2.7,226.9-88.4,249.7-203.6
	c17.5-88.5-22.6-165.4-94.4-197.5C989.7,645.9,1031.5,591.2,1043.9,528.6z M683.5,558.7c9.2-46.4,54.2-83,100.5-82
	c46.4,1.1,76.5,39.5,67.3,85.9c-9.2,46.4-54.2,83-100.5,82C704.4,643.5,674.3,605.1,683.5,558.7z M876.3,819.1L876.3,819.1
	c-14.9,75.2-80.9,129.5-157.6,129.5H539.6l8.8-5.8c15.7-10.4,26.5-26.7,30-45.1l16.8-89.2c9-45.6,49-78.5,95.5-78.5H803
	C850.1,730,885.4,773,876.3,819.1z"/>
</svg>
