<?xml version="1.0" encoding="utf-8"?>
<!-- Generator: Adobe Illustrator 22.0.1, SVG Export Plug-In . SVG Version: 6.00 Build 0)  -->
<svg version="1.1" id="Layer_1" xmlns="http://www.w3.org/2000/svg" xmlns:xlink="http://www.w3.org/1999/xlink" x="0px" y="0px"
	 viewBox="0 0 1417.3 1417.3" style="enable-background:new 0 0 1417.3 1417.3;" xml:space="preserve">
<style type="text/css">
	.st0{fill:#00475B;}
	.st1{fill:#FFFFFF;}
</style>
<rect y="0" class="st0" width="1417.3" height="1417.3"/>
<g>
	<path class="st1" d="M111.2,770.7V683c0-20,16.4-38.2,39.2-38.2c23.7,0,40.1,12.9,40.1,34.6c0,11-3.9,19.6-12.4,24.9
		c12.5,7.2,18,16.4,18,31.3c0,21.4-15.7,35-37.1,35h-24.9v-15.6h20.7c17.7,0,24.7-7.4,24.7-20.3c0-13.4-9-20.3-24.7-20.3h-20.7
		v-15.5h17.3c15,0,22.4-8.7,22.4-18.7c0-13.1-10.2-19.8-22.1-19.8c-15.4,0-24,9.5-24,24v86.2H111.2z"/>
	<path class="st1" d="M206.8,685.9h14.8v9.7h0.4c5.3-8.3,12.5-11.5,23-11.5h3.5v14.8h-2.3c-15,0-23.9,9.2-23.9,32.2v39.6h-15.6
		V685.9z"/>
	<path class="st1" d="M323.8,770.7V723c0-15.9-13.4-24-27.6-24c-17.1,0-27.9,13.6-27.9,29.7c0,15.7,11.5,29,27.7,29
		c8.8,0,16.1-4.9,21.4-11.7v18.4c-6.2,4.6-12.2,8.1-23,8.1c-24.4,0-41.7-20.1-41.7-45.1c0-24.2,16.6-43.3,43.8-43.3
		c26.2,0,42.8,15.9,42.8,40.3v46.3H323.8z"/>
	<path class="st1" d="M427.3,685.9l-29.7,77.9c-2.8,7.6-6.5,8.7-12,8.7s-9.2-1.1-12-8.7l-29.5-77.9h17l24.7,65.7l24.6-65.7H427.3z"
		/>
	<path class="st1" d="M457.9,742.8l-6.4-12.4l41.9-23.3c-5.3-5.3-9.7-8.1-19.3-8.1c-16.1,0-27.7,12-27.7,29.3
		c0,17.3,11.7,29.3,27.7,29.3c18.4,0,25.3-11,28.4-26.5l15.7,1.9c-1.8,22.4-19.8,39.4-44.2,39.4c-23.5,0-44-18-44-44.2
		c0-26.2,20.5-44.2,44-44.2c19.8,0,33,10.4,41,26.9L457.9,742.8z"/>
	<path class="st1" d="M531.9,770.7V661.1c0-11,6.4-15.2,14.5-15.2c9.5,0,12.9,5.7,18.9,18.2l39.8,82.2h0.4V647h16.6v112.9
		c0,6.7-4.1,11.8-12.7,11.8c-8,0-11.8-2.5-16.4-12l-44-90.5h-0.4v101.4H531.9z"/>
	<path class="st1" d="M664.1,742.8l-6.4-12.4l41.9-23.3c-5.3-5.3-9.7-8.1-19.3-8.1c-16.1,0-27.7,12-27.7,29.3
		c0,17.3,11.7,29.3,27.7,29.3c18.4,0,25.3-11,28.4-26.5l15.7,1.9c-1.8,22.4-19.8,39.4-44.2,39.4c-23.5,0-44-18-44-44.2
		c0-26.2,20.5-44.2,44-44.2c19.8,0,33,10.4,41,26.9L664.1,742.8z"/>
	<path class="st1" d="M848.3,685.9v57.6c0,15.9-13.1,29-30.4,29c-9.5,0-19.1-3.9-24.7-12c-5.7,8.1-15.2,12-24.7,12
		c-17.3,0-30.4-13.1-30.4-29v-57.6h15.6v54.1c0,10.8,6,17.7,15.2,17.7c10.1,0,16.6-5.7,16.6-20.1v-51.6h15.6v51.6
		c0,14.5,6.5,20.1,16.6,20.1c9.2,0,15.2-6.9,15.2-17.7v-54.1H848.3z"/>
	<path class="st1" d="M857.3,647H935v15.5h-30.6v108.1h-16.6V662.5h-30.6V647z"/>
	<path class="st1" d="M1001.3,770.7V723c0-15.9-13.4-24-27.6-24c-17.1,0-27.9,13.6-27.9,29.7c0,15.7,11.5,29,27.7,29
		c8.8,0,16.1-4.9,21.4-11.7v18.4c-6.2,4.6-12.2,8.1-23,8.1c-24.4,0-41.7-20.1-41.7-45.1c0-24.2,16.6-43.3,43.8-43.3
		c26.2,0,42.8,15.9,42.8,40.3v46.3H1001.3z"/>
	<path class="st1" d="M1035.7,770.7V647h15.6v123.7H1035.7z"/>
	<path class="st1" d="M1096.2,742.8l-6.4-12.4l41.9-23.3c-5.3-5.3-9.7-8.1-19.3-8.1c-16.1,0-27.7,12-27.7,29.3
		c0,17.3,11.7,29.3,27.7,29.3c18.4,0,25.3-11,28.4-26.5l15.7,1.9c-1.8,22.4-19.8,39.4-44.2,39.4c-23.5,0-44-18-44-44.2
		c0-26.2,20.5-44.2,44-44.2c19.8,0,33,10.4,41,26.9L1096.2,742.8z"/>
	<path class="st1" d="M1169.3,770.7v-49.5c0-22.3,15.6-37.1,36.2-37.1c20.7,0,36.2,14.8,36.2,37.1v49.5h-15.6v-49.5
		c0-13.1-9.5-22.3-20.7-22.3c-11.1,0-20.7,9.2-20.7,22.3v49.5H1169.3z"/>
	<path class="st1" d="M1306.1,700.7h-30.4v44.5c0,8,3.7,10.6,11.7,10.6h18.7v14.8h-20.9c-15.9,0-25.1-10.6-25.1-27.4v-78.6h15.6
		v21.2h30.4V700.7z"/>
</g>
</svg>
