<?xml version="1.0" encoding="utf-8"?>
<!-- Generator: Adobe Illustrator 22.0.1, SVG Export Plug-In . SVG Version: 6.00 Build 0)  -->
<svg version="1.1" id="Layer_1" xmlns="http://www.w3.org/2000/svg" xmlns:xlink="http://www.w3.org/1999/xlink" x="0px" y="0px"
	 viewBox="0 0 1417.3 1417.3" style="enable-background:new 0 0 1417.3 1417.3;" xml:space="preserve">
<style type="text/css">
	.st0{fill:#FFFFFF;}
</style>
<rect y="0" width="1417.3" height="1417.3"/>
<g>
	<path class="st0" d="M1192.8,437.5v213.2l-28.8,28.8l-29,29l29,29l28.8,28.8v213.2v213H708.4H224.3V980.2V766.7l28.8-28.8l29-29
		l-29-29L224.3,651V437.5v-213h484.3H1193v213H1192.8z M1145.7,966.9V787.5l-39.2-39.2l-39.4-39.4l39.4-39.4l39.2-39.2V450.8V271.4
		H708.4H271.2v179.4v179.4l39.2,39.2l39.4,39.4l-39.4,39.4l-39.2,39.2v179.4v179.4h437.3h437.3"/>
	<path class="st0" d="M622.2,413.5l30.5,30.5v72.6v72.6l-30.3,30.3L591.9,650h-81.1h-81.1V516.4V382.8h81.1h81.1L622.2,413.5z
		 M476.7,516.6v86.5h47.5h47.5l15.6-16.8l15.6-16.6v-53.1v-53.3l-15.8-16.8l-15.8-16.8h-47.5h-47.1L476.7,516.6L476.7,516.6z"/>
	<path class="st0" d="M954.5,516.4c30.3,73,55,132.8,55,133.2s-11.4,0.6-25.5,0.6h-25.5l-6.6-15.8l-6.6-15.8h-67.8h-67.8l-6.2,15.3
		l-6.2,15.3l-25.9,0.4c-20.5,0.2-25.9,0-25.3-1.5c0.4-1,24.9-60.4,54.6-131.7c29.7-71.6,54.1-130.7,54.6-131.7
		c0.6-1.2,6-1.7,22.8-1.5l21.8,0.4L954.5,516.4z M854.3,511.8c-12.2,29.7-22.8,55-23.2,56.4c-0.8,2.5,1.9,2.7,46.5,2.7
		c38,0,47.1-0.4,46.7-1.9c-1-4.1-45.8-111.2-46.7-111.2C876.9,457.9,866.7,482.3,854.3,511.8z"/>
	<polygon class="st0" points="632.3,790.8 632.3,814.2 562.4,900.7 492.9,987 562.4,987.4 632.3,987.6 632.3,1011.3 632.3,1034.7 
		530.9,1034.7 429.7,1034.7 429.7,1010.7 429.9,987 500,901.1 570.1,815.3 499.8,814.9 429.7,814.4 429.7,791 429.7,767.6 
		530.9,767.6 632.3,767.6 	"/>
	<polygon class="st0" points="873.1,862.6 939.7,958 940.1,862.6 940.3,767.6 964,767.6 987.4,767.6 987.4,901.1 987.4,1034.7 
		960.7,1034.7 933.9,1034.7 874.4,948.2 814.9,861.9 814.4,948.4 814.2,1034.7 789.3,1034.7 764.2,1034.7 764.2,901.1 764.2,767.6 
		785.4,767.6 806.3,767.6 	"/>
</g>
</svg>
