<?xml version="1.0" encoding="utf-8"?>
<!-- Generator: Adobe Illustrator 22.0.1, SVG Export Plug-In . SVG Version: 6.00 Build 0)  -->
<svg version="1.1" id="Layer_1" xmlns="http://www.w3.org/2000/svg" xmlns:xlink="http://www.w3.org/1999/xlink" x="0px" y="0px"
	 viewBox="0 0 1417.3 1417.3" style="enable-background:new 0 0 1417.3 1417.3;" xml:space="preserve">
<style type="text/css">
	.st0{fill:#585393;}
	.st1{fill:#FFFFFF;}
</style>
<rect x="1" y="0.4" class="st0" width="1417.3" height="1417.3"/>
<g>
	<path class="st1" d="M212.7,622.9h24.1c3.6,0,5.5-1.8,5.5-5.5v-22.7c0-1.4-0.4-2.7-1.4-3.6c-0.9-1.4-2.3-1.8-4.1-1.8h-24.1
		c-1.8,0-3.2,0.9-4.1,1.8s-1.4,2.3-1.4,3.6v22.7C207.4,621.1,209.2,622.9,212.7,622.9z"/>
	<path class="st1" d="M289.5,795.6H245c-2.3,0-3.6-0.9-3.6-3.2V664.7c0-1.8-0.9-3.2-2.3-4.6c-1.4-1.4-3.2-1.8-5-1.8h-71.3
		c-1.8,0-3.6,0.5-5,1.8c-1.4,1.4-2.3,2.7-2.3,4.6v15c0,1.8,0.9,3.2,2.3,4.6c1.4,1.4,3.2,1.8,5,1.8h42.7c2.3,0,3.6,0.9,3.6,3.2v103.2
		c0,2.3-1.4,3.2-3.6,3.2h-46.3c-1.8,0-3.2,0.9-4.6,2.3c-1.4,1.4-2.3,2.7-2.3,4.6v15c0,1.8,0.5,2.7,1.8,4.1c1.4,1.4,3.2,1.8,5,1.8
		h130.3c1.8,0,3.6-0.4,5-1.8c1.4-1.4,2.3-2.7,2.3-4.6v-15c0-1.8-0.9-3.2-2.3-4.6C293.2,796,291.3,795.6,289.5,795.6z"/>
	<path class="st1" d="M464,672.1c-5.9-5.9-13.1-9.9-21.3-13.1s-16.8-4.6-25.9-4.6c-6.4,0-11.4,0.9-15,1.8c-3.6,0.9-6.8,2.3-9.6,3.6
		c-2.7,1.4-5,2.7-6.8,3.6c-1.8,1.4-4.1,1.8-6.8,1.8c-1.8,0-3.2-0.5-5-1.4c-1.8-1.4-2.7-2.7-4.1-3.6c-1.8-1.4-3.2-2.3-5-2.3h-15.4
		c-1.8,0-3.6,0.4-5,1.8c-1.4,1.4-2.3,2.7-2.3,4.6v153c0,1.8,0.9,3.2,2.3,4.6s3.2,1.8,5,1.8h17.7c1.8,0,3.6-0.4,5-1.8
		c1.4-1.4,2.3-2.7,2.3-4.6V716c0-9.9,3.6-17.7,10.8-23.2c7.3-5.9,16.8-8.7,27.7-8.7s20.4,2.7,27.7,9.1c7.3,6.4,10.8,14.5,10.8,24.1
		v99.5c0,1.8,0.9,3.2,2.3,4.6c1.4,1.4,3.2,1.8,5,1.8h17.7c1.8,0,3.6-0.4,5-1.8c1.4-1.4,2.3-2.7,2.3-4.6v-99.5
		c0-9.1-1.8-17.7-5.5-25.4C474.9,684.5,469.8,677.6,464,672.1z"/>
	<path class="st1" d="M650.7,734.4c-6.8-3.6-14.5-6.4-22.7-8.2c-8.2-1.8-15.9-3.2-23.2-4.6c-8.7-1.4-15.9-3.6-21.8-5.9
		c-5.9-2.7-9.1-6.8-9.1-12.8c0-5,2.3-9.6,7.3-13.6c4.6-4.1,12.8-6.4,23.6-6.4s18.6,1.8,23.6,6.4c5,4.1,7.3,9.1,7.3,15
		c0,1.8,0.9,3.2,2.3,4.6s3.2,1.8,5,1.8h17.7c1.8,0,3.6-0.4,5-1.8c1.4-1.4,2.3-2.7,2.3-4.6c0-7.8-1.8-15-5.5-20.9
		c-3.6-5.9-8.2-10.8-14-15.4c-5.9-4.6-12.2-7.8-20-9.9c-7.3-2.3-15-3.2-23.2-3.2s-15.9,0.9-23.6,3.2c-7.8,2.3-14.5,5.5-20.4,9.6
		c-5.9,4.1-10.8,9.1-14.5,15s-5.5,12.2-5.5,20c0,9.1,1.8,16.3,6.8,22.7c3.6,5.5,8.7,9.9,15,13.6c5.9,3.6,12.8,6.4,20.4,8.2
		c7.8,2.3,15,3.6,22.3,5c5,0.9,9.9,2.3,14.5,3.2s8.7,2.3,11.9,4.1c3.6,1.8,6.4,3.6,8.2,6.4c2.3,2.7,3.2,5.5,3.2,9.1
		c0,5-0.9,9.1-3.2,12.2c-2.3,2.7-5,5.5-8.7,7.3c-3.6,1.8-7.8,3.2-12.2,3.6c-4.6,0.5-9.6,0.9-14,0.9c-4.1,0-8.2-0.4-12.8-1.4
		c-4.6-0.9-8.7-2.3-12.2-4.6c-4.1-1.8-7.3-5-9.6-8.7c-2.3-3.6-3.6-8.7-3.6-14.5c0-1.8-0.9-3.2-2.3-4.6s-3.2-1.8-5-1.8h-17.7
		c-1.8,0-3.6,0.4-5,1.8c-1.4,1.4-2.3,2.7-2.3,4.6c0,9.9,2.3,19.1,6.4,27.3c3.6,7.3,9.1,13.1,15.4,17.7c6.4,4.6,14,7.8,22.3,9.9
		c8.2,2.3,16.8,3.2,25.9,3.2c9.1,0,18.1-0.9,26.4-3.2c8.7-2.3,15.9-5.5,22.3-9.9c6.4-4.5,11.9-9.9,15.4-16.8
		c3.6-6.4,5.5-14,5.5-23.2c0-10.5-2.3-19.1-6.8-25.4C662.9,743,657.6,738.1,650.7,734.4z"/>
	<path class="st1" d="M870.8,767.5h-17.7c-1.8,0-3.6,0.4-5,1.8c-1.4,1.4-2.3,2.7-2.3,4.6c0,5.9-2.3,11.4-6.8,15.9
		c-4.6,5-10.5,7.3-17.7,7.3s-13.1-2.7-17.7-7.3c-4.6-4.6-6.8-9.9-6.8-15.9h-0.5v-81.7c0-2.3,1.4-3.2,3.6-3.2h57.3
		c1.8,0,3.6-0.4,5-1.8c1.4-1.4,2.3-2.7,2.3-4.6v-16.8c0-1.8-0.9-3.2-2.3-4.6s-3.2-1.8-5-1.8h-56.2c-2.3,0-3.6-0.9-3.6-3.2v-51.3
		c0-1.8-0.9-3.2-2.3-4.6c-1.4-1.4-3.2-1.8-5-1.8h-17.7c-1.8,0-3.6,0.4-5,1.8c-1.4,1.4-2.3,2.7-2.3,4.6v51.3c0,2.3-1.4,3.2-3.6,3.2
		h-34.9c-2.3,0-3.6,0.9-5,2.3c-1.4,1.4-2.3,2.7-2.3,4.6v16.8c0,1.8,0.9,3.2,2.3,4.6s3.2,1.8,5,1.8h34.6c2.3,0,3.6,0.9,3.6,3.2V774
		c0,7.3,1.8,14,4.6,20.4c3.2,6.4,7.3,11.9,12.2,16.8c5.5,5,11.4,8.7,18.1,11.4c6.8,2.7,14,4.1,21.8,4.1s15-1.4,21.8-4.1
		c6.8-2.7,13.1-6.4,18.1-11.4c5.5-4.6,9.6-10.5,12.2-16.8c3.2-6.4,4.6-13.1,4.6-20.4c0-1.8-0.9-3.2-2.3-4.6
		C874.5,768,872.6,767.5,870.8,767.5z"/>
	<path class="st1" d="M1045,672.1c-5.9-5.9-13.1-9.9-21.3-13.1c-8.2-3.2-16.8-4.6-25.9-4.6c-6.4,0-11.4,0.9-15,1.8
		c-3.6,0.9-6.8,2.3-9.6,3.6c-2.7,1.4-5,2.7-6.8,3.6c-1.8,1.4-4.1,1.8-6.8,1.8c-1.8,0-3.6-0.5-5-1.4c-1.8-1.4-2.7-2.7-4.1-3.6
		c-1.8-1.4-3.2-2.3-5-2.3h-15.4c-1.8,0-3.6,0.4-5,1.8c-1.4,1.4-2.3,2.7-2.3,4.6v153c0,1.8,0.9,3.2,2.3,4.6s3.2,1.8,5,1.8H948
		c1.8,0,3.6-0.4,5-1.8c1.4-1.4,2.3-2.7,2.3-4.6V716c0-9.9,3.6-17.7,10.8-23.2c7.3-5.9,16.8-8.7,27.7-8.7c10.8,0,20.4,2.7,27.7,9.1
		c7.3,6.4,10.8,14.5,10.8,24.1v99.5c0,1.8,0.9,3.2,2.3,4.6c1.4,1.4,3.2,1.8,5,1.8h17.7c1.8,0,3.6-0.4,5-1.8c1.4-1.4,2.3-2.7,2.3-4.6
		v-99.5c0-9.1-1.8-17.7-5.5-25.4C1056,684.5,1051,677.6,1045,672.1z"/>
	<path class="st1" d="M1262.7,769.3c-1.4-1.4-3.2-1.8-5-1.8H1240c-1.8,0-3.6,0.4-5,1.8c-1.4,1.4-2.3,2.7-2.3,4.6
		c0,5.9-2.3,11.4-6.8,15.9c-4.6,5-10.5,7.3-17.7,7.3c-7.3,0-13.1-2.7-17.7-7.3c-4.6-4.6-6.8-9.9-6.8-15.9v-81.7
		c0-2.3,1.4-3.2,3.6-3.2h56.8c1.8,0,3.6-0.4,5-1.8c1.4-1.4,2.3-2.7,2.3-4.6v-16.8c0-1.8-0.9-3.2-2.3-4.6c-1.4-1.4-3.2-1.8-5-1.8
		h-56.4c-2.3,0-3.6-0.9-3.6-3.2v-51.3c0-1.8-0.9-3.2-2.3-4.6c-1.4-1.4-3.2-1.8-5-1.8h-17.7c-1.8,0-3.6,0.4-5,1.8
		c-1.4,1.4-2.3,2.7-2.3,4.6v51.3c0,2.3-1.4,3.2-3.6,3.2h-34.9c-1.8,0-3.2,0.9-5,2.3c-1.4,1.4-2.3,2.7-2.3,4.6v16.8
		c0,1.8,0.9,3.2,2.3,4.6s3.2,1.8,5,1.8h34.6c2.3,0,3.6,0.9,3.6,3.2V774c0,7.3,1.8,14,4.6,20.4c3.2,6.4,7.3,11.9,12.2,16.8
		c5.5,5,11.4,8.7,18.1,11.4c6.8,2.7,14,4.1,21.8,4.1s15-1.4,21.8-4.1c6.8-2.7,13.1-6.4,18.1-11.4c5.5-4.6,9.6-10.5,12.2-16.8
		c3.2-6.4,4.6-13.1,4.6-20.4C1265,772.1,1264.1,770.7,1262.7,769.3z"/>
</g>
</svg>
