<?xml version="1.0" encoding="utf-8"?>
<!-- Generator: Adobe Illustrator 22.0.1, SVG Export Plug-In . SVG Version: 6.00 Build 0)  -->
<svg version="1.1" id="Layer_1" xmlns="http://www.w3.org/2000/svg" xmlns:xlink="http://www.w3.org/1999/xlink" x="0px" y="0px"
	 viewBox="0 0 1417.3 1417.3" style="enable-background:new 0 0 1417.3 1417.3;" xml:space="preserve">
<style type="text/css">
	.st0{fill:#585393;}
	.st1{fill:#FFFFFF;}
</style>
<rect x="1" y="0.4" class="st0" width="1417.3" height="1417.3"/>
<g>
	<path class="st1" d="M319.8,641.4h18.9c2.8,0,4.3-1.4,4.3-4.3v-17.8c0-1.1-0.3-2.1-1.1-2.8c-0.7-1.1-1.8-1.4-3.2-1.4h-18.9
		c-1.4,0-2.5,0.7-3.2,1.4c-0.7,0.7-1.1,1.8-1.1,2.8v17.8C315.6,640,317,641.4,319.8,641.4z"/>
	<path class="st1" d="M380,776.8h-34.9c-1.8,0-2.8-0.7-2.8-2.5V674.2c0-1.4-0.7-2.5-1.8-3.6c-1.1-1.1-2.5-1.4-3.9-1.4h-55.9
		c-1.4,0-2.8,0.4-3.9,1.4c-1.1,1.1-1.8,2.1-1.8,3.6v11.8c0,1.4,0.7,2.5,1.8,3.6c1.1,1.1,2.5,1.4,3.9,1.4h33.5c1.8,0,2.8,0.7,2.8,2.5
		v80.9c0,1.8-1.1,2.5-2.8,2.5h-36.3c-1.4,0-2.5,0.7-3.6,1.8c-1.1,1.1-1.8,2.1-1.8,3.6v11.8c0,1.4,0.4,2.1,1.4,3.2
		c1.1,1.1,2.5,1.4,3.9,1.4H380c1.4,0,2.8-0.3,3.9-1.4s1.8-2.1,1.8-3.6v-11.8c0-1.4-0.7-2.5-1.8-3.6
		C382.9,777.1,381.4,776.8,380,776.8z"/>
	<path class="st1" d="M516.8,680c-4.6-4.6-10.3-7.8-16.7-10.3s-13.2-3.6-20.3-3.6c-5,0-8.9,0.7-11.8,1.4c-2.8,0.7-5.3,1.8-7.5,2.8
		c-2.1,1.1-3.9,2.1-5.3,2.8c-1.4,1.1-3.2,1.4-5.3,1.4c-1.4,0-2.5-0.4-3.9-1.1c-1.4-1.1-2.1-2.1-3.2-2.8c-1.4-1.1-2.5-1.8-3.9-1.8
		h-12.1c-1.4,0-2.8,0.3-3.9,1.4c-1.1,1.1-1.8,2.1-1.8,3.6v120c0,1.4,0.7,2.5,1.8,3.6c1.1,1.1,2.5,1.4,3.9,1.4h13.9
		c1.4,0,2.8-0.3,3.9-1.4c1.1-1.1,1.8-2.1,1.8-3.6v-79.4c0-7.8,2.8-13.9,8.5-18.2c5.7-4.6,13.2-6.8,21.7-6.8s16,2.1,21.7,7.1
		s8.5,11.4,8.5,18.9v78c0,1.4,0.7,2.5,1.8,3.6c1.1,1.1,2.5,1.4,3.9,1.4h13.9c1.4,0,2.8-0.3,3.9-1.4s1.8-2.1,1.8-3.6v-78
		c0-7.1-1.4-13.9-4.3-19.9C525.4,689.7,521.4,684.3,516.8,680z"/>
	<path class="st1" d="M663.2,728.8c-5.3-2.8-11.4-5-17.8-6.4c-6.4-1.4-12.5-2.5-18.2-3.6c-6.8-1.1-12.5-2.8-17.1-4.6
		c-4.6-2.1-7.1-5.3-7.1-10c0-3.9,1.8-7.5,5.7-10.7c3.6-3.2,10-5,18.5-5s14.6,1.4,18.5,5c3.9,3.2,5.7,7.1,5.7,11.8
		c0,1.4,0.7,2.5,1.8,3.6s2.5,1.4,3.9,1.4h13.9c1.4,0,2.8-0.3,3.9-1.4c1.1-1.1,1.8-2.1,1.8-3.6c0-6.1-1.4-11.8-4.3-16.4
		c-2.8-4.6-6.4-8.5-11-12.1c-4.6-3.6-9.6-6.1-15.7-7.8c-5.7-1.8-11.8-2.5-18.2-2.5c-6.4,0-12.5,0.7-18.5,2.5
		c-6.1,1.8-11.4,4.3-16,7.5c-4.6,3.2-8.5,7.1-11.4,11.8s-4.3,9.6-4.3,15.7c0,7.1,1.4,12.8,5.3,17.8c2.8,4.3,6.8,7.8,11.8,10.7
		c4.6,2.8,10,5,16,6.4c6.1,1.8,11.8,2.8,17.5,3.9c3.9,0.7,7.8,1.8,11.4,2.5s6.8,1.8,9.3,3.2c2.8,1.4,5,2.8,6.4,5
		c1.8,2.1,2.5,4.3,2.5,7.1c0,3.9-0.7,7.1-2.5,9.6c-1.8,2.1-3.9,4.3-6.8,5.7c-2.8,1.4-6.1,2.5-9.6,2.8c-3.6,0.4-7.5,0.7-11,0.7
		c-3.2,0-6.4-0.3-10-1.1c-3.6-0.7-6.8-1.8-9.6-3.6c-3.2-1.4-5.7-3.9-7.5-6.8c-1.8-2.8-2.8-6.8-2.8-11.4c0-1.4-0.7-2.5-1.8-3.6
		c-1.1-1.1-2.5-1.4-3.9-1.4h-13.9c-1.4,0-2.8,0.3-3.9,1.4c-1.1,1.1-1.8,2.1-1.8,3.6c0,7.8,1.8,15,5,21.4c2.8,5.7,7.1,10.3,12.1,13.9
		s11,6.1,17.5,7.8c6.4,1.8,13.2,2.5,20.3,2.5s14.2-0.7,20.7-2.5c6.8-1.8,12.5-4.3,17.5-7.8s9.3-7.8,12.1-13.2c2.8-5,4.3-11,4.3-18.2
		c0-8.2-1.8-15-5.3-19.9C672.8,735.6,668.6,731.7,663.2,728.8z"/>
	<path class="st1" d="M835.8,754.8h-13.9c-1.4,0-2.8,0.3-3.9,1.4c-1.1,1.1-1.8,2.1-1.8,3.6c0,4.6-1.8,8.9-5.3,12.5
		c-3.6,3.9-8.2,5.7-13.9,5.7c-5.7,0-10.3-2.1-13.9-5.7c-3.6-3.6-5.3-7.8-5.3-12.5h-0.4v-64.1c0-1.8,1.1-2.5,2.8-2.5h44.9
		c1.4,0,2.8-0.3,3.9-1.4c1.1-1.1,1.8-2.1,1.8-3.6V675c0-1.4-0.7-2.5-1.8-3.6s-2.5-1.4-3.9-1.4H781c-1.8,0-2.8-0.7-2.8-2.5v-40.2
		c0-1.4-0.7-2.5-1.8-3.6c-1.1-1.1-2.5-1.4-3.9-1.4h-13.9c-1.4,0-2.8,0.3-3.9,1.4s-1.8,2.1-1.8,3.6v40.2c0,1.8-1.1,2.5-2.8,2.5h-27.4
		c-1.8,0-2.8,0.7-3.9,1.8c-1.1,1.1-1.8,2.1-1.8,3.6v13.2c0,1.4,0.7,2.5,1.8,3.6c1.1,1.1,2.5,1.4,3.9,1.4h27.1c1.8,0,2.8,0.7,2.8,2.5
		v63.8c0,5.7,1.4,11,3.6,16c2.5,5,5.7,9.3,9.6,13.2c4.3,3.9,8.9,6.8,14.2,8.9c5.3,2.1,11,3.2,17.1,3.2c6.1,0,11.8-1.1,17.1-3.2
		c5.3-2.1,10.3-5,14.2-8.9c4.3-3.6,7.5-8.2,9.6-13.2c2.5-5,3.6-10.3,3.6-16c0-1.4-0.7-2.5-1.8-3.6
		C838.7,755.2,837.2,754.8,835.8,754.8z"/>
	<path class="st1" d="M972.4,680c-4.6-4.6-10.3-7.8-16.7-10.3c-6.4-2.5-13.2-3.6-20.3-3.6c-5,0-8.9,0.7-11.8,1.4
		c-2.8,0.7-5.3,1.8-7.5,2.8c-2.1,1.1-3.9,2.1-5.3,2.8c-1.4,1.1-3.2,1.4-5.3,1.4c-1.4,0-2.8-0.4-3.9-1.1c-1.4-1.1-2.1-2.1-3.2-2.8
		c-1.4-1.1-2.5-1.8-3.9-1.8h-12.1c-1.4,0-2.8,0.3-3.9,1.4s-1.8,2.1-1.8,3.6v120c0,1.4,0.7,2.5,1.8,3.6c1.1,1.1,2.5,1.4,3.9,1.4h13.9
		c1.4,0,2.8-0.3,3.9-1.4c1.1-1.1,1.8-2.1,1.8-3.6v-79.4c0-7.8,2.8-13.9,8.5-18.2c5.7-4.6,13.2-6.8,21.7-6.8c8.5,0,16,2.1,21.7,7.1
		c5.7,5,8.5,11.4,8.5,18.9v78c0,1.4,0.7,2.5,1.8,3.6c1.1,1.1,2.5,1.4,3.9,1.4H982c1.4,0,2.8-0.3,3.9-1.4c1.1-1.1,1.8-2.1,1.8-3.6
		v-78c0-7.1-1.4-13.9-4.3-19.9C981,689.7,977.1,684.3,972.4,680z"/>
	<path class="st1" d="M1143.1,756.2c-1.1-1.1-2.5-1.4-3.9-1.4h-13.9c-1.4,0-2.8,0.3-3.9,1.4c-1.1,1.1-1.8,2.1-1.8,3.6
		c0,4.6-1.8,8.9-5.3,12.5c-3.6,3.9-8.2,5.7-13.9,5.7s-10.3-2.1-13.9-5.7c-3.6-3.6-5.3-7.8-5.3-12.5v-64.1c0-1.8,1.1-2.5,2.8-2.5
		h44.5c1.4,0,2.8-0.3,3.9-1.4c1.1-1.1,1.8-2.1,1.8-3.6V675c0-1.4-0.7-2.5-1.8-3.6c-1.1-1.1-2.5-1.4-3.9-1.4h-44.2
		c-1.8,0-2.8-0.7-2.8-2.5v-40.2c0-1.4-0.7-2.5-1.8-3.6c-1.1-1.1-2.5-1.4-3.9-1.4h-13.9c-1.4,0-2.8,0.3-3.9,1.4
		c-1.1,1.1-1.8,2.1-1.8,3.6v40.2c0,1.8-1.1,2.5-2.8,2.5h-27.4c-1.4,0-2.5,0.7-3.9,1.8c-1.1,1.1-1.8,2.1-1.8,3.6v13.2
		c0,1.4,0.7,2.5,1.8,3.6c1.1,1.1,2.5,1.4,3.9,1.4h27.1c1.8,0,2.8,0.7,2.8,2.5v63.8c0,5.7,1.4,11,3.6,16c2.5,5,5.7,9.3,9.6,13.2
		c4.3,3.9,8.9,6.8,14.2,8.9c5.3,2.1,11,3.2,17.1,3.2c6.1,0,11.8-1.1,17.1-3.2c5.3-2.1,10.3-5,14.2-8.9c4.3-3.6,7.5-8.2,9.6-13.2
		c2.5-5,3.6-10.3,3.6-16C1144.9,758.4,1144.2,757.3,1143.1,756.2z"/>
</g>
</svg>
