<?xml version="1.0" encoding="utf-8"?>
<!-- Generator: Adobe Illustrator 22.0.1, SVG Export Plug-In . SVG Version: 6.00 Build 0)  -->
<svg version="1.1" id="Layer_1" xmlns="http://www.w3.org/2000/svg" xmlns:xlink="http://www.w3.org/1999/xlink" x="0px" y="0px"
	 viewBox="0 0 1417.3 1417.3" style="enable-background:new 0 0 1417.3 1417.3;" xml:space="preserve">
<style type="text/css">
	.st0{fill:#EE722E;}
	.st1{fill:#FFFFFF;}
</style>
<rect y="0" class="st0" width="1417.3" height="1417.3"/>
<g>
	<path class="st1" d="M1072.7,640.9c-4.2-4-9-7.3-14.5-9.7c-5.5-2.4-11.5-3.6-18-3.6c-6.5,0-12.4,1.1-17.8,3.4
		c-5.4,2.3-10.1,5.3-14.1,9.1c-4,3.8-7.3,8.3-9.7,13.7c-2.4,5.4-3.6,11-3.6,17v64.6c-0.3,6.2,0.7,12,3,17.6
		c2.3,5.5,5.5,10.3,9.7,14.3c4.2,4,9,7.3,14.5,9.7c5.5,2.4,11.8,3.6,18.8,3.6c5.9,0,11.6-1.1,16.9-3.4c5.4-2.3,10.1-5.3,14.2-9.1
		c4-3.8,7.3-8.3,9.7-13.7c2.4-5.4,3.6-11,3.6-17l0.4-64.6c0-6.2-1.1-12-3.4-17.6C1080.1,649.8,1076.9,645,1072.7,640.9z"/>
	<path class="st1" d="M1192.1,507.1h-967c-17.7,0-32.1,14.5-32.1,32.1v338.8c0,17.7,14.5,32.1,32.1,32.1h967
		c17.7,0,32.1-14.5,32.1-32.1V539.2C1224.3,521.6,1209.8,507.1,1192.1,507.1z M236.3,884.3c-9.7,0-17.5-7.8-17.5-17.5
		c0-9.7,7.8-17.5,17.5-17.5c9.7,0,17.5,7.8,17.5,17.5C253.8,876.4,245.9,884.3,236.3,884.3z M236.3,568c-9.7,0-17.5-7.8-17.5-17.5
		c0-9.7,7.8-17.5,17.5-17.5c9.7,0,17.5,7.8,17.5,17.5C253.8,560.2,245.9,568,236.3,568z M468.3,787c5.4,5.4,8.1,11.8,8.1,19.2
		c0,7.4-2.7,13.9-8.1,19.6c-5.4,5.1-11.8,7.7-19.2,7.7c-7.4,0-13.9-2.5-19.6-7.7l-94-83.1V806c0,7.5-2.6,13.9-7.9,19.2
		c-5.2,5.2-11.8,7.9-19.6,7.9c-7.5,0-14-2.6-19.4-7.9c-5.4-5.2-8.1-11.6-8.1-19.2V602.6c0-7.3,2.7-13.6,8.1-19
		c5.4-5.4,11.8-8.1,19.4-8.1c7.8,0,14.3,2.7,19.6,8.1c5.2,5.4,7.9,11.7,7.9,19V666l94-82.3c5.7-5.4,12.2-8.1,19.6-8.1
		s13.8,2.7,19.2,8.1c5.4,5.4,8.1,11.8,8.1,19.2c0,7.4-2.7,13.8-8.1,19.2l-94.4,82.3L468.3,787z M698,805.6L698,805.6
		c0,7-2.5,13.1-7.5,18.2c-5,5.1-11.1,7.8-18.4,8.1c-7.3,0-13.5-2.3-18.8-7.1c-5.2-4.7-7.9-10.7-7.9-18v-47.2h-90v46
		c0,7-2.7,13.1-8.1,18.3c-5.4,5.2-11.6,7.9-18.6,7.9c-7,0-13.2-2.4-18.6-7.3c-5.4-4.8-8.1-10.8-8.1-17.8v-134
		c0.3-13.5,2.9-26.1,7.9-37.9c5-11.8,11.8-22.2,20.6-31.1c8.7-8.9,19-15.9,30.9-21c11.8-5.1,24.8-7.7,38.7-7.7
		c12.9,0,25.3,2.4,37.1,7.1c11.9,4.7,22.2,11.3,31.1,19.8c8.9,8.5,16,18.5,21.4,30.1s8.1,24.1,8.1,37.5V805.6z M918.7,806.8
		c0,7-2.5,13.1-7.5,18.2c-5,5.1-11.1,7.8-18.3,8.1c-7.3,0-13.5-2.4-18.8-7.1c-5.2-4.7-7.9-10.7-7.9-18V674c0-6.2-1.2-12-3.4-17.6
		c-2.3-5.5-5.5-10.3-9.7-14.3c-4.2-4-9-7.3-14.5-9.7c-5.5-2.4-11.5-3.6-18-3.6c-5.9,0-11.6,1.1-16.9,3.4c-5.4,2.3-10.1,5.3-14.1,9.1
		c-4,3.8-7.3,8.4-9.7,13.7c-2.4,5.4-3.6,11-3.6,17v134.8c0,7-2.7,13.1-8.1,18.4c-5.4,5.2-11.6,7.9-18.5,7.9c-7,0-13.2-2.4-18.6-7.3
		C725.7,821,723,815,723,808V674c0.3-13.5,2.9-26.1,7.9-37.9c5-11.8,11.8-22.2,20.6-31.1s19-15.9,30.9-21
		c11.8-5.1,24.8-7.7,38.7-7.7c12.9,0,25.3,2.4,37.1,7.1c11.8,4.7,22.2,11.3,31.1,19.8c8.9,8.5,16,18.5,21.4,30.1
		c5.4,11.6,8.1,24.1,8.1,37.5V806.8z M1138.3,735.4L1138.3,735.4c0,13.5-2.5,26.1-7.5,37.9s-11.8,22.2-20.6,31.1
		c-8.8,8.9-19,15.9-30.9,21c-11.9,5.1-24.8,7.7-38.8,7.7c-13.5,0-26.1-2.4-37.9-7.1c-11.8-4.7-22.2-11.3-31.1-19.8
		c-8.9-8.5-16-18.5-21.4-30.1c-5.4-11.6-8.1-24.1-8.1-37.5v-65.8c0-13.5,2.5-26.1,7.5-37.9c5-11.8,11.8-22.2,20.6-31.1
		c8.7-8.9,19-15.9,30.9-21c11.8-5.1,25-7.7,39.6-7.7c12.9,0,25.3,2.4,37.1,7.1c11.8,4.7,22.2,11.3,31.1,19.8s16,18.5,21.4,30.1
		c5.4,11.6,8.1,24.1,8.1,37.5V735.4z M1181,884.3c-9.7,0-17.5-7.8-17.5-17.5c0-9.7,7.9-17.5,17.5-17.5c9.7,0,17.5,7.8,17.5,17.5
		C1198.6,876.4,1190.7,884.3,1181,884.3z M1181,568c-9.7,0-17.5-7.8-17.5-17.5c0-9.7,7.9-17.5,17.5-17.5c9.7,0,17.5,7.8,17.5,17.5
		S1190.7,568,1181,568z"/>
	<path class="st1" d="M632.4,640.9c-4.2-4-9-7.3-14.5-9.7c-5.5-2.4-11.5-3.6-18-3.6c-5.9,0-11.6,1.1-17,3.4
		c-5.4,2.3-10.1,5.3-14.1,9.1c-4.1,3.8-7.3,8.3-9.7,13.7c-2.4,5.4-3.6,11-3.6,17v36.3h90v-34.3c0-6.2-1.1-12-3.4-17.6
		C639.8,649.8,636.6,645,632.4,640.9z"/>
</g>
</svg>
