<?xml version="1.0" encoding="utf-8"?>
<!-- Generator: Adobe Illustrator 22.0.1, SVG Export Plug-In . SVG Version: 6.00 Build 0)  -->
<svg version="1.1" id="Layer_1" xmlns="http://www.w3.org/2000/svg" xmlns:xlink="http://www.w3.org/1999/xlink" x="0px" y="0px"
	 viewBox="0 0 1417.3 1417.3" style="enable-background:new 0 0 1417.3 1417.3;" xml:space="preserve">
<style type="text/css">
	.st0{fill:#EE722E;}
	.st1{fill:#FFFFFF;}
</style>
<rect y="0" class="st0" width="1417.3" height="1417.3"/>
<path class="st1" d="M976.2,954.3c16.1,16.1,24.1,35.1,24.1,57.2s-8,41.4-24.1,58.4c-16.1,15.2-35.1,22.9-57.2,22.9
	s-41.4-7.4-58.4-22.9L580.7,822.4v188.5c0,22.3-7.7,41.4-23.5,57.2c-15.5,15.5-35.1,23.5-58.4,23.5c-22.3,0-41.7-7.7-57.8-23.5
	c-16.1-15.5-24.1-34.5-24.1-57.2V405.2c0-21.7,8-40.5,24.1-56.6s35.1-24.1,57.8-24.1c23.2,0,42.6,8,58.4,24.1
	c15.5,16.1,23.5,34.8,23.5,56.6V594l279.9-245.1c17-16.1,36.3-24.1,58.4-24.1c22,0,41.1,8,57.2,24.1c16.1,16.1,24.1,35.1,24.1,57.2
	c0,22-8,41.1-24.1,57.2L695.1,708.4L976.2,954.3z"/>
</svg>
