<?xml version="1.0" encoding="utf-8"?>
<!-- Generator: Adobe Illustrator 22.0.1, SVG Export Plug-In . SVG Version: 6.00 Build 0)  -->
<svg version="1.1" id="Layer_1" xmlns="http://www.w3.org/2000/svg" xmlns:xlink="http://www.w3.org/1999/xlink" x="0px" y="0px"
	 viewBox="0 0 1417.3 1417.3" style="enable-background:new 0 0 1417.3 1417.3;" xml:space="preserve">
<style type="text/css">
	.st0{fill:#0A2344;}
	.st1{fill:#FFFFFF;}
	.st2{fill-rule:evenodd;clip-rule:evenodd;fill:#70CAD0;}
</style>
<rect y="0" class="st0" width="1417.3" height="1417.3"/>
<g>
	<g>
		<g>
			<path class="st1" d="M384.8,770.8c0,4.5,0.1,8.3,0.4,11.5c0.3,3.1,1.1,5.8,2.5,7.9c1.4,2.1,3.5,3.7,6.3,4.7
				c2.8,1.1,7,1.6,12.4,1.6v16.2c-2.7,0.9-6.4,1.7-11,2.3c-4.7,0.6-9.2,0.9-13.7,0.9c-8.7,0-15.4-1.4-20-4.1
				c-4.7-2.7-8.1-6.3-10.4-10.8c-2.3-4.5-3.6-9.5-4.1-15.1c-0.5-5.6-0.7-11-0.7-16.4V493.8h2.7c0.6,0,1.4-0.1,2.5-0.2
				c1.1-0.1,2-0.2,2.9-0.2c8.4,0,15.5,2.2,21.4,6.5c5.9,4.4,8.8,12.2,8.8,23.6V770.8z"/>
			<path class="st1" d="M523.6,787c8.7,0,16.3-0.9,22.7-2.7c6.5-1.8,12-4.1,16.7-6.8c4.7-2.7,8.6-5.5,11.9-8.3
				c3.3-2.8,6-5.5,8.1-7.9c3.3,4.2,6.2,8.7,8.8,13.5c2.6,4.8,3.8,8.6,3.8,11.3c0,2.4-0.8,4.9-2.3,7.5c-1.5,2.6-4.1,5.3-7.7,8
				c-6.9,5.2-15.8,9.5-26.6,13c-10.8,3.5-23.9,5.3-39.2,5.3c-14.1,0-27.4-2-39.9-6.1c-12.5-4-23.4-10.6-32.8-19.6
				c-9.4-9-16.8-20.8-22.3-35.4c-5.5-14.6-8.2-32.4-8.2-53.4c0-18.9,2.8-35.3,8.3-49.1c5.6-13.8,12.9-25.1,21.9-34
				c9-8.9,19.3-15.4,30.9-19.6c11.6-4.2,23.5-6.3,35.8-6.3c15.3,0,28.5,2.5,39.4,7.7c11,5.1,19.9,11.9,26.8,20.5
				c6.9,8.6,12,18.5,15.3,29.7c3.3,11.3,5,22.9,5,34.9c0,4.2-0.1,8.5-0.2,12.8c-0.1,4.4-0.5,8.5-1.1,12.4H456.9
				c0.9,21.8,6.7,39.3,17.4,52.6C484.9,780.4,501.3,787,523.6,787z M561.8,685.7c0-8.1-0.8-15.6-2.5-22.5c-1.6-6.9-4.4-13-8.3-18.2
				c-3.9-5.2-9-9.4-15.5-12.4c-6.4-3-14.3-4.5-23.6-4.5c-15.5,0-28.3,5.1-38.3,15.3c-10,10.2-15.6,24.3-16.8,42.3H561.8z"/>
			<path class="st1" d="M717.9,815h-39.2l-79.5-211.3c6.6-2.4,13.4-3.6,20.3-3.6c9,0,15.7,2.8,20,8.3c4.4,5.6,8.2,13.6,11.5,24.1
				l48.4,143.2l48.9-141.4c3.6-10.8,7.5-19.2,11.7-25.2c4.2-6,11.1-9,20.7-9c3.6,0,7,0.4,10.1,1.1c3.1,0.8,5.8,1.7,7.9,2.9
				L717.9,815z"/>
			<path class="st1" d="M906.9,787c8.7,0,16.3-0.9,22.7-2.7c6.5-1.8,12-4.1,16.7-6.8c4.7-2.7,8.6-5.5,11.9-8.3
				c3.3-2.8,6-5.5,8.1-7.9c3.3,4.2,6.2,8.7,8.8,13.5c2.6,4.8,3.8,8.6,3.8,11.3c0,2.4-0.8,4.9-2.3,7.5c-1.5,2.6-4.1,5.3-7.7,8
				c-6.9,5.2-15.8,9.5-26.6,13c-10.8,3.5-23.9,5.3-39.2,5.3c-14.1,0-27.4-2-39.9-6.1c-12.5-4-23.4-10.6-32.8-19.6
				c-9.4-9-16.8-20.8-22.3-35.4c-5.5-14.6-8.2-32.4-8.2-53.4c0-18.9,2.8-35.3,8.3-49.1c5.6-13.8,12.9-25.1,21.9-34
				c9-8.9,19.3-15.4,30.9-19.6c11.6-4.2,23.5-6.3,35.8-6.3c15.3,0,28.5,2.5,39.4,7.7c11,5.1,19.9,11.9,26.8,20.5
				c6.9,8.6,12,18.5,15.3,29.7c3.3,11.3,5,22.9,5,34.9c0,4.2-0.1,8.5-0.2,12.8c-0.1,4.4-0.5,8.5-1.1,12.4H840.2
				c0.9,21.8,6.7,39.3,17.4,52.6C868.2,780.4,884.6,787,906.9,787z M945.1,685.7c0-8.1-0.8-15.6-2.5-22.5c-1.6-6.9-4.4-13-8.3-18.2
				c-3.9-5.2-9-9.4-15.5-12.4c-6.4-3-14.3-4.5-23.6-4.5c-15.5,0-28.3,5.1-38.3,15.3c-10,10.2-15.6,24.3-16.8,42.3H945.1z"/>
			<path class="st1" d="M1046.9,770.8c0,4.5,0.1,8.3,0.4,11.5c0.3,3.1,1.1,5.8,2.5,7.9c1.4,2.1,3.5,3.7,6.3,4.7
				c2.8,1.1,7,1.6,12.4,1.6v16.2c-2.7,0.9-6.4,1.7-11,2.3c-4.7,0.6-9.2,0.9-13.7,0.9c-8.7,0-15.4-1.4-20-4.1
				c-4.7-2.7-8.1-6.3-10.4-10.8c-2.3-4.5-3.6-9.5-4.1-15.1c-0.5-5.6-0.7-11-0.7-16.4V493.8h2.7c0.6,0,1.4-0.1,2.5-0.2
				c1.1-0.1,2-0.2,2.9-0.2c8.4,0,15.5,2.2,21.4,6.5c5.9,4.4,8.8,12.2,8.8,23.6V770.8z"/>
		</g>
		<path class="st2" d="M682.5,842.1c6.8,10.4,5.3,24.1,24.6,30c4.2,1.3,8.7,1.8,13.1,1.8c1.4,0,309.7,0,312.9,0
			c4.4,0,8.9-0.5,13.1-1.8c19.3-5.9,17.8-19.6,24.6-30C911,842.9,842.4,842.9,682.5,842.1z"/>
	</g>
</g>
</svg>
