<?xml version="1.0" encoding="utf-8"?>
<!-- Generator: Adobe Illustrator 26.0.1, SVG Export Plug-In . SVG Version: 6.00 Build 0)  -->
<svg version="1.1" id="Layer_1" xmlns="http://www.w3.org/2000/svg" xmlns:xlink="http://www.w3.org/1999/xlink" x="0px" y="0px"
	 viewBox="0 0 1417.3 1417.3" style="enable-background:new 0 0 1417.3 1417.3;" xml:space="preserve">
<style type="text/css">
	.st0{fill:#192649;}
	.st1{fill:#FFFFFF;}
</style>
<rect x="1" y="0.4" class="st0" width="1417.3" height="1417.3"/>
<path class="st1" d="M1042,853.9c-23.7-35.6-58.6-57.9-103.6-70.4c41.4-48.1,56.6-102,46.2-159.8c-26.1-143.6-208.1-268.3-300.9-314
	c-43.4-21.4-89.2-36-128.9-41.3c-50.2-6.5-90.4,2-116.9,24.7c-43.8,37.6-36.2,99.9-22.1,145.7c19.3,62.7,61.5,116.1,109.7,157.4
	c-77.9,69.6-127.7,161.4-149.4,222.9c-18.1,51.4-22.5,102-13.3,149.7c12,61.5,47,112.5,98,144c41.4,25.1,92,38,151,38
	c29.7,0,61.5-3.2,95.6-9.7c179.2-33.6,307.3-103.6,342.6-187.7C1064.5,919.1,1061.7,883.5,1042,853.9z M993.8,930L993.8,930
	c-20.1,47.7-110.1,116.1-297.7,151.3c-86.8,16.2-155.5,9.3-204.1-20.6c-20.6-12.5-37.9-29.8-50.2-50.6c-9.6-16.2-16.3-34-19.7-52.6
	c-7.2-37.6-3.6-76.1,10.8-117.3c13.7-38.8,44.2-99.1,88.8-152.1c16.9-20.2,34.9-38.4,53.4-53.8c18.9,12.5,38.2,23.1,56.2,32
	c67.5,32,129.7,40.9,171.1,23.9c49.4-20.2,72.7-62.3,59-106.8c-14.9-50.2-76.3-93.9-160.7-76.9c-47,9.3-89.2,28.3-126.5,53
	c-56.2-45.7-88.8-98.7-100.8-137.6c-8.4-27.9-14.9-64.7,3.6-80.9c26.9-23.1,104-12.5,179.6,25.1c20.5,10.1,92,47.7,161.5,110.9
	c60.7,55,97.2,110.1,106,159c7.6,41.7-4.8,79.3-37.8,114.9c-7.2,7.7-14.5,15-21.3,22.3c-56.2-3.6-122.1,1.2-196.4,10.5
	C526.7,801.3,503.4,873,499.8,894.8c-6.4,37.2,12.9,73.2,49.4,91.4c104,52.6,250.7-63.9,338.6-149.7c51.4,6.9,84.4,23.9,103.2,52.2
	C999.5,900.5,1000.3,914.2,993.8,930z M629.9,595.8c26-14.3,54.1-24.7,83.1-30.7c51.4-10.5,84.4,14.6,90.4,34.8
	c4.8,16.6-10.4,27.1-24.1,32.8c-24.5,10.1-72.3,1.2-122.1-22.3C648,605.5,638.8,601.1,629.9,595.8L629.9,595.8z M801.8,832.1
	c-96,83.3-179.6,121.4-224.9,98.3c-6-2.8-19.3-11.7-16.9-26.3c3.2-17.4,30.9-50.2,116.5-60.7C725.9,837,766.9,833.3,801.8,832.1z"/>
</svg>
