<?xml version="1.0" encoding="utf-8"?>
<!-- Generator: Adobe Illustrator 26.0.1, SVG Export Plug-In . SVG Version: 6.00 Build 0)  -->
<svg version="1.1" id="Layer_1" xmlns="http://www.w3.org/2000/svg" xmlns:xlink="http://www.w3.org/1999/xlink" x="0px" y="0px"
	 viewBox="0 0 1417.3 1417.3" style="enable-background:new 0 0 1417.3 1417.3;" xml:space="preserve">
<style type="text/css">
	.st0{fill:#192649;}
	.st1{fill:#FFFFFF;}
</style>
<rect x="1" y="0.4" class="st0" width="1417.3" height="1417.3"/>
<path class="st1" d="M303.2,796v29.9c0,3.6-2.9,6.5-6.5,6.5H157.1c-3.6,0-6.5-2.9-6.5-6.5v-26.5c0-1.8,0.5-3.7,1.5-5.2l92.7-146.6
	h-85.3c-3.6,0-6.5-2.9-6.5-6.5v-29.9c0-3.6,2.9-6.5,6.5-6.5h135.4c3.6,0,6.5,2.9,6.5,6.5V637c0,1.8-0.5,3.7-1.5,5.2l-92.7,147.2
	h89.5C300.3,789.4,303.2,792.4,303.2,796L303.2,796z M469.1,670.5l-34.6,18.5c-12.4-15.8-30-23.8-52.7-23.8
	c-21.5,0-40.1,8.3-55.4,24.9c-15.3,16.6-23.1,36.9-23.1,61c0,24.1,7.8,44.4,23.1,61c15.3,16.6,33.9,24.9,55.4,24.9
	c22.6,0,40.2-8,52.7-23.8v12.7c0,3.6,2.9,6.5,6.5,6.5h28.8c3.6,0,6.5-2.9,6.5-6.5V674.7C476.2,671.2,472.3,668.7,469.1,670.5z
	 M421.8,784.1c-8.6,8.6-19.2,12.9-32.1,12.9c-12.9,0-23.6-4.2-32-12.9c-8.4-8.6-12.6-19.5-12.6-33s4.2-24.4,12.6-33
	c8.4-8.6,19.1-12.9,32-12.9c12.9,0,23.6,4.2,32.1,12.9c8.6,8.6,12.8,19.5,12.8,33S430.2,775.6,421.8,784.1z M650.8,690
	c-15.3-16.6-33.9-24.9-55.7-24.9c-22.6,0-40.1,8-52.3,23.8v-77.6c0-4.9-5.2-8-9.5-5.7l-28.8,15.3c-2.1,1.1-3.4,3.3-3.4,5.7v199.3
	c0,3.6,2.9,6.5,6.5,6.5h28.8c3.6,0,6.5-2.9,6.5-6.5v-12.7C555,829,572.5,837,595.1,837c21.8,0,40.4-8.3,55.7-24.9
	c15.3-16.6,23.1-36.9,23.1-61C673.9,727,666.1,706.6,650.8,690L650.8,690z M619.5,784.1c-8.6,8.6-19.2,12.9-32.1,12.9
	c-12.9,0-23.6-4.2-32-12.9c-8.4-8.6-12.6-19.5-12.6-33c0-13.5,4.2-24.4,12.6-33c8.4-8.6,19.1-12.9,32-12.9
	c12.9,0,23.6,4.2,32.1,12.9c8.6,8.6,12.8,19.5,12.8,33C632.2,764.6,627.9,775.6,619.5,784.1z M732.1,589.3v236.7
	c0,3.6-2.9,6.5-6.5,6.5h-28.8c-3.6,0-6.5-2.9-6.5-6.5V604.8c0-2.4,1.3-4.6,3.4-5.7l28.8-15.5C726.9,581.2,732.1,584.4,732.1,589.3
	L732.1,589.3z M892.8,689.9c-15.3-16.4-34.9-24.7-58.6-24.7c-25,0-45.4,8.1-61.4,24.6c-16,16.4-23.9,36.8-23.9,61.3
	c0,24.7,8.1,45.2,24.2,61.5c16.2,16.3,37.6,24.4,64.3,24.4c28.1,0,50.1-9.6,65.9-28.8c2.6-3.1,1.6-7.8-1.8-9.8l-22.6-13.2
	c-2.6-1.5-5.8-1.1-7.8,1c-8.1,8.3-19.1,12.5-33,12.5c-24.7,0-39.9-10.2-45.6-30.6h116.3c3.2,0,6-2.4,6.5-5.7
	c0.5-4.1,0.8-7.8,0.8-11.6C915.9,726.8,908.1,706.5,892.8,689.9L892.8,689.9z M791.8,735.8c2.4-10.4,7.3-18.5,14.5-24.2
	c7.3-5.7,16.6-8.6,27.8-8.6c9.5,0,17.9,2.8,25.4,8.1c7.4,5.4,12.3,13.7,14.7,24.7L791.8,735.8L791.8,735.8z M1265.3,766.7
	c-9.5-14.3-23.6-23.3-41.7-28.3c16.6-19.4,22.8-41,18.6-64.3c-10.5-57.8-83.7-107.9-121-126.3c-17.4-8.6-35.9-14.5-51.9-16.6
	c-20.2-2.6-36.3,0.8-47,9.9c-17.6,15.1-14.5,40.2-8.9,58.6c7.8,25.2,24.7,46.7,44.1,63.3c-31.3,28-51.4,64.9-60.1,89.7
	c-7.3,20.7-9,41-5.3,60.2c4.8,24.7,18.9,45.2,39.4,57.9c16.6,10.1,37,15.3,60.7,15.3c12,0,24.7-1.3,38.4-3.9
	c72-13.5,123.6-41.7,137.8-75.5C1274.3,792.9,1273.2,778.6,1265.3,766.7z M1245.9,797.3c-8.1,19.2-44.3,46.7-119.7,60.9
	c-34.9,6.5-62.5,3.7-82.1-8.3c-8.3-5-15.2-12-20.2-20.3c-3.9-6.5-6.6-13.7-7.9-21.2c-2.9-15.1-1.5-30.6,4.4-47.2
	c5.5-15.6,17.8-39.9,35.7-61.2c6.8-8.1,14.1-15.5,21.5-21.6c7.6,5,15.3,9.3,22.6,12.9c27.1,12.9,52.2,16.4,68.8,9.6
	c19.9-8.1,29.2-25.1,23.7-43c-6-20.2-30.7-37.7-64.6-30.9c-18.9,3.7-35.9,11.4-50.9,21.3c-22.6-18.4-35.7-39.7-40.5-55.3
	c-3.4-11.2-6-26,1.5-32.5c10.8-9.3,41.8-5,72.2,10.1c8.2,4.1,37,19.2,64.9,44.6c24.4,22.1,39.1,44.3,42.6,63.9
	c3.1,16.8-1.9,31.9-15.2,46.2c-2.9,3.1-5.8,6-8.6,8.9c-22.6-1.5-49.1,0.5-79,4.2c-57.2,7.2-66.6,36-68,44.7
	c-2.6,15,5.2,29.4,19.9,36.8c41.8,21.2,100.8-25.7,136.2-60.2c20.7,2.8,33.9,9.6,41.5,21C1248.2,785.4,1248.5,790.9,1245.9,797.3
	L1245.9,797.3z M1099.6,662.9c10.5-5.8,21.7-9.9,33.4-12.4c20.7-4.2,33.9,5.9,36.3,14c1.9,6.7-4.2,10.9-9.7,13.2
	c-9.9,4.1-29.1,0.5-49.1-8.9C1106.8,666.8,1103.1,665,1099.6,662.9L1099.6,662.9z M1168.7,757.9c-38.6,33.5-72.2,48.8-90.5,39.5
	c-2.4-1.1-7.8-4.7-6.8-10.6c1.3-7,12.4-20.2,46.8-24.4C1138.2,759.9,1154.6,758.4,1168.7,757.9z"/>
</svg>
