<?xml version="1.0" encoding="utf-8"?>
<!-- Generator: Adobe Illustrator 22.0.1, SVG Export Plug-In . SVG Version: 6.00 Build 0)  -->
<svg version="1.1" id="Layer_1" xmlns="http://www.w3.org/2000/svg" xmlns:xlink="http://www.w3.org/1999/xlink" x="0px" y="0px"
	 viewBox="0 0 1417.3 1417.3" style="enable-background:new 0 0 1417.3 1417.3;" xml:space="preserve">
<style type="text/css">
	.st0{fill:#0A2344;}
	.st1{fill:#FFFFFF;}
	.st2{fill:#70CAD0;}
</style>
<rect y="0" class="st0" width="1417.3" height="1417.3"/>
<g>
	<g>
		<g>
			<path class="st1" d="M261.2,804.1c0,6.2,0.1,11.5,0.6,15.9c0.4,4.3,1.5,8,3.5,10.9c1.9,2.9,4.8,5.1,8.7,6.5
				c3.9,1.5,9.7,2.2,17.1,2.2v22.4c-3.7,1.2-8.8,2.3-15.2,3.2c-6.5,0.8-12.7,1.2-18.9,1.2c-12,0-21.3-1.9-27.6-5.7
				c-6.5-3.7-11.2-8.7-14.4-14.9c-3.2-6.2-5-13.1-5.7-20.9c-0.7-7.7-1-15.2-1-22.7V421.4h3.7c0.8,0,1.9-0.1,3.5-0.3s2.8-0.3,4-0.3
				c11.6,0,21.4,3,29.6,9c8.2,6.1,12.2,16.9,12.2,32.6L261.2,804.1L261.2,804.1z"/>
			<path class="st1" d="M453,826.4c12,0,22.5-1.2,31.4-3.7c9-2.5,16.6-5.7,23.1-9.4s11.9-7.6,16.4-11.5c4.6-3.9,8.3-7.6,11.2-10.9
				c4.6,5.8,8.6,12,12.2,18.7c3.6,6.6,5.3,11.9,5.3,15.6c0,3.3-1.1,6.8-3.2,10.4c-2.1,3.6-5.7,7.3-10.6,11.1
				c-9.5,7.2-21.8,13.1-36.8,18s-33,7.3-54.2,7.3c-19.5,0-37.9-2.8-55.1-8.4c-17.3-5.5-32.3-14.6-45.3-27.1
				c-13-12.4-23.2-28.7-30.8-48.9c-7.6-20.2-11.3-44.8-11.3-73.8c0-26.1,3.9-48.8,11.5-67.8c7.7-19.1,17.8-34.7,30.3-47
				c12.4-12.3,26.7-21.3,42.7-27.1c16-5.8,32.5-8.7,49.5-8.7c21.1,0,39.4,3.5,54.4,10.6c15.2,7,27.5,16.4,37,28.3
				c9.5,11.9,16.6,25.6,21.1,41c4.6,15.6,6.9,31.6,6.9,48.2c0,5.8-0.1,11.7-0.3,17.7c-0.1,6.1-0.7,11.7-1.5,17.1H360.8
				c1.2,30.1,9.3,54.3,24,72.7C399.5,817.3,422.2,826.4,453,826.4z M505.8,686.5c0-11.2-1.1-21.6-3.5-31.1
				c-2.2-9.5-6.1-18-11.5-25.1c-5.4-7.2-12.4-13-21.4-17.1c-8.8-4.1-19.8-6.2-32.6-6.2c-21.4,0-39.1,7-52.9,21.1
				c-13.8,14.1-21.6,33.6-23.2,58.4L505.8,686.5L505.8,686.5z"/>
			<path class="st1" d="M721.4,865.1h-54.2L557.4,573.2c9.1-3.3,18.5-5,28-5c12.4,0,21.7,3.9,27.6,11.5c6.1,7.7,11.3,18.8,15.9,33.3
				l66.9,197.8l67.6-195.4c5-14.9,10.4-26.5,16.2-34.8c5.8-8.3,15.3-12.4,28.6-12.4c5,0,9.7,0.6,14,1.5c4.3,1.1,8,2.3,10.9,4
				L721.4,865.1z"/>
			<path class="st1" d="M982.6,826.4c12,0,22.5-1.2,31.4-3.7c9-2.5,16.6-5.7,23.1-9.4c6.5-3.7,11.9-7.6,16.4-11.5
				c4.6-3.9,8.3-7.6,11.2-10.9c4.6,5.8,8.6,12,12.2,18.7c3.6,6.6,5.3,11.9,5.3,15.6c0,3.3-1.1,6.8-3.2,10.4
				c-2.1,3.6-5.7,7.3-10.6,11.1c-9.5,7.2-21.8,13.1-36.8,18c-14.9,4.8-33,7.3-54.2,7.3c-19.5,0-37.9-2.8-55.1-8.4
				c-17.3-5.5-32.3-14.6-45.3-27.1c-13-12.4-23.2-28.7-30.8-48.9c-7.6-20.2-11.3-44.8-11.3-73.8c0-26.1,3.9-48.8,11.5-67.8
				c7.7-19.1,17.8-34.7,30.3-47c12.4-12.3,26.7-21.3,42.7-27.1c16-5.8,32.5-8.7,49.5-8.7c21.1,0,39.4,3.5,54.4,10.6
				c15.2,7,27.5,16.4,37,28.3c9.5,11.9,16.6,25.6,21.1,41c4.6,15.6,6.9,31.6,6.9,48.2c0,5.8-0.1,11.7-0.3,17.7
				c-0.1,6.1-0.7,11.7-1.5,17.1H890.4c1.2,30.1,9.3,54.3,24,72.7C929.1,817.3,951.7,826.4,982.6,826.4z M1035.3,686.5
				c0-11.2-1.1-21.6-3.5-31.1c-2.2-9.5-6.1-18-11.5-25.1c-5.4-7.2-12.4-13-21.4-17.1c-8.8-4.1-19.8-6.2-32.6-6.2
				c-21.4,0-39.1,7-52.9,21.1c-13.8,14.1-21.6,33.6-23.2,58.4L1035.3,686.5L1035.3,686.5z"/>
			<path class="st1" d="M1176,804.1c0,6.2,0.1,11.5,0.6,15.9c0.4,4.3,1.5,8,3.5,10.9c1.9,2.9,4.8,5.1,8.7,6.5
				c3.9,1.5,9.7,2.2,17.1,2.2v22.4c-3.7,1.2-8.8,2.3-15.2,3.2c-6.5,0.8-12.7,1.2-18.9,1.2c-12,0-21.3-1.9-27.6-5.7
				c-6.5-3.7-11.2-8.7-14.4-14.9c-3.2-6.2-5-13.1-5.7-20.9c-0.7-7.7-1-15.2-1-22.7V421.4h3.7c0.8,0,1.9-0.1,3.5-0.3
				c1.5-0.1,2.8-0.3,4-0.3c11.6,0,21.4,3,29.6,9c8.2,6.1,12.2,16.9,12.2,32.6L1176,804.1L1176,804.1z"/>
		</g>
		<path class="st2" d="M672.5,902.6c9.4,14.4,7.3,33.3,34,41.4c5.8,1.8,12,2.5,18.1,2.5c1.9,0,427.9,0,432.3,0
			c6.1,0,12.3-0.7,18.1-2.5c26.7-8.2,24.6-27.1,34-41.4C988.2,903.7,893.4,903.7,672.5,902.6z"/>
	</g>
</g>
</svg>
