<?xml version="1.0" encoding="utf-8"?>
<!-- Generator: Adobe Illustrator 22.0.1, SVG Export Plug-In . SVG Version: 6.00 Build 0)  -->
<svg version="1.1" id="Layer_1" xmlns="http://www.w3.org/2000/svg" xmlns:xlink="http://www.w3.org/1999/xlink" x="0px" y="0px"
	 viewBox="0 0 1417.3 1417.3" style="enable-background:new 0 0 1417.3 1417.3;" xml:space="preserve">
<style type="text/css">
	.st0{fill:#082331;}
	.st1{fill:#FFFFFF;}
</style>
<rect x="1" y="0.4" class="st0" width="1417.3" height="1417.3"/>
<g>
	<path class="st1" d="M919.7,645.8c-8.4,0-18.5,0-25.2,0v-67.3h-22.2v210.4c8.9,5.6,28.3,9.9,46.4,9.9c41,0,74.5-25,74.5-74.4
		C993.2,677,960.3,645.8,919.7,645.8z M917.8,779.3c-7.5,0-18.9-1.5-23.4-4v-110c6.7,0,13.9,0,23.7,0c28.3,0,52.1,21,52.1,58.4
		C970.2,757.6,950.7,779.3,917.8,779.3z"/>
	<path class="st1" d="M1203.6,720.9c0-46-19.3-75.1-55.5-75.1c-34.7,0-57.9,30.6-57.9,75.1c0,42.6,22.3,77.8,67.2,77.8
		c16,0,33.3-4.6,45.7-13l-7.2-16.1c-9.6,5.6-21.7,10.4-34.9,10.4c-30.4,0-47-21.5-47.6-52.6h90.1v-6.5H1203.6L1203.6,720.9z
		 M1113.8,711.9c0.3-24.5,13.9-44.5,35.6-44.5c22.6,0,33.2,20,33.5,44.5H1113.8z"/>
	<path class="st1" d="M832.2,695.6c0-34.9-19.3-48.2-48.9-48.2h-93.6v-68.9h-22.2v66.1c-6.7,0-14,0-22.5,0
		c-40.7,0-72.7,31.2-72.7,78.5c0,49.4,32.3,74.4,73.3,74.4c18.1,0,35.2-4.3,44.1-9.9V664.2l89,0.6c17.8,0,31.3,9.9,31.3,32.1v9.3
		l-26.3,0.9c-14.5,0.6-25.5,2.2-35.2,7.1c-14.5,6.8-23.9,20.1-23.9,39.5c0,28.1,19.4,45.1,45.4,45.1c17.8,0,31.8-7.1,42.9-17.9
		l4.3,17.8h19.6c-1.8-6.6-4.6-24-4.6-52.7V695.6z M667.6,774.1c-6.7,2.5-13.1,4-20.7,4c-32.9,0-51.6-21.6-51.6-55.6
		c0-37.4,22.6-58.4,50.9-58.4c9.8,0,14.7,0,21.4,0L667.6,774.1L667.6,774.1z M810,760.4c-6.7,7.1-19.1,19.1-36.9,19.1
		c-16.3,0-26.1-11.1-26.1-27.2c0-9.6,4.4-17.9,12.6-22.5c6.3-3.4,13.7-5.3,26.1-5.6l24.3-0.9L810,760.4L810,760.4z"/>
	<path class="st1" d="M248.6,778.5c-7.5,0-12.6-3.4-12.6-15.4V580.8h-22.2v189.4c0,17.6,10.2,28.4,28.3,28.4
		c6.6,0,14.9-1.5,20.7-4.3l-5.2-18C255.5,777.3,251,778.5,248.6,778.5z"/>
	<path class="st1" d="M343.5,644.6c-34.7,0-57.9,30.6-57.9,75.1c0,42.6,22.3,77.8,67.2,77.8c16,0,33.3-4.6,45.7-13l-7.2-16.1
		c-9.6,5.6-21.7,11-34.9,11c-30.4,0-47-20.9-47.6-52h90.3v-7.7C399.1,673.7,379.7,644.6,343.5,644.6z M309.1,711.9
		c0.3-24.5,13.9-44.5,35.6-44.5c22.6,0,33.2,20,33.5,44.5H309.1z"/>
	<path class="st1" d="M503,646.8c-18.4,0-33.5,10.7-49.2,24.3l-1.9-17.1h-21.7v144.5h22.3V689.1c13.3-12,29.3-21.9,45.3-21.9
		c20.2,0,26.5,17.2,26.5,39.1l0.7,92.3h18.7V698.1C543.6,661.3,525.2,646.8,503,646.8z"/>
	<path class="st1" d="M1062.2,777.4c-7.5,0-12-3.4-12-15.4V578.5H1030v191.9c0,17.6,8.7,27.8,26.8,27.8c6.6,0,14.2-1.9,19.9-4.6
		l-5.2-18.1C1069.3,776.3,1064.6,777.4,1062.2,777.4z"/>
</g>
</svg>
