<?xml version="1.0" encoding="utf-8"?>
<!-- Generator: Adobe Illustrator 22.0.1, SVG Export Plug-In . SVG Version: 6.00 Build 0)  -->
<svg version="1.1" id="Layer_1" xmlns="http://www.w3.org/2000/svg" xmlns:xlink="http://www.w3.org/1999/xlink" x="0px" y="0px"
	 viewBox="0 0 1417.3 1417.3" style="enable-background:new 0 0 1417.3 1417.3;" xml:space="preserve">
<style type="text/css">
	.st0{fill:#082331;}
	.st1{fill:#FFFFFF;}
</style>
<rect x="1" y="0.4" class="st0" width="1417.3" height="1417.3"/>
<g>
	<g>
		<path class="st1" d="M1072.9,660.2c35,0,67.9-8.1,85.4-19.2V235.3h-43.1v128.1h-43.6c-78.6,0-140.5,60.6-140.5,152
			C931.1,611.5,993.5,660.2,1072.9,660.2z M1074.2,401.4h41.4v213.5c-12.8,4.7-25.2,7.7-40.1,7.7c-63.6,0-99.9-41.8-99.9-108
			C975.5,442,1019.5,401.4,1074.2,401.4z M296.6,661.9c12.8,0,29-3,40.1-8.1l-9.8-35c-4.3,1.7-12.8,4.3-17.5,4.3
			c-14.5,0-24.3-6.4-24.3-29.9V235.3h-42.7v371.9C242,641,261.6,661.9,296.6,661.9z M581.4,603.4c-18.4,11.1-41.8,21.3-67.5,21.3
			c-58.9,0-90.9-40.6-91.8-100.8h174.6V509c0-89.2-37.6-145.6-107.6-145.6c-67,0-111.9,59.4-111.9,145.6
			c0,82.4,43.1,150.7,129.8,150.7c30.7,0,64.5-9,88.4-25.2L581.4,603.4z M491.3,407.8c43.6,0,64,38.9,64.9,86.3H422.1
			C423,446.3,449,407.8,491.3,407.8z M625.4,841.2h-48.7v-95.6h-43.1v373.2c17.1,11.1,54.7,19.2,89.7,19.2
			c79.4,0,143.9-48.2,143.9-144.3C767.6,901.9,704.4,841.2,625.4,841.2z M622,1100c-14.5,0-36.7-3-45.3-7.7V879.2h46.1
			c54.7,0,100.8,40.6,100.8,113.2C723.6,1058.1,685.6,1100,622,1100z M1067.3,841.2c-67,0-111.9,59.4-111.9,145.6
			c0,82.4,43.1,150.7,129.8,150.7c30.7,0,64.5-9,88.4-25.2l-14.1-31.2c-18.8,11.1-41.8,20.1-67.5,20.1c-58.9,0-90.9-41.8-91.8-102.1
			h174.2v-12.4h0.4C1174.5,897.6,1137.4,841.2,1067.3,841.2z M1001.1,969.3c0.4-47.4,26.9-86.3,68.7-86.3c43.6,0,64,38.9,64.9,86.3
			H1001.1z M456.7,937.7c0-67.5-43.1-97.4-94.8-97.4s-101.6,28.2-101.6,28.2l14.5,32c0,0,39.3-22.6,77.7-22.6
			c32.9,0,60.6,19.2,60.6,62.3v17.9l-50.8,1.7c-28.2,1.3-49.1,4.3-67.9,13.7c-28.2,13.2-46.1,38.9-46.1,76.4
			c0,54.2,37.6,87.5,87.5,87.5c34.6,0,61.5-13.7,82.8-34.6l8.5,34.6h38c-3.4-12.8-9-46.5-9-102.1v-97.8H456.7z M413.6,1063.7
			c-12.8,13.7-36.7,37.1-71.3,37.1c-31.6,0-50.4-21.3-50.4-52.9c0-18.8,8.5-34.6,24.3-43.6c12.4-6.4,26.5-10.2,50.4-11.1l47-1.7
			C413.6,991.5,413.6,1063.7,413.6,1063.7z M901.2,1096.6c-14.5,0-23.1-6.4-23.1-29.9V467.2c-0.4-71.3-37.6-99.5-80.7-99.5
			c-35.4,0-64.9,20.9-95.2,47l-3.8-33.3h-41.8v280.1h43.1V449.7c25.6-23.5,56.8-42.7,87.5-42.7c38.9,0,51.7,33.3,51.7,76v599.9
			c0,34.2,16.7,53.8,51.7,53.8c12.8,0,27.3-3.8,38.4-9l-9.8-35C914.9,1094.4,905.9,1096.6,901.2,1096.6z"/>
	</g>
</g>
</svg>
