<?xml version="1.0" encoding="utf-8"?>
<!-- Generator: Adobe Illustrator 22.0.1, SVG Export Plug-In . SVG Version: 6.00 Build 0)  -->
<svg version="1.1" id="Layer_1" xmlns="http://www.w3.org/2000/svg" xmlns:xlink="http://www.w3.org/1999/xlink" x="0px" y="0px"
	 viewBox="0 0 1417.3 1417.3" style="enable-background:new 0 0 1417.3 1417.3;" xml:space="preserve">
<style type="text/css">
	.st0{fill:#1D4B4D;}
	.st1{fill:#FFFFFF;}
</style>
<rect y="0" class="st0" width="1417.3" height="1417.3"/>
<g>
	<path class="st1" d="M396.7,654.5c0-7.3-4.8-10.7-13.8-10.7c-2,0-3.7,0.3-5.1,0.3c-1.4,0.3-2.8,0.3-4.2,0.3
		c-14.1,0-22.8-5.1-26.8-15.5c-3.9-10.4-5.9-26.8-5.9-49.3c0-5.4,0.3-11.3,0.3-18c0.3-6.8,0.6-14.1,1.1-22.3l12.4-220.4
		c0.6-9,2-13.5,4.2-13.5c1.1,0,2.5,3.1,5.1,9.3l107.9,327.8c1.4,5.9,5.4,8.7,11.6,8.7c5.4,0,9-3.7,11.6-10.7l106.5-326.6
		c1.4-4.8,2.8-7,4.2-7c2.5,0,3.7,2.5,3.7,7.9l5.1,266.6v16.6c0,8.7-0.3,15.8-0.6,21.7c-0.3,5.9-2,10.4-4.8,14.1
		c-2.5,3.7-6.5,6.2-11.6,7.6c-5.1,1.4-12.1,2.3-21.4,2.3c-7.3,0-10.7,3.7-10.7,10.7c0,7.9,4.8,11.6,14.4,11.6
		c6.8,0,16.1-0.8,27.9-2.5c11.8-1.7,25.6-2.5,41.7-2.5c14.4,0,27.3,0.8,38,2.5c9.9,1.4,18.3,2.3,25.6,2.5
		c9.3,9.6,21.4,14.4,36.4,14.4c13.5,0,25.9-3.9,37.2-11.3c11.3-7.6,23.1-16.6,35.5-27.3l15.2-13.2h4.2c5.4,16.3,12.1,28.7,20.6,36.9
		c8.2,8.2,18.6,12.4,31.3,12.4c5.9,0,12.4-2,19.2-5.9c6.8-3.9,13.5-8.5,19.7-13.8c5.9-5.4,11.3-10.7,15.5-16.3
		c2.5-3.1,4.2-5.9,5.4-8.7c0.3,0.3,0.3,0.6,0.6,0.6c12.1,14.9,26.2,26.2,42.8,34.1c16.3,7.9,34.4,11.8,53.8,11.8
		c14.4,0,28.2-2.5,40.6-7.3c12.7-4.8,23.4-10.4,32.1-17.2c9-6.5,16.1-13.2,20.9-20.3c5.1-7,7.6-12.7,7.6-17.2c0-6.2-3.1-9.6-9.6-9.6
		c-1.4,0-3.9,1.4-6.8,4.8c-3.1,3.1-7.3,6.8-12.4,10.4c-5.1,3.9-11.3,7.3-18.9,10.4c-7.6,3.1-15.8,4.8-24.8,4.8
		c-14.4,0-27.9-3.1-40-9.9c-12.1-6.5-22.5-15.8-31.6-28.2c-9-12.4-16.1-27.3-21.1-45.1c-5.1-17.8-7.6-38-7.6-60.6
		c0-22,2.3-42,6.8-59.2c4.8-17.2,10.4-32.1,17.8-44.5c7.3-12.4,15.5-21.7,24.5-28.2c9-6.5,18-9.9,26.8-9.9c6.8,0,12.4,1.4,17.2,4.8
		c4.8,3.1,8.7,7.3,12.7,12.7c3.9,5.4,7.6,11.8,10.7,20c3.4,7.9,7.3,16.6,11.6,25.6c6.2,14.1,12.7,21.1,19.7,21.1
		c5.9,0,10.4-5.1,14.1-15.5s5.4-24.8,5.4-43.1c0-6.2-2.3-12.1-6.8-17.5c-4.8-5.4-10.7-9.9-18-14.4c-7.6-4.2-16.3-7.6-26.5-10.1
		c-10.1-2.5-20.9-3.9-32.7-3.9c-21.4,0-40.9,4.2-58.6,12.4c-18,8.2-33.5,20-46.5,35.2c-13.2,15.2-23.4,33.5-30.7,55.2
		c-7.6,21.4-11.3,45.9-11.3,72.7c0,26.2,3.4,49.6,10.1,70.7c4.5,13.8,9.9,26.2,16.6,37.2c-3.1,1.1-6.2,3.1-9.6,6.8
		c-4.2,4.8-9,7.3-14.4,7.3c-8.2,0-13.2-3.9-15.2-11.6c-2-7.6-2.8-19.2-2.8-34.7V416.6c0-13.5-0.6-25.4-2.3-35.8
		c-1.4-10.4-4.8-19.2-9.6-26.2c-4.8-7-11.8-12.4-21.4-16.1c-9.6-3.7-22-5.4-37.5-5.4c-18.9,0-36.6,3.4-52.7,9.9
		c-16.3,6.5-30.2,14.9-42.3,24.5c-11.8,9.9-21.1,20.9-27.6,33c-6.5,12.1-9.9,23.4-9.9,34.1c0,3.9,1.4,7,3.9,9.6
		c2.5,2.5,5.9,3.7,9.9,3.7c14.7,0,25.1-4.2,31.6-12.7c6.5-8.5,12.4-18.9,17.8-30.7c6.8-15.5,13.8-27.3,21.1-35.8S798,356,810.7,356
		c12.7,0,20.6,4.8,23.7,13.8s4.8,24,4.8,44.2v51.6c0,5.4-0.3,9-1.1,11.3c-0.6,2.3-3.1,4.2-7,6.2l-18,9.6
		c-17.5,8.7-33.5,17.5-47.6,26.2c-14.4,8.7-26.5,18-36.6,27.9s-18,20.9-23.4,33c-5.4,12.1-7.9,26.2-7.9,42c0,7,0.8,13.8,2.3,19.7
		c-1.4-0.6-3.1-1.1-4.5-1.7c-7.9-3.4-12.1-7.9-13.5-13.5c-1.1-5.9-2-15.2-2.5-28.2l-7.9-315.6v-17.2c0-9.6,0.6-16.1,1.7-19.7
		c1.1-3.7,4.5-6.8,9.9-9c4.2-2,8.7-3.1,12.7-3.1c4.2-0.3,7.9-0.6,11.3-1.1c3.4-0.6,6.2-1.4,8.2-2.5c2.3-1.1,3.4-3.7,3.4-7.6
		c0-6.2-3.4-9.3-10.1-9.3h-93.6c-3.9,0-6.8,1.1-8.2,3.4c-1.7,2.3-3.1,5.1-3.9,9l-95,288c-2,5.4-3.9,7.9-5.9,7.9
		c-1.4,0-3.1-2.8-5.1-8.7l-96.4-292.8c-1.1-2.8-2.3-4.8-3.9-5.4c-1.7-0.6-3.9-1.1-6.2-1.1h-95c-6.8,0-10.1,3.1-10.1,9.6
		c0,3.9,0.8,6.5,2.5,7.6c1.7,1.1,3.9,2,6.8,2.3c2.8,0.3,6.2,0.6,10.1,0.6c3.9,0.3,7.9,1.1,12.4,2.5c6.8,2.3,11.3,5.9,13.2,10.1
		c2,4.2,2.8,11.8,2.8,23.1c0,3.9-0.3,7-0.3,9.3c-0.3,2.3-0.3,4.2-0.3,5.1l-12.4,246.3c-1.1,21.7-2,39.7-2.8,54.4
		c-1.1,14.7-2.5,26.5-4.2,35.5c-2,9-4.8,15.8-8.7,19.7c-3.9,4.2-9,6.2-15.2,6.2c-1.4,0-3.4-0.3-5.4-0.3c-2.3-0.3-4.8-0.3-7.6-0.3
		c-6.8,0-10.1,3.7-10.1,10.7c0,7.9,5.9,11.6,17.5,11.6c5.4,0,11.6-0.6,19.2-1.4c7.6-1.1,16.1-1.4,25.6-1.4c11.3,0,20.9,0.6,29.3,1.4
		c8.5,0.8,15.2,1.4,20.6,1.4C390.8,665.7,396.7,662.1,396.7,654.5z M805.9,517.2l24-11.6c3.4-2,5.9-2.8,7.3-2.8
		c2.5,0,3.7,2.8,3.7,8.7v57.5c0,9.6-1.4,18.3-4.8,26.2c-3.1,7.9-7,14.4-11.8,20c-4.8,5.4-10.1,9.9-16.1,13.2
		c-5.9,3.1-11.6,4.8-17.5,4.8c-8.2,0-14.9-3.7-20-10.7c-5.1-7.3-7.6-18-7.6-31.8C763,555.8,777.4,531.6,805.9,517.2z"/>
	<path class="st1" d="M1057.4,962.6c-7-21.4-16.9-39.5-29.9-54.7c-12.7-15.2-28.5-27.1-46.8-35.5c-18.3-8.5-38.6-12.7-60.9-12.7
		c-23.4,0-44.2,4.2-63.1,12.4c-18.9,8.2-34.9,19.7-48.5,34.7c-0.6,0.6-1.1,1.1-1.4,1.7c-0.3-14.1-4.8-25.6-13.8-34.9
		c-9-9.6-20.3-14.4-33.5-14.4c-17.5,0-33.8,9-49.3,27.6l-14.4,16.1c-3.4,3.4-5.4,5.1-6.5,5.1c-1.4,0-2.3-2.3-2.3-6.5v-28.2
		c0-10.1-2.3-15.2-7-15.2c-4.2,0-9.6,3.9-16.1,11.8c-6.5,7.9-16.6,16.9-30.4,26.5c-0.8,0.6-1.7,1.1-2.5,1.7c1.7-9.3,2.5-18.9,2.5-29
		c0-88.5-42-132.7-126.3-132.7c-16.1,0-29.9,0.3-42,0.6c-12.1,0.6-22.3,0.6-30.4,0.6h-11.6c-17.5,0-30.7-0.3-40.3-1.1
		c-9.6-0.6-15.2-1.1-17.2-1.1c-9,0-13.8,3.4-13.8,10.1c0,3.9,0.8,6.5,2.5,7.6c1.7,1.1,3.9,2,6.8,2.5c2.8,0.6,6.5,0.8,10.4,1.1
		c4.2,0.3,8.2,1.1,12.7,2.5c6.8,2.5,11,5.9,12.7,10.1c1.7,4.2,2.5,11.8,2.5,22.5v326.6c0,16.3-1.1,28.2-2.8,34.9
		c-2,7-8.2,11.8-18.9,14.9c-3.4,1.1-6.8,1.4-10.1,1.4s-6.2,0.3-8.7,0.6c-2.5,0.6-4.5,1.4-6.2,2.8c-1.7,1.4-2.5,3.9-2.5,7.3
		c0,7.6,4.8,11.6,14.4,11.6c5.4,0,13.5-0.8,24.2-2.5s25.1-2.5,42-2.5c18.3,0,33.3,0.8,44.5,2.5c11.3,1.7,19.4,2.5,24.2,2.5
		c4.8,0,8.7-1.1,11.3-3.4s3.9-4.8,3.9-7.6c0-4.2-1.1-7.3-2.8-8.7c-2-1.4-4.5-2.5-7.6-2.8c-3.1-0.6-6.8-0.8-11.3-1.1
		c-4.2-0.3-8.7-1.4-13.2-3.4c-6.8-3.4-10.7-7.6-12.4-13c-1.4-5.4-2.3-14.1-2.3-26.8v-135c0-4.8,0.3-8.2,1.1-10.4
		c0.6-2.3,2.5-3.4,5.4-3.4c0.6,0,2.3,0.6,5.1,1.4l11.6,5.1c8.7,3.9,16.6,7,24,9.6c7.3,2.5,14.4,3.7,20.9,3.7c13.5,0,26.2-3.4,38-9.9
		s22.3-15.5,31.6-26.8c5.9-7.6,11.3-15.8,15.5-25.1c1.7,1.1,3.4,2.3,5.1,3.7c3.1,2.8,4.8,8.7,4.8,17.5v185.7
		c0,6.8-0.6,11.8-1.7,15.5c-1.1,3.7-5.1,7-11.8,10.4c-3.9,2-7.6,3.1-10.7,3.7c-3.4,0.6-6.2,1.1-8.7,1.7c-2.5,0.6-4.2,1.7-5.9,2.8
		c-1.4,1.1-2.3,3.4-2.3,6.8c0,7.9,4.2,11.6,13.2,11.6c7.6,0,16.3-0.6,26.5-2.3c9.9-1.4,20.6-2.3,31.8-2.3c12.4,0,24.2,0.8,35.5,2.5
		c11.3,1.7,21.7,2.5,31.3,2.5c5.4,0,9.3-1.1,11.8-3.4s3.9-4.8,3.9-7.6c0-3.9-1.1-6.5-2.8-7.9c-2-1.4-4.5-2.5-7.6-3.4
		c-3.1-0.6-7-1.4-11.8-2.3c-4.8-0.8-10.1-2.5-16.1-5.4c-5.9-2.5-9.6-5.6-11.6-9.9c-2-4.2-2.8-10.4-2.8-18.3V978.7
		c0-45.4,9-68.2,26.8-68.2c3.9,0,7.6,1.7,11.6,5.4c3.9,3.7,7.9,7.6,12.4,11.8c4.2,4.2,9,8.2,14.4,11.8c5.4,3.7,11.6,5.4,18.9,5.4
		c3.7,0,7-0.6,10.4-1.7c-2.5,5.4-4.8,11-6.8,16.9c-7.3,21.4-10.7,44.8-10.7,71c0,25.6,3.4,49,10.4,70.5c7,21.4,16.9,39.5,29.9,54.7
		c12.7,15.2,28.2,27.1,45.9,35.5c18,8.5,37.8,12.7,59.5,12.7c24.2,0,45.9-4.2,65.4-12.4c19.2-8.2,35.5-19.7,48.8-34.7
		c13.2-14.9,23.7-33,30.7-54.4c7.3-21.4,10.7-44.8,10.7-70.5C1067.9,1007.5,1064.2,984.1,1057.4,962.6z M546.5,937
		c-12.7,17.8-27.1,26.5-43.7,26.5c-9,0-17.8-2.5-25.6-7.6c-7.9-5.1-11.8-13-11.8-23.7V791.6c0-12.7,2-21.7,5.9-27.3
		c3.9-5.4,13.2-8.2,28.2-8.2c8.7,0,17.2,2.5,25.1,7.9c7.9,5.4,14.9,12.7,20.9,22c5.9,9.6,10.7,20.9,14.4,34.1
		c3.7,13.2,5.4,28.2,5.4,44.5C565.4,895.3,559.2,919.2,546.5,937z M981.1,1147.8c-15.2,24.8-36.1,37.5-62.6,37.5
		c-26.2,0-47.3-14.4-63.4-43.1c-16.1-28.7-24.2-68.8-24.2-120.1c0-45.4,7.6-80.6,22.5-105.1c14.9-24.5,36.4-36.9,64-36.9
		c25.6,0,46.5,14.4,62.6,43.1c16.1,28.7,24.2,68.8,24.2,120.1C1004.2,1088.3,996.6,1123,981.1,1147.8z"/>
</g>
</svg>
