<?xml version="1.0" encoding="utf-8"?>
<!-- Generator: Adobe Illustrator 22.0.1, SVG Export Plug-In . SVG Version: 6.00 Build 0)  -->
<svg version="1.1" id="Layer_1" xmlns="http://www.w3.org/2000/svg" xmlns:xlink="http://www.w3.org/1999/xlink" x="0px" y="0px"
	 viewBox="0 0 1417.3 1417.3" style="enable-background:new 0 0 1417.3 1417.3;" xml:space="preserve">
<style type="text/css">
	.st0{fill:#1D4B4D;}
	.st1{fill:#FFFFFF;}
	.st2{fill:#D4D546;}
</style>
<rect y="0" class="st0" width="1417.3" height="1417.3"/>
<g>
	<path class="st1" d="M196.1,770.6c0-2.6-1.7-3.8-4.9-3.8c-0.7,0-1.3,0.1-1.8,0.1c-0.5,0.1-1,0.1-1.5,0.1c-5,0-8.1-1.8-9.5-5.5
		s-2.1-9.5-2.1-17.5c0-1.9,0.1-4,0.1-6.4c0.1-2.4,0.2-5,0.4-7.9l4.4-78.2c0.2-3.2,0.7-4.8,1.5-4.8c0.4,0,0.9,1.1,1.8,3.3l38.3,116.3
		c0.5,2.1,1.9,3.1,4.1,3.1c1.9,0,3.2-1.3,4.1-3.8l37.8-115.9c0.5-1.7,1-2.5,1.5-2.5c0.9,0,1.3,0.9,1.3,2.8l1.8,94.6v5.9
		c0,3.1-0.1,5.6-0.2,7.7s-0.7,3.7-1.7,5c-0.9,1.3-2.3,2.2-4.1,2.7c-1.8,0.5-4.3,0.8-7.6,0.8c-2.6,0-3.8,1.3-3.8,3.8
		c0,2.8,1.7,4.1,5.1,4.1c2.4,0,5.7-0.3,9.9-0.9c4.2-0.6,9.1-0.9,14.8-0.9c5.1,0,9.7,0.3,13.5,0.9c3.5,0.5,6.5,0.8,9.1,0.9
		c3.3,3.4,7.6,5.1,12.9,5.1c4.8,0,9.2-1.4,13.2-4c4-2.7,8.2-5.9,12.6-9.7l5.4-4.7h1.5c1.9,5.8,4.3,10.2,7.3,13.1
		c2.9,2.9,6.6,4.4,11.1,4.4c2.1,0,4.4-0.7,6.8-2.1s4.8-3,7-4.9c2.1-1.9,4-3.8,5.5-5.8c0.9-1.1,1.5-2.1,1.9-3.1
		c0.1,0.1,0.1,0.2,0.2,0.2c4.3,5.3,9.3,9.3,15.2,12.1c5.8,2.8,12.2,4.2,19.1,4.2c5.1,0,10-0.9,14.4-2.6c4.5-1.7,8.3-3.7,11.4-6.1
		c3.2-2.3,5.7-4.7,7.4-7.2c1.8-2.5,2.7-4.5,2.7-6.1c0-2.2-1.1-3.4-3.4-3.4c-0.5,0-1.4,0.5-2.4,1.7c-1.1,1.1-2.6,2.4-4.4,3.7
		c-1.8,1.4-4,2.6-6.7,3.7c-2.7,1.1-5.6,1.7-8.8,1.7c-5.1,0-9.9-1.1-14.2-3.5c-4.3-2.3-8-5.6-11.2-10s-5.7-9.7-7.5-16
		s-2.7-13.5-2.7-21.5c0-7.8,0.8-14.9,2.4-21c1.7-6.1,3.7-11.4,6.3-15.8s5.5-7.7,8.7-10s6.4-3.5,9.5-3.5c2.4,0,4.4,0.5,6.1,1.7
		c1.7,1.1,3.1,2.6,4.5,4.5s2.7,4.2,3.8,7.1c1.2,2.8,2.6,5.9,4.1,9.1c2.2,5,4.5,7.5,7,7.5c2.1,0,3.7-1.8,5-5.5s1.9-8.8,1.9-15.3
		c0-2.2-0.8-4.3-2.4-6.2c-1.7-1.9-3.8-3.5-6.4-5.1c-2.7-1.5-5.8-2.7-9.4-3.6c-3.6-0.9-7.4-1.4-11.6-1.4c-7.6,0-14.5,1.5-20.8,4.4
		c-6.4,2.9-11.9,7.1-16.5,12.5c-4.7,5.4-8.3,11.9-10.9,19.6c-2.7,7.6-4,16.3-4,25.8c0,9.3,1.2,17.6,3.6,25.1
		c1.6,4.9,3.5,9.3,5.9,13.2c-1.1,0.4-2.2,1.1-3.4,2.4c-1.5,1.7-3.2,2.6-5.1,2.6c-2.9,0-4.7-1.4-5.4-4.1c-0.7-2.7-1-6.8-1-12.3v-59.3
		c0-4.8-0.2-9-0.8-12.7c-0.5-3.7-1.7-6.8-3.4-9.3c-1.7-2.5-4.2-4.4-7.6-5.7s-7.8-1.9-13.3-1.9c-6.7,0-13,1.2-18.7,3.5
		c-5.8,2.3-10.7,5.3-15,8.7c-4.2,3.5-7.5,7.4-9.8,11.7s-3.5,8.3-3.5,12.1c0,1.4,0.5,2.5,1.4,3.4s2.1,1.3,3.5,1.3
		c5.2,0,8.9-1.5,11.2-4.5s4.4-6.7,6.3-10.9c2.4-5.5,4.9-9.7,7.5-12.7s6.1-4.5,10.6-4.5s7.3,1.7,8.4,4.9s1.7,8.5,1.7,15.7v18.3
		c0,1.9-0.1,3.2-0.4,4c-0.2,0.8-1.1,1.5-2.5,2.2l-6.4,3.4c-6.2,3.1-11.9,6.2-16.9,9.3c-5.1,3.1-9.4,6.4-13,9.9s-6.4,7.4-8.3,11.7
		s-2.8,9.3-2.8,14.9c0,2.5,0.3,4.9,0.8,7c-0.5-0.2-1.1-0.4-1.6-0.6c-2.8-1.2-4.3-2.8-4.8-4.8c-0.4-2.1-0.7-5.4-0.9-10l-2.8-112v-6.1
		c0-3.4,0.2-5.7,0.6-7s1.6-2.4,3.5-3.2c1.5-0.7,3.1-1.1,4.5-1.1c1.5-0.1,2.8-0.2,4-0.4s2.2-0.5,2.9-0.9c0.8-0.4,1.2-1.3,1.2-2.7
		c0-2.2-1.2-3.3-3.6-3.3h-33.2c-1.4,0-2.4,0.4-2.9,1.2c-0.6,0.8-1.1,1.8-1.4,3.2l-33.7,102.2c-0.7,1.9-1.4,2.8-2.1,2.8
		c-0.5,0-1.1-1-1.8-3.1l-34.2-103.9c-0.4-1-0.8-1.7-1.4-1.9c-0.6-0.2-1.4-0.4-2.2-0.4H160c-2.4,0-3.6,1.1-3.6,3.4
		c0,1.4,0.3,2.3,0.9,2.7c0.6,0.4,1.4,0.7,2.4,0.8s2.2,0.2,3.6,0.2c1.4,0.1,2.8,0.4,4.4,0.9c2.4,0.8,4,2.1,4.7,3.6s1,4.2,1,8.2
		c0,1.4-0.1,2.5-0.1,3.3c-0.1,0.8-0.1,1.5-0.1,1.8l-4.4,87.4c-0.4,7.7-0.7,14.1-1,19.3c-0.4,5.2-0.9,9.4-1.5,12.6
		c-0.7,3.2-1.7,5.6-3.1,7c-1.4,1.5-3.2,2.2-5.4,2.2c-0.5,0-1.2-0.1-1.9-0.1c-0.8-0.1-1.7-0.1-2.7-0.1c-2.4,0-3.6,1.3-3.6,3.8
		c0,2.8,2.1,4.1,6.2,4.1c1.9,0,4.1-0.2,6.8-0.5c2.7-0.4,5.7-0.5,9.1-0.5c4,0,7.4,0.2,10.4,0.5s5.4,0.5,7.3,0.5
		C194,774.6,196.1,773.3,196.1,770.6z M341.3,721.9l8.5-4.1c1.2-0.7,2.1-1,2.6-1c0.9,0,1.3,1,1.3,3.1v20.4c0,3.4-0.5,6.5-1.7,9.3
		c-1.1,2.8-2.5,5.1-4.2,7.1c-1.7,1.9-3.6,3.5-5.7,4.7c-2.1,1.1-4.1,1.7-6.2,1.7c-2.9,0-5.3-1.3-7.1-3.8c-1.8-2.6-2.7-6.4-2.7-11.3
		C326.1,735.6,331.2,727,341.3,721.9z"/>
	<path class="st1" d="M714.3,693.4c-2.5-7.6-6-14-10.6-19.4c-4.5-5.4-10.1-9.6-16.6-12.6s-13.7-4.5-21.6-4.5
		c-8.3,0-15.7,1.5-22.4,4.4s-12.4,7-17.2,12.3c-0.2,0.2-0.4,0.4-0.5,0.6c-0.1-5-1.7-9.1-4.9-12.4c-3.2-3.4-7.2-5.1-11.9-5.1
		c-6.2,0-12,3.2-17.5,9.8l-5.1,5.7c-1.2,1.2-1.9,1.8-2.3,1.8c-0.5,0-0.8-0.8-0.8-2.3v-10c0-3.6-0.8-5.4-2.5-5.4
		c-1.5,0-3.4,1.4-5.7,4.2s-5.9,6-10.8,9.4c-0.3,0.2-0.6,0.4-0.9,0.6c0.6-3.3,0.9-6.7,0.9-10.3c0-31.4-14.9-47.1-44.8-47.1
		c-5.7,0-10.6,0.1-14.9,0.2c-4.3,0.2-7.9,0.2-10.8,0.2h-4.1c-6.2,0-10.9-0.1-14.3-0.4c-3.4-0.2-5.4-0.4-6.1-0.4
		c-3.2,0-4.9,1.2-4.9,3.6c0,1.4,0.3,2.3,0.9,2.7s1.4,0.7,2.4,0.9s2.3,0.3,3.7,0.4c1.5,0.1,2.9,0.4,4.5,0.9c2.4,0.9,3.9,2.1,4.5,3.6
		s0.9,4.2,0.9,8v115.9c0,5.8-0.4,10-1,12.4c-0.7,2.5-2.9,4.2-6.7,5.3c-1.2,0.4-2.4,0.5-3.6,0.5s-2.2,0.1-3.1,0.2
		c-0.9,0.2-1.6,0.5-2.2,1s-0.9,1.4-0.9,2.6c0,2.7,1.7,4.1,5.1,4.1c1.9,0,4.8-0.3,8.6-0.9S486,773,492,773c6.5,0,11.8,0.3,15.8,0.9
		s6.9,0.9,8.6,0.9c1.7,0,3.1-0.4,4-1.2c0.9-0.8,1.4-1.7,1.4-2.7c0-1.5-0.4-2.6-1-3.1c-0.7-0.5-1.6-0.9-2.7-1c-1.1-0.2-2.4-0.3-4-0.4
		c-1.5-0.1-3.1-0.5-4.7-1.2c-2.4-1.2-3.8-2.7-4.4-4.6c-0.5-1.9-0.8-5-0.8-9.5v-47.9c0-1.7,0.1-2.9,0.4-3.7c0.2-0.8,0.9-1.2,1.9-1.2
		c0.2,0,0.8,0.2,1.8,0.5l4.1,1.8c3.1,1.4,5.9,2.5,8.5,3.4c2.6,0.9,5.1,1.3,7.4,1.3c4.8,0,9.3-1.2,13.5-3.5s7.9-5.5,11.2-9.5
		c2.1-2.7,4-5.6,5.5-8.9c0.6,0.4,1.2,0.8,1.8,1.3c1.1,1,1.7,3.1,1.7,6.2v65.9c0,2.4-0.2,4.2-0.6,5.5c-0.4,1.3-1.8,2.5-4.2,3.7
		c-1.4,0.7-2.7,1.1-3.8,1.3c-1.2,0.2-2.2,0.4-3.1,0.6c-0.9,0.2-1.5,0.6-2.1,1c-0.5,0.4-0.8,1.2-0.8,2.4c0,2.8,1.5,4.1,4.7,4.1
		c2.7,0,5.8-0.2,9.4-0.8c3.5-0.5,7.3-0.8,11.3-0.8c4.4,0,8.6,0.3,12.6,0.9c4,0.6,7.7,0.9,11.1,0.9c1.9,0,3.3-0.4,4.2-1.2
		s1.4-1.7,1.4-2.7c0-1.4-0.4-2.3-1-2.8c-0.7-0.5-1.6-0.9-2.7-1.2c-1.1-0.2-2.5-0.5-4.2-0.8s-3.6-0.9-5.7-1.9c-2.1-0.9-3.4-2-4.1-3.5
		c-0.7-1.5-1-3.7-1-6.5v-55.9c0-16.1,3.2-24.2,9.5-24.2c1.4,0,2.7,0.6,4.1,1.9c1.4,1.3,2.8,2.7,4.4,4.2c1.5,1.5,3.2,2.9,5.1,4.2
		c1.9,1.3,4.1,1.9,6.7,1.9c1.3,0,2.5-0.2,3.7-0.6c-0.9,1.9-1.7,3.9-2.4,6c-2.6,7.6-3.8,15.9-3.8,25.2c0,9.1,1.2,17.4,3.7,25
		s6,14,10.6,19.4c4.5,5.4,10,9.6,16.3,12.6c6.4,3,13.4,4.5,21.1,4.5c8.6,0,16.3-1.5,23.2-4.4c6.8-2.9,12.6-7,17.3-12.3
		s8.4-11.7,10.9-19.3c2.6-7.6,3.8-15.9,3.8-25C718,709.3,716.7,701,714.3,693.4z M533,684.3c-4.5,6.3-9.6,9.4-15.5,9.4
		c-3.2,0-6.3-0.9-9.1-2.7c-2.8-1.8-4.2-4.6-4.2-8.4v-49.9c0-4.5,0.7-7.7,2.1-9.7c1.4-1.9,4.7-2.9,10-2.9c3.1,0,6.1,0.9,8.9,2.8
		c2.8,1.9,5.3,4.5,7.4,7.8c2.1,3.4,3.8,7.4,5.1,12.1c1.3,4.7,1.9,10,1.9,15.8C539.7,669.5,537.5,678,533,684.3z M687.2,759.1
		c-5.4,8.8-12.8,13.3-22.2,13.3c-9.3,0-16.8-5.1-22.5-15.3s-8.6-24.4-8.6-42.6c0-16.1,2.7-28.6,8-37.3s12.9-13.1,22.7-13.1
		c9.1,0,16.5,5.1,22.2,15.3s8.6,24.4,8.6,42.6C695.4,738,692.7,750.3,687.2,759.1z"/>
	<g>
		<path class="st2" d="M1108.1,630.5c0-1.4,0-2.9-0.3-4.2c-0.9-3.8-3.5-5.9-7-5.9c-3.6,0-6.3,2.4-7.1,6.2c-0.3,1.3-0.2,2.7-0.2,4
			c0,17,0,34,0,51c0,0.9-0.1,1.7-0.2,3.3c-1.2-1.3-2-2-2.6-2.8c-11.9-14.4-28.4-16.5-44.1-10.8c-12.6,4.6-20.7,13.9-25.6,26.1
			c-5.7,13.9-6.3,28.4-3.5,43c2,10.5,6.3,20,14.1,27.6c8.6,8.4,19.3,12,31.1,12c11.8,0,21.8-4.3,28.8-14.2c0.4-0.6,0.9-1.1,1.4-1.6
			c0.2,0.1,0.5,0.2,0.7,0.3c0,2.8-0.2,5.6,0,8.5c0.3,4.4,3,6.9,7,7.1c4,0.1,6.7-2.3,7.4-6.6c0.2-1.2,0.2-2.5,0.2-3.7
			C1108.1,723.2,1108.1,676.9,1108.1,630.5z M1093.1,730.3c-0.6,7.7-2.2,15.2-5.9,22c-5.3,9.8-13.4,15.4-24.7,15.3
			c-11.4-0.1-19.5-5.8-24.7-15.7c-4.5-8.6-5.8-17.9-6-27.6c0.2-10.2,1.8-20.2,7.2-29.2c5.6-9.3,13.6-14.8,24.8-14.3
			c11.5,0.5,19.4,6.7,24.3,16.8C1092.9,708,1093.9,719,1093.1,730.3z"/>
		<path class="st2" d="M1259.2,694.6c-11.6-25.1-37.7-30.9-57.9-22.8c-12.6,5.1-20.5,14.8-25.2,27.2c-5.6,15-5.8,30.3-1.8,45.7
			c5.7,21.9,21.7,34.8,44.3,35.3c1.3-0.1,2.9-0.2,4.6-0.3c11.2-0.9,20.7-5.2,28.3-13.5c7.2-8,10.9-17.5,12.7-28
			C1266.7,723.1,1265.6,708.5,1259.2,694.6z M1243.9,750.7c-5.2,10.6-13.5,16.9-25.6,16.8c-12,0-20.2-6.4-25.3-16.9
			c-5-10.3-6.1-21.4-5.2-32.7c0.6-7.4,2.1-14.7,5.7-21.3c5.3-10.1,13.5-16.1,25.1-15.9c11.8,0.1,20,6.3,25.2,16.7
			c4.2,8.4,5.5,17.4,5.5,26.6C1249.4,733.3,1248.1,742.3,1243.9,750.7z"/>
		<path class="st2" d="M826.3,723.4c-6.4-3.3-13.2-5.9-19.8-8.9c-6-2.7-12.1-5.2-17.9-8.1c-2.8-1.4-4.7-3.9-5.4-7.1
			c-1.4-7.1,2.2-13.5,9.5-16.4c10.1-4,19.6-2.6,28.5,3.4c2.6,1.8,5.2,3.6,8,5.1c3.2,1.7,7.1,0.9,8.9-1.5c2.1-2.7,2.1-6.7-0.4-9.5
			c-1.7-1.8-3.6-3.5-5.7-4.7c-10.3-5.8-21.5-7.9-33.2-7.3c-9.7,0.4-18.3,4.1-25,11.4c-8.9,9.7-9.2,24.3-0.6,33.6
			c4.3,4.6,10,7.1,15.7,9.4c8.8,3.6,17.7,7.2,26.5,11c4.1,1.8,7.7,4.4,9.7,8.6c3.9,8.3-0.2,18.2-9.5,22.2
			c-12.5,5.4-23.9,2.8-34.3-5.5c-2.3-1.8-4.5-3.8-6.8-5.4c-3.6-2.5-6.1-2.3-8.7,0.3c-3,3.1-3.6,6.3-1,9.6c2.1,2.6,4.6,5.1,7.3,7.1
			c9.1,6.4,19.4,8.9,30.1,9c7.8-0.1,15.2-1.2,22.1-4.5c11.3-5.4,18-14.1,18.2-27C842.5,736.6,836.3,728.6,826.3,723.4z"/>
		<path class="st2" d="M994.5,679c0-1.7-0.2-3.5-0.5-5.2c-0.7-3.2-3.1-5.2-6.3-5.4c-3.1-0.2-5.8,1.3-6.9,4.3
			c-0.7,1.9-0.9,4.1-0.9,6.1c-0.1,19.2,0,38.3-0.1,57.5c0,3.1-0.2,6.2-0.5,9.2c-1.1,10.6-7.5,18.5-17.9,20.9
			c-4.5,1-9.5,1.1-14.1,0.5c-8.4-0.9-14.7-5.5-18.2-13.4c-2.2-4.9-2.6-10.1-2.6-15.4c0-19.7,0-39.3,0-59c0-1.7-0.1-3.5-0.5-5.2
			c-0.6-3.3-3.2-5.4-6.5-5.6c-3.2-0.2-6,1.4-7,4.5c-0.6,1.8-0.7,3.8-0.8,5.6c-0.1,11.1,0,22.2,0,33.2c0,10.2,0,20.5,0,30.7
			c0,15,6.6,26.1,20.1,32.7c8.6,4.3,17.8,5.1,27.3,4.2c19.4-1.9,35.6-14.7,35.4-38.2C994.3,720.5,994.5,699.8,994.5,679z"/>
		<path class="st2" d="M890.5,669.7c-1.2,0-2.3,0-3.5,0c-6.3,0-6.3,0-6.3-6.3c0-6.9,0-13.8-0.3-20.7c-0.2-3.9-2.9-6.3-6.6-6.6
			c-3.7-0.2-6.5,1.9-7.3,5.8c-0.3,1.6-0.5,3.3-0.5,4.9c-0.1,6.8-0.1,13.7,0,20.5c0,1.8-0.5,2.5-2.4,2.4c-2.3-0.1-4.7-0.1-7,0
			c-4.1,0.1-6.4,2.3-6.4,6s2.3,6.1,6.3,6.2c2.2,0.1,4.5,0.2,6.7,0c2.3-0.2,2.8,0.7,2.8,2.9c-0.1,14.2,0,28.5,0,42.7
			c0,13.8,0,27.7,0,41.5c0,1.6,0.1,3.2,0.4,4.7c0.9,4.2,3.6,6.4,7.5,6.1c3.9-0.3,6.4-2.8,6.6-7.1c0.2-3.9,0.2-7.8,0.2-11.7
			c0-25.3,0-50.6,0-76c0-2.4,0.6-3.3,3.1-3.1c2.4,0.2,4.8,0.2,7.2-0.1c3.6-0.3,5.8-2.9,5.7-6.4C896.6,672.1,894.3,669.8,890.5,669.7
			z"/>
		<path class="st2" d="M1149.7,673.8c-0.7-3.4-3.5-5.4-6.9-5.4c-3.5,0-6.3,2.2-6.9,5.7c-0.3,1.7-0.4,3.5-0.4,5.2
			c0,14.9,0,29.8,0,44.7c0,14.8,0,29.7,0,44.5c0,1.6,0.1,3.2,0.3,4.7c0.5,4.1,3,6.4,6.8,6.6c3.9,0.1,6.6-2.1,7.3-6.4
			c0.2-1.4,0.4-2.8,0.4-4.2c0-30.2,0-60.3,0-90.5C1150.3,677.1,1150.1,675.5,1149.7,673.8z"/>
		<path class="st2" d="M1142.8,631.6c-5.5,0.1-10,4.6-9.9,10.1s4.6,9.9,10.1,9.8c5.6-0.1,9.9-4.5,9.9-10.1
			C1152.8,635.9,1148.3,631.5,1142.8,631.6z"/>
	</g>
	<path class="st2" d="M734.6,846.1c22.5-6.6,44.4-11.2,66.8-15.2c22.3-4.1,44.7-7.1,67.2-9.8c44.9-5,90-7.8,135.1-8.8
		c22.6-0.1,45.1-0.5,67.6,0.4c22.6,0.3,45.1,1.7,67.5,3c11.3,0.5,22.5,1.5,33.7,2.6l33.7,3c22.4,2.4,44.7,5.4,67.1,8.1
		c3.8,0.5,6.5,3.9,6.1,7.7c-0.5,3.8-3.9,6.5-7.7,6.1h-0.3c-22.2-2.5-44.4-5.4-66.6-7.6l-33.4-2.8c-11.1-1-22.3-1.9-33.4-2.3
		c-22.3-1.2-44.6-2.4-67-2.6c-22.3-0.7-44.7-0.2-67,0c-44.6,1.3-89.2,4.1-133.4,9.9c-22.1,2.9-44.1,6.2-65.9,10.6
		c-21.7,4.3-43.7,9.2-64.2,15.6l-0.4,0.1c-5,1.6-10.3-1.2-11.9-6.2c-1.6-5,1.2-10.3,6.2-11.9C734.5,846.1,734.6,846.1,734.6,846.1z"
		/>
</g>
</svg>
