<?xml version="1.0" encoding="utf-8"?>
<!-- Generator: Adobe Illustrator 22.0.1, SVG Export Plug-In . SVG Version: 6.00 Build 0)  -->
<svg version="1.1" id="Layer_1" xmlns="http://www.w3.org/2000/svg" xmlns:xlink="http://www.w3.org/1999/xlink" x="0px" y="0px"
	 viewBox="0 0 1417.3 1417.3" style="enable-background:new 0 0 1417.3 1417.3;" xml:space="preserve">
<style type="text/css">
	.st0{fill:#FFC000;}
	.st1{fill:#2B3648;}
</style>
<rect y="0" class="st0" width="1417.3" height="1417.3"/>
<g>
	<path class="st1" d="M521,282.4c-28.5-14.8-60.5-3.2-77,23.9c-20.9,34.3-42,68.3-66.5,108.1c-18.9-35.2-35.5-63.3-49.3-92.8
		c-19.8-42.3-20.8-43.9-68.1-42.7c-28.7,0.7-36.9,9.2-36.9,38.2c0.1,114.1,0.3,228.2,0.3,342.4c0,33.6,9.2,42.7,43.6,42.7
		c6.7,0,13.5-0.6,20.1-0.1c21.6,1.8,31.1-10.1,32.3-29.6c1-15,0-30.2,0-45.3c0-42.1,0-84.3,0-131.7c11.5,15.3,20.2,26.4,28.3,37.8
		c19.6,27.5,36.1,27.1,56.1-1.2c11.7-16.5,24.4-32.4,36.6-48.5c5.4,41.2,5.8,80.4,5.3,119.5c-0.8,61.1-1,60.6,60.8,60.3
		c22.8-0.1,31.9-10.5,31.9-32.1c0.1-106.6,0.9-213.2-0.1-319.7C538.4,301.6,529.8,286.9,521,282.4z"/>
	<path class="st1" d="M966.5,598.1c-0.1-6.7-0.2-13.4-0.2-20.1c0-31.3,0-62.5,0-93.8c18.8,16.1,31.3,32.7,43.5,49.6
		c18.6,25.9,34.1,26.4,53.3,1.7c9.1-11.8,18.3-23.6,32.1-41.4c0,15.3,0.1,22.8,0,30.2c-0.7,46.1-1.8,92.2-1.8,138.3
		c0,16.6-0.5,35.8,22.6,38.6c14.9,1.7,30.3,1.7,45.2,0.1c18.1-2,27.7-12.5,27.7-32.3c0-119,0.9-238.1,0.3-357.1
		c-0.1-9.8-6.8-24-14.8-28.5c-31.1-17.6-68.9-2.7-85.2,29.6c-16.3,32.5-34,64.4-53.9,101.8c-25.7-42.2-47.7-78.8-70.2-115
		c-13.2-21.3-38.8-28-69.3-19.6c-24,6.7-22.6,25.2-22.3,44.3c0.8,43.6,1,87.2,1,130.8c0,56.2-0.7,112.4-0.4,168.6
		c0.2,27.1,8.6,34.7,34.6,34.6C967,658.2,967,658.2,966.5,598.1z"/>
	<path class="st1" d="M1197,1109.6c-0.8-7.5-2.7-14.9-3.3-22.4c-3-35.7-7.1-39.2-43.3-38.6c-30.2,0.5-60.5,1.2-90.6,0
		c-23.9-1-32.2-12.6-31.5-39.1c0.5-20.2,4.8-37.1,30.8-36.1c18.4,0.7,36.9,0.6,55.3,0.7c60.9,0.2,60.7,0.2,66.6-60.1
		c2.1-21-5.7-31.8-28-31.4c-31.9,0.6-63.8,0.2-95.7,0c-22.2-0.1-28-13.7-27.9-33.3c0.1-19.8,3.7-35.8,28-35.7
		c21.8,0.1,43.6,1.2,65.4,1c59.9-0.7,61.7-3.1,58.5-62.8c-1-18.1-9.5-25.1-27.1-25c-64.6,0.4-129.3,0.7-193.9,0.2
		c-22.6-0.2-32.5,11.3-33,32.1c-0.4,18.4,1.1,36.9,1.1,55.3c0.2,96.4,0,192.9,0.3,289.3c0.1,26.3,8,34.7,34.8,35.3
		c35.2,0.8,70.5,0.2,105.8,0.2c0-0.2,0-0.5,0-0.7c33.5,0,67-0.7,100.5,0.2C1190.9,1139.2,1199,1129.7,1197,1109.6z"/>
	<path class="st1" d="M572.8,621.4c0.1,20.5,5.7,36.9,30.7,36.8c74.6-0.2,149.3,0,223.9-0.9c7.2-0.1,20.3-6.4,20.3-9.9
		c0.1-21.4,1.3-44.4-6.4-63.4c-3.4-8.2-27.3-10.2-42-10.9c-33.4-1.5-67,0.3-100.5-0.5c-26.1-0.6-26.9-19.6-26.7-39.3
		c0.2-20.8,10.4-27.9,30.2-26.8c21.7,1.2,43.6,0.1,65.4,1.1c24.6,1,35.3-11.3,35.9-34.7c0.2-7.5,0.3-15.1,0.9-22.6
		c2-21.9-8.6-30.4-29.7-30.1c-24.3,0.4-48.6-1.3-72.9-0.5c-21,0.6-31.7-8-31.6-29c0.2-21,12.1-30.4,32-30.1
		c25.1,0.3,50.3,1.2,75.4,2.5c55.1,2.9,57.9-0.4,58.5-55.2c0.3-22.6-9.7-29.6-30.2-29.4c-65.4,0.3-130.8-0.2-196.2,0.2
		c-28,0.1-37.6,10.2-37.7,38.3c-0.2,50.3-0.1,100.6-0.1,150.9c0.2,0,0.5,0,0.7,0C572.8,519.1,572.7,570.3,572.8,621.4z"/>
	<path class="st1" d="M854.5,896.8c-18.3-17.2-39.9-31.3-56-50.2c-9.6-11.2-17.3-29.9-15.2-43.6c2.9-19.2,23-20.5,40.9-19.9
		c63.7,2.4,63.2,2.2,63.2-62c0-14.9-5.4-23.1-18.9-24.2c-30.7-2.4-62.3-7.9-92.3-3.8c-75.7,10.5-109,63.4-96.1,139.2
		c9,53,46.5,83.3,83.5,115.1c11.4,9.8,25.7,18.4,32.2,30.9c6.2,12,9,30.6,3.8,42c-4.4,9.5-22,16.2-34.6,17.8
		c-14.3,1.8-29.7-2.8-44.4-5.6c-31.4-6.1-37.5-1.9-38.7,28.8c-2.9,77.1,0.2,80.3,76.7,80.1c72.4-0.2,116.9-28.1,140.4-88.1
		C919,1002,902.3,941.6,854.5,896.8z"/>
	<path class="st1" d="M652.4,881.9c0.4-26.9-6.6-34.3-33.5-34.5c-5,0-10.1,0-15.1,0c-41.2-1.2-48.9-1.4-50.1,25
		c-0.3,6.1-0.2,13.6-0.1,22.8c0.6,62.8,2.8,125.7,1.1,188.4c-1.5,58-3.4,58,53.8,57.1c33.7-0.5,44.7-11.2,44.8-45.5
		c0-18.4-3.3-36.7-3.2-55.1C650.3,987.4,651.5,934.7,652.4,881.9z"/>
	<path class="st1" d="M596.2,714.5c-28.9,0.2-50.7,22.1-50.3,50.8c0.4,31.1,24.2,58.4,50.7,58.1c28-0.4,58.3-31.1,58.1-58.8
		C654.4,737.9,626.9,714.3,596.2,714.5z"/>
	<path class="st1" d="M489.9,953.9c66.2-83.1,22.6-204.2-81.3-223.3c-28.5-5.2-58.4-3.5-87.6-4.9c0,0.4-0.1,0.8-0.1,1.3
		c-14.3,0-28.5-0.1-42.8,0c-54,0.3-54.3,2.1-54.4,55.1c-0.2,109-2,217.9-3.6,326.9c-0.3,18.5,6.1,28.5,26,28.2
		c19.2-0.2,38.5,0.9,57.7,1.6c17.9,0.6,23.8-9.5,22.3-25.6c-1.1-11.6-4.3-23.3-3.9-34.8c1.2-29.8,18.8-39.3,43.3-22.1
		c19.1,13.4,35,31.3,53.6,45.4c17.8,13.5,36.3,26.7,56.3,36.2c14.3,6.8,33.8,3.5,37-14.3c4.6-25.2,6.1-52.2,1.7-77.2
		c-1.7-9.9-22.7-16.5-34.9-24.5c-2.1-1.4-4.3-2.6-6.5-3.8c-18-10.1-21.5-22.3-6.3-38C474.6,971.7,482.6,963.1,489.9,953.9z
		 M414,900.8c-11.5,26.4-28.3,47.8-59.1,52.3c-24.1,3.4-32-3.7-33.1-28.1c-0.3-6.7-0.2-13.4-0.2-20.1c0-5.9,0-11.7,0-17.6
		c0-4.2-0.2-8.4,0.1-12.6c1.3-18.3-7.3-39.9,14.7-51.9c14.2-7.7,59.5,1.9,70.8,14.6C424.4,856.7,423.6,878.7,414,900.8z"/>
</g>
</svg>
