<?xml version="1.0" encoding="utf-8"?>
<!-- Generator: Adobe Illustrator 22.0.1, SVG Export Plug-In . SVG Version: 6.00 Build 0)  -->
<svg version="1.1" id="Layer_1" xmlns="http://www.w3.org/2000/svg" xmlns:xlink="http://www.w3.org/1999/xlink" x="0px" y="0px"
	 viewBox="0 0 1417.3 1417.3" style="enable-background:new 0 0 1417.3 1417.3;" xml:space="preserve">
<style type="text/css">
	.st0{fill:#FFFFFF;}
</style>
<rect y="0" width="1417.3" height="1417.3"/>
<g>
	<path class="st0" d="M512,629.5h-51.3v137.6h26.6v-51.9H512c26.6,0,44.8-18.2,44.8-42.8C556.8,647.6,539.3,629.5,512,629.5z
		 M508.8,691.8H488v-38.9h20.8c13,0,21.4,7.1,21.4,19.5C530.2,684,522.4,691.8,508.8,691.8z"/>
	<path class="st0" d="M595.1,685.9v-14.3h-24.7v94.8h26v-43.5c0-20.1,11.7-26.6,24.7-26.6c2.6,0,5.2,0,7.8,0.6v-26
		c-1.9-0.6-3.9-0.6-5.8-0.6C614.5,670.4,601.6,673,595.1,685.9z"/>
	<path class="st0" d="M684,668.4c-24,0-46.7,19.5-46.7,50c0,31.8,23.4,50.6,49.3,50.6c23.4,0,38.9-13.6,43.5-29.9l-21.4-6.5
		c-2.6,8.4-9.7,14.3-21.4,14.3c-13,0-23.4-9.1-24-21.4h66.8c0,0,0.6-3.9,0.6-7.8C730.7,687.2,713.2,668.4,684,668.4z M663.2,708
		c0.6-9.1,7.8-18.8,21.4-18.8c14.9,0,20.8,9.1,21.4,18.8H663.2z"/>
	<polygon class="st0" points="785.9,734.6 762.5,671 734.6,671 773.5,766.4 799.5,766.4 836.5,671.7 809.2,671.7 	"/>
	<polygon class="st0" points="849.5,766.4 849.5,767.1 875.4,767.1 875.4,671.7 849.5,671.7 	"/>
	<path class="st0" d="M862.5,624.3c-9.1,0-16.2,7.1-15.6,15.6c0,8.4,7.1,15.6,15.6,15.6s15.6-7.1,15.6-15.6S870.9,624.3,862.5,624.3
		z"/>
	<path class="st0" d="M937.7,668.4c-24,0-46.7,19.5-46.7,50c0,31.8,23.4,50.6,49.3,50.6c23.4,0,38.9-13.6,43.5-29.9l-22.1-6.5
		c-2.6,8.4-9.7,14.3-21.4,14.3c-13,0-23.4-9.1-24-21.4h67.5c0,0,0.6-3.9,0.6-7.8C984.5,687.2,966.9,668.4,937.7,668.4z M917,708
		c0.6-9.1,7.8-18.8,21.4-18.8c14.9,0,20.8,9.1,21.4,18.8H917z"/>
	<polygon class="st0" points="1121.4,671.7 1103.9,732.7 1083.1,671.7 1056.5,671.7 1035.7,732.7 1018.2,671.7 991,671.7 
		1020.8,767.1 1046.8,767.1 1068.8,702.2 1090.9,767.1 1116.9,767.1 1146.7,671.7 	"/>
	<polygon class="st0" points="270.6,739.8 270.6,766.4 270.6,793 297.2,793 297.2,766.4 323.8,766.4 323.8,739.8 297.2,739.8 	"/>
	<polygon class="st0" points="380.9,739.8 354.3,739.8 354.3,766.4 380.9,766.4 407.5,766.4 407.5,739.8 407.5,713.2 380.9,713.2 	
		"/>
	<polygon class="st0" points="354.3,629.5 354.3,656.1 380.9,656.1 380.9,682.7 407.5,682.7 407.5,656.1 407.5,629.5 380.9,629.5 	
		"/>
	<polygon class="st0" points="270.6,629.5 270.6,656.1 270.6,682.7 297.2,682.7 297.2,656.1 323.8,656.1 323.8,629.5 297.2,629.5 	
		"/>
</g>
</svg>
