<?xml version="1.0" encoding="utf-8"?>
<!-- Generator: Adobe Illustrator 22.0.1, SVG Export Plug-In . SVG Version: 6.00 Build 0)  -->
<svg version="1.1" id="Layer_1" xmlns="http://www.w3.org/2000/svg" xmlns:xlink="http://www.w3.org/1999/xlink" x="0px" y="0px"
	 viewBox="0 0 1417.3 1417.3" style="enable-background:new 0 0 1417.3 1417.3;" xml:space="preserve">
<style type="text/css">
	.st0{fill:#FFFFFF;}
</style>
<rect y="0" width="1417.3" height="1417.3"/>
<g>
	<polygon class="st0" points="394.4,839.7 394.4,961.9 394.4,1084 516.5,1084 516.5,961.9 638.6,961.9 638.6,839.7 516.5,839.7 	"/>
	<polygon class="st0" points="900.8,839.7 778.7,839.7 778.7,961.9 900.8,961.9 1022.9,961.9 1022.9,839.7 1022.9,717.6 
		900.8,717.6 	"/>
	<polygon class="st0" points="778.7,333.3 778.7,455.4 900.8,455.4 900.8,577.6 1022.9,577.6 1022.9,455.4 1022.9,333.3 
		900.8,333.3 	"/>
	<polygon class="st0" points="394.4,333.3 394.4,455.4 394.4,577.6 516.5,577.6 516.5,455.4 638.6,455.4 638.6,333.3 516.5,333.3 	
		"/>
</g>
</svg>
