<?xml version="1.0" encoding="utf-8"?>
<!-- Generator: Adobe Illustrator 22.0.1, SVG Export Plug-In . SVG Version: 6.00 Build 0)  -->
<svg version="1.1" id="Layer_1" xmlns="http://www.w3.org/2000/svg" xmlns:xlink="http://www.w3.org/1999/xlink" x="0px" y="0px"
	 viewBox="0 0 1417.3 1417.3" style="enable-background:new 0 0 1417.3 1417.3;" xml:space="preserve">
<style type="text/css">
	.st0{fill:#E74E35;}
	.st1{fill:#FFFFFF;}
</style>
<rect y="0" class="st0" width="1417.3" height="1417.3"/>
<g>
	<path class="st1" d="M1265.9,706.1c-0.9-1.8-2.3-3.8-4.1-4.6c-0.9-0.5-3.3,1-4.3,2.2c-10.5,11.8-22,22.4-36.6,29.5
		c-6.5,3.1-13.3,5.3-20.6,4.4c-4.7-0.5-7.5-2.6-8.2-6.5c-0.9-4.7-0.5-9.3,1.3-13.7c3.4,0.5,6.4,1.2,9.5,1.3
		c17,0.6,37.3-12.9,43.8-28.8c6.4-15.8-3.5-30.3-20.4-30.2c-9.1,0-17,3.8-24.1,9c-14,10.1-23.8,23.5-31.1,39.1
		c-0.8,1.7-1.8,3.6-3.2,4.8c-9.2,7.4-18.6,14.7-27.9,22c-0.7,0.5-1.5,0.7-3,1.3c2.3-4.8,4.1-8.9,6.3-12.9
		c8.1-14.9,16-29.8,24.5-44.6c3.5-6,3.8-7.1-1.4-11.8c-1.4-1.3-3-2.4-4.7-3.4c-4-2.3-6.1-2.1-9.4,1.3c-2.4,2.4-4.5,5.2-6.8,7.9
		c-3.9-11.4-8.5-14.2-20.6-12.3c-7.6,1.2-14.4,4.2-20.7,8.4c-12.9,8.5-23.2,19.6-30.8,32.9c-5.2,9.1-12.1,16.3-19.8,23
		c-3.8,3.2-7.9,6-12.1,8.5c-2.4,1.5-4.4,0.1-4-2.8c0.3-2.7,1-5.5,2-8.1c6-15.7,14.7-29.9,24.7-43.4c4.5-6.2,4.4-7.8-1.4-12.8
		c-1.5-1.2-3.1-2.3-4.8-3.2c-2.9-1.6-5.6-1.3-8,1.1c-2.5,2.6-5,5.3-7.7,8.2c-3.7-10.7-8.3-13.7-19.3-11.9c-4.1,0.7-8.3,1.8-12.2,3.5
		c-15.9,7-27.5,19-36.4,33.4c-6.4,10.2-14.2,18.9-23.1,26.9c-3.7,3.3-7.8,6.2-11.9,8.8c-3.5,2.2-5.3,0.8-4.8-3.4c0.4-3,1-6,2.1-8.8
		c5-14.4,12.6-27.5,21.7-39.7c0.9-1.2,1.9-3.1,1.8-4.5c-1-10-15.8-18.4-23.4-12.8c-4.1,3-8.3,5.9-12,9.4
		c-15.1,13.9-28.2,29.5-41.1,45.6c-1.1,1.4-2.3,2.9-3.5,4.4c-0.3-1.1-0.1-2,0.3-2.6c6.3-13.5,13.4-26.5,22.5-38.5
		c3.7-4.9,3.8-6.5,0.5-11.6c-1.4-2.1-3.1-4-5.1-5.6c-4.3-3.5-8.1-3.7-12.7-0.7c-3.8,2.5-7.5,5.3-10.9,8.4
		c-15.5,14.2-29.1,30.2-42.2,46.5c-0.8,1-1.6,2-2.4,3c-0.2-1.4,0.2-2.5,0.8-3.6c7.1-14.7,15.3-28.9,25.1-42c0.9-1.2,1.8-3.3,1.4-4.5
		c-1.7-5-5.4-8.3-10.5-9.7c-4.1-1.2-5.9,2.3-8.3,4.6c-0.7,0.7-1.3,1.4-1.9,2.3c-9.3,11.9-17.2,24.7-23.5,38.4
		c-4,8.8-7.5,18.1-10.2,27.5c-1.9,6.5-0.6,13,4.1,18.4c3.8,4.1,10.6,4.9,13.4-1.5c0.9-2.2,2.3-4.3,3.8-6.1
		c12-14.5,24-29.2,36.2-43.5c3.9-4.6,8.6-8.6,13.7-13.6c-1,2.1-1.8,3.3-2.3,4.5c-5.3,11.3-10.7,22.5-15.8,33.9
		c-2.3,5.3-3.3,11.2-2.3,17.1c0.8,4.7,2.7,8.8,7,11.4c4.1,2.3,7.7,1.2,10-2.9c1.3-2.3,2.6-4.7,4.1-6.8
		c16.8-22.9,35.6-44.1,56.3-63.5c0.8-0.8,1.6-1.3,2.4-2c-0.2,1.4-0.8,2.3-1.4,3.2c-9,13.1-17,26.8-22,41.9c-2.3,6.6-4,13.2-2.6,20.3
		c1.6,8,7.4,12.1,15.4,10.7c1.8-0.3,3.6-0.8,5.3-1.5c10.1-3.9,18.2-11,26-18.2c1.2-1.1,2.3-2.3,4.2-4c0,3.9-0.2,6.9,0,9.9
		c0.6,8.5,6.2,13.7,14.6,14.1c5.5,0.2,10.4-1.8,15-4.8c8-5.1,14.3-11.9,20.2-19.2c2.2-2.7,4.3-5.4,6.5-8.2c0.3,1.1-0.1,2.1-0.2,3
		c-0.8,5.7-2.2,11.4-2,17.2c0.2,9.1,6.5,13.5,15.3,11.4c1.3-0.3,2.6-0.7,3.8-1.1c9.8-3.8,17.5-10.6,25.1-17.5
		c0.9-0.8,1.9-1.7,3.4-3.1c0.1,2.3,0.2,3.8,0.3,5.3c0.8,10,7.1,15.8,17.1,14.1c5.1-0.8,10.6-2.7,14.6-5.7
		c7.6-5.7,14.4-12.6,21.2-19.1c3-2.9,5.4-6.4,8.1-9.6c-3.7,9.9-7.8,19.5-12.4,29c-0.9,2-2.9,3.8-4.9,4.8
		c-11.2,5.4-22.6,10.5-33.8,16c-5.5,2.7-10.5,6.6-13.9,11.9c-6.5,10-2.1,22,9.4,25.1c8.2,2.3,16.1,1.1,23-3.6
		c6-4.1,12-8.8,16.5-14.5c7-8.9,12.7-18.9,19-28.2c1-1.5,2.3-3.1,3.9-3.9c12.3-6.5,23.5-14.4,34-23.5c0.8-0.8,1.8-1.4,3.1-2.4
		c0.1,1,0.2,1.6,0.3,2.2c0.8,13.6,8.3,22,21.8,24.1c10.1,1.6,19.8-0.7,28.9-5c19.9-9.3,35-24.4,48.7-41.2
		C1265.8,708.9,1266.4,707,1265.9,706.1z M1198.4,704.3c5.2-10.1,11.6-19.2,19.8-27c2.3-2.2,4.8-4.1,7.5-5.6
		c1.5-0.8,3.6-0.6,5.4-0.8c0.2,1.9,0.4,3.7,0.5,5.5c0,0.2-0.1,0.5-0.2,0.7c-4.8,12.3-12.3,22.5-23.6,29.3c-3.2,1.9-7,2.5-10.6,3.8
		c-0.3-0.5-0.6-0.9-0.8-1.3C1197.1,707.3,1197.6,705.8,1198.4,704.3z M1034,683.8c-11.2,15.9-22.9,31.5-36.7,45.5
		c-2.3,2.3-5,4.3-7.8,5.9c-3.5,2-5.5,0.4-5.3-4.4c0.3-1.2,0.6-3.2,1.2-5c7.1-18.5,17.5-34.7,32.4-48c2.2-1.9,4.8-3.4,7.3-4.6
		c2.9-1.3,6-1.5,8.2,1.5C1035.5,677.6,1036.3,680.7,1034,683.8z M1082.9,789.1c-1.7,1.2-3.9,2.3-6,2.2c-1.9,0-4.6-1-5.4-2.4
		c-0.8-1.4-0.2-4.1,0.6-5.9c0.7-1.5,2.3-2.8,3.8-3.7c7-3.7,14.3-7,21.4-10.5c0.3,0.4,0.6,0.8,0.9,1.1
		C1094,777,1089.8,784.2,1082.9,789.1z M1098.9,728c-2.3,2-4.9,3.6-7.6,4.8c-3.4,1.6-5.1,0.2-5-4.5c0.3-1,0.7-3.1,1.4-5
		c7.7-18,18.7-33.6,33.8-46.2c2-1.6,4.2-2.8,6.6-3.8c3-1.3,6.1-1.8,8.5,1.3c2.3,2.8,2.8,7,0.7,9.8
		C1125.5,699.9,1113.8,715.3,1098.9,728z"/>
	<path class="st1" d="M842.6,622.4c2.1-0.6,3.1-2.2,2.1-4.6c-2.7-6.5-10.6-9.5-16.6-6c-2.7,1.6-4.9,3.9-7.5,5.7
		c-1.5,1-3.3,2-5.1,2.2c-9.5,0.9-19.1,1.1-28.6,2.3c-15.7,2.1-31,5.8-44.1,15.5c-0.1,0-0.3-0.2-0.5-0.3c3.2-4.8,3-6.8-1.2-10.9
		c-1.3-1.2-2.8-2.3-4.3-3.3c-3.8-2.3-7.4-2.2-10.7,0.8c-2.6,2.4-5.5,4.8-7.7,7.7c-8.3,11.6-16.4,23.4-24.6,35.1
		c-0.8,1.2-1.6,2.4-2.5,3.9c-4.3-9.5-8.7-12-18.7-10.4c-4.1,0.7-8.3,1.7-12.2,3.4c-15.9,6.9-27.6,18.9-36.6,33.2
		c-7.4,11.9-17,21.7-27.5,30.7c-2.6,2.3-5.7,4.1-8.8,5.7c-2.5,1.3-4.3,0-4-2.9c0.4-2.7,1-5.5,2-8.1c6.4-16.5,15.4-31.5,26.2-45.5
		c2.1-2.7,2.3-4.9,0.1-7.3c-0.8-1-1.7-2.1-2.7-2.9c-6.7-6.1-10.5-6.4-15.9,0.8c-7.7,10-14.4,20.8-21.7,31.2
		c-2.3,3.4-4.4,6.9-7.2,9.9c-5,5.4-10.1,10.8-15.7,15.7c-3.8,3.5-8.3,6.3-12.7,9c-2.5,1.5-4.3,0.2-4-2.7c0.2-2.3,0.8-4.6,1.5-6.7
		c6.1-16.8,15.3-31.8,25.9-46.1c3.3-4.4,3.4-6-0.4-9.9c-1.3-1.4-2.8-2.7-4.4-3.8c-4.7-3-7.1-2.9-10.9,1.1c-4.2,4.6-8.4,9.4-12,14.5
		c-8.4,12.3-15.8,25.3-26.2,36.1c-5.7,5.9-11.9,11.3-18.1,16.8c-0.9,0.8-3.3,1.3-3.8,0.8c-0.9-0.9-1.4-2.8-1.1-4.1
		c0.8-3.4,1.7-6.8,3-10c6.4-15,14.7-28.9,24.5-41.9c1.1-1.5,2.3-3.9,1.7-5.4c-1.8-5-5.6-8.1-10.7-9.6c-4.2-1.2-6.2,2.3-8.8,4.7
		c-0.8,0.7-1.3,1.4-2,2.2c-12.9,15.8-23.2,33.1-30.6,52.1c-2.8,7.4-5.2,14.9-4.5,23c0.8,9.3,6.9,13.9,15.9,11.9
		c1.5-0.4,3.2-0.7,4.4-1.5c5.6-3.8,11.4-7.2,16.5-11.6c5.1-4.3,9.5-9.7,14.5-14.9c-0.7,3.5-1.4,6.3-1.6,9.2
		c-0.2,2.9-0.2,5.8,0.4,8.6c1.4,7.5,6.8,11.4,14.4,10.6c2.1-0.2,4-0.8,6-1.5c10.2-4,18.3-11.2,26.2-18.6c1.6-1.5,2.9-3.5,4.3-5.3
		c0.6,5.3,0.1,9.9,0.7,14.4c1,8.1,7,12.2,15,10.8c1.8-0.3,3.6-0.8,5.3-1.4c10.5-4,18.8-11.4,26.8-18.9c1.1-1,2.2-2.1,3.7-3.4
		c0,3.2-0.1,5.7,0,8.3c0.5,11.9,8.7,18.5,20.1,15.1c5.5-1.6,10.8-4.9,15.4-8.4c9.3-7.1,16.2-16.6,23-26.1c0.8-1,1.5-2,2.2-2.9
		c0.3,1.2,0,2.2-0.3,3c-2.7,7.4-5.3,14.8-5,22.9c0.3,10,5.3,14,15.2,11.7c7-1.6,12.9-5.3,18.6-9.7c13.6-10.3,24.8-23.1,35.6-36.2
		c2.1-2.4,1.4-5.8-1.2-8s-4.2-0.5-6.1,1.4c-6.4,6.8-12.7,13.7-19.4,20.1c-3.8,3.6-8.2,6.4-12.5,9.3c-0.9,0.7-3,0.9-3.6,0.4
		c-0.8-0.8-1.1-2.5-1-3.8c0.2-1.8,0.8-3.6,1.4-5.3c11-26.9,25.8-51.7,42.7-75.3c0.3-0.4,0.8-0.7,1.4-1.2c-0.7,2.4-1.2,4.2-1.6,6.1
		c-2.2,10.5,5,21.7,15,23.6c3.9,0.8,5.2-0.1,5.3-3.9c0.5-8.8,4.5-15.7,11-21.3c7.7-6.7,16.8-10.9,26.4-14.3c5.5-2,11.2-3.6,17.6-5.5
		c-0.8,1.5-0.9,2.1-1.3,2.5c-9.7,15.2-19.1,30.6-29.1,45.6c-9.7,14.6-19.6,29.1-30,43.2c-3.3,4.4-8.3,7.8-12.9,11
		c-2.9,2.1-6.6,2.4-9.9,0.2c-4.8-3.2-8-1.9-8.1,3.8c-0.2,9.6,3.8,17.3,11.8,22.4c7.6,4.9,15.4,4.3,22.9-0.4c8.1-5.1,14.4-12,19.3-20
		c8.8-14.3,17.3-28.8,25.2-43.6c10.4-19.3,19.9-39,30.2-58.3C830.1,631.6,834.1,624.6,842.6,622.4z M684.3,683.1
		c-0.5,0.9-1,2-1.7,2.8c-11.1,13.7-22.1,27.5-33.5,41c-2.7,3.3-6.4,5.9-10,8.3c-3.3,2.1-5.6,0.3-5.3-4.2c0.3-1.1,0.5-2.9,1.1-4.4
		c7.1-18.9,17.7-35.4,32.8-48.9c2.2-1.9,4.8-3.4,7.4-4.5c2.6-1.2,5.5-1.4,7.6,1.2C684.9,677,685.8,679.9,684.3,683.1z"/>
	<path class="st1" d="M321.4,768.5c-2.8,0.5-5.9,1-8.6,0.3c-6.8-1.8-13.9-3.2-19.8-6.6c-17.8-10.2-35.1-21.4-52.6-32.2
		c-0.3-0.2-0.5-0.6-0.8-0.9c3.7-5.2,7.3-10.2,10.8-15.5c1.2-1.9,2.5-2.5,4.7-2.6c25.3-1.6,46.3-12.2,62.9-31.3
		c9.8-11.4,16.7-24.4,18-39.7c1.2-15.3-7.7-27.2-22-29.5c-7-1.1-13.8,0.2-20.1,3.3c-8.9,4.3-15.9,11-22.1,18.5
		c-10.6,12.6-18.9,26.6-26.9,40.9c-3.7,6.4-7.2,12.9-11.3,20.1c-2.3-2.8-4.5-4.8-6-7.2c-8-12.1-8.3-25.1-4.5-38.7
		c1.3-4.7-0.2-6.6-5-6.2c-11.8,1-22.1,11.4-22.6,23.3c-0.7,18.6,8.4,31.4,24.3,40.2c1.8,0.9,3.7,1.8,5.8,2.8
		c-2.4,3.9-4.7,7.5-7,11.2c-1.6-0.6-2.7-1-3.8-1.5c-9.8-3.8-19.9-6.3-30.5-5.6c-10.8,0.7-20.5,4-27.5,12.7c-9.1,11.1-6.8,25,5,31.7
		c2.6,1.5,5.5,2.6,8.4,3.3c14.8,3.2,28.9,1,42.1-6.4c4.7-2.6,9.1-5.9,14.3-9.4c3,3.2,6,6.6,9.3,9.8c10.9,10.5,21.7,21.1,33,31.1
		c6.4,5.6,13.9,9.8,22.3,11.5c14.3,3,31.4-7.1,35.7-21.1C328.5,769.4,326.7,767.6,321.4,768.5z M270.4,678.7
		c6.8-13,13.6-26.2,20.7-39c2.2-3.9,5.3-7.4,8.3-11.1c0.8-1.1,2.2-2,3.3-2.8c2.9-2,6.1-3.4,9.5-1.5c3.3,1.8,4,5.3,3.6,8.5
		c-0.8,5.4-1.9,11-3.9,16.1c-6.8,17-17.3,31.2-32.4,41.8c-5.6,3.9-11.9,6.8-19.6,8.2C263.6,691.7,266.9,685.2,270.4,678.7z
		 M186.6,747.8c-2.2,0.4-4.6,0.3-6.8-0.3c-4.6-1.1-6.8-5-5.9-9.7c1.7-9.1,10.8-15.4,20.6-14.1c4.9,0.7,10.9,3.3,15.4,6.9
		C203.5,738.4,197,745.8,186.6,747.8z"/>
	<path class="st1" d="M418.9,788.8c-3-0.9-2.5-2.6-2.1-4.7c0.5-1.9,0.8-3.8,1.5-5.6c11.9-35,27.6-68.2,47.1-99.5
		c4.1-6.6,4-8.2-2.1-13.1c-1-0.8-2.2-1.6-3.3-2.3c-4.4-2.5-6.4-2.3-9.9,1.3c-2.3,2.3-4.5,4.8-6.9,7.4c-3.5-10.5-8.3-13.7-18.9-12
		c-4.2,0.7-8.5,1.8-12.5,3.6c-15.7,7-27.3,18.9-36.2,33.1c-6.4,10.2-14.3,18.9-23.2,26.8c-3.8,3.5-8.2,6.5-12.6,9.2
		c-3.2,2-5.3,0.4-4.6-3.4c0.8-3.8,1.9-7.5,3.4-11.1c6.4-15,14.8-28.8,24.7-41.8c0.8-1.2,2.2-3.1,1.8-4c-2-5.2-6-8.3-11.1-10.3
		c-3.9-1.5-6.2,1.4-8.3,3.8c-16.7,19.3-29.5,40.7-36.2,65.5c-1.2,4.4-1.2,9.4-0.7,14c1.1,8.3,7.3,12.6,15.5,10.3
		c5.3-1.5,10.8-3.8,15.4-7c6.8-4.7,13-10.3,19.9-15.9c0,3-0.1,5.9,0,8.8c0.5,9.2,6.3,14.6,15.6,14.6c5.8,0,11.2-2,15.4-5.6
		c7-6,13.6-12.7,20.2-19.2c1.9-1.9,3.5-4.1,5.2-6.2c0.1,1.3-0.3,2.3-0.8,3.2c-3.4,6.8-6.9,13.3-10,20.2
		c-5.8,12.8-11.9,25.5-13.9,39.6c-1.6,10.9,2.3,14.6,13,12.4c5.5-1.1,10.6-3.4,14.6-7.6C419.9,791.8,421.7,789.6,418.9,788.8z
		 M397.9,729.8c-2.1,2.2-4.6,3.9-7.2,5.3c-3.6,2-5.5,0.4-5.9-3.9c1.8-4.6,3.2-9.4,5.3-13.8c7.3-14.9,16.2-28.7,28.9-39.6
		c2.2-1.9,4.8-3.4,7.3-4.6c2.9-1.3,6-1.5,8.2,1.5c2.1,2.8,2.8,5.9,0.7,9.1C423.9,700.1,411.9,715.8,397.9,729.8z"/>
	<path class="st1" d="M368.5,648.1c9.4,0.1,18.3-6.6,20.6-15.4c2.2-7.9-3.6-14.2-11.6-12.9c-9,1.4-17.1,10.7-17.3,19.9
		C360.2,645,363.2,648,368.5,648.1z"/>
	<path class="st1" d="M617.4,648.1c9.1-0.1,17.7-6.4,20.2-14.9c2.4-8.3-3.3-14.7-11.7-13.2c-8.9,1.6-16.7,10.6-17.1,19.7
		C608.6,645,611.8,648.1,617.4,648.1z"/>
</g>
</svg>
