<?xml version="1.0" encoding="utf-8"?>
<!-- Generator: Adobe Illustrator 22.0.1, SVG Export Plug-In . SVG Version: 6.00 Build 0)  -->
<svg version="1.1" id="Layer_1" xmlns="http://www.w3.org/2000/svg" xmlns:xlink="http://www.w3.org/1999/xlink" x="0px" y="0px"
	 viewBox="0 0 1417.3 1417.3" style="enable-background:new 0 0 1417.3 1417.3;" xml:space="preserve">
<style type="text/css">
	.st0{fill:#FFFFFF;}
</style>
<rect x="1" y="0.4" width="1417.3" height="1417.3"/>
<g>
	<path class="st0" d="M690.9,701.7c-4-4-8.9-7.2-14.5-9.5c-5.5-2.2-11.6-3.4-18-3.4c-6.4,0-12.5,1.1-18,3.4
		c-5.5,2.3-10.4,5.4-14.4,9.5c-4,4-7.1,8.8-9.3,14.1c-2.2,5.3-3.3,11-3.3,16.9c0,5.9,1.1,11.5,3.3,16.9c2.2,5.3,5.3,10.1,9.3,14.1
		c4,4,8.8,7.2,14.4,9.5c5.5,2.2,11.6,3.4,18,3.4c6.4,0,12.5-1.1,18-3.4c5.6-2.3,10.5-5.4,14.5-9.5c4-4,7.1-8.8,9.3-14.1
		c2.2-5.3,3.3-11,3.3-16.9c0-5.8-1.1-11.5-3.3-16.9C698,710.5,694.9,705.8,690.9,701.7z M677.9,740.9c-1,2.5-2.4,4.7-4.1,6.5
		c-1.7,1.8-3.9,3.2-6.5,4.2c-2.6,1-5.6,1.6-8.8,1.6c-3.2,0-6.2-0.5-8.8-1.6c-2.5-1-4.7-2.4-6.5-4.3c-1.8-1.8-3.2-4-4.1-6.5
		c-1-2.5-1.5-5.3-1.5-8.2c0-2.9,0.5-5.6,1.5-8.2c1-2.5,2.4-4.7,4.2-6.6c1.7-1.8,3.9-3.3,6.5-4.3c2.6-1,5.6-1.6,8.7-1.6
		c3.2,0,6.2,0.5,8.8,1.6c2.6,1,4.7,2.4,6.5,4.3c1.8,1.9,3.2,4.1,4.2,6.6c1,2.6,1.5,5.3,1.5,8.2C679.4,735.6,678.9,738.4,677.9,740.9
		z"/>
	<path class="st0" d="M901.4,701.7c-4-4-8.9-7.2-14.5-9.5c-5.5-2.2-11.6-3.4-18-3.4c-6.4,0-12.5,1.1-18,3.4
		c-5.5,2.3-10.4,5.4-14.4,9.5c-4,4-7.1,8.8-9.3,14.1c-2.2,5.3-3.3,11-3.3,16.9c0,5.8,1.1,11.5,3.3,16.9c2.2,5.4,5.3,10.1,9.3,14.1
		c4,4,8.8,7.2,14.4,9.5c5.5,2.2,11.6,3.4,18,3.4c6.4,0,12.5-1.1,18-3.4c5.6-2.3,10.5-5.4,14.5-9.5c4-4,7.1-8.8,9.3-14.1
		c2.2-5.3,3.3-11,3.3-16.9c0-5.8-1.1-11.5-3.3-16.9C908.6,710.5,905.4,705.8,901.4,701.7z M888.5,740.9c-1,2.5-2.4,4.7-4.1,6.5
		c-1.7,1.8-3.9,3.2-6.5,4.3c-2.6,1-5.6,1.6-8.8,1.6c-3.2,0-6.2-0.5-8.8-1.6c-2.5-1-4.7-2.4-6.5-4.3c-1.8-1.8-3.2-4-4.1-6.5
		c-1-2.6-1.5-5.3-1.5-8.2c0-2.9,0.5-5.6,1.5-8.2c1-2.5,2.4-4.7,4.2-6.6c1.7-1.8,3.9-3.3,6.5-4.3c2.6-1,5.6-1.6,8.7-1.6
		c3.2,0,6.2,0.5,8.8,1.6c2.6,1,4.7,2.4,6.5,4.3c1.8,1.9,3.2,4.1,4.2,6.6c1,2.6,1.5,5.3,1.5,8.2C889.9,735.6,889.4,738.4,888.5,740.9
		z"/>
	<path class="st0" d="M1005.2,702.3c-4-3.8-8.8-6.8-14.2-9c-5.4-2.1-11.1-3.2-17.2-3.2h-35.6v85.1h35.6c6,0,11.8-1.1,17.2-3.2
		c5.4-2.1,10.1-5.1,14.2-9c4.1-3.9,7.3-8.5,9.5-13.8c2.2-5.2,3.3-10.9,3.3-16.7c0-5.8-1.1-11.4-3.3-16.7
		C1012.4,710.8,1009.3,706.2,1005.2,702.3z M992.8,740.1c-0.9,2.2-1.9,4-3,5.3c-1.2,1.4-2.6,2.6-4.1,3.6c-1.6,1-3.4,1.8-5.4,2.3
		c-2.1,0.6-4.2,0.8-6.4,0.8h-11.6v-39h11.6c3,0,5.8,0.5,8.3,1.5c2.5,0.9,4.6,2.3,6.4,4c1.7,1.7,3.1,3.8,4.1,6.1c1,2.4,1.5,5,1.5,7.9
		C994.1,735.5,993.7,738,992.8,740.1z"/>
	<rect x="1042.3" y="690.2" class="st0" width="23.9" height="85.1"/>
	<polygon class="st0" points="1118.5,690.2 1094.6,690.2 1094.6,775.3 1162.5,775.3 1162.5,752.2 1118.5,752.2 	"/>
	<polygon class="st0" points="1209.2,752.2 1209.2,744.2 1237.9,744.2 1237.9,721.1 1209.2,721.1 1209.2,713.3 1254.5,713.3 
		1254.5,690.2 1185.3,690.2 1185.3,775.3 1255.4,775.3 1255.4,752.2 	"/>
	<path class="st0" d="M585.4,745.7c2.9-3,5-6.4,6.2-9.9c1.1-3.4,1.7-6.7,1.7-9.9v-6.8c0-4.1-0.9-8.2-2.6-12.2
		c-1.8-4.1-4.5-7.5-8.1-10.2c-3.3-2.5-6.8-4.3-10.3-5.2c-3.3-0.9-6.5-1.4-9.5-1.4h-45v86.4h23.9v-21.8h15.1l18.5,21.8h30l-24.4-27
		C582.5,748.4,584,747.2,585.4,745.7z M569.3,726.2c0,0.8-0.3,1.8-0.8,3c-0.4,0.8-1.1,1.5-2.3,2.2c-1.3,0.8-2.8,1.1-4.6,1.1h-19.9
		v-19.5h19.9c1.8,0,3.3,0.4,4.6,1.1c1.2,0.7,1.9,1.4,2.3,2.2c0.5,1.1,0.8,2.2,0.8,3.1V726.2z"/>
	<polygon class="st0" points="439.2,646.5 447,646.5 447,585.6 474.1,585.6 474.1,578.1 447,578.1 412.1,578.1 412.1,585.6 
		439.2,585.6 	"/>
	<polygon class="st0" points="539.5,646.5 547.3,646.5 547.3,578.1 539.5,578.1 539.5,607.6 495.6,607.6 495.6,578.1 487.8,578.1 
		487.8,646.5 495.6,646.5 495.6,615.1 539.5,615.1 	"/>
	<polygon class="st0" points="621.1,646.5 621.1,639 575.9,639 575.9,615.9 604.7,615.9 604.7,608.5 575.9,608.5 575.9,585.6 
		620.6,585.6 620.6,578.1 575.9,578.1 568.1,578.1 568.1,646.5 568.4,646.5 	"/>
	<path class="st0" d="M753.1,718c1.7-1.8,3.8-3.2,6.3-4.3c2.5-1.1,5.4-1.6,8.5-1.6c4.1,0,7.6,0.9,10.6,2.7c2.7,1.7,4.7,3.9,6,6.6
		l22.1-8.4l-1-2.1c-3.2-6.6-8.2-12-15-16c-6.7-4-14.4-6-23-6c-6.4,0-12.3,1.1-17.7,3.4c-5.4,2.3-10.2,5.4-14,9.5
		c-3.8,4-6.8,8.8-8.9,14.1c-2,5.3-3.1,11-3.1,16.9c0,5.9,1.1,11.6,3.1,16.9c2.1,5.4,5.1,10.1,9,14.1c3.9,4,8.7,7.2,14.1,9.5
		c5.4,2.2,11.4,3.4,17.8,3.4c8.7,0,16.5-2,23.2-6c6.8-4,11.8-9.4,15-16l0.4-0.8l-22.2-8.5c-1.3,2-2.9,3.8-5.3,5.3
		c-3.1,1.8-6.7,2.8-10.7,2.8c-3.9,0-7.6-0.9-10.9-2.7c-3.1-1.7-5.4-4.1-7-7.3c-1.7-3.4-2.5-6.9-2.5-10.6c0-2.9,0.5-5.7,1.4-8.3
		C750.1,721.9,751.4,719.8,753.1,718z"/>
	<path class="st0" d="M441.4,718c1.7-1.8,3.8-3.2,6.3-4.3c2.5-1.1,5.4-1.6,8.5-1.6c4.1,0,7.6,0.9,10.6,2.7c2.7,1.7,4.7,3.9,6,6.6
		l22.1-8.4l-1-2.1c-3.2-6.6-8.2-12-15-16c-6.7-4-14.4-6-23-6c-6.4,0-12.3,1.1-17.7,3.4c-5.4,2.3-10.2,5.4-14,9.5
		c-3.8,4-6.8,8.8-8.9,14.1c-2,5.3-3.1,11-3.1,16.9c0,5.9,1.1,11.6,3.1,16.9c2.1,5.4,5.1,10.1,9,14.1c3.9,4,8.7,7.2,14.1,9.5
		c5.4,2.2,11.4,3.4,17.8,3.4c8.7,0,16.5-2,23.2-6c6.8-4,11.8-9.4,15-16l0.4-0.8l-22.2-8.5c-1.3,2-2.9,3.8-5.3,5.3
		c-3.1,1.8-6.7,2.8-10.7,2.8c-3.9,0-7.6-0.9-10.9-2.7c-3.1-1.7-5.4-4.1-7-7.3c-1.7-3.4-2.5-6.9-2.5-10.6c0-2.9,0.5-5.7,1.4-8.3
		C438.4,721.9,439.8,719.8,441.4,718z"/>
	<g>
		<path class="st0" d="M332.3,575H190.8c-15.9,0-28.9,12.9-28.9,28.9v145.4c0,15.9,12.9,28.9,28.9,28.9H211l64.1,64.1v-26.4
			l-56.4-56.4h-28c-5.6,0-10.2-4.6-10.2-10.2V603.9c0-5.6,4.6-10.2,10.2-10.2h141.5c5.6,0,10.2,4.6,10.2,10.2v145.4
			c0,5.6-4.6,10.2-10.2,10.2h-25v18.7h25c15.9,0,28.9-12.9,28.9-28.9V603.9C361.1,588,348.2,575,332.3,575z"/>
		<path class="st0" d="M248.6,661.1c1.8-1.9,4-3.4,6.7-4.5c2.6-1.1,5.6-1.7,8.9-1.7c4.2,0,8,1,11.1,2.9c2.5,1.5,4.4,3.4,5.8,5.8
			l18.6-7.1l-0.2-0.5c-3-6.1-7.7-11.2-14-14.9c-6.2-3.7-13.5-5.6-21.6-5.6c-6,0-11.6,1.1-16.7,3.2c-5.1,2.1-9.5,5.1-13.1,8.9
			c-3.6,3.8-6.4,8.2-8.3,13.2c-1.9,5-2.9,10.3-2.9,15.9c0,5.6,1,10.9,2.9,15.9c2,5,4.8,9.5,8.4,13.2c3.7,3.8,8.1,6.8,13.2,8.9
			c5.1,2.1,10.8,3.2,16.7,3.2c8.2,0,15.5-1.9,21.8-5.6c6.1-3.6,10.7-8.4,13.7-14.2l-18.9-7.2c-1.4,1.9-3,3.4-4.9,4.6
			c-3.2,1.9-7,2.9-11.3,2.9c-4.1,0-7.9-1-11.3-2.8c-3.4-1.8-5.8-4.4-7.5-7.8c-1.7-3.5-2.6-7.2-2.6-11c0-3,0.5-5.9,1.4-8.6
			C245.5,665.3,246.8,663,248.6,661.1z"/>
	</g>
</g>
</svg>
