<?xml version="1.0" encoding="utf-8"?>
<!-- Generator: Adobe Illustrator 22.0.1, SVG Export Plug-In . SVG Version: 6.00 Build 0)  -->
<svg version="1.1" id="Layer_1" xmlns="http://www.w3.org/2000/svg" xmlns:xlink="http://www.w3.org/1999/xlink" x="0px" y="0px"
	 viewBox="0 0 1417.3 1417.3" style="enable-background:new 0 0 1417.3 1417.3;" xml:space="preserve">
<style type="text/css">
	.st0{fill:#FFFFFF;}
</style>
<rect x="1" y="0.4" width="1417.3" height="1417.3"/>
<g>
	<g>
		<path class="st0" d="M930.8,318.3h-444c-49.9,0-90.7,40.5-90.7,90.7v456.2c0,49.9,40.5,90.7,90.7,90.7h63.4L751.3,1157v-82.8
			l-177-177h-87.9c-17.6,0-32-14.4-32-32V409c0-17.6,14.4-32,32-32h444c17.6,0,32,14.4,32,32v456.2c0,17.6-14.4,32-32,32H852v58.7
			h78.4c49.9,0,90.7-40.5,90.7-90.7V409C1021.1,359.1,980.7,318.3,930.8,318.3z"/>
		<path class="st0" d="M668.2,588.5c5.6-6,12.5-10.7,21-14.1c8.2-3.5,17.6-5.3,27.9-5.3c13.2,0,25.1,3.1,34.8,9.1
			c7.8,4.7,13.8,10.7,18.2,18.2l58.4-22.3l-0.6-1.6c-9.4-19.1-24.2-35.1-43.9-46.7c-19.5-11.6-42.4-17.6-67.8-17.6
			c-18.8,0-36.4,3.5-52.4,10c-16,6.6-29.8,16-41.1,27.9c-11.3,11.9-20.1,25.7-26,41.4s-9.1,32.3-9.1,49.9c0,17.6,3.1,34.2,9.1,49.9
			c6.3,15.7,15.1,29.8,26.4,41.4c11.6,11.9,25.4,21.3,41.4,27.9c16,6.6,33.9,10,52.4,10c25.7,0,48.6-6,68.4-17.6
			c19.1-11.3,33.6-26.4,43-44.6L768.9,682c-4.4,6-9.4,10.7-15.4,14.4c-10,6-22,9.1-35.5,9.1c-12.9,0-24.8-3.1-35.5-8.8
			c-10.7-5.6-18.2-13.8-23.5-24.5c-5.3-11-8.2-22.6-8.2-34.5c0-9.4,1.6-18.5,4.4-27C658.4,601.7,662.5,594.4,668.2,588.5z"/>
	</g>
</g>
</svg>
