<?xml version="1.0" encoding="utf-8"?>
<!-- Generator: Adobe Illustrator 22.0.1, SVG Export Plug-In . SVG Version: 6.00 Build 0)  -->
<svg version="1.1" id="Layer_1" xmlns="http://www.w3.org/2000/svg" xmlns:xlink="http://www.w3.org/1999/xlink" x="0px" y="0px"
	 viewBox="0 0 1417.3 1417.3" style="enable-background:new 0 0 1417.3 1417.3;" xml:space="preserve">
<style type="text/css">
	.st0{fill:#E56A2C;}
	.st1{opacity:0.4;fill:#FFFFFF;enable-background:new    ;}
	.st2{fill:#FFFFFF;}
</style>
<rect y="0" class="st0" width="1417.3" height="1417.3"/>
<g>
	<g>
		<path class="st1" d="M91.7,668.5c10.8-8.2,26.3-23.7,34.6-34.5s25.3-15.3,37.8-10.1c12.5,5.2,33.8,10.9,47.3,12.6
			c13.5,1.8,25.9,14.2,27.7,27.6c1.8,13.4,7.5,34.6,12.7,47.1c5.2,12.5,0.6,29.4-10.1,37.7s-26.3,23.7-34.6,34.5
			s-25.3,15.3-37.8,10.1c-12.5-5.2-33.8-10.9-47.3-12.6c-13.5-1.8-25.9-14.2-27.7-27.6c-1.8-13.4-7.5-34.6-12.7-47.1
			C76.4,693.6,80.9,676.7,91.7,668.5z"/>
		<path class="st2" d="M166.9,668.5c10.8-8.2,26.3-23.7,34.6-34.5c8.3-10.7,25.3-15.3,37.8-10.1c12.5,5.2,33.8,10.9,47.3,12.6
			c13.5,1.8,25.9,14.2,27.7,27.6c1.8,13.4,7.5,34.6,12.7,47.1c5.2,12.5,0.6,29.4-10.1,37.7c-10.8,8.2-26.3,23.7-34.6,34.5
			c-8.3,10.7-25.3,15.3-37.8,10.1c-12.5-5.2-33.8-10.9-47.3-12.6c-13.5-1.8-25.9-14.2-27.7-27.6c-1.8-13.4-7.5-34.6-12.7-47.1
			C151.6,693.6,156.1,676.7,166.9,668.5z"/>
	</g>
	<g>
		<path class="st2" d="M388.3,671v-13.7h38.2V671H415l12.7,55.8c0.3,1.1,0.4,2.4,0.6,3.9c0.3,1.4,0.4,2.6,0.5,3.4l0.1,1.3h0.5
			c0.3-3.1,0.9-5.9,1.5-8.5l18.3-69.4h14.5l18.3,69.4c0.3,1.1,0.6,2.4,0.9,3.9c0.3,1.4,0.5,2.6,0.5,3.4l0.1,1.3h0.5
			c0.2-3.1,0.5-5.9,1.1-8.5l12.7-55.8h-11.4v-13.7h38.2V671h-8.9l-20.8,84.2h-20.3l-16.4-61.8c-0.3-1.2-0.6-2.5-0.9-4
			c-0.3-1.6-0.4-2.8-0.5-3.6l-0.1-1.3h-0.4c-0.3,3.3-0.7,6.3-1.5,8.9l-16.4,61.8h-20.3L397.3,671L388.3,671L388.3,671L388.3,671z"/>
		<path class="st2" d="M613.2,697.9v-13.1h18.3c6.3,0,9.4,2.8,9.4,8.5v4.2l-0.3,4.4h0.3c1.7-5.3,4.5-9.6,8.5-12.9
			c4-3.4,8.6-5.1,13.8-5.1l3.2,0.3v17.2c-1.1-0.2-2.6-0.3-4.2-0.3c-3.4,0-6.5,0.6-9.2,2.1c-2.7,1.4-4.8,3.4-6.5,5.8
			c-1.6,2.4-2.8,5.1-3.6,8.1c-0.8,3-1.3,6.2-1.3,9.6V742h10v13.1h-37.7V742h10.2V701c0-2-1-3-3-3H613.2L613.2,697.9z"/>
		<path class="st2" d="M671.5,670.4v-13.1h28.4v54.2h9.2l11.4-13.5h-8.1v-13.1h33.8v13.1h-9.1l-15.3,18v0.3c0.1,0,0.4,0.1,0.8,0.4
			c0.5,0.3,1.1,0.9,2,2c0.9,1,1.8,2.2,2.6,3.6l9.9,17.4c0.6,0.9,1.2,1.6,2,2c0.8,0.3,2.1,0.5,3.8,0.5h4v13.1h-13.1
			c-3,0-5.3-0.4-6.8-1.1c-1.5-0.8-2.9-2.4-4.2-4.9l-12.7-22.2c-0.3-0.6-0.7-1-1.1-1.4c-0.4-0.4-0.9-0.7-1.5-0.8
			c-0.5-0.2-1-0.3-1.5-0.3c-0.5-0.1-1.1-0.1-1.9-0.1h-4.1V742h7.6v13.1h-35.3V742h10.2v-71.7L671.5,670.4L671.5,670.4z"/>
		<path class="st2" d="M758.5,734.8v-11.2h16.4v7.3c0,3,1.6,5.4,5,7.3c3.4,1.8,7.5,2.8,12.2,2.8c5.1,0,9.1-1.1,12.2-3.2
			c3.2-2.2,4.7-5.1,4.7-8.9c0-1-0.1-1.9-0.3-2.8c-0.3-0.9-0.5-1.7-0.9-2.4c-0.3-0.7-0.9-1.4-1.5-2.1c-0.7-0.7-1.2-1.3-1.8-1.8
			c-0.5-0.5-1.3-1.1-2.4-1.7c-1-0.7-1.9-1.1-2.6-1.5c-0.7-0.4-1.7-0.8-3-1.3c-1.3-0.6-2.3-1-3.1-1.3c-0.7-0.3-1.9-0.7-3.4-1.3
			c-1.5-0.6-2.6-1.1-3.4-1.3c-2.2-0.9-4-1.6-5.6-2.2c-1.5-0.7-3.3-1.5-5.3-2.5c-1.9-1.1-3.6-2-4.9-3c-1.3-1.1-2.6-2.3-4-3.7
			c-1.3-1.5-2.4-2.9-3.3-4.5c-0.8-1.6-1.5-3.4-2-5.6c-0.5-2.2-0.8-4.4-0.8-6.9c0-4.8,0.9-8.9,2.7-12.5c1.9-3.6,4.3-6.5,7.4-8.5
			c3.2-2.2,6.7-3.7,10.4-4.7c3.8-1.1,7.9-1.5,12.2-1.5c5.3,0,10.3,0.6,14.9,1.9c4.6,1.2,8.4,3.2,11.5,5.9c3.1,2.7,4.6,5.8,4.6,9.4
			v12.9h-16.4v-6.6c0-2.4-1.4-4.2-4.4-5.6c-2.9-1.3-6.3-2-10.3-2c-4.2,0-7.7,0.8-10.5,2.7c-2.7,1.8-4.1,4.5-4.1,8.1
			c0,2,0.5,3.9,1.4,5.5c0.9,1.6,2.4,3,4.2,4.2c1.9,1.2,3.8,2.2,5.7,3c2,0.8,4.4,1.8,7.2,2.9c0.4,0.1,0.7,0.2,0.8,0.3
			c2.6,0.9,4.6,1.7,6.3,2.4c1.6,0.6,3.6,1.5,5.9,2.6c2.3,1.1,4.2,2.1,5.6,3.1c1.5,0.9,3,2.2,4.6,3.7c1.6,1.5,2.9,3,3.8,4.7
			c0.9,1.6,1.6,3.6,2.2,5.8c0.7,2.2,0.9,4.6,0.9,7.1c0,4.8-0.9,9.2-2.9,13c-1.9,3.8-4.4,6.8-7.8,9.2c-3.3,2.3-7.1,4.1-11.2,5.3
			c-4.2,1.2-8.6,1.8-13.3,1.8c-4.2,0-8.1-0.5-12.1-1.4c-3.9-0.9-7.5-2.3-10.8-4c-3.2-1.8-5.8-4.2-7.8-7
			C759.5,741.5,758.5,738.3,758.5,734.8z"/>
		<path class="st2" d="M837.1,670.4v-13.1h28.4v34.2c0,1,0.1,2-0.1,3c-0.1,0.9-0.1,1.7-0.3,2.2l-0.1,0.7h0.3c2-3.8,5-7.1,9.4-10
			c4.3-2.8,9.3-4.2,14.9-4.2c16.4,0,24.6,8.9,24.6,26.7V742h10.2v13.1h-27.7v-41.6c0-4.7-0.8-8.2-2.4-10.6c-1.6-2.5-4.4-3.7-8.6-3.7
			c-6.1,0-10.9,2.2-14.6,6.8c-3.6,4.6-5.5,10.2-5.5,16.9V742h10.1v13.1h-37.8V742H848v-71.7L837.1,670.4L837.1,670.4z"/>
		<path class="st2" d="M931.2,735.4c0-3,0.5-5.7,1.6-8.1c1.1-2.4,2.4-4.4,4.2-6c1.8-1.6,3.8-3,6.3-4.2c2.4-1.2,4.8-2.2,7.1-2.8
			c2.4-0.7,4.9-1.2,7.6-1.6c2.8-0.4,5.1-0.6,7-0.7c1.9-0.1,3.9-0.2,5.8-0.2h4.4v-2.4c0-4.2-1.1-7.3-3.5-9.2
			c-2.4-1.9-5.5-2.9-9.5-2.9c-3.1,0-6.3,0.5-9.6,1.7c-3.3,1.1-5.9,2.2-7.6,3.4l-2.6,1.7l-6.5-12.1c0.3-0.3,0.7-0.5,1.3-0.9
			c0.5-0.4,1.8-1.1,3.6-2.1c1.9-1,3.8-1.9,5.9-2.6c2-0.8,4.6-1.5,7.7-2.1c3.1-0.7,6.3-0.9,9.4-0.9c9.4,0,16.6,2.4,21.5,7.1
			c5,4.7,7.4,11.6,7.4,20.6V739c0,2,1,3,3,3h6.3v13.1h-16.6c-3,0-5.3-0.7-6.7-2.1c-1.5-1.5-2.2-3.2-2.2-5.4v-0.8
			c0-0.7,0-1.3,0.1-1.9c0.1-0.6,0.2-1,0.3-1.3l0.1-0.4h-0.3c-0.1,0.3-0.4,0.7-0.7,1.4c-0.3,0.6-1,1.7-2.4,3.3
			c-1.3,1.6-2.6,2.9-4.2,4.1c-1.5,1.2-3.6,2.2-6.3,3.2c-2.6,0.9-5.4,1.5-8.5,1.5c-4.1,0-7.9-0.8-11.4-2.3c-3.4-1.6-6.3-4-8.5-7.3
			C932.4,743.9,931.2,740,931.2,735.4z M948.9,734.1c0,2.7,0.9,5,2.8,6.9c1.9,1.8,4.4,2.8,7.5,2.8c4.6,0,8.3-1.9,11.5-6
			c3.2-4,4.8-8.4,4.8-13.1v-2.3h-2.9c-1.7,0-3.4,0-5.1,0.1c-1.7,0.1-3.6,0.4-6.1,0.9c-2.4,0.5-4.4,1.1-6.1,1.9
			c-1.7,0.8-3.2,1.9-4.4,3.4C949.5,730.2,948.9,732.1,948.9,734.1z"/>
		<path class="st2" d="M1008.4,697.9v-13.1h18.1c3.1,0,5.3,0.6,6.6,1.8c1.4,1.2,2.1,2.8,2.1,4.8v0.4l-0.1,3.2h0.3
			c0.2-0.3,0.4-0.7,0.7-1.3c0.4-0.5,1.2-1.5,2.4-2.8c1.3-1.4,2.8-2.6,4.3-3.6c1.6-1.1,3.7-2,6.4-2.8c2.8-0.9,5.7-1.3,8.7-1.3
			c9.5,0,17,3.4,22.6,10.2c5.6,6.7,8.5,15.6,8.5,26.6c0,11-3,19.8-9,26.6c-6.1,6.7-13.7,10.2-23.1,10.2c-2.6,0-5-0.3-7.4-1
			c-2.4-0.7-4.3-1.5-5.8-2.5c-1.5-1-2.8-2-3.9-3c-1.1-1-1.9-1.8-2.4-2.5l-0.7-1h-0.3c0.3,1.6,0.4,3.6,0.4,6.1v16.7h10.2v13.1h-37.9
			v-13.1h10.2V701c0-2-1-3-3-3H1008.4L1008.4,697.9z M1036.3,720.4c0,5.8,1.6,10.8,4.6,15.1c3.2,4.3,7.5,6.5,12.8,6.5
			c5.1,0,9.2-1.9,12.6-5.8s5.1-9.2,5.1-16c0-6.7-1.6-12-4.8-16s-7.4-6.1-12.7-6.1c-5,0-9.1,1.8-12.5,5.6
			C1038,707.6,1036.3,713.1,1036.3,720.4z"/>
		<path class="st2" d="M1098.9,720c0-10.9,3.3-19.6,9.9-26.5c6.7-6.9,15.3-10.3,25.8-10.3c9.8,0,17.4,3.1,22.9,9.4
			c5.6,6.3,8.3,14.3,8.3,24l-0.4,5.9h-48.7c0.5,6.2,2.8,11,6.7,14.4c4,3.4,8.7,5.1,14.3,5.1c2.2,0,4.3-0.2,6.5-0.7
			c2.2-0.5,4-1.2,5.6-1.9c1.6-0.7,3.1-1.5,4.4-2.2c1.3-0.7,2.3-1.3,3-1.9l0.9-0.7l6.8,12.4c-0.3,0.3-0.7,0.6-1.3,1.1
			c-0.5,0.4-1.7,1.2-3.6,2.4c-1.9,1.1-3.8,2.1-5.9,3c-2,0.8-4.6,1.6-7.9,2.4c-3.2,0.7-6.5,1.1-9.8,1.1c-7.5,0-14.1-1.7-20-5
			c-5.8-3.4-10.2-7.9-13.3-13.4C1100.4,732.8,1098.9,726.7,1098.9,720z M1117.2,712.1h30.6c-0.1-4.7-1.4-8.5-4-11.2
			c-2.6-2.8-5.8-4.2-9.6-4.2c-4.4,0-8,1.3-11.1,4.2C1120,703.7,1118.1,707.4,1117.2,712.1z"/>
		<path class="st2" d="M1180.5,755.1v-17.6h17.5v17.6H1180.5z"/>
		<path class="st2" d="M1213.3,697.9v-13.1h28.4V742h10v13.1H1214V742h10.2v-44.1H1213.3z M1224.1,672.9v-15.5h17.6v15.5H1224.1z"/>
		<path class="st2" d="M1260.6,720c0-7,1.8-13.3,5.2-19c3.5-5.7,8.1-10,14-13.1c5.9-3.2,12.4-4.7,19.4-4.7c7.1,0,13.5,1.5,19.4,4.6
			c5.9,3.1,10.6,7.5,14.1,13.2c3.5,5.7,5.2,12,5.2,19c0,7-1.7,13.4-5.2,19c-3.5,5.7-8.1,10-14,13.1c-5.9,3.1-12.3,4.6-19.4,4.6
			c-7.1,0-13.6-1.5-19.5-4.6c-5.9-3.1-10.5-7.4-14-13.1C1262.3,733.5,1260.6,727.1,1260.6,720z M1278.3,720c0,6.4,2,11.6,6.1,15.7
			c4.1,4,9.1,6.1,14.9,6.1c5.8,0,10.7-2.1,14.7-6.1c4-4.1,6.1-9.4,6.1-15.7c0-6.4-2-11.6-6.1-15.7c-4-4.2-9-6.2-14.7-6.2
			c-5.8,0-10.7,2-14.8,6.2C1280.4,708.4,1278.3,713.6,1278.3,720z"/>
		<path class="st2" d="M524.6,720c0-7,1.8-13.3,5.2-19c3.5-5.7,8.1-10,14-13.1c5.9-3.2,12.4-4.7,19.4-4.7c7.1,0,13.5,1.5,19.4,4.6
			c5.9,3.1,10.6,7.5,14.1,13.2c3.5,5.7,5.2,12,5.2,19c0,7-1.7,13.4-5.2,19c-3.5,5.7-8.1,10-14,13.1c-5.9,3.1-12.3,4.6-19.4,4.6
			c-7.1,0-13.6-1.5-19.5-4.6c-5.9-3.1-10.5-7.4-14-13.1C526.4,733.5,524.6,727.1,524.6,720z M542.4,720c0,6.4,2,11.6,6.1,15.7
			c4.1,4,9.1,6.1,14.9,6.1c5.8,0,10.7-2.1,14.7-6.1c4-4.1,6.1-9.4,6.1-15.7c0-6.4-2-11.6-6.1-15.7c-4-4.2-9-6.2-14.7-6.2
			c-5.8,0-10.7,2-14.8,6.2C544.5,708.4,542.4,713.6,542.4,720z"/>
	</g>
</g>
</svg>
