<?xml version="1.0" encoding="utf-8"?>
<!-- Generator: Adobe Illustrator 22.0.1, SVG Export Plug-In . SVG Version: 6.00 Build 0)  -->
<svg version="1.1" id="Layer_1" xmlns="http://www.w3.org/2000/svg" xmlns:xlink="http://www.w3.org/1999/xlink" x="0px" y="0px"
	 viewBox="0 0 1417.3 1417.3" style="enable-background:new 0 0 1417.3 1417.3;" xml:space="preserve">
<style type="text/css">
	.st0{fill:#090329;}
	.st1{fill:#FFFFFF;}
</style>
<rect y="0" class="st0" width="1417.3" height="1417.3"/>
<g id="yld-logo">
	<path id="Logo-fill" class="st1" d="M485.2,583.3c41.9,0,75.8-33.9,75.8-75.8c0-41.9-33.9-75.8-75.8-75.8
		c-41.9,0-75.8,33.9-75.8,75.8C409.4,549.4,443.3,583.3,485.2,583.3L485.2,583.3z M1025.4,707c0-41.9-33.9-75.8-75.8-75.8
		s-75.8,33.9-75.8,75.8c0,41.7,34.1,75.8,75.8,75.8C991.5,782.8,1025.4,748.9,1025.4,707L1025.4,707z M1127.2,401.3V880h-101v-13.9
		c-23.2,11.2-49,17.6-76.5,17.6c-97.5,0-176.8-79.3-176.8-176.8s79.3-176.8,176.8-176.8c27.5,0,53.3,6.4,76.5,17.7V401.3
		L1127.2,401.3L1127.2,401.3z M772.9,401.3V707v173.1h-101V595.8L485.2,1016H374.6l55.8-125.6L290.1,583.3h111.1l84,183.8
		l81.7-183.8h105v-182H772.9z"/>
</g>
</svg>
