<?xml version="1.0" encoding="utf-8"?>
<!-- Generator: Adobe Illustrator 22.0.1, SVG Export Plug-In . SVG Version: 6.00 Build 0)  -->
<svg version="1.1" id="Layer_1" xmlns="http://www.w3.org/2000/svg" xmlns:xlink="http://www.w3.org/1999/xlink" x="0px" y="0px"
	 viewBox="0 0 1417.3 1417.3" style="enable-background:new 0 0 1417.3 1417.3;" xml:space="preserve">
<style type="text/css">
	.st0{fill:#090329;}
	.st1{fill:#FFFFFF;}
</style>
<rect y="0" class="st0" width="1417.3" height="1417.3"/>
<g id="yld-logo">
	<path id="Logo-fill" class="st1" d="M562.4,626.6c27.4,0,49.6-22.2,49.6-49.6c0-27.4-22.2-49.6-49.6-49.6
		c-27.4,0-49.6,22.2-49.6,49.6C512.8,604.4,535,626.6,562.4,626.6L562.4,626.6z M916,707.6c0-27.4-22.2-49.6-49.6-49.6
		c-27.4,0-49.6,22.2-49.6,49.6c0,27.3,22.3,49.6,49.6,49.6C893.8,757.2,916,735,916,707.6L916,707.6z M982.6,507.5v313.3h-66.1v-9.1
		c-15.2,7.3-32.1,11.5-50.1,11.5c-63.8,0-115.7-51.9-115.7-115.7c0-63.8,51.9-115.7,115.7-115.7c18,0,34.9,4.2,50.1,11.6v-95.9
		H982.6z M750.7,507.5v200.1v113.3h-66.1V634.8l-122.2,275H490l36.5-82.2l-91.8-201h72.7l55,120.3l53.5-120.3h68.7V507.5H750.7z"/>
</g>
</svg>
