<?xml version="1.0" encoding="utf-8"?>
<!-- Generator: Adobe Illustrator 22.0.1, SVG Export Plug-In . SVG Version: 6.00 Build 0)  -->
<svg version="1.1" id="Layer_1" xmlns="http://www.w3.org/2000/svg" xmlns:xlink="http://www.w3.org/1999/xlink" x="0px" y="0px"
	 viewBox="0 0 48 48" style="enable-background:new 0 0 48 48;" xml:space="preserve">
<g>
	<path d="M46.4,5.7c-0.1-0.2-0.2-0.4-0.4-0.6c-0.2-0.2-0.4-0.3-0.6-0.4c-0.2-0.1-0.5-0.2-0.8-0.2c0.5-0.2,0.8-0.4,1.1-0.8
		c0.3-0.3,0.4-0.8,0.4-1.3c0-0.3-0.1-0.7-0.2-0.9c-0.1-0.3-0.3-0.5-0.6-0.7c-0.3-0.2-0.6-0.3-0.9-0.5C44,0.1,43.5,0,43,0
		c-0.2,0-0.4,0-0.6,0c-0.2,0-0.4,0-0.6,0.1c-0.2,0-0.4,0.1-0.6,0.1c-0.2,0-0.4,0.1-0.6,0.2v1.4c0.4-0.1,0.7-0.2,1.1-0.3
		c0.4-0.1,0.7-0.1,1.1-0.1c0.5,0,0.9,0.1,1.1,0.3c0.2,0.2,0.4,0.5,0.4,0.8c0,0.2,0,0.4-0.1,0.5c-0.1,0.2-0.2,0.3-0.3,0.4
		s-0.3,0.2-0.6,0.3c-0.2,0.1-0.5,0.1-0.9,0.1h-0.9v1.3h1c0.4,0,0.7,0,1,0.1c0.3,0.1,0.5,0.1,0.7,0.3c0.2,0.1,0.3,0.3,0.4,0.4
		s0.1,0.3,0.1,0.5c0,0.2,0,0.4-0.1,0.6c-0.1,0.2-0.2,0.3-0.4,0.5c-0.2,0.1-0.4,0.2-0.7,0.3c-0.3,0.1-0.6,0.1-1,0.1
		c-0.4,0-0.8,0-1.1-0.1c-0.4,0-0.7-0.1-1-0.1v1.5c0.1,0,0.3,0,0.4,0.1c0.2,0,0.3,0,0.5,0s0.3,0,0.5,0c0.2,0,0.3,0,0.5,0
		c0.7,0,1.3-0.1,1.8-0.2c0.5-0.1,1-0.3,1.3-0.6c0.3-0.3,0.6-0.6,0.8-0.9c0.2-0.4,0.3-0.8,0.3-1.2C46.5,6.2,46.5,5.9,46.4,5.7z"/>
	<path d="M20,16.1h-2.6l-4.6,16.4h2l1-3.6h5.8l1,3.6h2.1L20,16.1L20,16.1z M21,27h-4.7l2.4-8.8L21,27z"/>
	<path d="M11.6,36.5c-0.4-0.3-0.7-0.8-0.8-1.5c-0.1-0.4-0.1-1.6-0.1-3.6c0-2.2-0.3-3.8-1-4.8c-0.6-1-1.7-1.7-3.1-2.2
		c1.2-0.5,2.1-1,2.7-1.6c0.6-0.6,1-1.5,1.2-2.6c0.1-0.7,0.2-2.4,0.2-5.2c0-1.3,0.2-2.2,0.7-2.6c0.4-0.4,1.3-0.6,2.7-0.6h0.6V9.4
		h-1.1c-1.1,0-1.9,0-2.4,0.2c-0.7,0.2-1.3,0.4-1.8,0.7C9,10.6,8.6,11,8.3,11.5c-0.3,0.5-0.5,1.2-0.7,2.1c-0.1,0.5-0.1,1.7-0.1,3.4
		c0,1.7-0.1,3-0.3,3.7C7,21.4,6.5,22,5.9,22.4S4.5,23,3.5,23.1v2.5c1,0,1.8,0.2,2.4,0.7c0.6,0.4,1,1,1.3,1.7c0.2,0.7,0.3,2,0.3,3.9
		c0,1.9,0.1,3.2,0.3,4c0.2,0.8,0.5,1.5,1.1,2c0.5,0.5,1.2,0.9,2.1,1.2c0.6,0.2,1.5,0.3,2.8,0.3h1.1v-2.4h-0.6
		C12.9,36.9,12.1,36.7,11.6,36.5z"/>
	<path d="M34.9,30.1c0.3-0.6,0.4-1.3,0.4-2c0-0.7-0.1-1.2-0.3-1.7c-0.2-0.5-0.5-0.9-0.8-1.2c-0.3-0.4-0.7-0.7-1.2-0.9
		c-0.4-0.3-0.9-0.5-1.3-0.7c-0.5-0.2-0.9-0.4-1.3-0.6c-0.4-0.2-0.8-0.4-1.2-0.7c-0.3-0.3-0.6-0.5-0.8-0.9C28.1,21,28,20.7,28,20.2
		c0-0.7,0.3-1.3,0.8-1.7c0.5-0.4,1.3-0.6,2.4-0.6c0.5,0,1,0,1.6,0.1c0.5,0.1,1.1,0.2,1.6,0.4v-2c-0.2-0.1-0.5-0.1-0.8-0.2
		c-0.3-0.1-0.5-0.1-0.8-0.2C32.5,16,32.3,16,32,16c-0.3,0-0.5,0-0.8,0c-0.9,0-1.7,0.1-2.3,0.4c-0.7,0.3-1.2,0.6-1.6,1
		c-0.4,0.4-0.7,0.9-0.9,1.5c-0.2,0.5-0.3,1.1-0.3,1.7c0,0.6,0.1,1.2,0.3,1.7c0.2,0.5,0.5,0.9,0.8,1.2c0.3,0.3,0.7,0.7,1.2,0.9
		c0.4,0.3,0.9,0.5,1.3,0.7c0.5,0.2,0.9,0.4,1.3,0.6c0.4,0.2,0.8,0.4,1.2,0.7c0.3,0.2,0.6,0.5,0.8,0.8c0.2,0.3,0.3,0.7,0.3,1.1
		c0,0.4-0.1,0.8-0.2,1.1c-0.1,0.3-0.3,0.6-0.6,0.8c-0.3,0.2-0.6,0.4-1.1,0.5c-0.4,0.1-0.9,0.2-1.6,0.2c-0.8,0-1.6-0.1-2.3-0.2
		c-0.7-0.1-1.3-0.3-1.8-0.6v2.2c0.2,0.1,0.5,0.1,0.8,0.2c0.3,0.1,0.6,0.1,1,0.2c0.3,0,0.7,0.1,1.1,0.1c0.4,0,0.7,0,1.1,0
		c0.8,0,1.6-0.1,2.2-0.3c0.7-0.2,1.3-0.5,1.7-0.9C34.3,31.2,34.6,30.7,34.9,30.1z"/>
	<path d="M41,20.7c-0.2-0.7-0.3-2-0.3-3.9c0-1.9-0.1-3.2-0.3-4c-0.2-0.8-0.5-1.5-1.1-2c-0.5-0.5-1.2-0.9-2.1-1.2
		c-0.6-0.2-1.5-0.3-2.8-0.3h-1.1v2.4H34c1.2,0,2.1,0.1,2.5,0.4c0.4,0.3,0.7,0.8,0.8,1.5c0.1,0.4,0.1,1.6,0.1,3.6
		c0,2.2,0.3,3.8,1,4.8c0.6,1,1.7,1.7,3.1,2.2c-1.2,0.5-2.1,1-2.7,1.6c-0.6,0.6-1,1.5-1.2,2.6c-0.1,0.7-0.2,2.4-0.2,5.2
		c0,1.3-0.2,2.2-0.7,2.6c-0.4,0.4-1.3,0.6-2.7,0.6h-0.6v2.4h1.1c1.1,0,1.9-0.1,2.4-0.2c0.7-0.2,1.3-0.4,1.8-0.7s0.9-0.7,1.2-1.3
		c0.3-0.5,0.5-1.2,0.7-2.1c0.1-0.5,0.1-1.7,0.1-3.4c0-1.7,0.1-3,0.3-3.7s0.6-1.3,1.3-1.7c0.6-0.4,1.4-0.6,2.4-0.6v-2.5
		c-1,0-1.8-0.2-2.4-0.7C41.6,22,41.2,21.4,41,20.7z"/>
</g>
</svg>
