<?xml version="1.0" encoding="utf-8"?>
<!-- Generator: Adobe Illustrator 17.0.0, SVG Export Plug-In . SVG Version: 6.00 Build 0)  -->
<!DOCTYPE svg PUBLIC "-//W3C//DTD SVG 1.1//EN" "http://www.w3.org/Graphics/SVG/1.1/DTD/svg11.dtd">
<svg version="1.1" id="Layer_1" xmlns="http://www.w3.org/2000/svg" xmlns:xlink="http://www.w3.org/1999/xlink" x="0px" y="0px"
	 width="100px" height="100px" viewBox="0 0 100 100" enable-background="new 0 0 100 100" xml:space="preserve">
<path d="M99.514,5.25C99.514,5.25,99.514,5.25,99.514,5.25c-14.08,0-28.134,0-42.179,0c-14.045,0-28.081,0-42.125,0
	c-1.104,5.518-2.199,10.996-3.324,16.619c11.307,0,22.586,0,33.86,0c11.274,0,22.542,0,33.826,0
	c-0.712,3.614-1.407,7.142-2.112,10.72c-22.612,0-45.147,0-67.727,0c0,0,0,0,0,0c0,0,0,0,0,0c-1.096,5.555-2.18,11.054-3.285,16.655
	c22.617,0,45.124,0,67.688,0c-0.498,2.492-0.991,4.963-1.485,7.432c-0.248,1.239-0.498,2.481-0.746,3.716
	c-0.493,2.455-0.986,4.907-1.485,7.355c-0.031,0.15-0.169,0.316-0.326,0.437c-0.081,0.063-0.165,0.117-0.245,0.144
	c-8.75,2.918-17.506,5.818-26.267,8.702c-0.289,0.095-0.674,0.095-0.956-0.012c-7.564-2.871-15.119-5.764-22.682-8.64
	c-0.399-0.152-0.499-0.335-0.409-0.743c0.24-1.081,0.442-2.171,0.655-3.259c0.285-1.452,0.565-2.906,0.846-4.352
	c-0.14-0.037-0.189-0.062-0.238-0.062c-5.288-0.005-10.576-0.001-15.864-0.02c-0.129,0-0.229,0.017-0.307,0.049
	c-0.034,0.014-0.051,0.041-0.077,0.06c-0.034,0.025-0.075,0.044-0.099,0.077c-0.085,0.118-0.115,0.284-0.152,0.476
	c-0.644,3.287-1.307,6.571-1.958,9.857c-0.182,0.918-0.363,1.843-0.544,2.761c-0.436,2.213-0.872,4.423-1.311,6.652c0,0,0,0,0,0v0
	c0.226,0.101,0.407,0.193,0.596,0.265c12.657,4.845,25.313,9.692,37.978,14.518c0.323,0.123,0.765,0.117,1.097,0.007
	c14.627-4.839,29.248-9.699,43.875-14.538c0.456-0.151,0.669-0.367,0.759-0.824c1.439-7.28,2.887-14.558,4.337-21.836
	c3.181-15.971,6.365-31.942,9.546-47.914C98.958,8.129,99.231,6.701,99.514,5.25C99.514,5.25,99.514,5.25,99.514,5.25z"/>
</svg>
