<?xml version="1.0" encoding="utf-8"?>
<!-- Generator: Adobe Illustrator 22.0.1, SVG Export Plug-In . SVG Version: 6.00 Build 0)  -->
<svg version="1.1" id="Layer_1" xmlns="http://www.w3.org/2000/svg" xmlns:xlink="http://www.w3.org/1999/xlink" x="0px" y="0px"
	 viewBox="0 0 48 48" style="enable-background:new 0 0 48 48;" xml:space="preserve">
<path d="M34.7,2.8c-0.4-0.2-0.8-0.4-1.2-0.6c-0.4-0.2-0.8-0.4-1.2-0.6c-0.1-0.1-0.3-0.1-0.4-0.2c-0.4-0.1-0.7-0.3-1.1-0.4
	C28.7,0.4,26.5,0,24.2,0C12.6,0,3.1,9.5,3.1,21.2c0,10.3,7.4,18.9,17.1,20.8V48C32.8,46.1,44,36,44.9,22.8
	C45.4,14.9,41.4,6.8,34.7,2.8z M19.2,7.9c0.7-0.1,1.4,0.2,2,0.8c0.4,0.4,0.6,0.9,0.9,1.4c0.8,1.8,0.5,3.8-0.5,5.2
	c-1.8-0.4-3.5-1.5-4.2-3.4c-0.3-0.5-0.4-1.2-0.4-1.7C16.9,9,18,8.1,19.2,7.9z M12.8,14.2c0.1,0,0.3,0,0.4,0c0.6,0,1.2,0.1,1.8,0.4
	c1.8,0.8,3.1,2.3,3.5,4c-1.6,1-3.6,1.3-5.5,0.5c-0.5-0.3-1-0.5-1.5-0.9C9.9,16.9,10.8,14.3,12.8,14.2z M15.1,27.1
	c-0.5,0.3-1.2,0.4-1.8,0.4c-2.3,0.1-3.5-2.6-1.8-4c0.4-0.4,0.9-0.7,1.5-0.9c0.7-0.3,1.4-0.4,2.1-0.4c1.2,0,2.3,0.3,3.3,1
	C18.2,24.8,16.9,26.4,15.1,27.1z M22.2,31.3c-0.3,0.5-0.5,1-0.9,1.5c-1.3,1.7-4.3,0.5-4.2-1.7c0-0.5,0.1-1.1,0.4-1.7
	c0.8-1.8,2.3-3,4.1-3.4C22.7,27.7,22.9,29.6,22.2,31.3z M25.7,10.2c0.3-0.5,0.5-1,0.9-1.5c0.5-0.6,1.3-0.9,2-0.8
	c1.2,0.1,2.3,1.1,2.3,2.5c0,0.5-0.1,1.2-0.4,1.7c-0.8,1.8-2.3,3-4.1,3.4C25.2,13.9,24.9,12,25.7,10.2z M26.8,32.8
	c-0.4-0.4-0.6-0.9-0.9-1.4c-0.8-1.8-0.5-3.8,0.5-5.2c1.8,0.4,3.5,1.5,4.2,3.4c0.3,0.5,0.4,1.2,0.4,1.7
	C31.2,33.2,28.2,34.4,26.8,32.8z M34.7,27.4c-0.6,0-1.2-0.1-1.8-0.4c-1.8-0.8-3.1-2.3-3.5-4c1-0.6,2.2-1,3.4-1
	c0.7,0,1.4,0.2,2.1,0.4c0.5,0.3,1,0.5,1.5,0.9C38.2,24.7,37.1,27.5,34.7,27.4z"/>
</svg>
