<?xml version="1.0" encoding="utf-8"?>
<!-- Generator: Adobe Illustrator 22.0.1, SVG Export Plug-In . SVG Version: 6.00 Build 0)  -->
<svg version="1.1" id="Layer_1" xmlns="http://www.w3.org/2000/svg" xmlns:xlink="http://www.w3.org/1999/xlink" x="0px" y="0px"
	 viewBox="0 0 48 48" style="enable-background:new 0 0 48 48;" xml:space="preserve">
<g>
	<path d="M4.8,22.5c1.2,0.4,2.6,0.5,1.8-1.3c-0.8-1.8-3.2-2.9-4-1.9C1.9,20.3,3.6,22.1,4.8,22.5z"/>
	<path d="M5.9,24.6c-1.6-0.5-3.6,0.5-3.4,1.5c0.2,1,2.3,1,3.2,0.4C6.6,26.1,7.5,25.1,5.9,24.6z"/>
	<path d="M9.1,21.1C9.1,21.1,9.1,21.1,9.1,21.1C9.1,21.1,9.1,21.1,9.1,21.1C9.1,21.1,9.1,21.1,9.1,21.1c0.4,0,0.8-0.4,0.8-1.5
		c0.1-2.3-1.7-4.6-2.8-3.9c-1,0.7-0.3,3.5,0.5,4.5C8.1,20.7,8.7,21.1,9.1,21.1z"/>
	<path d="M12.7,24.5c0.7-0.5,0.8-1.6,0-2.8c-0.8-1.2-3.5-1.2-2.2,1.7C11,24.6,12,25,12.7,24.5z"/>
	<path d="M12.1,24.7C12.1,24.7,12.1,24.7,12.1,24.7C12.1,24.7,12.1,24.7,12.1,24.7C12.1,24.7,12.1,24.7,12.1,24.7z"/>
	<path d="M10.3,20.7c0,0,0,0.1,0,0.1C10.3,20.8,10.3,20.7,10.3,20.7C10.3,20.7,10.3,20.7,10.3,20.7z"/>
	<polygon points="6,22.7 6,22.7 6,22.7 	"/>
	<path d="M13.6,24.2c-0.1,0.3-0.3,0.5-0.6,0.7c-0.3,0.2-0.6,0.3-1,0.3c-0.4,0-0.8-0.2-1.2-0.5c-0.4-0.3-0.6-0.7-0.8-1.2
		c-0.4-0.9-0.5-1.6-0.3-2.2c-0.2,0.1-0.4,0.2-0.7,0.2c-0.4,0-1-0.2-1.8-1.1c-0.1,0.1-0.2,0.1-0.3,0.2c0,0.1,0.1,0.1,0.1,0.2
		c0.3,0.7,0.3,1.3,0.1,1.7C7,23,6.7,23.2,6,23.2c0,0-0.1,0-0.1,0c0,0.3-0.1,0.5-0.1,0.8c0.1,0,0.2,0,0.3,0.1
		c0.7,0.2,1.2,0.6,1.2,1.1c0,0.4-0.1,0.7-0.4,1.1c-0.2,0.2-0.4,0.4-0.6,0.5c0.5,1.2,1.3,2.6,2.8,3.9c3.4,3.1,6-0.2,5.4-4
		C14.3,25.9,14,25,13.6,24.2z"/>
	<path d="M44.2,25.9c1.5-1.5,0.4-2.6-0.8-4.7c-1.2-2.1-2.4-2.4-2.4-2.4c-2.1-2.3-14.9-2-19.5-1.4c-4.6,0.6-6.9,4.8-7.1,6.4
		s3.2,2.6,3.2,2.6s4.1,10.2,6.2,14c2.1,3.8,6,1.8,8.1-0.8c2.1-2.6,6.3-9.7,6.3-9.7S42.8,27.5,44.2,25.9z M31.2,25.9L28,30.7
		c-0.6,1-2.1,0.9-2.6-0.1l-2.9-5.2c-0.8-1.4,0.2-3.2,1.9-3.2l4.9,0C31.2,22.2,32.3,24.3,31.2,25.9z"/>
	<path d="M42,29.8c-2.8-0.2-4.9,10-4.9,10l0,0c0,0,0,0,0,0c0,0.1,0,0.1,0,0.2c0,0,0,0,0,0.1c0,0.1,0,0.1,0,0.2c0,0,0,0.1,0,0.1
		c0,0,0,0.1,0,0.1c0,0,0,0,0,0.1c0,0.1,0,0.1,0,0.2c0,0,0,0,0,0c0,0,0,0,0,0c0,0.5,0.1,0.9,0.1,1.3c0.5,2.5,2,3.5,3.7,3.6
		c0.1,0,0.1,0,0.2,0c0,0,0,0,0,0c0,0,0,0,0,0c0,0,0,0,0,0c2.1,0,3.8-1.3,4.3-4.9C46,37,44.8,30,42,29.8z M37.1,40.1
		C37.1,40.1,37.1,40.1,37.1,40.1C37.1,40.1,37.1,40.1,37.1,40.1z M37.1,40.3C37.1,40.3,37.1,40.3,37.1,40.3
		C37.1,40.3,37.1,40.3,37.1,40.3z M37.1,40.5C37.1,40.5,37.1,40.5,37.1,40.5C37.1,40.5,37.1,40.5,37.1,40.5z M42.9,41.5
		c-0.4,1.3-0.9,2.5-2.3,1.7s-0.6-4,0.7-4.5C42.6,38.3,43.3,40.2,42.9,41.5z"/>
	<path d="M20.5,8.5c0.3,0.1,0.7,0.2,1,0.2c0.7,0.1,1.3,0.2,2,0.3c1.4,0.2,2.7,0.2,4.1,0.2l0.5,0c0.2,0,0.3,0,0.5,0c0.3,0,0.7,0,1,0
		c0.7,0,1.4-0.1,2-0.2c0.3,0,0.7-0.1,1-0.1c0.3-0.1,0.7-0.1,1-0.2c0.2,0,0.3-0.1,0.5-0.1c0.2,0,0.3-0.1,0.5-0.1
		c0.3-0.1,0.7-0.2,1-0.3l0,0c-1.4,0.1-2.7,0.3-4,0.3l-0.5,0c-0.2,0-0.3,0-0.5,0c-0.3,0-0.7,0-1,0c-0.7,0-1.3,0-2,0l-0.5,0
		c-0.2,0-0.3,0-0.5,0c-0.2,0-0.3,0-0.5,0l-0.5,0c-0.7,0-1.3-0.1-2-0.1c-1.3-0.1-2.7-0.2-4-0.3l0,0c0.2,0.1,0.3,0.1,0.5,0.1
		C20.1,8.4,20.3,8.5,20.5,8.5z"/>
	<path d="M38.9,7.9c0.6,1.9,1.1,2.3,1.7,2c0.6-0.2,0.5-1.8,0-3.1c-0.4-1.1-1-1.9-1.5-1.9c0,0,0,0,0,0c0,0,0,0,0,0c0,0,0,0,0,0
		c-0.1,0-0.2,0-0.2,0.1C38.5,5.5,38.6,7,38.9,7.9z"/>
	<path d="M40.3,10C40.3,10,40.3,10,40.3,10C40.3,10,40.3,10,40.3,10C40.3,10,40.3,10,40.3,10z"/>
	<path d="M16.2,11.5C17,16,25.3,16,31.6,16c5.4,0,8.2-2.3,8.8-5.5c0,0-0.1,0-0.1,0c-0.9,0-1.4-0.9-1.9-2.4c-0.2-0.5-0.3-1.2-0.3-1.8
		c0-0.8,0.1-1.3,0.4-1.6c0.1-0.1,0.2-0.1,0.3-0.2C36.6,1.8,32.4-0.3,27.6,0C18.1,0.6,15.4,6.9,16.2,11.5z M19.1,7.1
		c0.7-1.5,1.3-1.4,4.1-1.2C26.1,6,27.1,6.2,31,5.8c3.9-0.4,5.9,0,6.1,1.3c0.4,2.9-0.4,3.2-2.1,4c-1.7,0.8-9.7,1-12.8,0.4
		C19,10.8,18,9.4,19.1,7.1z"/>
	<path d="M15.6,10.1c0-0.8,0.1-1.6,0.3-2.4c0.2-0.9,0.5-1.7,1-2.5c-0.7,0.2-1.5,0.6-1.7,1.3C14.6,8.2,14.6,9.3,15.6,10.1z"/>
	<path d="M37.2,42.2c0,0,0-0.1,0-0.1c0,0,0-0.1,0-0.2C37.2,42,37.2,42.1,37.2,42.2z"/>
	<path d="M33.7,43.9c0.1,1.3,2.4,0.5,3.5-0.1c-0.5-0.9-0.7-2.1-0.7-3.6C35.6,41,33.6,42.8,33.7,43.9z"/>
	<path d="M40.9,46.2c-1,0-1.9-0.4-2.6-1c-0.4,0.4-1.4,1.8-0.6,2.5c0.9,0.8,1.5,0,1.5,0s1.3,0.2,2.2-0.5c0,0,2,0.4,2.5-1.8
		c-0.7,0.6-1.6,0.9-2.7,0.9C41,46.2,41,46.2,40.9,46.2z"/>
</g>
</svg>
