<?xml version="1.0" encoding="utf-8"?>
<svg version="1.1" id="Layer_1" xmlns="http://www.w3.org/2000/svg" xmlns:xlink="http://www.w3.org/1999/xlink" x="0px" y="0px"
	 viewBox="0 0 48 48" style="enable-background:new 0 0 48 48;" xml:space="preserve">
<style type="text/css">
	.st0{fill:#010101;}
</style>
<path class="st0" d="M39.4,8.6c-0.3-0.3-0.8-0.4-1.3-0.2c-6.5,2.4-26.8,10-35.1,13.1c-0.7,0.2-1,1-0.8,1.7c0.1,0.4,0.5,0.7,0.9,0.8
	c3.7,1.1,8.6,2.7,8.6,2.7S14,33.5,15.1,37c0.1,0.4,0.5,0.8,0.9,0.9c0.5,0.1,0.9,0,1.3-0.3l4.9-4.6c0,0,5.6,4.1,8.8,6.4l0,0
	c0.5,0.4,1.2,0.4,1.7,0.2c0.6-0.2,1-0.7,1.1-1.3c1.4-6.4,4.7-22.7,5.9-28.5C39.9,9.3,39.8,8.9,39.4,8.6z M33,14.5
	c-5.8,5.2-16,14.4-16,14.4l-0.6,5.5l-2.6-8.7l0,0l18.7-11.9c0.2-0.1,0.4-0.1,0.6,0.1C33.1,14.1,33.1,14.3,33,14.5z"/>
</svg>
