<?xml version="1.0" encoding="utf-8"?>
<!-- Generator: Adobe Illustrator 22.0.1, SVG Export Plug-In . SVG Version: 6.00 Build 0)  -->
<svg version="1.1" id="Layer_1" xmlns="http://www.w3.org/2000/svg" xmlns:xlink="http://www.w3.org/1999/xlink" x="0px" y="0px"
	 viewBox="0 0 48 48" style="enable-background:new 0 0 48 48;" xml:space="preserve">
<g>
	<path d="M46.8,41c-1.2-0.2-2.4-0.3-3.7-0.3c-1.5-0.1-3,0-4.7,0c0.5-0.8,0.8-1.5,1.3-2.2c-1.5-0.2-1.6-0.3-2.5,0.8
		c-0.9,1-1.7,1.2-3,0.9c-7.6-2-13-6.6-15.3-14.1c-1.1-3.6-1.1-7.6-1.5-11.4c-0.2-1.9,0.3-2.2,2.2-1.6c0.7,0.2,1.5,0.3,2.3,0.4
		c0.1-0.2,0.1-0.4,0.2-0.6c-0.9-0.6-1.7-1.2-2.6-1.6c-1.3-0.7-2.8-1.2-4.1-1.9c-1.3-0.7-2.4-1.7-4-1.8c-0.2,0-0.6-0.3-0.6-0.5
		C10.9,5.7,9.9,6,9.2,6c-0.9,0-1.4-0.2-1.3-1.3c0.1-0.5-0.3-1-0.5-1.6c-0.5,0-1.1,0-1.6,0c-0.5,0.7-0.6,1.4,0.1,2
		C6.7,5.9,6.4,6.4,5.7,7C5.3,7.3,4.9,7.9,5,8.2c0.2,1.2-0.1,1.8-1.3,2.1c-1,0.2-1.4,0.9-0.9,1.8c-2.2,1.5-2.4,2.3-1.6,4.7
		C1.7,18,2,19.2,2.3,20.4c1,4.4,2.7,8.4,5.1,12.1c3.2,5,7.4,8.8,13.1,10.6c5.6,1.8,11.4,2,17.2,1.2c1.6-0.2,3.1-0.6,4.7-0.9
		c1.4-0.3,2.9-0.5,4.3-0.8c0.2-0.1,0.5-0.5,0.5-0.8C47.3,41.5,47,41.1,46.8,41z M12.2,9.4c-0.3,0.8-0.5,1.3-0.7,1.8
		c-1.1-0.3-2-0.5-3.3-0.9C9.7,10,10.9,9.7,12.2,9.4z M5.3,26.5c-0.5-1.2-1.1-2.3-1.6-3.5c0.1-0.1,0.2-0.2,0.3-0.3
		c0.3,0.2,0.7,0.4,0.8,0.7c0.3,0.9,0.5,1.9,0.7,2.9C5.4,26.4,5.3,26.4,5.3,26.5z M6.4,15.3c-0.4,0-1.1-0.1-1.3,0.1
		c-0.3,0.6-0.7,0.8-1.2,0.4c-0.4-0.3-0.5-0.9-0.8-1.5c-1,0.1-0.7,1.2-0.9,2c-1.1-1.4-0.5-2.2,1.5-2.6c0.9,0.5,1.5,1,2.2,1.4
		C6,15,6.1,14.9,6.2,14.8c-0.2-0.5-0.4-1-0.6-1.5c2.4-0.6,4.9-1.3,7.3-1.9c0.4-0.1,1.1-0.4,1.2,0.5c0,0.1,0.3,0.2,0.5,0.3
		c0.1-0.3,0.2-0.6,0.3-1.1c0.9,0,2,0,3,0c0.2,1.2-0.6,1.7-1.4,2c-1.1,0.4-2.3,0.7-3.5,0.8c-1.8,0.2-3.6,0.5-5.2,1.4
		C7.4,15.5,6.9,15.3,6.4,15.3z M8,32.1c2.1,2.3,4.3,4.6,6.8,7.2C11.5,37.6,9.5,35,8,32.1z M8.7,26.8c0.9,0.1,1.6,0.2,2.4,0.3
		c0.3,0.5,0.7,1.2,1.1,1.9C11,28.4,9.3,28.5,8.7,26.8z M12.9,29.9c0.2,0.8,0.2,1.3,0.4,1.8c0.2,0.5,0.6,1,1,1.7
		c-1.8-0.5-2.8-1.4-3.2-3.2C11.8,30.2,12.4,30,12.9,29.9z M13.1,35.1c0.1-0.1,0.1-0.3,0.2-0.4c0.9,0.3,1.7,0.5,2.9,0.8
		C14.7,36.2,13.9,35.7,13.1,35.1z M23.1,43.6c-1.3-0.4-2.5-0.8-3.8-1.3c0-0.2,0.1-0.3,0.1-0.5c1.4,0.1,2.5,1,3.8,1.4
		C23.2,43.3,23.2,43.4,23.1,43.6z M33.1,44.2c-1.8,0-3.6,0-5.4,0c0-0.1,0-0.2,0-0.4c1.8,0,3.6,0,5.4,0C33.1,44,33.1,44.1,33.1,44.2z
		 M30.2,40.9c-1.6-0.7-3.1-0.6-4.5,0c-0.7-0.3-1.3-0.5-1.8-0.8c-0.4-0.3-0.7-0.9-0.8-1.5c-0.6-0.1-1.2-0.2-2.1-0.4
		c0.7-0.1,1.2-0.1,1.7-0.2c-1.2-2.1-3.3-2.8-5.2-3.8c1.2-2.5-1.7-2-2.2-3.3c1-0.9,1.1-1.5,0-2.1c-0.6-0.4-1.5-0.2-2.2-0.4
		c-0.5-0.2-1-0.6-1.3-1c-0.4-0.5-0.7-1.2-1-1.9c0.2,0,0.5-0.1,1-0.3c-0.4-0.6-0.7-1-1-1.5c-0.5,0.3-0.8,0.5-1.3,0.7
		c-0.1-0.6-0.1-1-0.2-1.5c-0.1,0-0.1,0-0.2,0c-0.2,0.5-0.3,1.1-0.6,1.8c0.2,0.2,0.6,0.7,1.3,1.4c-0.6,0-1.1,0.1-1.2,0
		c-0.5-0.8-0.8-1.6-1.2-2.4C7.4,23.3,7,23,6.6,22.6c0.3-0.3,0.6-0.6,1.1-1.2c0.2,1,0.4,1.8,0.6,2.9c0.8-2.1,0.5-2.7-1.1-3.2
		c-0.3-0.1-0.7-0.4-0.6-0.5c0.2-0.4,0.4-1.1,0.7-1.2c1.9-0.3,1.5-1.4,1-2.4c1.3-0.7,2.5-1.3,3.7-1.9c0,0,0.1-0.1,0.1-0.1
		c1.5,0.1,2.5-1.2,4-1.1c0.3,0,0.9,0.5,0.9,0.8c0.1,2.4,0.2,4.8,0.3,7.3c0,0.6,0,1.2,0.1,1.8c0,0,0.2-0.1,0.5-0.3
		c0.4,2,0.9,3.9,1.4,6.3c1.8,1.2,3.1,3.6,4.7,5.8c0.8,1.1,2.2,1.7,3.4,2.5c0.7,0.5,1.4,0.8,2.1,1.2c0.5,0.3,0.9,0.6,1.4,0.7
		c1.2,0.5,2.4,0.9,3.6,1.4C32.8,42,31.4,41.5,30.2,40.9z"/>
	<path d="M17.2,23.9L17.2,23.9C17.1,23.9,17.1,23.9,17.2,23.9z"/>
	<path d="M11.6,22.3c-0.1,0.1-0.3,0.2-0.4,0.4c0.3,0.6,0.4,1.2,0.8,1.8c0.1,0.2,0.6,0.1,1,0.2c0-0.3,0.2-0.7,0.1-0.9
		C12.6,23.2,12.1,22.8,11.6,22.3z"/>
	<path d="M14.6,22.2c0.2,0.8,0.4,1.6,0.6,2.4c0.2-0.1,0.5-0.1,0.7-0.2c-0.2-0.8-0.4-1.6-0.7-2.4C15,22.1,14.8,22.1,14.6,22.2z"/>
</g>
</svg>
