<?xml version="1.0" encoding="utf-8"?>
<!-- Generator: Adobe Illustrator 22.0.1, SVG Export Plug-In . SVG Version: 6.00 Build 0)  -->
<svg version="1.1" id="Layer_1" xmlns="http://www.w3.org/2000/svg" xmlns:xlink="http://www.w3.org/1999/xlink" x="0px" y="0px"
	 viewBox="0 0 48 48" style="enable-background:new 0 0 48 48;" xml:space="preserve">
<g>
	<path d="M40.5,19.9c-1.3,0-2.4,0.7-3.1,1.6c-0.1,0.2-0.3,0.4-0.4,0.6c-0.2,0.4-0.3,0.9-0.3,1.4c0,0.3,0,0.6,0.1,1
		c0.4,1.6,1.9,2.8,3.6,2.8c0.8,0,1.5-0.2,2.1-0.7c0.7-0.5,1.2-1.2,1.4-2c0.1-0.3,0.2-0.7,0.2-1.1h0c0-1.9-1.5-3.5-3.4-3.7
		C40.7,19.9,40.6,19.9,40.5,19.9z"/>
	<path d="M28.5,19c0.9,0.8,1.5,1.8,1.8,3c1.4-0.1,2.8-0.1,4.2,0c0.3-1.1,0.9-2.1,1.7-2.8l-3.9-7.9L28.5,19z"/>
	<path d="M26.4,17.8l5.9-12l5.9,12.1c0.2-0.1,0.5-0.2,0.8-0.2L45,0H19.7l6,17.6C25.9,17.7,26.2,17.7,26.4,17.8z"/>
	<path d="M40.5,29.7c-3.1,0-5.7-2.3-6.1-5.3c-1.3,0-2.6,0-3.9,0c-0.4,3-3,5.3-6.1,5.3c-0.3,0-0.6,0-0.9-0.1c-1,1.6-2.2,3-3.6,4.4
		c-2.2,2.1-4.6,3.6-7.3,4.5l-0.5,0.2l-0.5-0.2c-3.4-1.7-5-5.4-4-8.8c-0.5-0.1-1.1-0.2-1.6-0.4C6,29.7,5.8,30,5.6,30.4
		c-1,2.1-2,4.2-2.4,6.5c-0.4,2.5-0.6,7.1,3,9.5c4.9,3.4,10,0.8,16-2.2c3-1.5,6.1-3,9.2-3.8c1.2-0.3,2.4-0.5,3.6-0.6
		c2.2-0.3,4.3-0.6,6.1-1.6c1.9-1.1,3.2-2.9,3.5-5c0.3-1.6,0-3.2-0.7-4.6C43,29.3,41.8,29.7,40.5,29.7z"/>
	<path d="M7.1,27.1c0.4,0.2,0.8,0.2,1.3,0.2c0.1,0,0.2,0,0.3,0c1.2-0.1,2.3-0.7,2.9-1.7c0.4-0.6,0.6-1.3,0.6-2c0-2-1.7-3.7-3.7-3.7
		s-3.7,1.7-3.7,3.7c0,0.6,0.2,1.3,0.5,1.8C5.6,26.2,6.3,26.8,7.1,27.1z"/>
	<path d="M24.5,19.9c-0.2,0-0.4,0-0.6,0c-1.8,0.3-3.2,1.8-3.2,3.7c0,1.3,0.7,2.5,1.7,3.1c0.6,0.4,1.3,0.6,2,0.6c0.1,0,0.3,0,0.4,0
		c1.6-0.2,2.9-1.3,3.2-2.8c0.1-0.3,0.1-0.6,0.1-0.9c0-0.5-0.1-1.1-0.3-1.6c-0.1-0.3-0.3-0.5-0.4-0.7C26.7,20.4,25.6,19.9,24.5,19.9z
		"/>
</g>
</svg>
