<?xml version="1.0" encoding="utf-8"?>
<svg version="1.1" id="Layer_1" xmlns="http://www.w3.org/2000/svg" xmlns:xlink="http://www.w3.org/1999/xlink" x="0px" y="0px"
	 viewBox="0 0 32 32" style="enable-background:new 0 0 32 32;" xml:space="preserve">
<path d="M5.1,11h4.8v14.4H5.1V11z M9.5,4.6C9,4.2,8.4,3.9,7.6,3.9S6.1,4.2,5.7,4.6C5.1,5.1,4.9,5.8,4.9,6.4s0.2,1.3,0.7,1.8
	C6,8.7,6.7,9,7.5,9l0,0c0.8,0,1.4-0.2,1.9-0.7c0.4-0.4,0.7-1,0.7-1.7C10.2,5.8,10,5.1,9.5,4.6z M25.5,12.3c-1-1.1-2.4-1.7-4-1.7
	c-1.8,0-3.3,0.8-4.2,2.4l0,0l0,0l0,0v-2h-4.8c0,0.4,0,1.9,0,4.2s0,5.8,0,10.2h4.8v-8.1c0-0.4,0.1-0.9,0.2-1.1
	c0.2-0.4,0.4-0.9,0.9-1.3c0.4-0.3,0.9-0.6,1.6-0.6c1.6,0,2.4,1.1,2.4,3.3v7.9h4.7v-8.3C27.1,15,26.5,13.4,25.5,12.3z"/>
</svg>
