<?xml version="1.0" encoding="utf-8"?>
<!-- Generator: Adobe Illustrator 22.0.1, SVG Export Plug-In . SVG Version: 6.00 Build 0)  -->
<svg version="1.1" id="Layer_1" xmlns="http://www.w3.org/2000/svg" xmlns:xlink="http://www.w3.org/1999/xlink" x="0px" y="0px"
	 viewBox="0 0 48 48" style="enable-background:new 0 0 48 48;" xml:space="preserve">
<g>
	<rect width="12.5" height="12.5"/>
	<path d="M35.5,30.2H48V17.8H35.5V30.2z M37.5,19.8H46v8.5h-8.5V19.8z"/>
	<path d="M35.5,48H48V35.5H35.5V48z M37.5,37.5H46V46h-8.5V37.5z"/>
	<path d="M17.8,30.2h12.5V17.8H17.8V30.2z M19.8,19.8h8.5v8.5h-8.5V19.8z"/>
	<rect y="17.8" width="3.5" height="3.5"/>
	<rect y="26.7" width="3.5" height="3.5"/>
	<rect x="9" y="17.8" width="3.5" height="3.5"/>
	<rect x="9" y="26.7" width="3.5" height="3.5"/>
	<rect x="17.8" y="35.5" width="3.5" height="3.5"/>
	<rect x="17.8" y="44.5" width="3.5" height="3.5"/>
	<rect x="26.7" y="35.5" width="3.5" height="3.5"/>
	<rect x="26.7" y="44.5" width="3.5" height="3.5"/>
	<rect y="35.5" width="12.5" height="12.5"/>
	<rect x="17.8" width="12.5" height="12.5"/>
	<rect x="35.5" width="12.5" height="12.5"/>
</g>
</svg>
