<?xml version="1.0" encoding="utf-8"?>
<!-- Generator: Adobe Illustrator 22.0.1, SVG Export Plug-In . SVG Version: 6.00 Build 0)  -->
<svg version="1.1" id="Layer_1" xmlns="http://www.w3.org/2000/svg" xmlns:xlink="http://www.w3.org/1999/xlink" x="0px" y="0px"
	 viewBox="0 0 48 48" style="enable-background:new 0 0 48 48;" xml:space="preserve">
<g>
	<path d="M21.1,14.9c0,0,3.3-1.9,1.2-5.5c-1.2-1.8-1.8-3.5-1.2-4c-1.2,1.5-3.2,3-1,6.5C20.8,12.5,21.1,14.3,21.1,14.9z"/>
	<path d="M26.6,14.5c0,0,5-2.9,1.9-8.2c-1.8-2.8-2.6-5.1-1.9-6.1c-1.8,2.2-4.8,4.6-1.5,9.5C26.2,11,26.8,13.6,26.6,14.5z"/>
	<path d="M37,17.2H11c-0.7,0-1.4,0.6-1.4,1.4c0,4.7,0.7,20.9,7.6,28.8c0.3,0.3,0.6,0.4,1,0.4h11.6c0.4,0,0.7-0.1,1-0.4
		c6.9-7.7,7.6-23.9,7.6-28.8C38.4,17.9,37.8,17.2,37,17.2z M29.3,43.4c-0.4,0.3-0.7,0.4-1.1,0.4H20c-0.4,0-0.7-0.1-1-0.4
		c-4.7-5.5-5.3-16.6-5.4-20.5c0-0.7,0.6-1.4,1.4-1.4h18.3c0.7,0,1.4,0.6,1.4,1.4C34.7,26.8,34,37.7,29.3,43.4z"/>
	<path d="M29,33.4C24.4,35.1,16.4,34,16.4,34c0.7,2.9,1.8,5.7,3.5,7.7c0.1,0.3,0.6,0.4,0.8,0.4h6.9c0.3,0,0.6-0.1,0.8-0.4
		c2.4-2.8,3.5-7.1,4-10.8C32.4,30.9,32.3,32.2,29,33.4z"/>
</g>
</svg>
