<?xml version="1.0" encoding="utf-8"?>
<!-- Generator: Adobe Illustrator 22.0.1, SVG Export Plug-In . SVG Version: 6.00 Build 0)  -->
<svg version="1.1" id="Layer_1" xmlns="http://www.w3.org/2000/svg" xmlns:xlink="http://www.w3.org/1999/xlink" x="0px" y="0px"
	 viewBox="0 0 48 48" style="enable-background:new 0 0 48 48;" xml:space="preserve">
<path d="M47.8,20.5c-1.3-9-7.7-16.6-16.4-19.4c-1.5-0.5-3.2-0.8-5-1C25.9,0,22.8,0,22.4,0c-0.1,0-0.4,0-0.7,0.1
	C14.9,0.7,8.5,4.4,4.5,10c-2.2,3.1-3.7,6.7-4.2,10.5C0,21.8,0,22.2,0,24s0,2.2,0.2,3.5c1.3,9,7.7,16.6,16.4,19.4
	c1.6,0.5,3.2,0.8,5.1,1c0.7,0.1,3.9,0.1,4.6,0c3.2-0.4,5.9-1.2,8.6-2.5c0.4-0.2,0.5-0.3,0.4-0.3c0,0-1.8-2.4-3.9-5.2l-3.8-5.2
	l-4.8-7.1c-2.6-3.9-4.8-7.1-4.8-7.1c0,0,0,3.2,0,7c0,6.8,0,7-0.1,7.2c-0.1,0.2-0.2,0.3-0.4,0.4c-0.1,0.1-0.3,0.1-1,0.1h-0.8L15.4,35
	c-0.1-0.1-0.2-0.2-0.3-0.3L15,34.5l0-9.4l0-9.4l0.1-0.2c0.1-0.1,0.2-0.2,0.3-0.3c0.2-0.1,0.3-0.1,1.1-0.1c1,0,1.1,0,1.4,0.3
	c0.1,0.1,2.7,4,5.8,8.7c3.1,4.7,7.4,11.2,9.5,14.3l3.8,5.8l0.2-0.1c1.7-1.1,3.5-2.7,4.9-4.3c3-3.5,5-7.7,5.6-12.3
	C48,26.2,48,25.8,48,24S48,21.8,47.8,20.5z M32.8,23.7l0,8.4l-1.5-2.3l-1.5-2.3v-6.1c0-4,0-6.2,0-6.3c0.1-0.3,0.2-0.5,0.5-0.6
	c0.2-0.1,0.3-0.1,1-0.1c0.7,0,0.8,0,1,0.1c0.2,0.1,0.4,0.3,0.5,0.6C32.8,15.2,32.8,17.8,32.8,23.7z"/>
</svg>
