<?xml version="1.0" encoding="utf-8"?>
<svg version="1.1" id="Layer_1" xmlns="http://www.w3.org/2000/svg" xmlns:xlink="http://www.w3.org/1999/xlink" x="0px" y="0px"
	 viewBox="0 0 32 32" style="enable-background:new 0 0 32 32;" xml:space="preserve">
<g>
	<path d="M27.5,21.1c0,0.3-0.1,0.6-0.2,1.1c-0.1,0.5-0.2,0.8-0.3,1c-0.2,0.5-0.8,1-1.8,1.6c-0.9,0.5-1.8,0.8-2.8,0.8
		c-0.3,0-0.5,0-0.8-0.1c-0.2,0-0.5-0.1-0.8-0.2c-0.3-0.1-0.5-0.2-0.7-0.2c-0.2-0.1-0.5-0.2-0.8-0.3c-0.4-0.2-0.6-0.2-0.8-0.3
		c-1-0.4-1.8-0.8-2.6-1.2c-1.3-0.8-2.6-1.8-4-3.2s-2.4-2.7-3.2-4c-0.5-0.8-0.9-1.7-1.2-2.6c0-0.1-0.2-0.3-0.3-0.8
		C7.1,12.3,7,12,7,11.9c-0.1-0.2-0.2-0.4-0.2-0.7c-0.1-0.3-0.2-0.6-0.2-0.8S6.5,9.8,6.5,9.6c0-0.9,0.2-1.8,0.8-2.8S8.3,5.2,8.9,5
		c0.2-0.2,0.5-0.2,1-0.3s0.8-0.2,1.1-0.2c0.2,0,0.2,0,0.3,0.1C11.4,4.7,11.7,5,12,5.7c0.2,0.2,0.3,0.4,0.5,0.8
		c0.2,0.4,0.4,0.7,0.5,0.9c0.2,0.3,0.3,0.5,0.5,0.8c0,0.1,0.2,0.2,0.2,0.4C13.8,8.8,13.9,9,14,9.1S14,9.4,14,9.6
		c0,0.2-0.2,0.5-0.5,0.8c-0.3,0.3-0.6,0.6-0.9,0.8c-0.3,0.2-0.6,0.5-0.9,0.8c-0.3,0.3-0.5,0.5-0.5,0.7c0,0.1,0,0.2,0.1,0.3
		c0.1,0.2,0.1,0.2,0.2,0.3c0,0.1,0.1,0.2,0.2,0.4s0.2,0.2,0.2,0.3c0.8,1.4,1.6,2.5,2.6,3.5s2.1,1.8,3.5,2.6c0,0,0.2,0.1,0.3,0.2
		c0.2,0.1,0.3,0.2,0.4,0.2c0.1,0,0.2,0.1,0.3,0.2c0.2,0.1,0.2,0.1,0.3,0.1c0.2,0,0.4-0.2,0.7-0.5c0.3-0.3,0.5-0.6,0.8-0.9
		c0.2-0.3,0.5-0.6,0.8-0.9c0.3-0.3,0.5-0.5,0.8-0.5c0.2,0,0.3,0,0.5,0.1c0.2,0.1,0.3,0.2,0.5,0.3c0.2,0.2,0.3,0.2,0.4,0.2
		c0.2,0.2,0.5,0.3,0.8,0.5c0.3,0.2,0.6,0.3,0.9,0.5c0.4,0.2,0.6,0.3,0.8,0.5c0.7,0.4,1.1,0.6,1.1,0.8C27.5,20.9,27.5,20.9,27.5,21.1
		z"/>
</g>
</svg>
