<?xml version="1.0" encoding="utf-8"?>
<!-- Generator: Adobe Illustrator 22.0.1, SVG Export Plug-In . SVG Version: 6.00 Build 0)  -->
<svg version="1.1" id="Layer_1" xmlns="http://www.w3.org/2000/svg" xmlns:xlink="http://www.w3.org/1999/xlink" x="0px" y="0px"
	 viewBox="0 0 48 48" style="enable-background:new 0 0 48 48;" xml:space="preserve">
<path d="M33.3,31.8c1.8-0.2,3.1-1.7,3.1-3.5c-0.1-1.8-1.6-3.3-3.4-3.3h-0.1c-1.9,0.1-3.4,1.6-3.3,3.5c0.1,0.9,0.4,1.7,1,2.3
	c-2.1,4.1-5.3,7.1-10,9.6c-3.2,1.7-6.6,2.3-10,1.9c-2.7-0.4-4.9-1.6-6.2-3.6c-2-3-2.1-6.2-0.5-9.5c1.2-2.3,3-4,4.2-4.9
	c-0.2-0.8-0.6-2.1-0.8-3.1c-8.9,6.4-7.9,15.1-5.3,19.2c2,3.1,6.1,4.9,10.6,4.9c1.2,0,2.4-0.1,3.7-0.4C24,43.4,29.9,38.7,33.3,31.8
	L33.3,31.8z M44,24.3c-4.6-5.4-11.5-8.4-19.3-8.4h-1c-0.5-1.1-1.7-1.8-3-1.8h-0.1c-1.9,0.1-3.4,1.6-3.3,3.5c0.1,1.8,1.6,3.3,3.4,3.3
	h0.1c1.3-0.1,2.5-0.9,3-2.1H25c4.6,0,9,1.3,13,4c3.1,2,5.3,4.6,6.5,7.8c1,2.6,1,5.1-0.1,7.2c-1.7,3.2-4.6,5-8.4,5
	c-2.4,0-4.8-0.7-6-1.3c-0.7,0.6-1.9,1.6-2.7,2.2c2.6,1.2,5.3,1.9,7.9,1.9c5.9,0,10.2-3.2,11.8-6.5C48.7,35.6,48.6,29.4,44,24.3
	L44,24.3z M13,32.9c0.1,1.8,1.6,3.3,3.4,3.3h0.1c1.9-0.1,3.4-1.6,3.3-3.5c-0.1-1.8-1.6-3.3-3.4-3.3h-0.1c-0.1,0-0.3,0-0.4,0.1
	c-2.5-4.2-3.5-8.7-3.2-13.6c0.2-3.7,1.5-6.8,3.6-9.5C18,4.1,21.5,3,23.8,2.9c6.5-0.1,9.2,7.9,9.4,11.2c0.8,0.2,2.1,0.6,3.1,0.9
	C35.5,5.1,29.4,0,23.5,0C18,0,13,4,11,9.8c-2.8,7.8-1,15.3,2.4,21.3C13.1,31.5,12.9,32.2,13,32.9L13,32.9z"/>
</svg>
