<?xml version="1.0" encoding="utf-8"?>
<!-- Generator: Adobe Illustrator 22.0.1, SVG Export Plug-In . SVG Version: 6.00 Build 0)  -->
<svg version="1.1" id="Layer_1" xmlns="http://www.w3.org/2000/svg" xmlns:xlink="http://www.w3.org/1999/xlink" x="0px" y="0px"
	 viewBox="0 0 48 48" style="enable-background:new 0 0 48 48;" xml:space="preserve">
<g>
	<path d="M28.9,27.3c-1.7,0-2.9,1.1-3.1,2.8h6.2C31.8,28.4,30.6,27.3,28.9,27.3z"/>
	<path d="M45.3,4.3l-3.2-3L40.7,0l-1.3,1.4l-2.1,2.3h-7.5c0,0,0,0-0.1,0c0,0,0,0,0,0H9c-2.6,0-4.7,2.1-4.7,4.7v30.2
		c0,2.6,2.1,4.7,4.7,4.7h30.2c2.6,0,4.7-2.1,4.7-4.7V8.6L45.4,7l1.3-1.4L45.3,4.3z M14.1,37.6c-3.5,0-5.9-1.9-6.1-4.7h2.4
		c0.3,1.5,1.7,2.5,3.9,2.5c2,0,3.4-1,3.4-2.5c0-1.3-0.9-2-3-2.5l-2.1-0.5c-2.8-0.7-4.2-2.2-4.2-4.5c0-2.8,2.3-4.7,5.8-4.7
		c3.3,0,5.7,1.9,5.7,4.6h-2.4c-0.3-1.5-1.5-2.4-3.4-2.4c-2,0-3.3,0.9-3.3,2.4c0,1.2,0.9,1.8,2.9,2.3l1.8,0.4
		c3.3,0.8,4.6,2.1,4.6,4.6C20.3,35.7,17.9,37.6,14.1,37.6z M34.4,32h-8.8v0.1c0.1,2,1.4,3.5,3.4,3.5c1.4,0,2.5-0.5,2.9-1.4h2.4
		c-0.5,2.2-2.6,3.4-5.4,3.4c-3.5,0-5.7-2.3-5.7-6.1c0-3.8,2.2-6.2,5.7-6.2c3.4,0,5.6,2.3,5.6,5.9V32z M28.5,22.5l-10.1-9.6l3-3.2
		l6.9,6.4L40.8,2.7l3.2,3L28.5,22.5z"/>
</g>
</svg>
