<?xml version="1.0" encoding="utf-8"?>
<!-- Generator: Adobe Illustrator 22.0.1, SVG Export Plug-In . SVG Version: 6.00 Build 0)  -->
<svg version="1.1" id="Layer_1" xmlns="http://www.w3.org/2000/svg" xmlns:xlink="http://www.w3.org/1999/xlink" x="0px" y="0px"
	 viewBox="0 0 48 48" style="enable-background:new 0 0 48 48;" xml:space="preserve">
<path d="M48,16.5c0-0.2,0-0.4-0.1-0.5c0-0.1-0.1-0.1-0.1-0.2c0-0.1-0.1-0.2-0.2-0.3l-10.5-12c0,0,0,0,0,0C37,3.4,37,3.4,36.9,3.3
	c-0.1-0.1-0.2-0.1-0.3-0.2c-0.1,0-0.1,0-0.2-0.1c-0.1,0-0.1-0.1-0.2-0.1l-12-1.5c-0.1,0-0.2,0-0.3,0L8.9,3c0,0-0.1,0-0.1,0
	c0,0-0.1,0-0.1,0c-0.1,0-0.2,0.1-0.3,0.1c-0.1,0-0.1,0.1-0.2,0.1C8,3.4,7.9,3.5,7.8,3.6c0,0,0,0-0.1,0.1l-7.5,12c0,0,0,0.1,0,0.1
	C0.1,16,0,16.2,0,16.5c0,0,0,0,0,0.1c0,0,0,0.1,0,0.1c0,0.2,0.1,0.5,0.3,0.7c0,0,0,0.1,0,0.1l22.5,28.5c0,0,0,0,0.1,0
	c0.1,0.1,0.2,0.1,0.2,0.2c0,0,0.1,0.1,0.1,0.1c0,0,0.1,0.1,0.1,0.1c0,0,0,0,0,0c0.2,0.1,0.4,0.1,0.6,0.1s0.4,0,0.6-0.1c0,0,0,0,0,0
	c0,0,0.1-0.1,0.1-0.1c0.1,0,0.1-0.1,0.1-0.1c0.1-0.1,0.2-0.1,0.2-0.2c0,0,0,0,0.1,0l22.5-28.5c0.1-0.1,0.1-0.1,0.1-0.2
	c0-0.1,0.1-0.1,0.1-0.2c0.1-0.1,0.1-0.3,0.1-0.4C48,16.6,48,16.5,48,16.5C48,16.5,48,16.5,48,16.5z M37.5,8.5l5.7,6.5h-5.7V8.5z
	 M34.5,5.8v6.7L27.8,5L34.5,5.8z M24,5.3l8.7,9.7H15.3L24,5.3z M20.3,4.9l-7.6,8.5l-1.9-7.6L20.3,4.9z M8.4,8.3l1.7,6.7H4.2L8.4,8.3
	z M4.6,18H11l7.3,17.4L4.6,18z M24,41.1L14.3,18h19.5L24,41.1z M29.7,35.4L37,18h6.4L29.7,35.4z"/>
</svg>
