<?xml version="1.0" encoding="utf-8"?>
<!-- Generator: Adobe Illustrator 22.0.1, SVG Export Plug-In . SVG Version: 6.00 Build 0)  -->
<svg version="1.1" id="Layer_1" xmlns="http://www.w3.org/2000/svg" xmlns:xlink="http://www.w3.org/1999/xlink" x="0px" y="0px"
	 viewBox="0 0 1417.3 1417.3" style="enable-background:new 0 0 1417.3 1417.3;" xml:space="preserve">
<style type="text/css">
	.st0{fill:#08B795;}
	.st1{fill:#E55730;}
	.st2{fill:#EF7048;}
	.st3{fill:#FFFFFF;}
</style>
<rect x="1" y="0.4" class="st0" width="1417.3" height="1417.3"/>
<g>
	<g>
		<polygon class="st1" points="708.6,197.3 168.1,197.3 255.9,1075.4 708.6,1220 1161.4,1075.4 1249.2,197.3 		"/>
		<polygon class="st2" points="708.7,197.3 708.7,1220 1161.4,1075.4 1249.2,197.3 		"/>
	</g>
	<path class="st3" d="M1180.8,259.3l-76.9,769.4l-395.2,126.2l-395.2-126.2l-76.9-769.4h472.1H1180.8 M1249.2,197.3H708.7H168.1
		l87.8,878L708.7,1220l452.8-144.6L1249.2,197.3L1249.2,197.3z"/>
	<g>
		<g>
			<polygon class="st3" points="582.1,624.4 466.8,624.4 466.8,509.1 582.1,509.1 582.1,451.4 409.1,451.4 409.1,682.1 582.1,682.1 
							"/>
			<polygon class="st3" points="795.2,624.4 697.2,509.1 795.2,509.1 795.2,451.4 622.1,451.4 622.1,509.1 720.1,624.4 622.1,624.4 
				622.1,682.1 795.2,682.1 			"/>
			<polygon class="st3" points="1008.2,624.4 910.2,509.1 1008.2,509.1 1008.2,451.4 835.2,451.4 835.2,509.1 933.2,624.4 
				835.2,624.4 835.2,682.1 1008.2,682.1 			"/>
		</g>
		<polygon class="st3" points="795.2,908.2 697.2,792.9 795.2,792.9 795.2,735.2 622.1,735.2 622.1,792.9 720.1,908.2 622.1,908.2 
			622.1,965.9 795.2,965.9 		"/>
	</g>
</g>
</svg>
