<?xml version="1.0" encoding="utf-8"?>
<!-- Generator: Adobe Illustrator 22.0.1, SVG Export Plug-In . SVG Version: 6.00 Build 0)  -->
<svg version="1.1" id="Layer_1" xmlns="http://www.w3.org/2000/svg" xmlns:xlink="http://www.w3.org/1999/xlink" x="0px" y="0px"
	 viewBox="0 0 1417.3 1417.3" style="enable-background:new 0 0 1417.3 1417.3;" xml:space="preserve">
<style type="text/css">
	.st0{fill:#4A4066;}
	.st1{fill:#AAB7CE;}
	.st2{fill:#869AB7;}
	.st3{fill:#BDC9E0;}
	.st4{fill:#A6B6D1;}
	.st5{fill:#D8E1F4;}
</style>
<rect x="0" class="st0" width="1417.3" height="1417.7"/>
<g>
	<path class="st1" d="M859.9,506.2h192.8c31.1,0,57.4,3.5,79.1,11.4c21.6,7.9,39.7,18.5,53.1,32.3c24,23.2,36.6,54.3,36.6,94v1.2
		c0,31.1-8.3,57-23.2,77.5c-14.9,20.5-35.4,36.6-61,47.2l96,141.2h-129.4l-81.4-122h-1.2h-47.6v122H859.5V506.2H859.9z
		 M1047.6,698.6c19.3,0,34.2-3.9,44.5-12.6c10.2-8.7,15.7-19.7,15.7-34.6v-1.2c0-16.1-5.5-27.1-16.1-35c-10.6-7.9-25.6-11-44.5-11
		h-72.8v94.4H1047.6z"/>
	<g>
		<path class="st2" d="M859.9,700.4v196.3c15.7-4.3,24-10.2,33.4-17.3c26.8-19.7,40.9-46.8,40.9-81.8v-1.2
			c0-27.1-8.3-48.4-22.8-63.7C898.9,718.9,883.5,708.3,859.9,700.4z"/>
		<path class="st2" d="M896.9,664.2c11.8-14.6,18.1-33.4,18.1-57V606c0-13.8-2-26.4-6.7-37c-4.7-10.6-11.4-20.1-19.7-28.3
			c-7.9-7.9-16.9-14.6-28.7-20.1v172.7C875.7,686.6,887.1,676.8,896.9,664.2z"/>
	</g>
	<path class="st3" d="M533.8,506.2h206.5c25.2,0,47.2,2.8,65.3,9c18.1,6.3,33,14.9,44.8,27.1c8.3,8.3,14.2,17.3,18.5,28.3
		c4.7,10.6,6.7,23.2,6.7,37v0.8c0,23.6-5.5,42.5-17.3,57s-26.4,25.6-44.5,33c24.8,8.3,44.5,19.7,59,35c14.6,15.3,22,36.6,22,63.7
		v1.2c0,35-13.8,62.9-40.1,82.6c-26.8,19.7-64.5,29.9-112.9,29.9H533.8V506.2z M713.2,667.1c17.3,0,30.3-3.1,39.3-9
		c9-5.9,13.4-14.9,13.4-26.8v-1.2c0-11-3.9-19.3-12.6-25.2c-8.7-5.9-20.9-8.7-37.8-8.7h-71.6v70.8H713.2z M729.3,820.6
		c17.3,0,29.9-3.5,38.9-9.8c9-6.3,13-15.7,13-27.9v-1.2c0-11-3.5-19.7-12.6-26.4s-22-9.4-40.9-9.4h-84.2v74.7
		C643.5,820.6,729.3,820.6,729.3,820.6z"/>
	<path class="st4" d="M596.7,789.7c10.2-24.8,15.7-51.9,15.7-81v-1.2c0-29.1-5.1-56.3-15.3-80.6c-10.2-24.4-24.8-45.6-44.5-63.3
		c-5.9-5.5-11-10.6-18.9-14.9v320.2c7.9-4.7,12.6-9.4,18.1-14.6C571.5,836.1,586.5,814.9,596.7,789.7z"/>
	<path class="st5" d="M184,506h157c36.2,0,68.5,4.7,96.8,14.6c28.3,9.8,52.3,23.6,71.6,41.3c19.3,17.7,34.2,38.6,44.5,63.3
		c10.2,24.4,15.3,51.1,15.3,80.6v1.2c0,29.1-5.1,56.3-15.7,81c-10.2,24.8-25.6,46.4-44.8,64.5c-19.7,18.1-43.7,32.7-72.4,42.9
		c-28.7,10.2-61,15.7-97.2,15.7H184V506z M343,808.6c33.4,0,61-7.9,81.4-25.6c20.5-17.7,30.7-42.1,30.7-74.7v-1.2
		c0-32.3-10.2-57.8-30.7-75.5c-20.5-17.7-47.6-27.1-81.4-27.1h-44.8v204.2H343z"/>
</g>
</svg>
