<?xml version="1.0" encoding="utf-8"?>
<!-- Generator: Adobe Illustrator 27.8.1, SVG Export Plug-In . SVG Version: 6.00 Build 0)  -->
<svg version="1.1" id="Layer_1" xmlns="http://www.w3.org/2000/svg" xmlns:xlink="http://www.w3.org/1999/xlink" x="0px" y="0px"
	 viewBox="0 0 1417.3 1417.3" style="enable-background:new 0 0 1417.3 1417.3;" xml:space="preserve">
<style type="text/css">
	.st0{fill:#1E1C26;}
	.st1{opacity:0.7;fill:#FFFFFF;enable-background:new    ;}
	.st2{opacity:0.3;fill:#FFFFFF;enable-background:new    ;}
	.st3{fill:#FFFFFF;}
	.st4{opacity:0.5;fill:#FFFFFF;enable-background:new    ;}
</style>
<rect y="0.4" class="st0" width="1417.3" height="1417.3"/>
<g>
	<path class="st1" d="M314.4,432.7c-27.4,5-43.8,32.4-35.2,58.7l51,153.5l35.2,104.2c12.2,36.9,62.1,42.1,81.7,8.9l180.4-304.8
		c19.7-33.5-8.9-74-46.6-67.3L501.4,400L314.4,432.7z"/>
	<path class="st2" d="M762.7,339.6l101.4,18c50.4,8.9,74.5-59.3,29.6-84l-101.4-56.5c-30.2-16.3-66.8,5.5-66.8,39.9v38
		C725.6,317.1,741.3,335.7,762.7,339.6z"/>
	<path class="st1" d="M1104.3,433.2l-266-47.1c-38-6.7-66.2,34.6-46.6,67.3L972.7,758c19.7,33.5,69.5,28,81.7-8.9l85.1-257.1
		C1147.6,465.6,1131.2,437.7,1104.3,433.2z"/>
	<path class="st1" d="M894.3,898.7H525.5c-38.5,0-59.3,44.9-34.6,74.5l184.8,217.2c18,21.3,51,21.3,69,0l184.8-217.2
		C954.1,943.6,933.4,898.7,894.3,898.7z"/>
	<path class="st3" d="M670.1,444.3L460.7,797.9c-17.5,30.2,3.9,67.9,38.8,67.9H919c35.2,0,57.1-38.5,38.8-68.4l-210-353
		C730.5,414.7,687.6,414.7,670.1,444.3z"/>
	<path class="st4" d="M1004,935.6l-84,98.6c-33,38.5,13,93.7,57.1,68.4l123.3-70.7c28.5-16.3,30.8-57.6,3.3-76.2l-39.3-27.4
		C1045,914.2,1019,917.8,1004,935.6z"/>
	<path class="st4" d="M355.4,927.8l-39.9,28c-27.4,19.1-25.2,59.9,3.3,76.2l125,71.8c43.8,25.2,89.8-29.6,57.1-68.4l-85.1-99.8
		C401.1,917.8,374.8,914.2,355.4,927.8z"/>
	<path class="st4" d="M692.6,295.2v-38c0-34.6-36.9-56.5-66.8-39.9l-101.4,56c-44.9,24.7-20.8,93.1,29.6,84l101.4-18
		C677.3,335.7,692.6,317.1,692.6,295.2z"/>
	<path class="st2" d="M1074.7,894.9l31.3,21.9c30.2,20.8,70.7-0.6,70.7-37.4V762.1c0-51.5-71.8-63.2-88.4-14.1l-31.3,95.3
		C1051.1,863,1058.3,884,1074.7,894.9z"/>
	<path class="st2" d="M362,843.9l-33-98.6c-16.3-48.8-88.4-36.9-88.4,14.1V881c0,36.9,41,58.2,70.7,37.4l33-23
		C361.5,884,368.7,863,362,843.9z"/>
</g>
</svg>
