<?xml version="1.0" encoding="utf-8"?>
<!-- Generator: Adobe Illustrator 22.0.1, SVG Export Plug-In . SVG Version: 6.00 Build 0)  -->
<svg version="1.1" id="Layer_1" xmlns="http://www.w3.org/2000/svg" xmlns:xlink="http://www.w3.org/1999/xlink" x="0px" y="0px"
	 viewBox="0 0 1417.3 1417.3" style="enable-background:new 0 0 1417.3 1417.3;" xml:space="preserve">
<style type="text/css">
	.st0{fill:#FF3377;}
	.st1{fill:#21FFC9;}
	.st2{fill:#FFFFFF;}
</style>
<rect x="0" width="1417.3" height="1417.7"/>
<g>
	<rect x="275.1" y="286.3" class="st0" width="179.1" height="179.1"/>
	<rect x="963.1" y="619.3" class="st1" width="179.1" height="179.1"/>
	<rect x="963.1" y="952.3" class="st2" width="179.1" height="179.1"/>
	<ellipse class="st2" cx="364.6" cy="708.9" rx="90.1" ry="90.1"/>
	<ellipse class="st1" cx="707.6" cy="375.9" rx="90.1" ry="90.1"/>
	<ellipse class="st0" cx="707.6" cy="1041.8" rx="90.1" ry="90.1"/>
	<polygon class="st1" points="364.6,1132.9 259.4,1132.9 312,1041.8 364.6,950.7 417.2,1041.8 469.8,1132.9 	"/>
	<polygon class="st2" points="707.6,800 602.4,800 655,708.9 707.6,617.7 760.2,708.9 812.8,800 	"/>
	<polygon class="st0" points="1052.7,467 947.5,467 1000.1,375.9 1052.7,284.8 1105.3,375.9 1157.9,467 	"/>
</g>
</svg>
