<?xml version="1.0" encoding="utf-8"?>
<!-- Generator: Adobe Illustrator 22.0.1, SVG Export Plug-In . SVG Version: 6.00 Build 0)  -->
<svg version="1.1" id="Layer_1" xmlns="http://www.w3.org/2000/svg" xmlns:xlink="http://www.w3.org/1999/xlink" x="0px" y="0px"
	 viewBox="0 0 1417.3 1417.3" style="enable-background:new 0 0 1417.3 1417.3;" xml:space="preserve">
<style type="text/css">
	.st0{fill:#05A9AD;}
	.st1{fill:#FFFFFF;}
</style>
<rect x="1" y="0.4" class="st0" width="1417.3" height="1417.3"/>
<g>
	<path class="st1" d="M676.3,365.2h16V397c0,9.1,7.3,16.4,16.4,16.4s16.4-7.3,16.4-16.4v-31.7h16c9.1,0,16.4-7.3,16.4-16.4v-83.1
		c0-9.1-7.3-16.4-16.4-16.4h-64.8c-9.1,0-16.4,7.3-16.4,16.4v83.1C659.8,357.9,667.2,365.2,676.3,365.2z M692.7,282.1h32v50.3h-32
		V282.1z"/>
	<path class="st1" d="M1038.1,1143.9L912.9,906.4c27.9-16.2,54-35.9,77.8-58.8c27.4-26.3,28.2-70.1,1.9-97.4
		c-26.3-27.4-70-28.2-97.4-1.9c-14.4,13.8-30.1,25.6-46.8,35.8L779.2,653c30.7-22,50.8-58,50.8-98.6c0-66.9-54.5-121.4-121.4-121.4
		s-121.4,54.5-121.4,121.4c0,40.6,20.1,76.5,50.8,98.6l-69.2,131.1c-16.7-10.2-32.4-22-46.8-35.8c-27.4-26.3-71.1-25.5-97.4,1.9
		s-25.5,71.1,1.9,97.4c23.8,22.9,49.9,42.6,77.8,58.8L379,1143.9c-4.2,8-1.2,17.9,6.9,22.2c2.4,1.3,5.1,1.9,7.6,1.9
		c5.9,0,11.6-3.2,14.5-8.8l125.3-237.5c54.1,25.8,113.7,39.6,175.2,39.6s121.1-13.7,175.2-39.6l125.3,237.5
		c2.9,5.6,8.6,8.8,14.5,8.8c2.6,0,5.2-0.6,7.6-1.9C1039.3,1161.9,1042.4,1151.9,1038.1,1143.9z M620.1,554.5
		c0-48.8,39.7-88.6,88.6-88.6s88.6,39.7,88.6,88.6c0,48.9-39.8,88.5-88.6,88.5S620.1,603.3,620.1,554.5z M667.1,668.4
		c13,4.8,26.9,7.5,41.5,7.5s28.6-2.7,41.5-7.5l69.1,131.1c-34.4,15.6-71.9,24-110.7,24s-76.3-8.5-110.7-24L667.1,668.4z M449.4,824
		c-14.3-13.8-14.8-36.7-1-51c7.1-7.3,16.5-11,26-11c9,0,18,3.3,25,10.1c20.5,19.8,43.5,36.2,68.1,49.2c0.1,0.1,0.2,0.2,0.3,0.2
		c0.1,0.1,0.2,0.1,0.3,0.1c42.9,22.6,90.9,34.7,140.5,34.7c49.7,0,97.7-12.1,140.6-34.7c0.1,0,0.2-0.1,0.2-0.1
		c0.1,0,0.1-0.1,0.2-0.2c24.6-13,47.6-29.5,68.2-49.3c14.4-13.8,37.3-13.3,51,1c13.8,14.3,13.3,37.2-1,51
		c-70,67.3-162.1,104.5-259.3,104.5S519.4,891.4,449.4,824z"/>
</g>
</svg>
