<?xml version="1.0" encoding="utf-8"?>
<!-- Generator: Adobe Illustrator 22.0.1, SVG Export Plug-In . SVG Version: 6.00 Build 0)  -->
<svg version="1.1" id="Layer_1" xmlns="http://www.w3.org/2000/svg" xmlns:xlink="http://www.w3.org/1999/xlink" x="0px" y="0px"
	 viewBox="0 0 1417.3 1417.3" style="enable-background:new 0 0 1417.3 1417.3;" xml:space="preserve">
<style type="text/css">
	.st0{fill:#FFFFFF;}
</style>
<rect x="0" width="1417.3" height="1417.7"/>
<g>
	<path class="st0" d="M928.6,612.5c-7.4-9.8-15.5-19.1-24.4-28c-8.8-8.9-18.7-16.8-29.5-23.7c-10.8-6.9-23-12.4-36.4-16.4
		c-13.4-4-28.4-6-44.9-6c-30.2,0-56.3,6.3-78.3,19c-22,12.7-38.9,30.7-50.9,54.3c-20-24.1-42.2-42.4-66.8-54.7
		c-24.5-12.4-52.5-18.5-83.9-18.5c-48.5,0-86.4,14.3-113.8,42.8c-27.4,28.5-41.1,70.5-41.1,125.8v298.7h130.1V750.4
		c0-30.7,6.6-53.9,19.7-69.6c13.1-15.6,32-23.5,56.5-23.5c24.5,0,43.8,7.8,57.8,23.5c14,15.6,21,38.8,21,69.6v255.3h130.1V750.4
		c0-30.7,6.6-53.9,19.7-69.6c13.1-15.6,32-23.5,56.5-23.5c24.5,0,43.8,7.8,57.8,23.5c14,15.6,21,38.8,21,69.6v255.3h130.1V546.9
		H928.6V612.5z"/>
</g>
<path class="st0" d="M928.6,362.1h130.1v109.8H928.6V362.1z"/>
</svg>
