<?xml version="1.0" encoding="utf-8"?>
<!-- Generator: Adobe Illustrator 22.0.1, SVG Export Plug-In . SVG Version: 6.00 Build 0)  -->
<svg version="1.1" id="Layer_1" xmlns="http://www.w3.org/2000/svg" xmlns:xlink="http://www.w3.org/1999/xlink" x="0px" y="0px"
	 viewBox="0 0 1417.3 1417.3" style="enable-background:new 0 0 1417.3 1417.3;" xml:space="preserve">
<style type="text/css">
	.st0{fill:#191A23;}
	.st1{fill:#F26737;}
	.st2{fill:#FBF8E7;}
</style>
<rect x="0" class="st0" width="1417.3" height="1417.7"/>
<g>
	<g>
		<path class="st1" d="M1294.2,589c0.8,3.9,1.9,8.8,3.3,14.6c1.7,5.8,3.3,12.4,5.2,19.8c4.1,14.9,9.6,32.5,16.8,52.6
			c0.8,2.5,1.9,5,2.8,7.7c1.1,2.5,1.9,5.2,3,7.7c1.1,2.8,2.2,5.2,3,8c0.6,1.4,1.1,2.8,1.7,4.1c0.6,1.4,1.1,2.8,1.7,4.1
			c2.5,5.5,4.7,11,7.4,16.8c2.5,5.8,5.2,11.6,8.3,17.4c1.4,3,2.8,6.1,4.4,9.1c1.7,3,3,6.1,4.7,9.1c1.7,3,3,6.1,4.7,9.1l1.1,2.2
			l1.4,2.2c0.8,1.7,1.7,3,2.5,4.7c1.7,3,3.6,6.3,5.2,9.4c0.8,1.7,1.7,3,2.8,4.7c0.8,1.7,1.9,3,2.8,4.7c1.9,3,3.9,6.3,5.8,9.4
			c1.9,3.3,3.9,6.3,5.8,9.6c4.1,6.3,8.3,12.9,12.4,19.3c4.4,6.3,8.8,12.9,13.2,19.3c4.7,6.3,9.4,12.9,14,19.3
			c5,6.3,9.9,12.9,15.2,19.3c2.5,3.3,5.2,6.3,7.7,9.6c2.8,3.3,5.2,6.3,8,9.6c2.8,3,5.5,6.3,8.3,9.4c2.8,3,5.5,6.3,8.3,9.4
			c11.3,12.7,23.1,25.1,35.3,37.2c3,3,6.1,6.1,9.1,9.1s6.3,6.1,9.4,9.1c3,3,6.3,6.1,9.4,8.8c3.3,3,6.3,5.8,9.6,8.8l5,4.4
			c1.7,1.4,3.3,2.8,5,4.4c3.3,2.8,6.6,5.8,9.9,8.5c3.3,2.8,6.6,5.5,9.9,8.5l2.5,2.2l44.6-26.2c-2.2-1.7-4.1-3.3-6.3-5l-9.6-8
			c-3.3-2.8-6.3-5.2-9.6-8.3c-3-2.8-6.3-5.5-9.4-8.3c-1.7-1.4-3-2.8-4.7-4.1l-4.7-4.1c-3-2.8-6.1-5.5-9.1-8.5s-6.1-5.8-9.1-8.5
			c-3-2.8-6.1-5.8-8.8-8.5c-3-3-5.8-5.8-8.8-8.8c-11.6-11.6-22.9-23.4-33.6-35.3c-2.8-3-5.2-6.1-8-9.1c-2.8-3-5.2-6.1-8-9.1
			c-5.2-6.1-10.2-12.1-15.4-17.9c-5-6.1-9.6-12.1-14.6-17.9c-4.7-6.1-9.4-12.1-14-17.9c-4.4-6.1-8.8-12.1-13.2-17.9
			c-4.1-6.1-8.5-11.8-12.7-17.9c-4.1-5.8-8-11.8-11.8-17.6c-0.8-1.4-1.9-2.8-2.8-4.4c-0.8-1.4-1.9-3-2.8-4.4c-1.9-3-3.6-5.8-5.5-8.5
			c-3.6-5.8-6.9-11.3-10.5-17.1c-1.7-2.8-3.3-5.5-5-8.3c-1.7-2.8-3-5.5-4.7-8.3c-1.7-2.8-3-5.5-4.7-8c-1.4-2.8-3-5.2-4.4-8
			c-2.8-5.2-5.5-10.5-8.3-15.4c-0.6-1.4-1.4-2.5-1.9-3.9c-0.6-1.4-1.4-2.5-1.9-3.9c-1.4-2.5-2.5-5-3.6-7.4c-1.1-2.5-2.5-4.7-3.6-7.2
			c-1.1-2.5-2.5-4.7-3.6-6.9c-2.2-4.7-4.4-9.1-6.3-13.5c-1.1-2.2-1.9-4.4-3-6.3c-0.8-2.2-1.9-4.1-2.8-6.1c-1.9-4.1-3.6-8-5.2-11.6
			c-0.8-1.9-1.7-3.6-2.5-5.5c-0.8-1.7-1.4-3.6-2.2-5.2c-2.8-6.9-5.5-12.7-7.7-17.9c-2.2-5.5-3.9-9.9-5.5-13.8
			c-1.4-3.9-2.8-6.6-3.3-8.5c-0.8-1.9-1.1-3-1.1-3l-20.4,6.3c0,0,0.3,1.1,0.6,3C1292.8,581.8,1293.3,584.9,1294.2,589z"/>
		<g>
			<rect x="710.2" y="679.4" class="st1" width="448.5" height="54.5"/>
			<g>
				<g>
					<polygon class="st2" points="1133.3,573.6 1133.3,1364.4 979.3,1210.7 929.2,1261.1 1085.3,1417.3 1319.2,1417.3 1319.2,573.6 
											"/>
					<path class="st2" d="M1160.3,538.6l55.4-170.5c1.1-3,5.5-5.2,10.5-5.2c5,0,9.6,2.2,10.5,5.2l55.4,170.5v35h-132L1160.3,538.6
						L1160.3,538.6z"/>
					<g>
						<path class="st1" d="M1226.4,573.6l39.1-172.4c0.8-3,3.9-5.2,7.4-5.2c3.6,0,6.6,2.2,7.4,5.2l39.1,172.4H1226.4z"/>
						<path class="st1" d="M1133.3,573.6l39.1-172.4c0.8-3,3.9-5.2,7.4-5.2c3.6,0,6.6,2.2,7.4,5.2l39.1,172.4H1133.3z"/>
					</g>
					<g>
						<rect x="1133.3" y="696.7" class="st1" width="185.9" height="24"/>
						<rect x="1133.3" y="836.4" class="st1" width="185.9" height="24"/>
						<rect x="1133.3" y="975.8" class="st1" width="185.9" height="24"/>
					</g>
					<g>
						<g>
							<rect x="1265.8" y="613.3" class="st1" width="28.1" height="50.4"/>
							<rect x="1212.1" y="613.3" class="st1" width="28.1" height="50.4"/>
							<rect x="1158.6" y="613.3" class="st1" width="28.1" height="50.4"/>
						</g>
						<g>
							<rect x="1265.8" y="751.3" class="st1" width="28.1" height="50.4"/>
							<rect x="1212.1" y="751.3" class="st1" width="28.1" height="50.4"/>
							<rect x="1158.6" y="751.3" class="st1" width="28.1" height="50.4"/>
						</g>
						<g>
							<rect x="1265.8" y="889.3" class="st1" width="28.1" height="50.4"/>
							<rect x="1212.1" y="889.3" class="st1" width="28.1" height="50.4"/>
							<rect x="1158.6" y="889.3" class="st1" width="28.1" height="50.4"/>
						</g>
						<g>
							<rect x="1265.8" y="1027.3" class="st1" width="28.1" height="50.4"/>
							<rect x="1212.1" y="1027.3" class="st1" width="28.1" height="50.4"/>
							<rect x="1158.6" y="1027.3" class="st1" width="28.1" height="50.4"/>
						</g>
						<rect x="1133.3" y="1105.1" class="st1" width="185.9" height="24"/>
						<g>
							<rect x="1265.8" y="1156.6" class="st1" width="28.1" height="50.4"/>
							<rect x="1212.1" y="1156.6" class="st1" width="28.1" height="50.4"/>
							<rect x="1158.6" y="1156.6" class="st1" width="28.1" height="50.4"/>
						</g>
						<g>
							<rect x="1265.8" y="1224.7" class="st1" width="28.1" height="50.4"/>
							<rect x="1212.1" y="1224.7" class="st1" width="28.1" height="50.4"/>
							<rect x="1158.6" y="1224.7" class="st1" width="28.1" height="50.4"/>
						</g>
					</g>
					<polygon class="st1" points="1204.4,1417.3 1248.2,1417.3 1248.2,1326.7 1204.4,1326.7 					"/>
				</g>
			</g>
		</g>
	</g>
	<g>
		<path class="st1" d="M126.5,579.6c0.3-1.9,0.6-3,0.6-3l-20.4-6.3c0,0-0.3,1.1-1.1,3c-0.6,1.9-1.9,4.7-3.3,8.5
			c-1.7,3.9-3.3,8.3-5.5,13.8c-2.2,5.2-5,11-7.7,17.9c-0.8,1.7-1.4,3.6-2.2,5.2c-0.8,1.9-1.7,3.6-2.5,5.5c-1.7,3.6-3.3,7.4-5.2,11.6
			c-0.8,1.9-1.9,3.9-2.8,6.1c-1.1,1.9-1.9,4.1-3,6.3c-1.9,4.4-4.1,8.8-6.3,13.5c-1.1,2.2-2.5,4.4-3.6,6.9c-1.1,2.5-2.5,4.7-3.6,7.2
			c-1.1,2.5-2.2,5-3.6,7.4c-0.6,1.4-1.4,2.5-1.9,3.9c-0.6,1.4-1.4,2.5-1.9,3.9c-2.8,5-5.5,10.2-8.3,15.4c-1.4,2.8-3,5.2-4.4,8
			c-1.7,2.5-3,5.2-4.7,8c-1.7,2.8-3,5.5-4.7,8.3c-1.7,2.8-3.3,5.5-5,8.3c-3.6,5.8-6.9,11.3-10.5,17.1c-1.9,2.8-3.6,5.5-5.5,8.5
			c-0.8,1.4-1.9,3-2.8,4.4c-0.8,1.7-1.9,3-2.8,4.4C0,779.1-3.8,785.1-8,790.9c-4.1,6.1-8.5,11.8-12.7,17.9
			c-4.4,5.8-8.8,11.8-13.2,17.9c-4.7,5.8-9.4,11.8-14,17.9c-5,5.8-9.6,11.8-14.6,17.9c-5.2,5.8-10.2,11.8-15.4,17.9
			c-2.8,3-5.2,6.1-8,9.1c-2.8,3-5.2,6.1-8,9.1c-10.7,11.8-22,23.7-33.6,35.3c-3,3-5.8,5.8-8.8,8.8c-2.8,2.8-5.8,5.8-8.8,8.5
			c-3,2.8-6.1,5.5-9.1,8.5s-6.1,5.8-9.1,8.5l-4.7,4.1c-1.7,1.4-3,2.8-4.7,4.1c-3,2.8-6.3,5.5-9.4,8.3c-3.3,3-6.3,5.5-9.6,8.3l-9.6,8
			c-2.2,1.7-4.1,3.3-6.3,5l44.6,26.2l2.5-2.2c3.3-3,6.6-5.8,9.9-8.5c3.3-2.8,6.6-5.8,9.9-8.5c1.7-1.7,3.3-3,5-4.4l5-4.4
			c3.3-3,6.3-5.8,9.6-8.8c3-2.8,6.3-5.8,9.4-8.8c3-3,6.3-6.1,9.4-9.1s6.1-6.1,9.1-9.1c12.1-12.1,24-24.5,35.3-37.2
			c2.8-3,5.5-6.3,8.3-9.4c2.8-3,5.5-6.3,8.3-9.4c2.8-3.3,5.2-6.3,8-9.6c2.5-3.3,5.2-6.3,7.7-9.6c5.2-6.3,10.2-12.9,15.2-19.3
			c4.7-6.3,9.4-12.9,14-19.3c4.4-6.3,8.8-12.9,13.2-19.3c4.1-6.3,8.3-12.9,12.4-19.3c1.9-3.3,3.9-6.3,5.8-9.6c1.9-3,3.9-6.3,5.8-9.4
			c0.8-1.7,1.9-3,2.8-4.7c1.1-1.7,1.9-3,2.8-4.7c1.7-3,3.6-6.3,5.2-9.4c0.8-1.7,1.7-3,2.5-4.7l1.4-2.2l1.1-2.2c1.7-3,3-6.1,4.7-9.1
			c1.7-3,3-6.1,4.7-9.1s3-6.1,4.4-9.1c3-5.8,5.8-11.6,8.3-17.4c2.8-5.8,5-11.3,7.4-16.8c0.6-1.4,1.1-2.8,1.7-4.1
			c0.6-1.4,1.1-2.8,1.7-4.1c0.8-2.8,1.9-5.2,3-8c1.1-2.5,1.9-5.2,3-7.7c0.8-2.8,1.9-5.2,2.8-7.7c7.2-20.1,12.7-37.7,16.8-52.6
			c1.9-7.4,3.6-14,5.2-19.8c1.4-5.8,2.5-10.7,3.3-14.6C124,584.9,124.5,581.8,126.5,579.6z"/>
		<g>
			<rect x="258.7" y="679.4" class="st1" width="448.5" height="54.5"/>
			<g>
				<g>
					<polygon class="st2" points="284,573.6 284,1364.4 438,1210.7 488.1,1261.1 332,1417.3 98.1,1417.3 98.1,573.6 					"/>
					<path class="st2" d="M257,538.6l0.3,35h-132v-35l55.4-170.5c0.8-3,5.5-5.2,10.5-5.2c5,0,9.4,2.2,10.5,5.2L257,538.6L257,538.6z
						"/>
					<g>
						<path class="st1" d="M97.8,573.6l39.1-172.4c0.8-3,3.9-5.2,7.4-5.2s6.6,2.2,7.4,5.2l39.1,172.4H97.8z"/>
						<path class="st1" d="M190.9,573.6L230,401.1c0.8-3,3.9-5.2,7.4-5.2s6.6,2.2,7.4,5.2L284,573.6H190.9z"/>
					</g>
					<g>
						<rect x="98.1" y="696.7" class="st1" width="185.9" height="24"/>
						<rect x="98.1" y="836.4" class="st1" width="185.9" height="24"/>
						<rect x="98.1" y="975.8" class="st1" width="185.9" height="24"/>
					</g>
					<g>
						<g>
							<rect x="123.4" y="613.3" class="st1" width="28.1" height="50.4"/>
							<rect x="177.1" y="613.3" class="st1" width="28.1" height="50.4"/>
							<rect x="230.6" y="613.3" class="st1" width="28.1" height="50.4"/>
						</g>
						<g>
							<rect x="123.4" y="751.3" class="st1" width="28.1" height="50.4"/>
							<rect x="177.1" y="751.3" class="st1" width="28.1" height="50.4"/>
							<rect x="230.6" y="751.3" class="st1" width="28.1" height="50.4"/>
						</g>
						<g>
							<rect x="123.4" y="889.3" class="st1" width="28.1" height="50.4"/>
							<rect x="177.1" y="889.3" class="st1" width="28.1" height="50.4"/>
							<rect x="230.6" y="889.3" class="st1" width="28.1" height="50.4"/>
						</g>
						<g>
							<rect x="123.4" y="1027.3" class="st1" width="28.1" height="50.4"/>
							<rect x="177.1" y="1027.3" class="st1" width="28.1" height="50.4"/>
							<rect x="230.6" y="1027.3" class="st1" width="28.1" height="50.4"/>
						</g>
						<rect x="98.1" y="1105.1" class="st1" width="185.9" height="24"/>
						<g>
							<rect x="123.4" y="1156.6" class="st1" width="28.1" height="50.4"/>
							<rect x="177.1" y="1156.6" class="st1" width="28.1" height="50.4"/>
							<rect x="230.6" y="1156.6" class="st1" width="28.1" height="50.4"/>
						</g>
						<g>
							<rect x="123.4" y="1224.7" class="st1" width="28.1" height="50.4"/>
							<rect x="177.1" y="1224.7" class="st1" width="28.1" height="50.4"/>
							<rect x="230.6" y="1224.7" class="st1" width="28.1" height="50.4"/>
						</g>
					</g>
					<polygon class="st1" points="212.9,1326.7 169.1,1326.7 169.1,1417.3 212.9,1417.3 					"/>
				</g>
			</g>
		</g>
	</g>
</g>
<g>
	<g>
		<g>
			<polygon class="st2" points="899.3,785.3 866.2,785.3 866.2,666.3 551.1,666.3 551.1,785.3 518,785.3 518,1096.9 551.1,1096.9 
				551.1,1417.3 710.9,1417.3 866.2,1417.3 866.2,1096.9 899.3,1096.9 			"/>
			<rect x="615" y="491.4" class="st2" width="187.3" height="70"/>
			<path class="st1" d="M615,491.4c0,0,59.5-59.5,83.2-276c0-0.6,20.9-0.6,20.9-0.6c35.8,224,83.2,276.6,83.2,276.6H615L615,491.4z"
				/>
			<path class="st1" d="M802.3,561.4h-28.9v-52.6h-29.8v52.6h-20.1v-52.6h-29.8v52.6h-20.1v-52.6h-29.8v52.6H615
				c0,70-63.9,105-63.9,105h314.9C866.2,666.3,802.3,631.4,802.3,561.4z"/>
			<polygon class="st1" points="827.9,768.3 827.9,710.1 798.5,710.1 798.5,768.3 775.9,768.3 775.9,710.1 746.1,710.1 746.1,768.3 
				723.5,768.3 723.5,710.1 693.8,710.1 693.8,768.3 671.2,768.3 671.2,710.1 641.4,710.1 641.4,768.3 618.8,768.3 618.8,710.1 
				589.4,710.1 589.4,768.3 551.1,768.3 551.1,785.3 866.2,785.3 866.2,768.3 			"/>
			<g>
				<circle class="st1" cx="708.7" cy="941" r="123.4"/>
				<path class="st2" d="M708.7,951.5h-48.5c-5.8,0-10.5-4.7-10.5-10.5s4.7-10.5,10.5-10.5h38v-73.3c0-5.8,4.7-10.5,10.5-10.5
					c5.8,0,10.5,4.7,10.5,10.5V941C719.1,946.8,714.4,951.5,708.7,951.5z"/>
			</g>
		</g>
	</g>
	<polygon class="st1" points="866.2,1096.9 551.1,1096.9 551.1,1145.9 573.1,1145.9 573.1,1417.3 594.1,1417.3 594.1,1145.9 
		614.7,1145.9 614.7,1417.3 635.6,1417.3 635.6,1145.9 656.3,1145.9 656.3,1417.3 677.5,1417.3 677.5,1145.9 698.2,1145.9 
		698.2,1417.3 710.9,1417.3 719.1,1417.3 719.1,1145.9 739.8,1145.9 739.8,1417.3 760.7,1417.3 760.7,1145.9 781.7,1145.9 
		781.7,1417.3 802.6,1417.3 802.6,1145.9 823.2,1145.9 823.2,1417.3 844.2,1417.3 844.2,1145.9 866.2,1145.9 	"/>
</g>
</svg>
