<?xml version="1.0" encoding="utf-8"?>
<!-- Generator: Adobe Illustrator 26.0.1, SVG Export Plug-In . SVG Version: 6.00 Build 0)  -->
<svg version="1.1" id="Layer_1" xmlns="http://www.w3.org/2000/svg" xmlns:xlink="http://www.w3.org/1999/xlink" x="0px" y="0px"
	 viewBox="0 0 1417.3 1417.3" style="enable-background:new 0 0 1417.3 1417.3;" xml:space="preserve">
<style type="text/css">
	.st0{fill:#B90054;}
	.st1{fill:#FF0079;}
	.st2{fill:#FFFFFF;}
</style>
<g>
	<path class="st0" d="M0,981.5V1216c0,111.2,90.1,201.3,201.3,201.3H1216c111.2,0,201.3-90.1,201.3-201.3V981.5H0z"/>
	<path class="st1" d="M1216,0H201.3C90.1,0,0,90.1,0,201.3v848.8c0,111.2,90.1,201.3,201.3,201.3H1216
		c111.2,0,201.3-90.1,201.3-201.3V201.3C1417.3,90.1,1327.2,0,1216,0z"/>
	<g>
		<path class="st0" d="M1162.9,646.8c0,176.5-92,248.1-205.4,248.1s-205.4-71.6-205.4-248.1"/>
		<path class="st2" d="M1194.7,644.9c0,152.3-106.2,214-237.2,214s-237.2-61.7-237.2-214s106.2-237.4,237.2-237.4
			S1194.7,492.7,1194.7,644.9z"/>
		<g>
			<path d="M1016.2,636.1c0,37.7-26.3,52.9-58.7,52.9c-32.4,0-58.7-15.3-58.7-52.9s26.3-58.7,58.7-58.7
				C989.9,577.4,1016.2,598.5,1016.2,636.1z"/>
			<path class="st2" d="M992.5,616.8c0,13.9-9.7,19.6-21.7,19.6s-21.7-5.6-21.7-19.6s9.7-21.7,21.7-21.7S992.5,602.9,992.5,616.8z"
				/>
		</g>
	</g>
	<g>
		<path class="st0" d="M656.2,646.8c0,176.5-92,248.1-205.4,248.1s-205.4-71.6-205.4-248.1"/>
		<path class="st2" d="M688,644.9c0,152.3-106.2,214-237.2,214s-237.2-61.7-237.2-214s106.2-237.4,237.2-237.4S688,492.7,688,644.9z
			"/>
		<g>
			<path d="M509.4,636.1c0,37.7-26.3,52.9-58.7,52.9s-58.7-15.3-58.7-52.9s26.3-58.7,58.7-58.7S509.4,598.5,509.4,636.1z"/>
			<path class="st2" d="M485.8,616.8c0,13.9-9.7,19.6-21.7,19.6s-21.7-5.6-21.7-19.6s9.7-21.7,21.7-21.7S485.8,602.9,485.8,616.8z"
				/>
		</g>
	</g>
	<path class="st0" d="M591,954h228c32,0,46.1,40.2,21.2,60.2l0,0c-76.5,61.5-184.9,63.6-263.7,5l-5.7-4.2
		C544.6,995.6,558.4,954,591,954z"/>
	<path class="st0" d="M1037.5,337.6c-38.4-26-76.9-35.7-120.4-22.8c-13.8,4.1-27.7,10.9-44.2,21.7c-6.5,5-16,3.7-20.5-3.2
		c-1.7-2.6-2.4-5.5-2.3-8.4c1.3-24,14.8-46.9,34.3-63.1c39.5-33.7,104.3-34.2,144.4-1.1c19.9,16,34,38.8,35.9,63
		c0.7,9.1-6.1,17.1-15.2,17.8C1045,341.9,1041,340.2,1037.5,337.6L1037.5,337.6z"/>
	<path class="st0" d="M530.8,337.6c-38.4-26-76.9-35.7-120.4-22.8c-13.8,4.1-27.7,10.9-44.2,21.7c-6.5,5-16,3.7-20.5-3.2
		c-1.7-2.6-2.4-5.5-2.3-8.4c1.3-24,14.8-46.9,34.3-63.1c39.5-33.7,104.3-34.2,144.4-1.1c19.9,16,34,38.8,35.9,63
		c0.7,9.1-6.1,17.1-15.2,17.8C538.3,341.9,534.3,340.2,530.8,337.6L530.8,337.6z"/>
</g>
</svg>
