<?xml version="1.0" encoding="utf-8"?>
<!-- Generator: Adobe Illustrator 22.0.1, SVG Export Plug-In . SVG Version: 6.00 Build 0)  -->
<svg version="1.1" id="Layer_1" xmlns="http://www.w3.org/2000/svg" xmlns:xlink="http://www.w3.org/1999/xlink" x="0px" y="0px"
	 viewBox="0 0 1417.3 1417.3" style="enable-background:new 0 0 1417.3 1417.3;" xml:space="preserve">
<style type="text/css">
	.st0{fill:#222222;}
	.st1{fill:#29DC83;}
	.st2{fill:#10B25D;}
	.st3{fill:#E75F5B;}
	.st4{fill:#BA3A3A;}
</style>
<rect x="1" y="0.4" class="st0" width="1417.3" height="1417.3"/>
<g>
	<g>
		<circle class="st1" cx="452" cy="708.7" r="291.7"/>
		<g>
			<circle class="st2" cx="361.1" cy="648.2" r="24.9"/>
			<circle class="st2" cx="543" cy="648.2" r="24.9"/>
			<path class="st2" d="M565.1,786.7c-4.8-5.5-13.1-6.1-18.6-1.4c-0.3,0.3-31.4,26.1-94.4,26.1c-63.1,0-94.1-25.9-94.4-26.1
				c-5.5-4.8-13.8-4.3-18.6,1.2c-4.8,5.5-4.3,13.8,1.2,18.6c1.5,1.3,38.1,32.6,111.8,32.6c73.7,0,110.3-31.3,111.8-32.6
				C569.3,800.5,569.8,792.2,565.1,786.7z"/>
		</g>
	</g>
	<g>
		<circle class="st3" cx="965.3" cy="708.7" r="291.7"/>
		<g>
			<circle class="st4" cx="874.3" cy="648.2" r="24.9"/>
			<circle class="st4" cx="1056.2" cy="648.2" r="24.9"/>
			<path class="st4" d="M1077,814.7c-1.5-1.3-38.1-32.6-111.8-32.6S855,813.4,853.4,814.7c-5.5,4.8-6,13.2-1.2,18.6
				c4.8,5.5,13.2,6,18.6,1.2c0.2-0.2,31.3-26.1,94.4-26.1s94.1,25.9,94.4,26.1c5.5,4.7,13.9,4.1,18.6-1.4
				C1083,827.8,1082.5,819.5,1077,814.7z"/>
		</g>
	</g>
</g>
</svg>
