<?xml version="1.0" encoding="utf-8"?>
<!-- Generator: Adobe Illustrator 22.0.1, SVG Export Plug-In . SVG Version: 6.00 Build 0)  -->
<svg version="1.1" id="Layer_1" xmlns="http://www.w3.org/2000/svg" xmlns:xlink="http://www.w3.org/1999/xlink" x="0px" y="0px"
	 viewBox="0 0 1417.3 1417.3" style="enable-background:new 0 0 1417.3 1417.3;" xml:space="preserve">
<style type="text/css">
	.st0{fill:#E56A2C;}
	.st1{opacity:0.4;fill:#FFFFFF;enable-background:new    ;}
	.st2{fill:#FFFFFF;}
</style>
<rect y="0" class="st0" width="1417.3" height="1417.3"/>
<g>
	<g>
		<path class="st1" d="M290,559.2c40.2-30.5,97.8-88.1,128.6-128.3s94.1-56.9,140.5-37.6c46.5,19.3,125.7,40.5,175.9,46.8
			c50.2,6.7,96.3,52.8,103,102.6c6.7,49.8,27.9,128.6,47.2,175.1c19.3,46.5,2.2,109.3-37.6,140.2C808,889,750,946.2,719.1,986.4
			c-30.9,40.2-94.1,56.9-140.5,37.6c-46.5-19.3-125.7-40.5-175.9-46.8c-50.2-6.7-96.3-52.8-103-102.6
			c-6.7-49.8-27.9-128.6-47.2-175.1C233.1,652.5,249.9,589.7,290,559.2z"/>
		<path class="st2" d="M569.6,559.2c40.2-30.5,97.8-88.1,128.6-128.3c30.9-39.8,94.1-56.9,140.5-37.6
			c46.5,19.3,125.7,40.5,175.9,46.8c50.2,6.7,96.3,52.8,103,102.6c6.7,49.8,27.9,128.6,47.2,175.1c19.3,46.5,2.2,109.3-37.6,140.2
			c-40.2,30.5-97.8,88.1-128.6,128.3c-30.9,39.8-94.1,56.9-140.5,37.6c-46.5-19.3-125.7-40.5-175.9-46.8
			c-50.2-6.7-96.3-52.8-103-102.6c-6.7-49.8-27.9-128.6-47.2-175.1C512.7,652.5,529.5,589.7,569.6,559.2z"/>
	</g>
</g>
</svg>
